<?xml version="1.0" encoding="UTF-8"?>
<svg xmlns="http://www.w3.org/2000/svg" viewBox="0 0 800 800">
  <defs>
    <style>
      .cls-1 {
        fill: #899194;
      }

      .cls-2, .cls-3 {
        fill: #fff;
      }

      .cls-3, .cls-4 {
        font-family: Heavitas, Heavitas;
        font-size: 270px;
      }

      .cls-5 {
        isolation: isolate;
      }

      .cls-6 {
        fill: #434c54;
      }

      .cls-7 {
        letter-spacing: -.03em;
      }

      .cls-8 {
        fill: #7a7f84;
      }

      .cls-9 {
        letter-spacing: -.02em;
      }

      .cls-10 {
        fill: #5a666d;
      }

      .cls-11 {
        fill: #b3b3b3;
      }

      .cls-12 {
        fill: none;
        stroke: #262b2f;
        stroke-width: 6px;
      }

      .cls-13 {
        mix-blend-mode: multiply;
        opacity: .5;
      }
    </style>
  </defs>
  <g class="cls-5">
    <g id="Calque_1" data-name="Calque 1">
      <rect class="cls-11" width="800" height="800" rx="49.55" ry="49.55"/>
      <g>
        <text class="cls-4" transform="translate(107.54 750.24)"><tspan class="cls-9" x="0" y="0">A</tspan><tspan class="cls-7" x="205.47" y="0">L</tspan><tspan x="363.15" y="0">U</tspan></text>
        <text class="cls-3" transform="translate(107.54 750.24)"><tspan class="cls-9" x="0" y="0">A</tspan><tspan class="cls-7" x="205.47" y="0">L</tspan><tspan x="363.15" y="0">U</tspan></text>
        <g class="cls-13">
          <g>
            <path class="cls-12" d="M239.07,557.59c-.95-2.12-2.52-3.95-4.69-5.44-2.21-1.51-4.55-2.28-6.96-2.28h-37.8c-2.58,0-5.02.77-7.23,2.28-2.17,1.49-3.75,3.32-4.71,5.48l-78.27,182.72c-.97,1.98-1.32,3.84-1.04,5.53.27,1.64.92,3.04,1.92,4.18.97,1.1,2.2,1.93,3.66,2.46,1.31.48,2.61.72,3.87.72h46.44c2.41,0,4.75-.77,6.96-2.28,2.16-1.48,3.74-3.31,4.67-5.39l7.58-16.25c.49-1.11,1.34-2.06,2.59-2.92,1.21-.83,2.47-1.23,3.84-1.23h56.97c1.19,0,2.36.4,3.57,1.23,1.3.89,2.26,1.9,2.93,3.07l7.29,16.19.06.11c1.13,2.03,2.76,3.78,4.84,5.2,2.21,1.51,4.64,2.28,7.23,2.28h46.17c5.04,0,7.37-2.31,8.43-4.26,1.82-3.31,1.28-6.06.53-7.76l-78.86-183.64ZM221.85,672.8c-.09.13-.32.46-1.45.46h-24.03c-.95,0-1.41-.19-1.5-.33-.17-.27-.1-.74.22-1.46l13.16-31.84c2.07,4.99,4.29,10.34,6.68,16.06,2.5,5.99,4.68,11.29,6.46,15.75l.07.17.09.16c.07.13.44.81.29,1.02Z"/>
            <path class="cls-12" d="M468.53,697.56h-81.27c-1.48,0-2.12-.5-2.53-.94-.65-.69-.95-1.5-.95-2.54v-135c0-2.57-.96-4.89-2.77-6.71-1.81-1.81-4.13-2.77-6.71-2.77h-40.5c-2.8,0-5.19.98-6.92,2.85-1.7,1.83-2.56,4.06-2.56,6.63v184.68c0,2.58.86,4.81,2.55,6.63,1.73,1.87,4.12,2.85,6.93,2.85h134.73c2.58,0,4.9-.96,6.71-2.77,1.81-1.81,2.77-4.13,2.77-6.71v-36.72c0-2.57-.96-4.89-2.77-6.71-1.81-1.81-4.13-2.77-6.71-2.77Z"/>
            <path class="cls-12" d="M657.78,552.64c-1.81-1.81-4.12-2.77-6.69-2.77h-40.57c-2.57,0-4.89.96-6.7,2.78-1.8,1.81-2.75,4.13-2.75,6.7v109.35c0,6.52-1.04,11.94-3.08,16.09-2.06,4.18-4.57,7.47-7.46,9.79-2.92,2.35-6.12,4.02-9.52,4.99-3.51,1-6.7,1.51-9.48,1.51s-5.97-.51-9.48-1.51c-3.41-.97-6.67-2.66-9.69-5.01-2.96-2.31-5.51-5.6-7.56-9.76-2.04-4.15-3.08-9.56-3.08-16.09v-109.35c0-2.57-.95-4.89-2.76-6.71-1.81-1.81-4.12-2.77-6.69-2.77h-40.57c-2.57,0-4.89.96-6.7,2.78-1.8,1.81-2.75,4.13-2.75,6.7v109.35c0,13.11,2.16,25.2,6.41,35.93,4.27,10.79,10.4,20.14,18.22,27.77,7.8,7.63,17.31,13.62,28.25,17.8,10.9,4.16,23.14,6.27,36.39,6.27s25.49-2.11,36.38-6.27c10.94-4.18,20.45-10.17,28.26-17.8,7.82-7.65,13.91-17,18.08-27.79,4.16-10.74,6.27-22.82,6.27-35.91v-109.35c0-2.57-.95-4.89-2.76-6.71Z"/>
          </g>
        </g>
      </g>
      <g>
        <g>
          <path class="cls-10" d="M764.21,288.95l.37,46.25c0,2.38-2.67,6.86-6.49,9.06-14.03,8.04-39.05,18.82-53.34,25.7-39.08,18.82-78.18,37.66-117.26,56.51-56.88,27.4-113.75,54.81-170.63,82.19-7.38,3.3-14.47,4.71-21.36,4.74v-49.97c6.91-.05,14.03-1.44,21.46-4.66,57.22-26.93,114.43-53.87,171.65-80.77,40.18-18.9,80.3-35.05,120.45-53.94,13.72-6.44,40.49-15.78,51.22-26.85,2.72-2.8,3.93-5.55,3.93-8.24Z"/>
          <path class="cls-8" d="M764.21,288.8v.16c0,2.7-1.2,5.44-3.93,8.24-10.73,11.07-37.51,20.42-51.22,26.85-40.15,18.9-80.28,35.05-120.45,53.94-57.22,26.91-114.43,53.84-171.65,80.77-7.43,3.22-14.55,4.61-21.46,4.66-17.09.08-32.98-7.96-49.26-16.2-82.68-41.88-163.09-77.24-245.75-119.12-15.31-7.75-62.9-25.6-64.39-43.48-.37-4.34,1.99-8.66,8.14-12.85,17.38-11.83,43.92-17.35,63.34-25.02,40.1-15.84,80.2-31.7,120.3-47.53,52.11-20.57,107.05-50.73,161.76-63.58,23.58-5.52,42.32,4.21,63.63,13.22,77.89,32.9,155.79,65.8,233.68,98.7,13.74,5.78,76.93,21.86,77.27,41.22Z"/>
          <path class="cls-1" d="M395.49,463.43v49.97h-.26c-16.88,0-32.59-8.17-48.61-16.49-82.19-42.61-169.22-81.45-251.38-121.94-13.4-6.94-57.27-23.29-58.11-40.7l-1.07-49.63h.03c1.49,17.88,49.08,35.73,64.39,43.48,82.66,41.88,163.06,77.24,245.75,119.12,16.28,8.24,32.17,16.28,49.26,16.2Z"/>
        </g>
        <g>
          <path class="cls-6" d="M769.44,288.95l.36,46.21c0,4.73-4,10.7-9.11,13.64-9.9,5.68-24.88,12.56-38.09,18.62-5.79,2.66-11.2,5.14-15.58,7.26-39.08,18.81-78.19,37.66-117.26,56.51-56.88,27.4-113.76,54.81-170.63,82.19-7.79,3.48-15.68,5.22-23.61,5.25h-.29c-15.34,0-29.64-6.19-43.45-13.18l5.64-8.88c12.72,6.4,25.02,11.59,37.81,11.59,6.79-.03,13.09-1.43,19.49-4.29,56.73-27.32,113.61-54.72,170.49-82.12,39.07-18.85,78.18-37.69,117.26-56.51,4.44-2.14,9.9-4.65,15.77-7.35,13.01-5.97,27.76-12.75,37.24-18.18,2.24-1.28,3.72-3.88,3.87-4.71l-.25-29.86c1.84-1.39,3.5-2.82,4.93-4.3,3.58-3.69,5.4-7.69,5.4-11.89Z"/>
          <polygon class="cls-6" points="769.44 288.79 769.44 288.95 760.07 288.95 763.96 288.8 764.21 288.79 764.51 288.79 769.44 288.79"/>
          <path class="cls-6" d="M769.44,288.71l-4.93.09h-.55s-5,.1-5,.1c-.2-11.75-43.82-26.21-60.24-31.65-6.06-2.01-10.86-3.59-13.82-4.85l-135.92-57.41,5.69-8.96,134.3,56.72c2.58,1.09,7.43,2.7,13.05,4.56,35.35,11.71,67.11,23.7,67.42,41.4Z"/>
          <path class="cls-6" d="M760.07,288.95h9.37c0,4.2-1.82,8.2-5.4,11.89-1.43,1.48-3.09,2.91-4.93,4.3l-.14-16.15,1.1-.04Z"/>
          <path class="cls-6" d="M760.07,288.95l-1.1.04v-.04h1.1Z"/>
          <path class="cls-6" d="M758.97,289l.14,16.15c-9.68,7.33-24.33,13.54-36.51,18.7-4.2,1.79-8.17,3.48-11.32,4.95-20.18,9.5-40.67,18.43-60.48,27.08-19.66,8.58-39.99,17.46-59.97,26.86-57.22,26.91-114.44,53.84-171.65,80.78-7.92,3.42-15.61,5.09-23.66,5.16h-.27c-6.3,0-12.42-1.02-18.42-2.67l5.9-9.28c4.13.95,8.28,1.49,12.49,1.49h.24c6.6-.05,12.95-1.43,19.4-4.22,57.06-26.87,114.29-53.8,171.5-80.71,20.11-9.46,40.52-18.36,60.25-26.98,19.73-8.62,40.15-17.53,60.2-26.96,3.34-1.56,7.39-3.28,11.69-5.11,12.89-5.47,30.55-12.95,38-20.65,1.6-1.65,2.43-3.19,2.45-4.56Z"/>
          <polygon class="cls-6" points="531.91 176.41 554.67 186.03 548.98 194.99 525.88 185.22 531.91 176.41"/>
          <path class="cls-11" d="M525.88,185.22l23.1,9.77-166.24,261.72c-11.07-2.53-21.98-7.99-33.32-13.73l176.45-257.75Z"/>
          <path class="cls-6" d="M455.3,144.04l76.62,32.37-6.03,8.81-74.66-31.53c-2.05-.87-4.09-1.74-6.1-2.61-3.34-1.43-6.59-2.85-9.8-4.14l6.89-8.49c2.34.98,4.68,2,7.05,3.02,1.99.86,4,1.72,6.03,2.58Z"/>
          <path class="cls-6" d="M442.22,138.45l-6.89,8.49c-14.69-5.98-28.39-9.97-44.51-6.19-36.39,8.55-73.32,25.05-109.06,41.02-1.24.56-2.47,1.1-3.72,1.66l17.04-19.04c30.64-13.52,62.02-26.46,93.35-33.83,20.2-4.74,36.84.8,53.78,7.89Z"/>
          <path class="cls-11" d="M435.33,146.94l-196.56,242.23c-4.36-2.06-8.71-4.12-13.04-6.17-28.92-13.7-58.56-27.73-88.33-42.36l140.64-157.22c1.25-.56,2.48-1.1,3.72-1.66,35.74-15.97,72.67-32.47,109.06-41.02,16.12-3.78,29.82.21,44.51,6.19Z"/>
          <path class="cls-6" d="M382.75,456.71l-5.9,9.28c-11.4-3.17-22.3-8.7-32.98-14.1-.14-.06-.27-.14-.41-.2l5.97-8.72c11.34,5.74,22.25,11.2,33.32,13.73Z"/>
          <path class="cls-6" d="M357.42,496.57l-5.64,8.88c-2.52-1.27-5.04-2.58-7.53-3.87-8.56-4.44-17.2-8.85-25.88-13.23l5.96-8.71c8.29,4.17,16.54,8.39,24.71,12.62,2.82,1.47,5.62,2.92,8.39,4.31Z"/>
          <path class="cls-6" d="M349.43,442.98l-5.97,8.72c-37.43-18.94-74.97-36.84-111.48-54.14l6.79-8.37c35.99,17.07,72.95,34.71,109.83,53.38l.83.42Z"/>
          <path class="cls-6" d="M324.33,479.64l-5.96,8.71c-37.91-19.1-76.8-37.63-114.89-55.69l6.79-8.36c37.84,17.95,76.42,36.36,114.05,55.35Z"/>
          <path class="cls-6" d="M295.08,164.39l-17.04,19.04c-11.58,5.18-23.4,10.43-35.06,15.31,6.3-6.83,12.16-13.2,17.46-18.93,5.6-2.47,11.27-5.01,17.06-7.59,5.83-2.6,11.69-5.22,17.58-7.82Z"/>
          <path class="cls-6" d="M225.95,194.36c11.41-4.5,22.79-9.4,34.48-14.56-5.29,5.73-11.16,12.1-17.46,18.93-4.43,1.85-8.82,3.65-13.19,5.37l-28.9,11.42,16.81-17.91,8.25-3.26Z"/>
          <path class="cls-6" d="M238.77,389.17l-6.79,8.37c-3.59-1.7-7.17-3.39-10.73-5.08-29.81-14.12-60.38-28.6-91.1-43.71l7.25-8.11c29.77,14.62,59.41,28.65,88.33,42.36,4.33,2.05,8.67,4.11,13.04,6.17Z"/>
          <path class="cls-11" d="M229.79,204.1c4.36-1.72,8.76-3.52,13.19-5.37-34.67,37.59-82.77,89.68-123.23,133.19-5.64-2.8-11.27-5.63-16.9-8.48-.7-.34-1.44-.72-2.26-1.1l100.3-106.81,28.9-11.42Z"/>
          <path class="cls-6" d="M217.71,197.62l-16.81,17.91-91.4,36.11c-6.45,2.55-13.46,4.79-20.88,7.18-14.91,4.78-30.31,9.72-41.44,17.3-3.89,2.66-5.88,5.24-5.88,7.69h-.02v-.07l-10.44.36c-.15-6.2,3.36-11.8,10.45-16.63,12.38-8.42,28.52-13.61,44.13-18.61,7.25-2.33,14.11-4.52,20.24-6.95l112.05-44.27Z"/>
          <path class="cls-6" d="M210.27,424.29l-6.79,8.36c-3.84-1.82-7.67-3.64-11.49-5.44-30.5-14.45-61.98-29.36-92.4-44.28l7.25-8.11c29.5,14.43,60.03,28.9,89.63,42.93,4.59,2.17,9.19,4.35,13.8,6.54Z"/>
          <path class="cls-6" d="M137.4,340.65l-7.25,8.11c-5.94-2.91-11.88-5.86-17.83-8.82,2.44-2.63,4.93-5.31,7.43-8.01,5.88,2.94,11.77,5.85,17.65,8.73Z"/>
          <path class="cls-6" d="M119.75,331.92c-2.5,2.71-5,5.38-7.43,8.01-4.74-2.36-9.47-4.75-14.2-7.14-1.4-.71-3.11-1.52-5.06-2.43l7.54-8.02c.81.39,1.56.76,2.26,1.1,5.63,2.86,11.26,5.68,16.9,8.48Z"/>
          <path class="cls-6" d="M106.84,374.82l-7.25,8.11c-2.22-1.09-4.44-2.18-6.65-3.27-2.37-1.23-5.7-2.75-9.55-4.5-.92-.42-1.84-.84-2.76-1.27,2.43-2.59,4.94-5.27,7.55-8.05,3.79,1.73,7.07,3.24,9.48,4.49,3.05,1.5,6.12,3.01,9.19,4.5Z"/>
          <path class="cls-6" d="M100.6,322.34l-7.54,8.02c-1.69-.77-3.54-1.62-5.53-2.51-18.2-8.26-35.29-16.51-45.84-25.56l-.39-17.83-.02-.65h.02c0,.13.01.27.02.4.96,11.64,34.44,26.81,50.53,34.11,3.31,1.5,6.28,2.85,8.75,4.03Z"/>
          <path class="cls-6" d="M87.74,365.62c.15.06.3.14.44.2-2.61,2.78-5.12,5.47-7.55,8.05-6.73-3.1-13.34-6.28-19.43-9.58l7.4-7.89c7.01,3.67,14.04,6.89,19.15,9.22Z"/>
          <path class="cls-6" d="M68.6,356.4l-7.4,7.89c-16.25-8.81-28.74-18.48-29.27-29.78l-1.1-50.43h.02c0,.33.01.65.04.98.51,6.13,4.49,11.81,10.8,17.21l.7,31.86c.34,7.12,13.23,15.47,26.22,22.26Z"/>
          <path class="cls-6" d="M41.3,284.45l.39,17.83c-6.31-5.4-10.29-11.08-10.8-17.21-.03-.33-.04-.65-.04-.98l10.44-.36v.07l.02.65Z"/>
        </g>
      </g>
      <polygon class="cls-2" points="663.38 331.26 700.08 343.18 664.46 358.02 652.55 394.71 637.71 359.1 601.01 347.18 636.63 332.34 648.54 295.65 663.38 331.26"/>
      <polygon class="cls-2" points="709.7 262.02 744.91 245.83 728.72 281.03 744.91 316.23 709.7 300.05 674.5 316.23 690.69 281.03 674.5 245.83 709.7 262.02"/>
    </g>
  </g>
</svg>