<?xml version="1.0" encoding="UTF-8"?>
<svg xmlns="http://www.w3.org/2000/svg" viewBox="0 0 800 800">
  <defs>
    <style>
      .cls-1 {
        fill: #f8e0bb;
      }

      .cls-2 {
        fill: #fff;
      }

      .cls-2, .cls-3 {
        font-family: Heavitas, Heavitas;
        font-size: 270px;
      }

      .cls-4 {
        letter-spacing: -.08em;
      }

      .cls-5 {
        isolation: isolate;
      }

      .cls-6 {
        fill: #a67452;
      }

      .cls-7 {
        fill: #e4d4c2;
      }

      .cls-8 {
        stroke: #262b2f;
        stroke-width: 6px;
      }

      .cls-8, .cls-9 {
        fill: none;
      }

      .cls-9 {
        stroke: #a27655;
        stroke-miterlimit: 10;
      }

      .cls-10 {
        fill: #ce9c76;
      }

      .cls-11 {
        fill: #c29470;
      }

      .cls-12 {
        fill: #754c24;
      }

      .cls-13 {
        mix-blend-mode: multiply;
        opacity: .5;
      }
    </style>
  </defs>
  <g class="cls-5">
    <g id="Calque_1" data-name="Calque 1">
      <rect class="cls-1" width="800" height="800" rx="49.55" ry="49.55"/>
      <g>
        <text class="cls-3" transform="translate(146.96 750.24)"><tspan x="0" y="0">C.</tspan><tspan class="cls-4" x="273.78" y="0">P</tspan><tspan x="434.43" y="0">.</tspan></text>
        <text class="cls-2" transform="translate(146.96 750.24)"><tspan x="0" y="0">C.</tspan><tspan class="cls-4" x="273.78" y="0">P</tspan><tspan x="434.43" y="0">.</tspan></text>
        <g class="cls-13">
          <g>
            <path class="cls-8" d="M223.4,617.74c4.22-4.49,9.24-8.14,14.9-10.85,5.6-2.68,11.66-4.04,18.01-4.04,9.84,0,18.31,2.08,25.19,6.19,6.93,4.15,12.96,10.22,17.89,18.05,1.24,1.99,3.09,3.49,5.48,4.44,1.25.5,2.54.76,3.82.76s2.56-.25,3.8-.75l38.45-15.17c2.38-1.06,4.07-2.89,4.87-5.3.82-2.46.53-4.93-.85-7.14-5.3-8.4-11.17-16.21-17.45-23.22-6.37-7.1-13.62-13.24-21.56-18.22-7.95-4.99-16.93-8.92-26.7-11.69-9.76-2.76-20.85-4.16-32.95-4.16-14.75,0-28.77,2.81-41.68,8.34-12.88,5.52-24.31,13.08-33.98,22.48-9.69,9.41-17.4,20.63-22.94,33.36-5.54,12.74-8.35,26.5-8.35,40.89s2.81,28.14,8.35,40.89c5.53,12.72,13.25,23.94,22.94,33.36,9.67,9.39,21.1,16.96,33.98,22.48,12.91,5.54,26.94,8.34,41.68,8.34,11.73,0,22.63-1.39,32.4-4.14,9.77-2.75,18.79-6.65,26.82-11.61,8.02-4.96,15.37-11.05,21.83-18.12,6.39-7,12.32-14.88,17.62-23.44l.07-.12c1.31-2.36,1.57-4.84.74-7.18-.81-2.3-2.49-4.07-4.85-5.12l-38.45-15.17c-1.25-.5-2.52-.75-3.78-.75s-2.54.26-3.76.77c-2.29.96-4.07,2.45-5.3,4.43-4.41,7.12-10.47,13-18.02,17.5-7.5,4.47-16.02,6.73-25.33,6.73-6.36,0-12.42-1.36-18.01-4.04-5.67-2.71-10.69-6.33-14.92-10.74-4.21-4.39-7.55-9.58-9.91-15.43-2.36-5.83-3.56-12.05-3.56-18.5s1.2-12.45,3.57-18.38c2.37-5.93,5.71-11.21,9.93-15.7Z"/>
            <path class="cls-8" d="M410.44,703.02c-2.78-2.78-6.1-4.99-9.87-6.58-3.78-1.59-7.8-2.4-11.96-2.4s-8.16.81-11.86,2.41c-3.67,1.59-6.93,3.8-9.71,6.57-2.77,2.77-4.98,5.98-6.56,9.54-1.61,3.6-2.42,7.56-2.42,11.75s.81,8.2,2.39,11.96c1.58,3.77,3.8,7.09,6.58,9.87,2.77,2.78,6.04,4.99,9.71,6.57,3.7,1.6,7.68,2.41,11.86,2.41s8.18-.81,11.96-2.4c3.76-1.58,7.08-3.8,9.87-6.58,2.78-2.78,4.99-6.1,6.58-9.87,1.59-3.77,2.39-7.8,2.39-11.96s-.81-8.13-2.42-11.75c-1.59-3.56-3.79-6.77-6.56-9.54Z"/>
            <path class="cls-8" d="M600.32,625.5c0-10.45-2.04-20.39-6.06-29.56-4-9.12-9.48-17.23-16.27-24.12-6.83-6.91-14.96-12.4-24.18-16.31-9.24-3.92-19.22-5.91-29.66-5.91h-82.62c-2.58,0-4.9.96-6.71,2.77-1.81,1.81-2.77,4.13-2.77,6.71v184.68c0,2.58.95,4.9,2.75,6.7,1.8,1.82,4.12,2.78,6.7,2.78h40.57c2.57,0,4.89-.96,6.69-2.77,1.8-1.81,2.76-4.13,2.76-6.71v-40.23c0-1.01.31-1.77,1.01-2.46.71-.7,1.47-1.02,2.49-1.02h23.55c13.47,0,25.44-1.93,35.56-5.73,10.18-3.81,18.81-9.12,25.67-15.78,6.88-6.67,12.09-14.68,15.48-23.79,3.36-9.03,5.06-18.87,5.06-29.26ZM536.68,638.5c-2.59,3.59-6.72,5.33-12.62,5.33h-29.03c-1.03,0-1.8-.31-2.5-1.01-.7-.69-1.01-1.44-1.01-2.43v-31.67c0-.99.31-1.74,1.01-2.43.71-.7,1.48-1.01,2.5-1.01h25.5c3.34,0,6.3.58,8.78,1.73,2.52,1.17,4.67,2.7,6.39,4.55,1.7,1.83,3,3.97,3.85,6.35.87,2.44,1.32,4.94,1.32,7.44,0,4.94-1.37,9.24-4.18,13.14Z"/>
            <path class="cls-8" d="M640.29,712.57c-1.59-3.56-3.79-6.77-6.56-9.54-2.78-2.78-6.1-4.99-9.87-6.58-3.78-1.59-7.8-2.4-11.96-2.4s-8.16.81-11.86,2.41c-3.67,1.59-6.93,3.8-9.71,6.57-2.77,2.77-4.98,5.98-6.56,9.54-1.61,3.6-2.42,7.56-2.42,11.75s.81,8.2,2.39,11.96c1.58,3.77,3.8,7.09,6.58,9.87,2.77,2.78,6.04,4.99,9.71,6.57,3.7,1.6,7.68,2.41,11.86,2.41s8.18-.81,11.96-2.4c3.76-1.58,7.08-3.8,9.87-6.58,2.78-2.78,4.99-6.1,6.58-9.87,1.59-3.77,2.39-7.8,2.39-11.96s-.81-8.13-2.42-11.75Z"/>
          </g>
        </g>
      </g>
      <g>
        <g>
          <path class="cls-6" d="M760.18,304.11l.36,50.96c0,2.62-2.64,7.56-6.42,9.98-13.89,8.85-38.65,20.74-52.8,28.32-38.68,20.74-77.38,41.5-116.06,62.27-56.29,30.2-112.59,60.39-168.88,90.56-7.31,3.63-14.33,5.19-21.14,5.22v-55.06c6.84-.06,13.89-1.59,21.24-5.13,56.63-29.68,113.26-59.35,169.89-89,39.77-20.82,79.48-38.62,119.22-59.44,13.57-7.09,40.08-17.39,50.7-29.59,2.69-3.09,3.89-6.11,3.89-9.08Z"/>
          <path class="cls-11" d="M760.18,303.93v.17c0,2.97-1.19,6-3.89,9.08-10.62,12.2-37.12,22.5-50.7,29.59-39.74,20.82-79.45,38.62-119.22,59.44-56.63,29.65-113.26,59.33-169.89,89-7.36,3.55-14.4,5.08-21.24,5.13-16.92.09-32.64-8.77-48.76-17.85-81.84-46.15-161.42-85.11-243.23-131.25-15.16-8.54-62.25-28.21-63.73-47.9-.36-4.79,1.97-9.55,8.06-14.16,17.2-13.04,43.47-19.12,62.69-27.57,39.69-17.45,79.38-34.93,119.07-52.37,51.58-22.67,105.96-55.89,160.1-70.05,23.34-6.09,41.89,4.64,62.98,14.56,77.1,36.25,154.19,72.51,231.29,108.76,13.6,6.37,76.14,24.08,76.48,45.42Z"/>
          <g>
            <path class="cls-11" d="M395.23,496.36v55.06h-.26c-16.71,0-32.25-9-48.11-18.17-81.35-46.95-167.48-89.75-248.8-134.37-13.26-7.64-56.68-25.67-57.51-44.85l-1.06-54.68h.03c1.48,19.7,48.57,39.37,63.73,47.9,81.81,46.15,161.4,85.11,243.23,131.25,16.11,9.08,31.84,17.94,48.76,17.85Z"/>
            <path class="cls-9" d="M395.23,496.36v55.06h-.26c-16.71,0-32.25-9-48.11-18.17-81.35-46.95-167.48-89.75-248.8-134.37-13.26-7.64-56.68-25.67-57.51-44.85l-1.06-54.68h.03c1.48,19.7,48.57,39.37,63.73,47.9,81.81,46.15,161.4,85.11,243.23,131.25,16.11,9.08,31.84,17.94,48.76,17.85Z"/>
          </g>
        </g>
        <g>
          <path class="cls-7" d="M279.74,192.69c-17.7,8.8-34.39,17.1-51.15,24.47l-119.06,52.37c-6.16,2.71-12.99,5.15-20.21,7.73-15.27,5.46-31.01,11.09-42.88,20.07-6.37,4.83-9.37,10.28-8.93,16.19,1.21,16.15,27.45,30.7,54.21,44.21,4.3,2.17,7.97,4.02,10.61,5.51,40.96,23.1,82.03,44.76,121.74,65.7l.21.11c39.57,20.87,80.49,42.44,121.29,65.45,15.78,8.9,32.09,18.09,49.42,18.09h.28c7.52-.07,14.77-1.83,22.15-5.39,56.54-29.63,113.17-59.31,169.81-88.96,19.84-10.39,39.97-20.17,59.45-29.63l.12-.06c19.54-9.5,39.76-19.32,59.64-29.74,3.15-1.65,7.08-3.51,11.25-5.47,14.14-6.67,31.64-14.94,40.04-24.58,2-2.29,3.33-4.67,3.99-7.11h-4.28c-.55,1.33-1.41,2.67-2.58,4-7.83,8.99-25.63,17.4-38.63,23.54l-.21.1c-4.16,1.96-8.08,3.82-11.28,5.49-19.95,10.45-40.14,20.26-59.67,29.75-19.47,9.46-39.59,19.24-59.55,29.69-56.63,29.65-113.26,59.33-169.75,88.93-6.87,3.32-13.56,4.93-20.53,5h-.25c-16.36,0-31.54-8.56-47.6-17.61-40.91-23.07-81.9-44.68-121.54-65.58-39.7-20.93-80.75-42.58-121.7-65.67-2.74-1.54-6.46-3.42-10.76-5.59-24.56-12.4-50.85-26.77-51.87-40.51-.32-4.19,2.1-8.27,7.18-12.12,11.4-8.63,26.87-14.16,41.83-19.51,7.34-2.62,14.21-5.08,20.48-7.84l119.06-52.37c16.8-7.38,34.25-16.06,51.13-24.46l.18-.09c35.5-17.66,72.2-35.91,108.5-45.41,20.46-5.34,36.8,2.5,55.73,11.58l.16.08c1.93.93,3.88,1.86,5.85,2.79l231.3,108.76c2.8,1.31,7.47,3.04,13.37,5.21,39.12,14.44,57.59,24.8,61.2,34.67l4.18-.08c-4.19-15.48-33.8-27.64-64.05-38.8-5.62-2.07-10.47-3.86-13.15-5.12l-231.29-108.76c-2.02-.95-4.01-1.91-5.99-2.85-14.56-6.98-28.49-13.66-44.14-13.66-4.53,0-9.21.56-14.09,1.83-36.68,9.59-73.56,27.94-109.23,45.68Z"/>
          <path class="cls-7" d="M279.74,203.79c-17.7,8.8-34.39,17.1-51.15,24.47l-119.06,52.37c-6.16,2.71-12.99,5.15-20.21,7.73-15.27,5.46-31.01,11.09-42.88,20.07-6.37,4.83-9.37,10.28-8.93,16.19,1.21,16.15,27.45,30.7,54.21,44.21,4.3,2.17,7.97,4.02,10.61,5.51,40.96,23.1,82.03,44.76,121.74,65.7l.21.11c39.57,20.87,80.49,42.44,121.29,65.45,15.78,8.9,32.09,18.09,49.42,18.09h.28c7.52-.07,14.77-1.83,22.15-5.39,56.54-29.63,113.17-59.31,169.81-88.96,19.84-10.39,39.97-20.17,59.45-29.63l.12-.06c19.54-9.5,39.76-19.32,59.64-29.74,3.15-1.65,7.08-3.51,11.25-5.47,14.14-6.67,31.64-14.94,40.04-24.58,2-2.29,3.33-4.67,3.99-7.11h-4.28c-.55,1.33-1.41,2.67-2.58,4-7.83,8.99-25.63,17.4-38.63,23.54l-.21.1c-4.16,1.96-8.08,3.82-11.28,5.49-19.95,10.45-40.14,20.26-59.67,29.75-19.47,9.46-39.59,19.24-59.55,29.69-56.63,29.65-113.26,59.33-169.75,88.93-6.87,3.32-13.56,4.93-20.53,5h-.25c-16.36,0-31.54-8.56-47.6-17.61-40.91-23.07-81.9-44.68-121.54-65.58-39.7-20.93-80.75-42.58-121.7-65.67-2.74-1.54-6.46-3.42-10.76-5.59-24.56-12.4-50.85-26.77-51.87-40.51-.32-4.19,2.1-8.27,7.18-12.12,11.4-8.63,26.87-14.16,41.83-19.51,7.34-2.62,14.21-5.08,20.48-7.84l119.06-52.37c16.8-7.38,34.25-16.06,51.13-24.46l.18-.09c35.5-17.66,72.2-35.91,108.5-45.41,20.46-5.34,36.8,2.5,55.73,11.58l.16.08c1.93.93,3.88,1.86,5.85,2.79l231.3,108.76c2.8,1.31,7.47,3.04,13.37,5.21,39.12,14.44,57.59,24.8,61.2,34.67l4.18-.08c-4.19-15.48-33.8-27.64-64.05-38.8-5.62-2.07-10.47-3.86-13.15-5.12l-231.29-108.76c-2.02-.95-4.01-1.91-5.99-2.85-14.56-6.98-28.49-13.66-44.14-13.66-4.53,0-9.21.56-14.09,1.83-36.68,9.59-73.56,27.94-109.23,45.68Z"/>
          <path class="cls-7" d="M279.74,215.65c-17.7,8.8-34.39,17.1-51.15,24.47l-119.06,52.37c-6.16,2.71-12.99,5.15-20.21,7.73-15.27,5.46-31.01,11.09-42.88,20.07-6.37,4.83-9.37,10.28-8.93,16.19,1.21,16.15,27.45,30.7,54.21,44.21,4.3,2.17,7.97,4.02,10.61,5.51,40.96,23.1,82.03,44.76,121.74,65.7l.21.11c39.57,20.87,80.49,42.44,121.29,65.45,15.78,8.9,32.09,18.09,49.42,18.09h.28c7.52-.07,14.77-1.83,22.15-5.39,56.54-29.63,113.17-59.31,169.81-88.96,19.84-10.39,39.97-20.17,59.45-29.63l.12-.06c19.54-9.5,39.76-19.32,59.64-29.74,3.15-1.65,7.08-3.51,11.25-5.47,14.14-6.67,31.64-14.94,40.04-24.58,2-2.29,3.33-4.67,3.99-7.11h-4.28c-.55,1.33-1.41,2.67-2.58,4-7.83,8.99-25.63,17.4-38.63,23.54l-.21.1c-4.16,1.96-8.08,3.82-11.28,5.49-19.95,10.45-40.14,20.26-59.67,29.75-19.47,9.46-39.59,19.24-59.55,29.69-56.63,29.65-113.26,59.33-169.75,88.93-6.87,3.32-13.56,4.93-20.53,5h-.25c-16.36,0-31.54-8.56-47.6-17.61-40.91-23.07-81.9-44.68-121.54-65.58-39.7-20.93-80.75-42.58-121.7-65.67-2.74-1.54-6.46-3.42-10.76-5.59-24.56-12.4-50.85-26.77-51.87-40.51-.32-4.19,2.1-8.27,7.18-12.12,11.4-8.63,26.87-14.16,41.83-19.51,7.34-2.62,14.21-5.08,20.48-7.84l119.06-52.37c16.8-7.38,34.25-16.06,51.13-24.46l.18-.09c35.5-17.66,72.2-35.91,108.5-45.41,20.46-5.34,36.8,2.5,55.73,11.58l.16.08c1.93.93,3.88,1.86,5.85,2.79l231.3,108.76c2.8,1.31,7.47,3.04,13.37,5.21,39.12,14.44,57.59,24.8,61.2,34.67l4.18-.08c-4.19-15.48-33.8-27.64-64.05-38.8-5.62-2.07-10.47-3.86-13.15-5.12l-231.29-108.76c-2.02-.95-4.01-1.91-5.99-2.85-14.56-6.98-28.49-13.66-44.14-13.66-4.53,0-9.21.56-14.09,1.83-36.68,9.59-73.56,27.94-109.23,45.68Z"/>
          <path class="cls-12" d="M395.25,557.19h-.28c-17.96,0-34.48-9.56-50.46-18.79-49.19-28.39-100.79-55.61-150.7-81.94-32.4-17.09-65.91-34.77-98.05-52.4-2.35-1.35-5.64-3.03-9.46-4.97-25.35-12.91-50.17-27-50.94-44.77l-1.09-55.57,10.36-.4.03.81,1.07,54.76c.52,12.09,30.49,27.35,44.9,34.68,3.93,2,7.33,3.73,9.82,5.17,31.98,17.54,65.45,35.2,97.81,52.27,49.99,26.37,101.68,53.64,151,82.1,15.6,9.02,30.29,17.52,45.72,17.52,6.72-.03,12.96-1.57,19.29-4.72,56.16-30.1,112.45-60.3,168.75-90.49,38.68-20.77,77.38-41.53,116.06-62.27,4.39-2.36,9.81-5.13,15.6-8.09,12.88-6.58,27.47-14.05,36.87-20.04,2.21-1.41,3.69-4.28,3.83-5.19l-.37-50.7,5.18-.22h5.18v.17l.36,50.92c0,5.2-3.96,11.78-9.02,15.02-9.81,6.25-24.62,13.83-37.7,20.52-5.73,2.93-11.09,5.67-15.43,8-38.68,20.73-77.38,41.5-116.06,62.27-56.3,30.2-112.59,60.39-168.89,90.56-7.7,3.83-15.52,5.76-23.37,5.79Z"/>
          <g>
            <path class="cls-12" d="M765.36,303.84l-10.36.2c-.2-12.95-43.37-28.88-59.62-34.87-6-2.22-10.75-3.96-13.68-5.34l-231.3-108.76c-2.03-.95-4.04-1.92-6.03-2.88-18.41-8.83-34.31-16.45-53.75-11.39-36.02,9.42-72.58,27.6-107.94,45.2-16.97,8.44-34.51,17.17-51.44,24.61l-119.07,52.38c-6.38,2.81-13.32,5.28-20.67,7.91-14.76,5.27-30,10.71-41.01,19.06-4.07,3.09-6.02,6.08-5.81,8.91.96,12.82,34.1,29.55,50.02,37.58,4.34,2.19,8.09,4.09,10.88,5.66,40.9,23.06,81.94,44.7,121.63,65.63,39.66,20.91,80.67,42.55,121.61,65.62,15.72,8.86,30.56,17.23,46.17,17.23h.22c6.54-.06,12.83-1.58,19.21-4.66,56.48-29.61,113.11-59.28,169.75-88.94,19.9-10.42,40.1-20.24,59.62-29.72,19.54-9.5,39.75-19.32,59.59-29.71,3.29-1.72,7.32-3.62,11.57-5.63,12.76-6.02,30.24-14.27,37.61-22.76,1.61-1.84,2.42-3.55,2.42-5.07h10.36c0,4.63-1.8,9.04-5.35,13.11-8.85,10.16-26.68,18.57-41.01,25.34-4.16,1.97-8.09,3.83-11.21,5.46-19.97,10.45-40.24,20.31-59.85,29.84-19.46,9.45-39.58,19.23-59.36,29.59-56.64,29.64-113.27,59.32-169.89,89.01-7.83,3.77-15.45,5.61-23.42,5.68h-.26c-18.1,0-34.76-9.39-50.87-18.48-40.81-23.02-81.76-44.61-121.38-65.48-39.74-20.97-80.85-42.64-121.86-65.78-2.59-1.46-6.25-3.3-10.48-5.43-28.77-14.53-54.71-29.06-56.07-47.13-.55-7.27,2.91-13.8,10.3-19.41,12.25-9.28,28.22-14.99,43.67-20.51,7.19-2.57,13.96-5,20.04-7.66l119.07-52.38c16.71-7.34,33.37-15.63,51.02-24.41,35.8-17.81,72.83-36.23,109.79-45.89,22.77-5.94,40.96,2.79,60.22,12.02,1.97.94,3.96,1.9,5.97,2.84l231.29,108.76c2.55,1.2,7.36,2.97,12.92,5.02,34.99,12.91,66.42,26.12,66.73,45.62Z"/>
            <path class="cls-10" d="M754.99,304.04v.07c0,1.52-.82,3.23-2.42,5.07-7.38,8.49-24.86,16.74-37.61,22.76-4.26,2.02-8.28,3.91-11.57,5.63-19.84,10.4-40.05,20.21-59.59,29.71-19.52,9.49-39.72,19.31-59.62,29.72-56.64,29.65-113.27,59.33-169.75,88.94-6.38,3.08-12.67,4.6-19.21,4.66h-.22c-15.6,0-30.45-8.37-46.17-17.23-40.94-23.08-81.95-44.72-121.61-65.62-39.69-20.93-80.73-42.57-121.63-65.63-2.79-1.57-6.54-3.47-10.88-5.66-15.92-8.04-49.06-24.76-50.02-37.58-.21-2.83,1.75-5.82,5.81-8.91,11.01-8.34,26.25-13.79,41.01-19.06,7.35-2.63,14.28-5.1,20.67-7.91l119.07-52.38c16.93-7.44,34.47-16.17,51.44-24.61,35.36-17.6,71.93-35.78,107.94-45.2,19.44-5.07,35.34,2.56,53.75,11.39,1.99.95,4,1.92,6.03,2.88l231.3,108.76c2.93,1.38,7.68,3.12,13.68,5.34,16.25,6,59.42,21.92,59.62,34.87Z"/>
          </g>
        </g>
      </g>
    </g>
  </g>
</svg>