<?xml version="1.0" encoding="UTF-8"?>
<svg xmlns="http://www.w3.org/2000/svg" xmlns:xlink="http://www.w3.org/1999/xlink" viewBox="0 0 800 800">
  <defs>
    <style>
      .cls-1 {
        clip-path: url(#clippath-1);
      }

      .cls-2 {
        fill: #fff;
      }

      .cls-2, .cls-3 {
        font-family: Heavitas, Heavitas;
        font-size: 270px;
      }

      .cls-4 {
        isolation: isolate;
      }

      .cls-5 {
        fill: #a67452;
      }

      .cls-6 {
        fill: #dbbb92;
      }

      .cls-7 {
        fill: #a27655;
      }

      .cls-8, .cls-9 {
        stroke: #a27655;
        stroke-miterlimit: 10;
      }

      .cls-8, .cls-10 {
        fill: #c29470;
      }

      .cls-11 {
        stroke: #262b2f;
        stroke-width: 6px;
      }

      .cls-11, .cls-9 {
        fill: none;
      }

      .cls-12 {
        clip-path: url(#clippath);
      }

      .cls-13 {
        fill: #754c24;
      }

      .cls-14 {
        mix-blend-mode: multiply;
        opacity: .5;
      }
    </style>
    <clipPath id="clippath">
      <path class="cls-10" d="M759.62,283.91v.15c0,2.59-1.16,5.23-3.77,7.92-10.3,10.63-36.01,19.6-49.18,25.78-38.55,18.14-77.07,33.65-115.65,51.79-54.93,25.83-109.87,51.69-164.8,77.55-7.14,3.09-13.97,4.42-20.61,4.47-16.41.08-31.66-7.64-47.29-15.56-79.38-40.21-156.58-74.16-235.94-114.37-14.7-7.44-60.39-24.58-61.82-41.74-.35-4.17,1.91-8.32,7.82-12.34,16.69-11.36,42.17-16.66,60.81-24.02,38.5-15.2,77-30.43,115.5-45.64,50.03-19.75,102.78-48.7,155.3-61.04,22.64-5.3,40.63,4.05,61.09,12.69,74.79,31.59,149.57,63.18,224.36,94.76,13.19,5.55,73.86,20.98,74.18,39.58Z"/>
    </clipPath>
    <clipPath id="clippath-1">
      <path class="cls-8" d="M405.61,451.57v47.97h-.25c-16.21,0-31.29-7.84-46.67-15.83-78.91-40.91-162.46-78.2-241.35-117.08-12.87-6.66-54.98-22.37-55.79-39.08l-1.03-47.65h.03c1.43,17.16,47.12,34.3,61.82,41.74,79.36,40.21,156.56,74.16,235.94,114.37,15.63,7.92,30.88,15.63,47.29,15.56Z"/>
    </clipPath>
  </defs>
  <g class="cls-4">
    <g id="Calque_1" data-name="Calque 1">
      <rect class="cls-6" width="800" height="800" rx="49.55" ry="49.55"/>
      <g>
        <text class="cls-3" transform="translate(74.25 750.24)"><tspan x="0" y="0">MDF</tspan></text>
        <text class="cls-2" transform="translate(74.25 750.24)"><tspan x="0" y="0">MDF</tspan></text>
        <g class="cls-14">
          <g>
            <path class="cls-11" d="M302.7,549.87h-37.61c-2.29,0-4.68.67-7.09,1.99-2.34,1.28-4.2,2.84-5.53,4.62l-52.1,76.34c-.47.75-.77.75-.98.75-.18,0-.65,0-1.35-.91l-51.89-76.03c-1.17-1.85-2.97-3.45-5.37-4.77-2.41-1.32-4.79-1.99-7.08-1.99h-37.61c-2.57,0-4.88.96-6.69,2.77-1.8,1.81-2.76,4.13-2.76,6.71v184.41c0,2.58.95,4.9,2.75,6.7,1.8,1.82,4.12,2.78,6.7,2.78h40.57c2.58,0,4.89-.96,6.69-2.77,1.8-1.81,2.76-4.13,2.76-6.71v-86.94c.2,0,.38.03.68.5l45.53,73.28.08.1c1.65,2.2,4.07,3.36,7,3.36,3.83,0,5.85-1.94,6.88-3.58l45.39-73.04c.48-.6.81-.63,1.03-.63v86.94c0,2.58.95,4.9,2.75,6.7,1.8,1.82,4.12,2.78,6.7,2.78h40.57c2.58,0,4.89-.96,6.69-2.77,1.8-1.81,2.76-4.13,2.76-6.71v-184.41c0-2.57-.95-4.89-2.76-6.71-1.81-1.81-4.12-2.77-6.69-2.77Z"/>
            <path class="cls-11" d="M504.23,575.23c-18.49-17.01-42.52-25.63-71.42-25.63h-73.71c-2.58,0-4.9.96-6.71,2.77-1.81,1.81-2.77,4.13-2.77,6.71v184.68c0,2.58.96,4.91,2.77,6.71,1.81,1.81,4.13,2.77,6.72,2.77h73.71c14.33,0,27.61-2.15,39.48-6.38,11.92-4.25,22.66-10.63,31.95-18.98,10-9.26,17.7-20.48,22.88-33.35,5.16-12.82,7.78-27.32,7.78-43.11s-2.62-30.25-7.78-42.98c-5.18-12.77-12.88-23.94-22.89-33.21ZM470.96,675.46c-2.59,5.92-5.89,10.54-9.81,13.72-3.95,3.21-8.44,5.42-13.37,6.56-5.15,1.2-10.18,1.81-14.98,1.81h-20.25c-1.01,0-1.77-.31-2.47-1.01-.7-.69-1.01-1.46-1.01-2.47v-84.78c0-1.01.31-1.77,1.01-2.47.7-.7,1.46-1.01,2.47-1.01h20.25c4.77,0,9.76.61,14.83,1.81,4.85,1.15,9.36,3.37,13.41,6.58,4,3.18,7.33,7.79,9.92,13.7,2.61,5.98,3.94,13.98,3.94,23.78s-1.32,17.79-3.93,23.77Z"/>
            <path class="cls-11" d="M714.38,552.38c-1.82-1.82-4.14-2.79-6.71-2.79h-137.19c-2.57,0-4.89.96-6.7,2.78-1.8,1.81-2.75,4.13-2.75,6.7v184.68c0,2.58.95,4.9,2.75,6.7,1.8,1.82,4.12,2.78,6.7,2.78h40.57c2.58,0,4.89-.96,6.69-2.77,1.8-1.81,2.76-4.13,2.76-6.71v-59.67c0-1.01.31-1.77,1.01-2.47.7-.7,1.46-1.01,2.47-1.01h72.9c2.58,0,4.9-.96,6.71-2.77,1.81-1.81,2.77-4.13,2.77-6.71v-37.8c0-2.57-.96-4.89-2.77-6.71-1.81-1.81-4.13-2.77-6.71-2.77h-72.9c-1.02,0-1.78-.31-2.48-1-.69-.68-1-1.42-1-2.4v-11.21c0-.98.31-1.72,1-2.41.7-.69,1.46-1,2.48-1h83.7c2.58,0,4.9-.96,6.72-2.78,1.81-1.82,2.76-4.15,2.76-6.73v-37.19c0-2.58-.96-4.91-2.77-6.73Z"/>
          </g>
        </g>
      </g>
      <g>
        <g>
          <path class="cls-5" d="M759.62,284.06l.35,44.4c0,2.29-2.56,6.58-6.23,8.69-13.47,7.71-37.49,18.07-51.21,24.68-37.52,18.07-75.06,36.16-112.58,54.26-54.61,26.31-109.21,52.62-163.82,78.91-7.09,3.17-13.9,4.52-20.51,4.55v-47.97c6.63-.05,13.47-1.38,20.61-4.47,54.93-25.86,109.87-51.72,164.8-77.55,38.57-18.14,77.1-33.65,115.65-51.79,13.17-6.18,38.88-15.15,49.18-25.78,2.61-2.69,3.77-5.33,3.77-7.92Z"/>
          <g>
            <path class="cls-10" d="M759.62,283.91v.15c0,2.59-1.16,5.23-3.77,7.92-10.3,10.63-36.01,19.6-49.18,25.78-38.55,18.14-77.07,33.65-115.65,51.79-54.93,25.83-109.87,51.69-164.8,77.55-7.14,3.09-13.97,4.42-20.61,4.47-16.41.08-31.66-7.64-47.29-15.56-79.38-40.21-156.58-74.16-235.94-114.37-14.7-7.44-60.39-24.58-61.82-41.74-.35-4.17,1.91-8.32,7.82-12.34,16.69-11.36,42.17-16.66,60.81-24.02,38.5-15.2,77-30.43,115.5-45.64,50.03-19.75,102.78-48.7,155.3-61.04,22.64-5.3,40.63,4.05,61.09,12.69,74.79,31.59,149.57,63.18,224.36,94.76,13.19,5.55,73.86,20.98,74.18,39.58Z"/>
            <g class="cls-12">
              <path class="cls-7" d="M217.82,384.35c25.69-8.22,52.42-16.96,72.36-36,4.46-4.26,8.5-9.01,11.89-14.17s6.15-11.04,8.47-16.92c4.62-11.72,7.75-24.1,13.82-35.22,5.61-10.28,13.97-18.21,23.47-24.89s19.62-12.18,29.11-18.77c4.74-3.29,9.34-6.84,13.5-10.85,4.6-4.43,8.62-9.43,12.32-14.63,7.44-10.46,13.52-21.81,20.95-32.28,14.22-20.04,34.87-35.06,58.45-42.11,2.93-.88,5.9-1.62,8.89-2.25,2.45-.52,1.42-4.28-1.04-3.76-24.13,5.07-46.51,18.28-62.57,37-8.36,9.74-14.73,20.9-21.58,31.71-6.69,10.56-14.02,20.57-23.78,28.5-17.69,14.38-40.45,22.67-54.87,40.95-7.88,9.98-12.08,22-16.19,33.88s-8.5,23.58-16.51,33.41c-16.99,20.86-42.69,31.18-67.54,39.35-3.39,1.11-6.78,2.2-10.18,3.29-2.38.76-1.36,4.53,1.04,3.76h0Z"/>
              <path class="cls-7" d="M271.2,430.61c13.22-22.28,28.7-43.18,46.15-62.34s36.58-36.38,57.38-51.59c10.47-7.65,21.32-14.77,32.51-21.32,12.87-7.52,26.16-14.29,39.51-20.9,25.5-12.63,51.41-24.75,75.11-40.62,21.3-14.26,41.01-31.55,55.15-53.12,1.7-2.59,3.31-5.24,4.83-7.94,1.23-2.19-2.13-4.16-3.37-1.97-12.62,22.36-31.42,40.48-52.21,55.26-22.93,16.31-48.29,28.67-73.46,41.06-13.37,6.58-26.74,13.18-39.76,20.43-11.67,6.49-23.01,13.56-33.95,21.22-21.15,14.81-40.83,31.73-58.63,50.43s-33.93,39.39-47.72,61.38c-1.67,2.66-3.3,5.34-4.9,8.04-1.28,2.16,2.09,4.13,3.37,1.97h0Z"/>
              <path class="cls-7" d="M338.57,453.58c3.91-12.48,9.76-24.28,17.18-35.04s16.44-20.42,26.58-28.66,21.41-14.99,33.45-19.89c6.18-2.52,12.54-4.47,19.01-6.1s13.26-3.11,19.72-5.28,12.4-4.95,17.55-9.21c5.57-4.61,9.21-10.81,12.08-17.35,2.93-6.66,5.39-13.49,9.28-19.68,3.66-5.81,8.21-10.99,13.23-15.66,10.31-9.58,22.44-16.93,34.54-24,15.14-8.84,30.32-17.62,45.48-26.43,15.39-8.94,30.78-17.88,46.17-26.82s30.92-17.97,46.38-26.95c3.74-2.17,7.48-4.35,11.22-6.52,2.17-1.26.21-4.63-1.97-3.37-15.46,8.98-30.92,17.97-46.38,26.95-15.53,9.03-31.06,18.05-46.6,27.08-15.46,8.98-30.92,17.97-46.38,26.95-12.79,7.43-25.76,14.68-37.46,23.78s-20.73,19.31-26.51,32.39c-2.97,6.71-5.32,13.78-9.46,19.89-3.78,5.58-9.19,9.59-15.24,12.44-12.2,5.74-25.95,7.17-38.64,11.49-12.57,4.28-24.47,10.46-35.25,18.2s-20.42,16.9-28.62,27.29-14.95,21.94-19.87,34.28c-1.2,3.02-2.28,6.08-3.25,9.18-.75,2.4,3.01,3.43,3.76,1.04h0Z"/>
              <path class="cls-7" d="M463.7,434.25c-4.83-3.46-8.06-9.04-8.86-14.91-.8-5.88,1.1-11.98,4.92-16.5,4.09-4.85,9.84-7.44,16.11-7.98,7.09-.61,14.16.72,21.2,1.32,6.62.56,13.22.31,19.58-1.78,5.98-1.97,11.47-5.16,16.51-8.91,10.41-7.76,19.12-17.53,28.68-26.26,19.79-18.06,41.83-33.48,65.02-46.85s47.93-24.95,72.88-35.24c25.08-10.34,50.61-19.56,76.18-28.59,3.15-1.11,6.29-2.22,9.44-3.33,2.35-.83,1.34-4.6-1.04-3.76-26.1,9.18-52.18,18.43-77.85,28.75s-50.8,21.62-74.92,35.02-46.64,28.57-67.22,46.54c-5.16,4.5-10.13,9.19-15.02,13.98-4.63,4.53-9.24,9.1-14.22,13.25s-9.99,7.64-15.72,10.18c-6.12,2.72-12.59,3.63-19.24,3.29-7.12-.36-14.17-1.78-21.31-1.67s-13.62,1.89-18.96,6.4c-4.64,3.92-7.9,9.64-8.8,15.66-.95,6.33.61,12.93,4.23,18.21,1.76,2.57,3.91,4.74,6.44,6.55.86.62,2.16.14,2.67-.7.58-.97.15-2.06-.7-2.67h0Z"/>
              <path class="cls-7" d="M702.43,237.51c-16.12,1.41-31.9,5.27-47.04,10.92s-29.7,13-43.6,21.3-28.16,18.24-41.67,28.18-27.62,20.86-41.59,31.06-27.66,19.42-42.16,28.13-28.04,16.33-41.55,25.31c-13.23,8.8-25.74,18.64-36.66,30.21-10.26,10.86-19.19,22.94-27.03,35.64s-14.77,26.3-20.99,40.02c-6.31,13.92-11.98,28.12-17.5,42.37-1.33,3.44-2.65,6.88-3.97,10.32-.38.98.42,2.14,1.36,2.4,1.1.3,2.02-.37,2.4-1.36,5.39-14.06,10.81-28.12,16.75-41.95s12.34-27.33,19.72-40.37c7.27-12.84,15.47-25.19,25.01-36.46,9.97-11.79,21.36-22.17,33.87-31.21s26.9-17.53,40.71-25.69c14.3-8.45,28.38-17.18,41.96-26.76s27.49-20.23,41.15-30.47,27.25-20.23,41.52-29.4c13.5-8.67,27.54-16.57,42.24-23.01s29.81-11.24,45.48-13.83c3.85-.63,7.72-1.11,11.6-1.45,2.48-.22,2.5-4.12,0-3.9h0Z"/>
              <path class="cls-7" d="M59.73,319.28c9.04-7.91,17.66-16.31,25.78-25.16,4.11-4.48,8.1-9.08,11.96-13.78s7.54-8.97,10.51-13.94,4.95-10.58,3.05-16.06c-1.58-4.57-5.35-7.69-9.56-9.79-5.06-2.52-10.64-4.05-15.98-5.86-6.12-2.07-12.24-4.14-18.36-6.22-13.96-4.73-27.93-9.46-41.89-14.18-2.38-.81-3.41,2.96-1.04,3.76,11.93,4.04,23.85,8.07,35.78,12.11s23.4,7.68,34.97,11.86c3.94,1.42,8.31,3.25,10.9,6.72,3.13,4.21,2.07,9.45-.18,13.79-2.57,4.96-6.3,9.32-9.8,13.63s-7.3,8.76-11.12,13c-8.71,9.66-17.99,18.79-27.78,27.35-1.89,1.66.88,4.4,2.76,2.76h0Z"/>
              <path class="cls-7" d="M99.79,332.26c19.92-9.55,40.63-17.39,61.86-23.47,21.15-6.05,42.8-10.36,64.66-12.79,5.24-.58,10.54-1.22,15.82-1.1,4.89.11,9.99.98,14.09,3.82,3.3,2.28,6.07,6,6.59,10.06s-1.69,7.74-4.78,10.35c-3.27,2.75-7.26,4.54-10.96,6.62-3.96,2.23-7.71,4.79-11.29,7.59-7.13,5.57-13.37,12.22-18.63,19.57-10.47,14.59-16.88,32.14-17.93,50.09-.13,2.25-.17,4.5-.13,6.75.05,2.51,3.95,2.51,3.9,0-.34-18.36,5.31-36.49,15.39-51.78,5-7.58,11.12-14.42,18.11-20.22,3.52-2.92,7.29-5.55,11.24-7.87s7.97-4.11,11.55-6.8,6.52-6.07,7.26-10.48-.69-8.95-3.42-12.53c-6.59-8.63-17.76-9.59-27.82-8.83-22.32,1.68-44.63,5.81-66.27,11.49s-43.17,13.33-63.72,22.67c-2.51,1.14-5.02,2.31-7.51,3.51-2.26,1.08-.29,4.45,1.97,3.37h0Z"/>
              <path class="cls-7" d="M145.42,339.5c7.27-3.05,14.74-5.62,22.36-7.66,3.85-1.03,7.73-1.93,11.64-2.7,3.65-.72,7.38-1.47,11.09-1.76,2.24-.18,5.17-.26,7.02,1.25,2.78,2.26.07,6.57-1.08,8.99-3.61,7.6-7.23,15.19-10.84,22.79-4.11,8.65-8.23,17.3-12.34,25.95-1.07,2.25,2.29,4.24,3.37,1.97,7.76-16.32,15.53-32.64,23.29-48.96,1.69-3.55,3.85-7.6,1.9-11.49-1.4-2.79-4.44-3.97-7.37-4.32-3.44-.41-6.92.26-10.31.81-4.24.68-8.46,1.52-12.64,2.52-9.27,2.21-18.35,5.19-27.13,8.87-.97.41-1.67,1.29-1.36,2.4.25.92,1.42,1.77,2.4,1.36h0Z"/>
              <path class="cls-7" d="M313.81,135.33c1.93,20.49-6.35,40.46-19.21,56.11-13.98,17.01-33.1,28.56-53.1,37.21s-43.05,15.05-64.6,22.45-42.78,16.28-60.92,30.26c-16.73,12.89-30.63,29.42-40.37,48.16-1.18,2.28-2.3,4.58-3.36,6.92-.44.97-.27,2.09.7,2.67.83.5,2.23.26,2.67-.7,8.75-19.3,21.79-36.51,38-50.18,17.38-14.65,38.19-24.12,59.46-31.68,21.76-7.73,44.13-13.71,65.51-22.49s40.13-19.28,55.11-35.65c13.88-15.17,23.91-34.79,24.3-55.65.05-2.48-.06-4.96-.29-7.43-.1-1.05-.83-1.95-1.95-1.95-.98,0-2.05.9-1.95,1.95h0Z"/>
              <path class="cls-7" d="M495.14,143.45c-11.23,14.49-22.46,28.98-33.68,43.47-5.61,7.25-11.23,14.49-16.84,21.74-2.67,3.44-5.6,6.8-7.98,10.46-1.9,2.92-3.02,6.52-1.66,9.89,2.24,5.55,9.22,7.39,14.66,7.09,7.24-.41,14.39-3.83,20.4-7.66,6.53-4.15,12.36-9.28,18.16-14.38,6.86-6.03,13.71-12.05,20.57-18.08,13.77-12.11,27.55-24.21,41.32-36.32,1.68-1.48,3.37-2.96,5.05-4.44,1.89-1.66-.88-4.41-2.76-2.76-13.15,11.56-26.3,23.12-39.45,34.67-6.54,5.75-13.09,11.5-19.63,17.25-6,5.27-11.89,10.7-18.17,15.64-5.59,4.4-11.72,8.41-18.52,10.63-5.05,1.65-11.6,2.78-16.19-.76-2.04-1.57-2.61-3.94-1.73-6.34.61-1.66,1.73-3.14,2.79-4.53,1.34-1.75,2.7-3.49,4.06-5.24,5.36-6.92,10.72-13.83,16.08-20.75,10.77-13.9,21.54-27.8,32.31-41.7,1.33-1.71,2.65-3.43,3.98-5.14.65-.84.8-1.94,0-2.76-.67-.68-2.11-.83-2.76,0h0Z"/>
              <path class="cls-7" d="M101.66,322.04c21.57-18.22,48.96-27.54,75.98-34.23,29.47-7.3,59.87-11.89,88.04-23.64,12.15-5.07,23.82-11.35,34.27-19.4s19.4-17.95,26.37-29.34,12.67-24.12,21.83-34.19c7.4-8.14,16.76-14.06,26.39-19.2,18.92-10.09,40.9-17.66,54.92-34.74,1.7-2.08,3.27-4.26,4.68-6.54,1.32-2.14-2.05-4.1-3.37-1.97-11.56,18.79-33.3,27.28-52.14,36.76-9.75,4.9-19.39,10.26-27.65,17.47-10.01,8.74-16.5,20.27-22.94,31.7-3.36,5.96-6.79,11.91-10.89,17.4-3.86,5.18-8.33,9.93-13.14,14.24-9.63,8.64-20.78,15.47-32.46,20.98-27.17,12.8-57.07,17.87-86.11,24.6-27.38,6.35-55.25,14.48-78.4,31.02-2.8,2-5.51,4.11-8.14,6.33-1.92,1.62.85,4.37,2.76,2.76h0Z"/>
            </g>
          </g>
          <g>
            <path class="cls-10" d="M405.61,451.57v47.97h-.25c-16.21,0-31.29-7.84-46.67-15.83-78.91-40.91-162.46-78.2-241.35-117.08-12.87-6.66-54.98-22.37-55.79-39.08l-1.03-47.65h.03c1.43,17.16,47.12,34.3,61.82,41.74,79.36,40.21,156.56,74.16,235.94,114.37,15.63,7.92,30.88,15.63,47.29,15.56Z"/>
            <g class="cls-1">
              <path class="cls-7" d="M39.28,342.63c7.65-8.27,18.63-12.55,29.75-13.21,11.99-.71,23.68,2.84,34.05,8.72,10.87,6.17,20.27,14.64,28.64,23.85,8.8,9.68,16.45,20.34,23.44,31.39,7.87,12.46,14.91,25.42,21.93,38.38.92,1.7,3.51.19,2.59-1.51-12.78-23.61-25.76-47.47-43.52-67.78-16.22-18.56-38.2-36.26-64.12-36.14-12.89.06-26,4.59-34.88,14.19-1.31,1.42.81,3.54,2.12,2.12h0Z"/>
              <path class="cls-7" d="M159.5,324.41c-3.37,11.35,1.44,23.04,8.8,31.7,8.17,9.61,19.75,15.24,30.79,20.84,5.69,2.88,11.37,5.82,16.67,9.38,4.62,3.1,8.94,6.64,12.93,10.52,8.12,7.91,14.81,17.24,19.78,27.42,5.57,11.42,8.9,23.94,9.56,36.63.1,1.92,3.1,1.93,3,0-1.18-22.58-10.47-44.4-25.5-61.24-7.76-8.69-16.99-15.72-27.2-21.28-11.13-6.05-23.4-10.85-32.98-19.36s-16.73-21.12-12.96-33.81c.55-1.85-2.34-2.65-2.89-.8h0Z"/>
              <path class="cls-7" d="M345.68,427.4c-5.01,4.92-6.27,12.09-5.29,18.83,1.12,7.63,5.35,14.13,10.01,20.09,5,6.41,10.31,12.44,14.16,19.65s6.28,14.61,7.62,22.42c1.51,8.83,1.39,17.95-.4,26.72-.38,1.88,2.51,2.69,2.89.8,3.13-15.38,1.36-31.47-4.84-45.87-3.14-7.29-7.51-13.72-12.49-19.86s-10.36-12.14-12.84-19.63c-2.32-6.98-2.27-15.56,3.3-21.03,1.38-1.35-.74-3.48-2.12-2.12h0Z"/>
              <path class="cls-7" d="M287.21,399.17c-2.44,4.53-3.55,9.73-3.08,14.86.23,2.53.79,5.01,1.75,7.37s2.63,4.66,2.84,7.24c.37,4.59-4.75,7.63-7.71,10.28-3.58,3.22-6.45,7.26-8.39,11.66-2.21,5.04-3.29,10.51-3,16.01.1,1.92,3.1,1.93,3,0-.51-9.57,3.36-19.13,10.5-25.56,3.14-2.83,7.25-5.48,8.34-9.84.6-2.4,0-4.71-.97-6.93-1.06-2.4-2.26-4.62-2.87-7.19-1.31-5.51-.53-11.42,2.16-16.4.92-1.7-1.67-3.22-2.59-1.51h0Z"/>
            </g>
            <path class="cls-9" d="M405.61,451.57v47.97h-.25c-16.21,0-31.29-7.84-46.67-15.83-78.91-40.91-162.46-78.2-241.35-117.08-12.87-6.66-54.98-22.37-55.79-39.08l-1.03-47.65h.03c1.43,17.16,47.12,34.3,61.82,41.74,79.36,40.21,156.56,74.16,235.94,114.37,15.63,7.92,30.88,15.63,47.29,15.56Z"/>
          </g>
        </g>
        <g>
          <path class="cls-13" d="M405.39,456.6c-17.55,0-33.71-8.18-49.34-16.1-39.59-20.05-79.31-38.87-117.73-57.06-38.56-18.26-78.43-37.15-118.21-57.3-2.52-1.27-6.06-2.88-10.17-4.74-27.91-12.65-53.07-25.32-54.38-41.06-.54-6.34,2.82-12.03,9.99-16.91,11.88-8.09,27.38-13.06,42.36-17.87,6.96-2.24,13.55-4.35,19.43-6.67l115.5-45.64c16.21-6.4,32.37-13.62,49.49-21.27,34.73-15.52,70.64-31.56,106.51-39.99,22.08-5.18,39.73,2.43,58.41,10.47,1.91.82,3.84,1.65,5.79,2.48l224.36,94.76c2.47,1.04,7.13,2.59,12.53,4.37,33.94,11.25,64.43,22.75,64.73,39.75l-10.05.18c-.2-11.28-42.08-25.16-57.84-30.38-5.82-1.93-10.42-3.45-13.27-4.65l-224.36-94.77c-1.97-.83-3.92-1.67-5.86-2.51-17.86-7.69-33.28-14.34-52.13-9.92-34.93,8.21-70.4,24.05-104.7,39.38-16.46,7.35-33.49,14.96-49.9,21.44l-115.5,45.64c-6.19,2.45-12.93,4.61-20.05,6.89-14.31,4.59-29.1,9.34-39.78,16.61-3.95,2.69-5.84,5.3-5.63,7.76.93,11.17,33.07,25.75,48.52,32.75,4.21,1.91,7.85,3.56,10.56,4.93,39.67,20.1,79.48,38.95,117.97,57.18,38.48,18.22,78.26,37.07,117.97,57.18,15.24,7.72,29.65,15.01,44.78,15.01h.22c6.34-.05,12.44-1.38,18.63-4.06,54.79-25.79,109.72-51.65,164.66-77.49,19.31-9.08,38.9-17.63,57.84-25.9,18.96-8.27,38.55-16.83,57.8-25.89,3.2-1.5,7.09-3.15,11.22-4.91,12.37-5.25,29.32-12.44,36.49-19.83,1.56-1.61,2.35-3.09,2.35-4.42h10.05c0,4.03-1.75,7.88-5.19,11.42-8.58,8.85-25.88,16.19-39.78,22.08-4.04,1.71-7.85,3.33-10.87,4.75-19.37,9.12-39.04,17.7-58.06,26-18.88,8.24-38.4,16.76-57.58,25.78-54.93,25.83-109.87,51.69-164.8,77.55-7.59,3.29-14.97,4.89-22.71,4.95h-.26Z"/>
          <path class="cls-13" d="M405.63,504.57h-.27c-17.42,0-33.45-8.33-48.94-16.38-47.71-24.74-97.77-48.46-146.18-71.39-31.43-14.89-63.93-30.29-95.11-45.66-2.28-1.18-5.48-2.64-9.17-4.33-24.59-11.25-48.67-23.53-49.42-39.01l-1.06-48.42,10.05-.35.02.7,1.03,47.71c.51,10.54,29.58,23.83,43.55,30.22,3.82,1.74,7.11,3.25,9.52,4.5,31.02,15.29,63.48,30.67,94.88,45.55,48.49,22.98,98.63,46.74,146.47,71.54,15.13,7.86,29.39,15.27,44.35,15.27,6.52-.02,12.57-1.37,18.71-4.11,54.47-26.23,109.08-52.54,163.69-78.85,37.52-18.09,75.06-36.19,112.58-54.25,4.26-2.05,9.51-4.47,15.14-7.05,12.49-5.74,26.65-12.24,35.76-17.46,2.14-1.23,3.58-3.73,3.72-4.52l-.36-44.18,5.03-.19h5.03v.15l.35,44.36c0,4.54-3.84,10.27-8.75,13.09-9.51,5.45-23.89,12.05-36.57,17.88-5.56,2.55-10.75,4.94-14.97,6.97-37.52,18.07-75.06,36.16-112.58,54.25-54.61,26.31-109.22,52.62-163.82,78.91-7.47,3.34-15.05,5.02-22.67,5.05Z"/>
        </g>
      </g>
    </g>
  </g>
</svg>