<?xml version="1.0" encoding="UTF-8"?>
<svg xmlns="http://www.w3.org/2000/svg" viewBox="0 0 800 800">
  <defs>
    <style>
      .cls-1 {
        fill: #fff;
      }

      .cls-1, .cls-2 {
        font-family: Heavitas, Heavitas;
        font-size: 164.07px;
      }

      .cls-3 {
        letter-spacing: 0em;
      }

      .cls-4 {
        fill: #4d4d4d;
      }

      .cls-5 {
        isolation: isolate;
      }

      .cls-6 {
        fill: #666;
      }

      .cls-7 {
        fill: #333;
      }

      .cls-8 {
        fill: #1a1a1a;
      }

      .cls-9 {
        letter-spacing: -.04em;
      }

      .cls-10 {
        letter-spacing: -.03em;
      }

      .cls-11 {
        fill: #545454;
      }

      .cls-12 {
        fill: gray;
      }

      .cls-13 {
        fill: none;
        stroke: #262b2f;
        stroke-width: 6px;
      }

      .cls-14 {
        fill: #c29470;
      }

      .cls-15 {
        mix-blend-mode: multiply;
        opacity: .5;
      }
    </style>
  </defs>
  <g class="cls-5">
    <g id="Calque_1" data-name="Calque 1">
      <rect class="cls-12" x="0" width="800" height="800" rx="49.55" ry="49.55"/>
      <g>
        <text class="cls-2" transform="translate(25.68 730.27)"><tspan class="cls-9" x="0" y="0">M</tspan><tspan class="cls-3" x="153.57" y="0">O</tspan><tspan class="cls-10" x="289.42" y="0">U</tspan><tspan x="413.45" y="0">SSE</tspan></text>
        <text class="cls-1" transform="translate(25.68 730.27)"><tspan class="cls-9" x="0" y="0">M</tspan><tspan class="cls-3" x="153.57" y="0">O</tspan><tspan class="cls-10" x="289.42" y="0">U</tspan><tspan x="413.45" y="0">SSE</tspan></text>
        <g class="cls-15">
          <g>
            <path class="cls-13" d="M164.5,607.34h-22.86c-1.59,0-3.23.46-4.87,1.35-1.57.86-2.83,1.92-3.74,3.14l-31.39,45.99-31.29-45.84c-.82-1.29-2.06-2.39-3.68-3.28-1.64-.9-3.28-1.35-4.87-1.35h-22.86c-1.88,0-3.57.7-4.9,2.03-1.32,1.32-2.02,3.02-2.02,4.91v112.06c0,1.89.7,3.58,2.01,4.9,1.32,1.33,3.02,2.03,4.91,2.03h24.65c1.88,0,3.58-.7,4.9-2.03,1.32-1.33,2.02-3.02,2.02-4.91v-49.06s25.93,41.73,25.93,41.73l.08.1c1.23,1.65,3.03,2.52,5.2,2.52s4.08-.97,5.18-2.73l26.03-41.89v49.33c0,1.89.7,3.58,2.01,4.9,1.32,1.33,3.02,2.03,4.91,2.03h24.65c1.89,0,3.58-.7,4.9-2.03,1.32-1.32,2.02-3.02,2.02-4.91v-112.06c0-1.88-.7-3.58-2.02-4.91-1.33-1.33-3.02-2.03-4.9-2.03Z"/>
            <path class="cls-13" d="M290.89,624.22c-5.88-5.88-12.84-10.59-20.69-14-7.89-3.43-16.41-5.17-25.31-5.17s-17.42,1.74-25.31,5.17c-7.86,3.42-14.8,8.13-20.62,14.01-5.82,5.87-10.5,12.83-13.91,20.69-3.43,7.89-5.17,16.41-5.17,25.31s1.74,17.42,5.17,25.31c3.42,7.86,8.1,14.81,13.91,20.68,5.82,5.88,12.76,10.59,20.62,14.01,7.89,3.43,16.41,5.17,25.31,5.17s17.42-1.74,25.31-5.17c7.86-3.42,14.82-8.13,20.69-14,5.87-5.87,10.59-12.84,14-20.7,3.43-7.89,5.17-16.41,5.17-25.31s-1.74-17.42-5.17-25.31c-3.41-7.85-8.13-14.82-14-20.7ZM269.5,680.9c-1.38,3.35-3.33,6.35-5.79,8.91-2.47,2.57-5.37,4.64-8.63,6.17-3.19,1.5-6.62,2.26-10.21,2.26s-7.02-.76-10.21-2.26c-3.25-1.53-6.12-3.6-8.53-6.15-2.42-2.56-4.34-5.56-5.73-8.93-1.37-3.33-2.07-6.92-2.07-10.67s.7-7.21,2.08-10.6c1.38-3.4,3.3-6.39,5.7-8.89,2.41-2.51,5.28-4.56,8.55-6.09,3.19-1.5,6.63-2.26,10.21-2.26s7.02.76,10.21,2.26c3.27,1.54,6.18,3.59,8.65,6.11,2.45,2.5,4.38,5.48,5.76,8.87,1.38,3.4,2.08,6.97,2.08,10.6s-.7,7.33-2.07,10.67Z"/>
            <path class="cls-13" d="M424.71,607.34h-24.65c-1.88,0-3.58.7-4.9,2.03-1.32,1.33-2.01,3.02-2.01,4.9v66.45c0,3.78-.59,6.9-1.75,9.26-1.17,2.38-2.59,4.25-4.21,5.55-1.65,1.33-3.46,2.27-5.37,2.82-2.03.58-3.86.87-5.44.87s-3.41-.29-5.44-.87c-1.93-.55-3.77-1.5-5.48-2.84-1.66-1.3-3.09-3.15-4.26-5.52-1.16-2.36-1.75-5.47-1.75-9.26v-66.45c0-1.88-.7-3.58-2.02-4.91-1.32-1.33-3.02-2.03-4.9-2.03h-24.65c-1.88,0-3.58.7-4.91,2.03-1.32,1.33-2.01,3.02-2.01,4.9v66.45c0,8.12,1.34,15.61,3.98,22.27,2.66,6.71,6.47,12.53,11.34,17.28,4.86,4.75,10.77,8.48,17.57,11.08,6.75,2.58,14.34,3.89,22.53,3.89s15.77-1.31,22.53-3.89c6.8-2.6,12.71-6.32,17.57-11.08,4.87-4.76,8.66-10.59,11.26-17.3,2.58-6.66,3.89-14.15,3.89-22.25v-66.45c0-1.88-.7-3.58-2.02-4.91-1.32-1.33-3.02-2.03-4.9-2.03Z"/>
            <path class="cls-13" d="M529.87,663.43c-4.34-3.07-9.06-5.41-14.04-6.97-4.78-1.5-9.25-2.66-13.29-3.45l-.16-.03c-.69-.1-2.37-.39-5.14-.88-2.63-.47-5.39-1.14-8.21-1.97-2.75-.82-5.22-1.79-7.33-2.9-1.64-.86-1.84-1.44-1.84-1.44,0-1,.32-1.3.45-1.43.57-.53,1.3-.92,2.25-1.17,1.19-.32,2.48-.51,3.83-.56,1.59-.05,2.93-.08,4.08-.08,3.73,0,7.9.7,12.41,2.08,4.51,1.38,9.48,3.77,14.78,7.08,1.14.82,2.46,1.25,3.84,1.25.46,0,.93-.05,1.39-.14,1.81-.36,3.35-1.32,4.5-2.86l12.74-18.14c1.1-1.47,1.59-3.21,1.41-5.06-.19-1.84-1.04-3.48-2.48-4.74l-.15-.12c-6.88-5.3-14.19-9.39-21.71-12.17-7.58-2.79-16.23-4.2-25.73-4.2-5.43,0-11.1.6-16.85,1.78-5.91,1.22-11.36,3.4-16.19,6.48-4.91,3.14-9.02,7.42-12.2,12.72-3.22,5.37-4.86,12.18-4.86,20.25,0,5.52.88,10.41,2.61,14.53,1.72,4.1,4.05,7.69,6.92,10.68,2.84,2.96,6.11,5.42,9.71,7.31,3.45,1.81,6.99,3.34,10.52,4.53,3.52,1.19,7,2.11,10.34,2.73,3.21.6,6.01,1.12,8.41,1.55,2.54.55,5.09,1,7.56,1.34,2.24.31,4.21.71,5.85,1.21,1.46.44,2.61.98,3.42,1.58.29.22.44.43.44.96,0,1.62-.66,2.68-2.21,3.52-2.06,1.12-5.27,1.69-9.56,1.69-4.65,0-9.76-1.04-15.18-3.09-5.57-2.1-11.29-5.04-17.03-8.76-1.11-.69-2.33-1.04-3.63-1.04-.49,0-.99.05-1.5.15-1.81.36-3.34,1.32-4.43,2.78l-12.67,18.26c-1.07,1.46-1.54,3.21-1.37,5.06.18,1.97,1.08,3.62,2.6,4.78,3.14,2.58,6.64,5.05,10.38,7.34,3.8,2.33,7.96,4.37,12.38,6.07,4.42,1.7,9.23,3.05,14.3,4,5.09.96,10.63,1.45,16.47,1.45,7.22,0,13.9-.78,19.86-2.31,6.1-1.57,11.42-4.03,15.81-7.31,4.47-3.34,8.01-7.65,10.51-12.83,2.48-5.15,3.74-11.3,3.74-18.29,0-7.52-1.55-13.92-4.61-19.02-2.99-4.99-6.75-9.1-11.18-12.23Z"/>
            <path class="cls-13" d="M641.43,663.43c-4.34-3.06-9.06-5.41-14.04-6.97-4.78-1.5-9.25-2.66-13.29-3.45l-.16-.03c-.68-.1-2.36-.38-5.14-.88-2.63-.47-5.39-1.14-8.21-1.97-2.76-.82-5.22-1.79-7.34-2.9-1.64-.86-1.84-1.44-1.84-1.44,0-1,.32-1.3.45-1.42.57-.53,1.31-.92,2.25-1.17,1.19-.32,2.49-.51,3.84-.56,1.59-.05,2.93-.08,4.08-.08,3.73,0,7.9.7,12.41,2.08,4.51,1.38,9.48,3.77,14.78,7.08,1.14.82,2.47,1.25,3.84,1.25.46,0,.93-.05,1.39-.14,1.81-.36,3.35-1.32,4.49-2.86l12.74-18.14c1.1-1.47,1.59-3.21,1.41-5.06-.19-1.84-1.04-3.48-2.48-4.74l-.15-.12c-6.88-5.3-14.19-9.39-21.71-12.17-7.58-2.79-16.23-4.2-25.73-4.2-5.43,0-11.1.6-16.85,1.78-5.91,1.22-11.36,3.4-16.19,6.48-4.91,3.14-9.02,7.42-12.2,12.72-3.22,5.37-4.86,12.19-4.86,20.25,0,5.52.88,10.41,2.61,14.53,1.72,4.1,4.05,7.69,6.92,10.68,2.84,2.96,6.11,5.42,9.71,7.31,3.45,1.81,6.99,3.34,10.52,4.53,3.52,1.19,7,2.11,10.34,2.73,3.21.6,6.01,1.12,8.41,1.55,2.54.55,5.09,1.01,7.57,1.34,2.24.31,4.21.71,5.85,1.21,1.46.44,2.61.98,3.42,1.58.29.22.44.43.44.96,0,1.62-.66,2.68-2.21,3.52-2.06,1.12-5.28,1.69-9.56,1.69-4.65,0-9.76-1.04-15.18-3.09-5.57-2.1-11.28-5.04-17.03-8.76-1.11-.69-2.33-1.04-3.63-1.04-.49,0-.99.05-1.5.15-1.81.36-3.34,1.32-4.43,2.78l-12.67,18.26c-1.07,1.46-1.55,3.21-1.37,5.07.19,1.97,1.08,3.62,2.6,4.78,3.15,2.58,6.64,5.05,10.38,7.34,3.8,2.32,7.96,4.37,12.38,6.07,4.42,1.7,9.23,3.05,14.3,4,5.09.96,10.63,1.45,16.47,1.45,7.22,0,13.9-.78,19.86-2.31,6.1-1.57,11.42-4.03,15.81-7.31,4.47-3.34,8.01-7.65,10.51-12.83,2.48-5.15,3.74-11.3,3.74-18.29,0-7.52-1.55-13.92-4.61-19.02-2.99-4.99-6.75-9.1-11.18-12.23Z"/>
            <path class="cls-13" d="M706.71,643.63c.2-.2.37-.27.67-.27h51.03c1.89,0,3.58-.7,4.91-2.03,1.33-1.33,2.03-3.02,2.03-4.91v-22.31c0-1.88-.7-3.58-2.03-4.91-1.33-1.32-3.03-2.02-4.91-2.02h-83.51c-1.89,0-3.58.7-4.91,2.03-1.33,1.33-2.03,3.02-2.03,4.91v112.22c0,1.89.7,3.59,2.02,4.91,1.32,1.33,3.02,2.03,4.91,2.03h83.51c1.89,0,3.58-.7,4.91-2.03,1.33-1.33,2.03-3.02,2.03-4.91v-22.64c0-1.88-.7-3.58-2.03-4.91-1.33-1.32-3.03-2.02-4.91-2.02h-51.03c-.3,0-.47-.07-.67-.27-.17-.17-.26-.33-.26-.66v-6.23c0-.3.07-.47.27-.67.2-.2.37-.27.67-.27h44.46c1.88,0,3.58-.7,4.91-2.03,1.33-1.33,2.03-3.02,2.03-4.91v-22.64c0-1.88-.7-3.58-2.03-4.92-1.33-1.32-3.03-2.02-4.91-2.02h-44.46c-.3,0-.47-.07-.67-.27-.17-.17-.26-.33-.26-.66v-6.89c0-.3.07-.47.27-.67Z"/>
          </g>
        </g>
      </g>
      <g>
        <g>
          <path class="cls-4" d="M770.2,285.84l.37,47.05c0,2.42-2.72,6.98-6.6,9.21-14.27,8.17-39.73,19.15-54.27,26.15-39.76,19.15-79.54,38.32-119.29,57.49-57.86,27.88-115.72,55.76-173.59,83.61-7.51,3.36-14.73,4.79-21.73,4.82v-50.83c7.03-.05,14.27-1.46,21.83-4.74,58.21-27.4,116.42-54.8,174.62-82.17,40.87-19.23,81.69-35.65,122.54-54.88,13.95-6.55,41.19-16.06,52.11-27.32,2.77-2.85,3.99-5.65,3.99-8.39Z"/>
          <path class="cls-14" d="M770.2,285.68v.16c0,2.74-1.22,5.54-3.99,8.39-10.92,11.26-38.16,20.77-52.11,27.32-40.85,19.23-81.67,35.65-122.54,54.88-58.21,27.37-116.42,54.77-174.62,82.17-7.56,3.28-14.81,4.69-21.83,4.74-17.39.08-33.55-8.09-50.11-16.48-84.12-42.6-165.92-78.58-250.01-121.18-15.58-7.88-63.99-26.04-65.5-44.23-.37-4.42,2.02-8.81,8.28-13.07,17.68-12.04,44.68-17.65,64.44-25.46,40.79-16.11,81.59-32.25,122.38-48.36,53.02-20.93,108.91-51.6,164.56-64.68,23.99-5.62,43.06,4.29,64.73,13.45,79.24,33.47,158.49,66.94,237.73,100.41,13.98,5.88,78.26,22.23,78.61,41.94Z"/>
          <path class="cls-6" d="M395.1,463.34v50.83h-.27c-17.17,0-33.15-8.31-49.45-16.78-83.61-43.35-172.15-82.87-255.73-124.06-13.63-7.06-58.26-23.7-59.11-41.41l-1.09-50.49h.03c1.52,18.19,49.93,36.35,65.5,44.23,84.09,42.6,165.89,78.58,250.01,121.18,16.56,8.39,32.73,16.56,50.11,16.48Z"/>
        </g>
        <path class="cls-11" d="M734.73,344.01c.92-3.59-2.5-6.7-4.48-4.79-2.55,2.48-3.66,8.73-3.03,13.33,4,2.73,5.21-4.67,7.51-8.54Z"/>
        <path class="cls-11" d="M718.02,329.28c3.98-3.11,1.56-12.11-1.92-6.44-2.4,3.92-1.09,8.79,1.92,6.44Z"/>
        <path class="cls-11" d="M709.26,366.76c.52-1.09.67-3,.54-4.34-.73-7.92-11.65-1.43-13.91,1.69-3.47,4.82-4.84,12.87,1.26,12.79,1.89-.02,6.63-3.21,8.3-4.97.66-.7,3.42-4.34,3.8-5.16Z"/>
        <path class="cls-11" d="M692.54,345.23c2.14,1.98,6.78-2.39,5.6-6.34-1.32-4.45-6.05,2.25-5.6,6.34Z"/>
        <path class="cls-11" d="M670.9,379.01c1.22,7.57,8.68-2.38,6.37-6.89-1.92-3.72-7.11,2.34-6.37,6.89Z"/>
        <path class="cls-11" d="M664.07,361.71c5.76,3.05,7.26-9.7,1.58-7.98-2.92.88-5.42,5.95-1.58,7.98Z"/>
        <path class="cls-11" d="M639.45,387.5c3.21-.75,5.98-8.23.1-7.58-2.26.25-8.64,1.07-6.34,7.56.92,2.6,2.33.21,3.34.02.98-.18,2.01.21,2.91,0Z"/>
        <path class="cls-11" d="M610.06,392.28c2.7,1.56,9.84-1.5,7.81-8.36-.89-3.05-7.23-2.97-8.38.21-.61,1.65-.89,7.31.57,8.15Z"/>
        <path class="cls-11" d="M774.38,325.93c.33.89.1,4.95-.15,6.2-1.33,6.79-10.13,14.06-12.4,5.66-1.52-5.63,3.34-8.88,4.77-13.03,1.13-.88,7.16-.6,7.79,1.16Z"/>
        <path class="cls-11" d="M730.25,339.23c1.98-1.92,5.41,1.2,4.48,4.79-2.3,3.87-3.5,11.27-7.51,8.54-.63-4.6.48-10.85,3.03-13.33Z"/>
        <path class="cls-11" d="M716.1,322.84c3.47-5.67,5.9,3.33,1.92,6.44-3,2.35-4.32-2.52-1.92-6.44Z"/>
        <path class="cls-11" d="M709.8,362.41c.13,1.34-.02,3.25-.54,4.34-.38.82-3.13,4.46-3.8,5.16-1.68,1.76-6.41,4.95-8.3,4.97-6.1.09-4.73-7.97-1.26-12.79,2.25-3.11,13.18-9.61,13.91-1.69Z"/>
        <path class="cls-11" d="M698.15,338.89c1.18,3.95-3.46,8.32-5.6,6.34-.45-4.09,4.29-10.79,5.6-6.34Z"/>
        <path class="cls-11" d="M677.27,372.12c2.32,4.5-5.15,14.46-6.37,6.89-.74-4.55,4.45-10.61,6.37-6.89Z"/>
        <path class="cls-11" d="M665.64,353.73c5.68-1.72,4.18,11.02-1.58,7.98-3.84-2.02-1.34-7.09,1.58-7.98Z"/>
        <path class="cls-11" d="M639.55,379.91c5.89-.64,3.11,6.83-.1,7.58-.89.21-1.93-.18-2.91,0-1.01.18-2.42,2.58-3.34-.02-2.3-6.5,4.08-7.31,6.34-7.56Z"/>
        <path class="cls-11" d="M617.88,383.93c2.02,6.86-5.11,9.91-7.81,8.36-1.46-.84-1.18-6.5-.57-8.15,1.15-3.18,7.49-3.25,8.38-.21Z"/>
        <path class="cls-11" d="M541.12,427.13c.92-3.59-2.5-6.7-4.48-4.79-2.55,2.48-3.66,8.73-3.03,13.33,4,2.73,5.21-4.67,7.51-8.54Z"/>
        <path class="cls-11" d="M524.41,412.4c3.98-3.11,1.56-12.11-1.92-6.44-2.4,3.92-1.09,8.79,1.92,6.44Z"/>
        <path class="cls-11" d="M515.65,449.87c.52-1.09.67-3,.54-4.34-.73-7.92-11.65-1.43-13.91,1.69-3.47,4.82-4.84,12.87,1.26,12.79,1.89-.02,6.63-3.21,8.3-4.97.66-.7,3.42-4.34,3.8-5.16Z"/>
        <path class="cls-11" d="M498.94,428.35c2.14,1.98,6.78-2.39,5.6-6.34-1.32-4.45-6.05,2.25-5.6,6.34Z"/>
        <path class="cls-11" d="M477.29,462.13c1.22,7.57,8.68-2.38,6.37-6.89-1.92-3.72-7.11,2.34-6.37,6.89Z"/>
        <path class="cls-11" d="M470.46,444.82c5.76,3.05,7.26-9.7,1.58-7.98-2.92.88-5.42,5.95-1.58,7.98Z"/>
        <path class="cls-11" d="M457.08,485.29c2.75,1.53,8.56-1.96,7.54-7.86-.44-2.54-5.59-2.49-6.71-1.83-1.13.67-2.42,8.8-.83,9.68Z"/>
        <path class="cls-11" d="M445.85,470.61c3.21-.75,5.98-8.23.1-7.58-2.26.25-8.64,1.07-6.34,7.56.92,2.6,2.33.21,3.34.02.98-.18,2.01.21,2.91,0Z"/>
        <path class="cls-11" d="M416.46,475.4c2.7,1.56,9.84-1.5,7.81-8.36-.89-3.05-7.23-2.97-8.38.21-.61,1.65-.89,7.31.57,8.15Z"/>
        <path class="cls-11" d="M620.88,400.23c1.78,5.71-5.61,12.74-7.21,8.38-.88-2.42,2.23-4.48,3.28-5.77,1.27-1.58,1.56-4.93,3.94-2.61Z"/>
        <path class="cls-11" d="M580.78,409.05c.33.89.1,4.95-.15,6.2-1.33,6.79-10.13,14.06-12.4,5.66-1.52-5.63,3.34-8.88,4.77-13.03,1.13-.88,7.16-.6,7.79,1.16Z"/>
        <path class="cls-11" d="M536.64,422.34c1.98-1.92,5.41,1.2,4.48,4.79-2.3,3.87-3.5,11.27-7.51,8.54-.63-4.6.48-10.85,3.03-13.33Z"/>
        <path class="cls-11" d="M522.5,405.96c3.47-5.67,5.9,3.33,1.92,6.44-3,2.35-4.32-2.52-1.92-6.44Z"/>
        <path class="cls-11" d="M516.19,445.53c.13,1.34-.02,3.25-.54,4.34-.38.82-3.13,4.46-3.8,5.16-1.68,1.76-6.41,4.95-8.3,4.97-6.1.09-4.73-7.97-1.26-12.79,2.25-3.11,13.18-9.61,13.91-1.69Z"/>
        <path class="cls-11" d="M504.54,422.01c1.18,3.95-3.46,8.32-5.6,6.34-.45-4.09,4.29-10.79,5.6-6.34Z"/>
        <path class="cls-11" d="M483.66,455.24c2.32,4.5-5.15,14.46-6.37,6.89-.74-4.55,4.45-10.61,6.37-6.89Z"/>
        <path class="cls-11" d="M472.04,436.85c5.68-1.72,4.18,11.02-1.58,7.98-3.84-2.02-1.34-7.09,1.58-7.98Z"/>
        <path class="cls-11" d="M464.62,477.44c1.02,5.9-4.79,9.39-7.54,7.86-1.59-.88-.3-9.01.83-9.68,1.12-.66,6.28-.71,6.71,1.83Z"/>
        <path class="cls-11" d="M445.94,463.03c5.89-.64,3.11,6.83-.1,7.58-.89.21-1.93-.18-2.91,0-1.01.18-2.42,2.58-3.34-.02-2.3-6.5,4.08-7.31,6.34-7.56Z"/>
        <path class="cls-11" d="M424.27,467.04c2.02,6.86-5.11,9.91-7.81,8.36-1.46-.84-1.18-6.5-.57-8.15,1.15-3.18,7.49-3.25,8.38-.21Z"/>
        <path class="cls-11" d="M117.7,372.9c.63-4.6-.48-10.85-3.03-13.33-1.98-1.92-5.41,1.2-4.48,4.79,2.3,3.87,3.5,11.27,7.51,8.54Z"/>
        <path class="cls-11" d="M128.82,343.18c-3.47-5.67-5.9,3.33-1.92,6.44,3,2.35,4.32-2.52,1.92-6.44Z"/>
        <path class="cls-11" d="M139.46,392.25c1.68,1.76,6.41,4.95,8.3,4.97,6.1.09,4.73-7.97,1.26-12.79-2.25-3.11-13.18-9.61-13.91-1.69-.13,1.34.02,3.25.54,4.34.38.82,3.13,4.46,3.8,5.16Z"/>
        <path class="cls-11" d="M146.77,359.23c-1.18,3.95,3.46,8.32,5.6,6.34.45-4.09-4.29-10.79-5.6-6.34Z"/>
        <path class="cls-11" d="M167.65,392.46c-2.32,4.5,5.15,14.46,6.37,6.89.74-4.55-4.45-10.61-6.37-6.89Z"/>
        <path class="cls-11" d="M179.27,374.07c-5.68-1.72-4.18,11.02,1.58,7.98,3.84-2.02,1.34-7.09-1.58-7.98Z"/>
        <path class="cls-11" d="M193.41,412.83c-1.12-.66-6.28-.71-6.71,1.83-1.02,5.9,4.79,9.39,7.54,7.86,1.59-.88.3-9.01-.83-9.68Z"/>
        <path class="cls-11" d="M208.37,407.84c1.01.18,2.42,2.58,3.34-.02,2.3-6.5-4.08-7.31-6.34-7.56-5.89-.64-3.11,6.83.1,7.58.89.21,1.93-.18,2.91,0Z"/>
        <path class="cls-11" d="M235.42,404.47c-1.15-3.18-7.49-3.25-8.38-.21-2.02,6.86,5.11,9.91,7.81,8.36,1.46-.84,1.18-6.5.57-8.15Z"/>
        <path class="cls-11" d="M30.43,337.46c-1.78,5.71,5.61,12.74,7.21,8.38.88-2.42-2.23-4.48-3.28-5.77-1.27-1.58-1.56-4.93-3.94-2.61Z"/>
        <path class="cls-11" d="M70.54,346.27c-.33.89-.1,4.95.15,6.2,1.33,6.79,10.13,14.06,12.4,5.66,1.52-5.63-3.34-8.88-4.77-13.03-1.13-.88-7.16-.6-7.79,1.16Z"/>
        <path class="cls-11" d="M114.67,359.57c-1.98-1.92-5.41,1.2-4.48,4.79,2.3,3.87,3.5,11.27,7.51,8.54.63-4.6-.48-10.85-3.03-13.33Z"/>
        <path class="cls-11" d="M59.36,330.5c-1.98-1.92-5.41,1.2-4.48,4.79,2.3,3.87,3.5,11.27,7.51,8.54.63-4.6-.48-10.85-3.03-13.33Z"/>
        <path class="cls-11" d="M88.02,322.28c-1.98-1.92-5.41,1.2-4.48,4.79,2.3,3.87,3.5,11.27,7.51,8.54.63-4.6-.48-10.85-3.03-13.33Z"/>
        <path class="cls-11" d="M128.82,343.18c-3.47-5.67-5.9,3.33-1.92,6.44,3,2.35,4.32-2.52,1.92-6.44Z"/>
        <path class="cls-11" d="M135.12,382.76c-.13,1.34.02,3.25.54,4.34.38.82,3.13,4.46,3.8,5.16,1.68,1.76,6.41,4.95,8.3,4.97,6.1.09,4.73-7.97,1.26-12.79-2.25-3.11-13.18-9.61-13.91-1.69Z"/>
        <path class="cls-11" d="M146.77,359.23c-1.18,3.95,3.46,8.32,5.6,6.34.45-4.09-4.29-10.79-5.6-6.34Z"/>
        <path class="cls-11" d="M167.65,392.46c-2.32,4.5,5.15,14.46,6.37,6.89.74-4.55-4.45-10.61-6.37-6.89Z"/>
        <path class="cls-11" d="M179.27,374.07c-5.68-1.72-4.18,11.02,1.58,7.98,3.84-2.02,1.34-7.09-1.58-7.98Z"/>
        <path class="cls-11" d="M186.69,414.66c-1.02,5.9,4.79,9.39,7.54,7.86,1.59-.88.3-9.01-.83-9.68-1.12-.66-6.28-.71-6.71,1.83Z"/>
        <path class="cls-11" d="M205.37,400.25c-5.89-.64-3.11,6.83.1,7.58.89.21,1.93-.18,2.91,0,1.01.18,2.42,2.58,3.34-.02,2.3-6.5-4.08-7.31-6.34-7.56Z"/>
        <path class="cls-11" d="M227.04,404.27c-2.02,6.86,5.11,9.91,7.81,8.36,1.46-.84,1.18-6.5.57-8.15-1.15-3.18-7.49-3.25-8.38-.21Z"/>
        <path class="cls-11" d="M290.6,453.89c.63-4.6-.48-10.85-3.03-13.33-1.98-1.92-5.41,1.2-4.48,4.79,2.3,3.87,3.5,11.27,7.51,8.54Z"/>
        <path class="cls-11" d="M301.72,424.18c-3.47-5.67-5.9,3.33-1.92,6.44,3,2.35,4.32-2.52,1.92-6.44Z"/>
        <path class="cls-11" d="M312.37,473.25c1.68,1.76,6.41,4.95,8.3,4.97,6.1.09,4.73-7.97,1.26-12.79-2.25-3.11-13.18-9.61-13.91-1.69-.13,1.34.02,3.25.54,4.34.38.82,3.13,4.46,3.8,5.16Z"/>
        <path class="cls-11" d="M319.68,440.23c-1.18,3.95,3.46,8.32,5.6,6.34.45-4.09-4.29-10.79-5.6-6.34Z"/>
        <path class="cls-11" d="M340.56,473.46c-2.32,4.5,5.15,14.46,6.37,6.89.74-4.55-4.45-10.61-6.37-6.89Z"/>
        <path class="cls-11" d="M352.18,455.07c-5.68-1.72-4.18,11.02,1.58,7.98,3.84-2.02,1.34-7.09-1.58-7.98Z"/>
        <path class="cls-11" d="M366.32,493.83c-1.12-.66-6.28-.71-6.71,1.83-1.02,5.9,4.79,9.39,7.54,7.86,1.59-.88.3-9.01-.83-9.68Z"/>
        <path class="cls-11" d="M381.28,488.83c1.01.18,2.42,2.58,3.34-.02,2.3-6.5-4.08-7.31-6.34-7.56-5.89-.64-3.11,6.83.1,7.58.89.21,1.93-.18,2.91,0Z"/>
        <path class="cls-11" d="M408.33,485.47c-1.15-3.18-7.49-3.25-8.38-.21-2.02,6.86,5.11,9.91,7.81,8.36,1.46-.84,1.18-6.5.57-8.15Z"/>
        <path class="cls-11" d="M203.33,418.45c-1.78,5.71,5.61,12.74,7.21,8.38.88-2.42-2.23-4.48-3.28-5.77-1.27-1.58-1.56-4.93-3.94-2.61Z"/>
        <path class="cls-11" d="M243.44,427.27c-.33.89-.1,4.95.15,6.2,1.33,6.79,10.13,14.06,12.4,5.66,1.52-5.63-3.34-8.88-4.77-13.03-1.13-.88-7.16-.6-7.79,1.16Z"/>
        <path class="cls-11" d="M53.03,307.93c-.98.64-4.42,4.51-5.37,5.8-5.2,7-6.41,18.65,2.32,12.19,5.85-4.32,5.85-10.06,8.66-14.68.11-1.45-3.69-4.58-5.61-3.31Z"/>
        <path class="cls-11" d="M287.58,440.56c-1.98-1.92-5.41,1.2-4.48,4.79,2.3,3.87,3.5,11.27,7.51,8.54.63-4.6-.48-10.85-3.03-13.33Z"/>
        <path class="cls-11" d="M301.72,424.18c-3.47-5.67-5.9,3.33-1.92,6.44,3,2.35,4.32-2.52,1.92-6.44Z"/>
        <path class="cls-11" d="M308.02,463.75c-.13,1.34.02,3.25.54,4.34.38.82,3.13,4.46,3.8,5.16,1.68,1.76,6.41,4.95,8.3,4.97,6.1.09,4.73-7.97,1.26-12.79-2.25-3.11-13.18-9.61-13.91-1.69Z"/>
        <path class="cls-11" d="M319.68,440.23c-1.18,3.95,3.46,8.32,5.6,6.34.45-4.09-4.29-10.79-5.6-6.34Z"/>
        <path class="cls-11" d="M340.56,473.46c-2.32,4.5,5.15,14.46,6.37,6.89.74-4.55-4.45-10.61-6.37-6.89Z"/>
        <path class="cls-11" d="M352.18,455.07c-5.68-1.72-4.18,11.02,1.58,7.98,3.84-2.02,1.34-7.09-1.58-7.98Z"/>
        <path class="cls-11" d="M359.6,495.66c-1.02,5.9,4.79,9.39,7.54,7.86,1.59-.88.3-9.01-.83-9.68-1.12-.66-6.28-.71-6.71,1.83Z"/>
        <path class="cls-11" d="M378.27,481.25c-5.89-.64-3.11,6.83.1,7.58.89.21,1.93-.18,2.91,0,1.01.18,2.42,2.58,3.34-.02,2.3-6.5-4.08-7.31-6.34-7.56Z"/>
        <path class="cls-11" d="M399.95,485.27c-2.02,6.86,5.11,9.91,7.81,8.36,1.46-.84,1.18-6.5.57-8.15-1.15-3.18-7.49-3.25-8.38-.21Z"/>
        <g>
          <path class="cls-8" d="M775.53,285.83l.37,47.02c0,4.8-4.07,10.87-9.27,13.86-10.09,5.78-25.31,12.77-38.75,18.94-5.9,2.71-11.39,5.23-15.87,7.39-39.76,19.14-79.53,38.31-119.29,57.49-57.86,27.88-115.72,55.76-173.59,83.61-7.91,3.55-15.95,5.32-24.02,5.35h-.28c-18.47,0-35.44-8.82-51.86-17.36-50.55-26.21-103.6-51.35-154.9-75.65-33.31-15.79-67.75-32.1-100.78-48.38-2.42-1.25-5.8-2.8-9.72-4.59-26.06-11.93-51.57-24.93-52.36-41.34l-1.12-51.31h.02c0,.33.02.66.05,1,.52,6.25,4.57,12.02,10.99,17.53l.7,32.4c.54,11.16,31.35,25.24,46.15,32.02,4.05,1.85,7.54,3.45,10.09,4.77,32.87,16.2,67.27,32.49,100.54,48.26,51.38,24.35,104.5,49.52,155.2,75.8,16.03,8.34,31.13,16.18,47,16.18,6.91-.02,13.32-1.45,19.82-4.35,57.73-27.79,115.59-55.67,173.45-83.55,39.76-19.17,79.54-38.35,119.29-57.5,4.52-2.18,10.09-4.73,16.04-7.46,13.24-6.08,28.24-12.97,37.89-18.51,2.27-1.31,3.8-3.95,3.94-4.79l-.25-30.38c1.87-1.41,3.56-2.87,5.02-4.37,3.66-3.75,5.51-7.82,5.51-12.1Z"/>
          <polygon class="cls-8" points="775.53 285.68 775.53 285.83 766.07 285.83 770.2 285.68 775.53 285.68"/>
          <path class="cls-8" d="M775.53,285.58l-5.33.1-5.32.09c-.21-11.95-44.58-26.66-61.28-32.19-6.18-2.05-11.06-3.67-14.07-4.93l-237.74-100.42c-2.09-.88-4.15-1.76-6.2-2.66-18.91-8.15-35.27-15.19-55.23-10.51-37.02,8.69-74.6,25.5-110.95,41.73-17.44,7.79-35.48,15.85-52.87,22.72l-122.38,48.36c-6.56,2.59-13.7,4.87-21.25,7.3-15.16,4.86-30.83,9.9-42.15,17.61-4.18,2.84-6.18,5.61-5.96,8.22h-.02l-.02-.48-10.62.37c-.15-6.31,3.43-12,10.64-16.91,12.59-8.57,29.01-13.84,44.89-18.94,7.38-2.36,14.35-4.6,20.59-7.07l122.38-48.36c17.17-6.78,34.31-14.43,52.45-22.54,36.8-16.44,74.85-33.44,112.85-42.37,23.39-5.48,42.1,2.58,61.89,11.1,2.02.88,4.06,1.75,6.13,2.63l237.74,100.41c2.62,1.1,7.55,2.73,13.28,4.62,35.96,11.93,68.27,24.11,68.59,42.12Z"/>
          <path class="cls-8" d="M766.07,285.83h9.47c0,4.28-1.85,8.35-5.51,12.1-1.46,1.5-3.14,2.96-5.02,4.37l-.13-16.43,1.19-.04Z"/>
          <path class="cls-7" d="M770.2,285.68l-4.13.15h-1.19v.04c-.02,1.39-.86,2.96-2.49,4.65-7.6,7.82-25.55,15.44-38.66,21-4.37,1.86-8.51,3.61-11.89,5.2-20.4,9.6-41.16,18.67-61.25,27.43-20.08,8.76-40.83,17.82-61.29,27.44-58.2,27.38-116.41,54.78-174.47,82.11-6.56,2.84-13.01,4.25-19.74,4.3h-.23c-16.04,0-31.31-7.73-47.45-15.91-42.08-21.31-84.23-41.27-125.01-60.59-40.79-19.31-82.97-39.29-125.01-60.59-2.87-1.46-6.72-3.21-11.19-5.22-16.38-7.42-50.42-22.87-51.41-34.71-.22-2.6,1.78-5.38,5.96-8.22,11.33-7.7,27-12.74,42.15-17.61,7.55-2.43,14.69-4.71,21.25-7.3l122.38-48.36c17.39-6.87,35.43-14.93,52.87-22.72,36.34-16.24,73.93-33.04,110.95-41.73,19.97-4.68,36.32,2.36,55.23,10.51,2.06.89,4.11,1.77,6.2,2.66l237.74,100.42c3.01,1.26,7.89,2.88,14.07,4.93,16.7,5.53,61.08,20.24,61.28,32.19l5.32-.09ZM734.21,289.42c1.16-2.84.82-6.19-.78-8.14-1.56-1.88-3.08-2.35-4.99-1.71-3.71,1.23-2.87,18.86,1.85,15.14.23-.18,3.79-4.94,3.93-5.29ZM706.26,269.65c1.65-4.84-.47-4.7-1.61-7.76-.27-.74-.1-2.08-.3-2.61-1.02-2.62-8.9,1.81-9.65,4.8-2.57,10.34,8.85,13.47,11.57,5.57ZM693.91,300.2c1.99,3.38,6.63-2.84,4.91-7.28-2.85-7.32-7.33,3.16-4.91,7.28ZM685.99,319.44c.13-.77-.9-4.15-1.24-4.86-1.92-4.1-3.34-.01-5.22,1.68-.89.78-2.39,1.04-2.94,1.71-2.25,2.73-1.14,9.47,3.21,7.21.55-.28,6.09-5.16,6.19-5.73ZM683.28,252.26c1.61-6.27-6.52-7.26-5.17.41.39,2.24,3.2,2.46,4.24,1.96.36-.18.16-1.25.39-1.87.11-.29.49-.34.53-.5ZM669.78,303.29c3.58-4.44,2.27-13.59-2.75-11.03-1.08.54-1.31,2.94-1.98,3.68-1.64,1.83-5.13-.41-5.35,5.03-.04,1.27,2.01,8.64,2.29,8.77,1.23.6,2.17-2.97,3.12-3.82,1.34-1.19,3.25-.85,4.68-2.62ZM658.2,279.68c3.33-1.08,5.03-12.73-.29-11.78-2.77.49-6.58,1.24-6.55,7.24.02,5.43,4.57,5.29,6.84,4.55ZM644.74,252.56c1.68-3.07,2.86-6.78,1.99-11.19-.58-2.97-6.34-2.33-7.68-.25-1.24,1.94-2.21,6.29-1.7,9.17.08.42,2.57,5.58,2.83,5.78,1.89,1.5,3.43-1.43,4.56-3.51ZM645.4,331.23c1.72-6.88-3.25-8.31-6.12-6.9-1.84.91-2.87,7.92-1.13,9.38,1.12.94,6.65-.07,7.25-2.48ZM629.58,276.21c5.65,1.29,4.98-9.77-.3-7.64-2.35.96-2.31,7.04.3,7.64ZM624.54,312.72c1.57-.83,1.97-6.56,1.07-7.53-.33-.36-6.79.59-7.21,2.02-1.48,4.97,2.51,3.81,3.67,4.24.25.1.26,2.43,2.48,1.26ZM615.86,340.38c1.66-4.84-.46-4.69-1.6-7.75-.28-.75-.1-2.08-.3-2.62-1.03-2.61-8.9,1.81-9.65,4.8-2.57,10.34,8.85,13.47,11.56,5.57ZM608.42,241.74c.78.26,4.08,5.32,3.46-.89-.48-4.89-4.12-6.43-6.64-6.02-3.99.66-6.14,7.48-1.37,7.68,1.51.07,3.01-1.28,4.55-.77ZM609.49,277.94c1.56-1.57.15-8.88-.51-11.13-.7-2.36-2.2-3.75-3.74-3.21-1.04.36-2.07,2.17-2.3,3.92-.18,1.44.21,8.2.53,9.37.52,1.89,5.14,1.95,6.02,1.06ZM600.24,306.3c2.88-2.24-.44-8.37-2.6-7.27-2.66,1.34-.27,9.5,2.6,7.27ZM588.92,266.34c.57-.26.9-5.11.15-6.22-.81-1.18-5.42-1.15-6.55-.55-2.81,1.48-2.27,8.48.25,8.89,1.18.2,1.45-1.81,2.47-2.14,1.1-.36,2.8.45,3.68.03ZM581.93,348.29c2.49-1.16,3.69-3.32,3.34-7.83-.39-4.99-3.7-4.62-5.92-4.34-1.09.14-4.08.54-4.42,2.36-.86,4.55,3.26,3.06,4.12,4.08.88,1.06-.5,7.31,2.87,5.73ZM583.18,228.26c.58-.16,1.29-1.63.83-2.46-.23-.41-5.77.02-6.66.3-2.83.89-9.63,8.15-7.65,13.81,1.34,3.81,6.1-1.9,7.86-2.87,2.71-1.49,9.41-1.45,5.63-8.78ZM579.82,315.48c1.02-1.26.4-4.76-.59-6.1-3.56-4.82-8.27,4.66-4.73,6.64.98.54,4.59.36,5.32-.53ZM573.84,277.22c.59-.15,1.31-1.62.83-2.46-.23-.4-5.77.02-6.66.3-2.82.89-9.63,8.16-7.65,13.81,1.35,3.82,6.12-1.9,7.87-2.86,2.7-1.49,9.41-1.46,5.61-8.79ZM560.16,370.13c1.6,4.36,9-2.67,7.21-8.38-2.38-2.32-2.67,1.03-3.94,2.61-1.04,1.28-4.16,3.35-3.28,5.77ZM563.8,344.91c4.04.51,2.8-7.28-1.6-4.85-1.66.91-.6,4.58,1.6,4.85ZM544.22,216.95c.91,8.36,15.17,2.82,13.58-9-.71-5.3-4.17-4.96-6.64-4.54-1.57.27-6.18,1.19-6.74,3.34-.36,1.38-.38,8.55-.21,10.2ZM554.16,262.85c3.06-2.75.23-10.94-4.27-9.38-.74.26-2.7,1.61-2.18,3.37.92,3.12,2.96,1.43,3.96,2.44.78.79.7,5.18,2.48,3.57ZM545.29,237.14c1.61-6.27-6.53-7.26-5.17.41.39,2.24,3.2,2.46,4.23,1.96.37-.18.17-1.25.4-1.87.11-.29.49-.34.53-.5ZM539.68,348.35c2.48-2.17,5.34-1.84,4.95-7.86-.22-3.31-1.7-3.78-3.45-2.98-.83.38-5.98,8.49-6.32,9.73-.37,1.36-.09,3.87.62,4.61,1.12,1.16,3.32-2.73,4.2-3.5ZM541.55,313.63c5.88,1.02,5.4-11.06.1-8.36-1.85.94-3.25,7.8-.1,8.36ZM527.11,376.77c.25-1.25.48-5.31.15-6.2-.63-1.76-6.66-2.05-7.79-1.16-1.43,4.15-6.29,7.4-4.77,13.03,2.27,8.4,11.08,1.13,12.4-5.66ZM524.33,257.21c.6-1.36,1.33-7.45.42-8.54-.89-1.08-4.66.57-5.29,2.02-2.15,4.97,2.81,11.2,4.86,6.52ZM516.59,299.96c4.12,2.24,6.22-5.3,2.07-6.69-3.28-1.09-3.75,5.78-2.07,6.69ZM517.11,198.32c4.27-2.99,2.37-11.86-1.23-14.19-1.36-.88-3.37-.53-4.52-1.51-.59-.49-.61-1.6-.79-1.78-.25-.27-5.21-.89-5.85-.84-2.17.16-6.02,4.47-6.43,8.24-1.32,12.21,14.56,13.07,18.82,10.09ZM515.77,351.12c1.86-5.36-3.18-4.49-3.13-.04.02,2.58,2.36,2.3,3.13.04ZM512.09,218.78c3.13-.55,2.24-6.93-1.58-5.54-2.67.97-2.01,6.17,1.58,5.54ZM503.76,278.27c3.33-1.08,5.03-12.74-.29-11.8-2.76.5-6.57,1.25-6.55,7.24.02,5.44,4.57,5.3,6.84,4.56ZM501.02,315.48c3.06-3.75-.66-13.01-4.67-9-4.02,4.04,1.08,13.39,4.67,9ZM500.45,222.26c2.73-.85,1.23-6.45-1.58-4.84-1.22.7-1.33,5.73,1.58,4.84ZM498.44,341.84c1.04-5.8-5.35-7.44-7.8-6.89-3.07.7-8.85,4.22-10.78,8.45-3.34,7.3,1.5,8.03,4.85,8.32,2.06.17,7.33-.09,9.09-1.55,1.33-1.1,4.21-5.94,4.65-8.35ZM489.55,251.14c2.77-2.51,7.33-10.63,3.51-15.11-.67-.78-3.31-1.78-4.19-1.61-2.06.4-3,3.86-4.37,4.6-2.36,1.28-7.03-1.53-8.13,4.52-2.2,12.13,9.02,11.39,13.18,7.61ZM487.61,388.65c.92-3.59-2.5-6.7-4.48-4.79-2.55,2.48-3.66,8.73-3.03,13.33,4,2.73,5.21-4.67,7.51-8.54ZM482.68,216.3c1.61-1.96,2.42-13.73-.63-11.71-1.74,1.18-1.57,3.71-1.68,3.9-.94,1.51-2.59-4.47-4.18-2.52-.58.71-.49,4.45-.36,5.67.04.5,1.15,5.03,1.28,5.21.32.47,4.89.28,5.56-.54ZM475.21,186.77c1.23,7.57,8.68-2.38,6.37-6.89-1.9-3.72-7.09,2.34-6.37,6.89ZM470.47,289.24c.82,7.14,10.67,1.1,9.33-3.85-.65-2.42-2.19-3.48-3.61-3.36-3.1.25-6.54-.01-5.71,7.21ZM470.9,373.92c3.98-3.11,1.56-12.11-1.92-6.44-2.4,3.92-1.09,8.79,1.92,6.44ZM464.09,326.22c1.08-1.72,1.7-12.48.88-14.82-.89-2.55-5.13-1.96-6.76-1.52-3.24.85-1.74,1.63-2.62,4.7-.4,1.39-1.41,2.84-1.65,4.24-.32,1.81-.6,9.21.49,9.8,1.66.94,8.31-.25,9.66-2.4ZM462.14,411.39c.52-1.09.67-3,.54-4.34-.73-7.92-11.65-1.43-13.91,1.69-3.47,4.82-4.84,12.87,1.26,12.79,1.89-.02,6.63-3.21,8.3-4.97.66-.7,3.42-4.34,3.8-5.16ZM453.93,217.82c1.23,7.56,8.68-2.38,6.37-6.89-1.92-3.72-7.11,2.34-6.37,6.89ZM454.92,173.04c1.16-2.83.82-6.18-.78-8.13-1.56-1.88-3.08-2.35-5.01-1.71-3.7,1.23-2.87,18.85,1.85,15.14.23-.18,3.8-4.94,3.94-5.3ZM451.58,245.93c1.68-3.07,2.85-6.79,1.99-11.19-.59-2.97-6.35-2.33-7.68-.25-1.24,1.94-2.21,6.29-1.7,9.16.08.44,2.57,5.58,2.82,5.79,1.9,1.49,3.43-1.43,4.57-3.51ZM453.34,289.39c1.56-3.42.85-9.7-2.35-7.18-.15.12-2.46,3.39-2.5,3.66-1.09,6.62,3.09,7.41,4.85,3.53ZM452.64,270.21c1.23-1,1.99-8.32-1.74-7.93-1.45.15-6.91,2.08-7.33,4.55-.47,2.8,1.24,4.22,2.63,4.46.77.14,5.96-.69,6.44-1.08ZM445.42,389.87c2.14,1.98,6.78-2.39,5.6-6.34-1.32-4.45-6.05,2.25-5.6,6.34ZM445.39,351.91c3.36.01,3.21-7.3-.32-6.78-2.96.44-2.77,6.78.32,6.78ZM431.94,204.29c5.75,3.04,7.25-9.71,1.57-7.98-2.92.88-5.42,5.95-1.57,7.98ZM431.25,296.59c1.65-4.84-.47-4.69-1.61-7.75-.27-.74-.1-2.08-.3-2.61-1.02-2.62-8.9,1.8-9.64,4.8-2.58,10.33,8.84,13.47,11.56,5.56ZM423.78,423.64c1.22,7.57,8.68-2.38,6.37-6.89-1.92-3.72-7.11,2.34-6.37,6.89ZM429.29,372.24c1.16-2.84.82-6.18-.78-8.13-1.56-1.89-3.08-2.36-5.01-1.72-3.7,1.24-2.86,18.86,1.86,15.14.23-.17,3.79-4.94,3.93-5.29ZM424.34,248.15c1.08-2,2.42-11.4,1.97-13.98-.16-.98-2.51-5.75-3.11-6.04-.6-.28-.95.03-1.43.07-2.21.18-7.07,1.01-8.59,3.79-4.16,7.6,6.29,25.27,11.15,16.17ZM418.9,333.37c1.99,3.38,6.63-2.84,4.91-7.28-2.84-7.32-7.33,3.16-4.91,7.28ZM422.94,161.45c.13-.77-.89-4.16-1.23-4.87-1.92-4.09-3.35,0-5.23,1.68-.88.79-2.39,1.04-2.94,1.71-2.24,2.74-1.13,9.47,3.21,7.23.55-.28,6.09-5.16,6.19-5.73ZM416.95,406.34c5.76,3.05,7.26-9.7,1.58-7.98-2.92.88-5.42,5.95-1.58,7.98ZM416.89,269.35c.18-.97.09-2.03.09-3.03-8.66-.81-1.53,10.54-.09,3.03ZM403.56,446.81c2.75,1.53,8.56-1.96,7.54-7.86-.44-2.54-5.59-2.49-6.71-1.83-1.13.67-2.42,8.8-.83,9.68ZM411.04,281.64c1.61-6.28-6.53-7.26-5.17.41.39,2.23,3.2,2.46,4.23,1.95.37-.17.17-1.24.4-1.87.11-.29.49-.34.53-.49ZM396.72,200.43c3.82.34,15.94-3.29,13.24-13.41-.11-.41-3.28-6.4-3.53-6.68-.78-.89-1.19-1.19-2.15-.97-1.19.27-3.95,3.17-5.59,3.95-1.11.52-2.02-.35-3.25.83-.39.38-2.77,4.71-2.97,5.51-1.51,6.28.42,10.42,4.25,10.77ZM399.77,267.74c.78.27,4.07,5.32,3.46-.89-.49-4.89-4.12-6.43-6.65-6.02-3.99.66-6.13,7.48-1.36,7.68,1.51.07,3-1.28,4.55-.77ZM401.14,372.67c.13-.77-.9-4.15-1.24-4.86-1.9-4.1-3.34-.01-5.22,1.68-.89.78-2.39,1.04-2.94,1.71-2.25,2.73-1.14,9.47,3.21,7.23.55-.29,6.09-5.17,6.19-5.75ZM394.77,336.46c3.57-4.44,2.27-13.59-2.76-11.03-1.08.54-1.31,2.94-1.98,3.69-1.64,1.82-5.13-.41-5.34,5.02-.05,1.28,2,8.64,2.27,8.78,1.23.59,2.18-2.98,3.13-3.83,1.33-1.19,3.24-.84,4.68-2.62ZM392.33,432.13c3.21-.75,5.98-8.23.1-7.58-2.26.25-8.64,1.07-6.34,7.56.92,2.6,2.33.21,3.34.02.98-.18,2.01.21,2.91,0ZM392.2,153.18c1.72-6.88-3.26-8.31-6.13-6.89-1.84.91-2.86,7.91-1.12,9.38,1.12.94,6.64-.08,7.25-2.49ZM389.62,226.27c5.66,1.29,4.98-9.77-.3-7.63-2.34.95-2.3,7.03.3,7.63ZM374.91,411.65c3.82.34,15.94-3.29,13.24-13.41-.11-.4-3.28-6.39-3.53-6.68-.78-.88-1.2-1.19-2.15-.97-1.19.27-3.95,3.17-5.6,3.95-1.1.52-2.02-.35-3.24.83-.4.39-2.77,4.71-2.97,5.52-1.52,6.28.41,10.42,4.25,10.76ZM383.77,246.85c.57-1.5.58-5.26-.05-6.46-1.12-2.17-9.63-1.87-11.44-1.1-1.12.49-2.1,2-3.21,2.3-2,.54-7.66-1.5-8.39,2.66-.86,4.86.79,10.59,3.87,11.46,2.63.75,10.91-.83,13.55-2.27,1.03-.57,5.11-5.11,5.67-6.57ZM383.18,312.87c3.33-1.09,5.03-12.74-.29-11.8-2.76.49-6.57,1.24-6.55,7.24.02,5.44,4.57,5.29,6.84,4.56ZM369.72,285.75c1.68-3.08,2.86-6.79,2-11.2-.59-2.97-6.35-2.33-7.68-.25-1.25,1.94-2.22,6.29-1.71,9.17.09.42,2.57,5.58,2.83,5.78,1.9,1.5,3.43-1.43,4.56-3.5ZM362.94,436.92c2.7,1.56,9.84-1.5,7.81-8.36-.89-3.05-7.23-2.97-8.38.21-.61,1.65-.89,7.31.57,8.15ZM370.4,364.41c1.71-6.88-3.26-8.31-6.13-6.9-1.84.91-2.87,7.92-1.12,9.38,1.12.94,6.64-.07,7.25-2.48ZM369.78,209.62c4.27-2.99,2.37-11.86-1.23-14.19-1.36-.88-3.36-.53-4.52-1.51-.59-.5-.61-1.6-.79-1.8-.25-.26-5.21-.88-5.85-.83-2.17.16-6.02,4.47-6.42,8.23-1.33,12.22,14.55,13.08,18.81,10.1ZM368.75,176.13c.85-1.04.99-10.95.3-12.26-.12-.24-3.38-1.39-3.81-1.33-3.14.54-3.67,8.76-2.17,11.85.91,1.85,4.67,2.97,5.67,1.74ZM354.56,309.39c5.66,1.29,4.98-9.77-.3-7.63-2.35.95-2.3,7.03.3,7.63ZM353.97,226.41c.53-5.88-6.3-5.97-4.36.42.28.95,3.24,3.06,3.49,2.76.08-.1.84-2.83.87-3.19ZM349.53,345.9c1.57-.83,1.97-6.55,1.07-7.53-.33-.35-6.79.59-7.21,2.02-1.47,4.97,2.52,3.81,3.67,4.24.26.1.27,2.43,2.48,1.26ZM347.96,420.84c4.28-2.99,2.38-11.86-1.22-14.19-1.37-.88-3.37-.53-4.52-1.51-.59-.49-.61-1.6-.79-1.78-.25-.26-5.21-.89-5.85-.84-2.18.17-6.02,4.48-6.43,8.24-1.32,12.21,14.56,13.08,18.81,10.09ZM346.94,387.36c.86-1.04,1-10.95.32-12.26-.13-.25-3.39-1.4-3.81-1.33-3.14.54-3.67,8.75-2.17,11.84.9,1.86,4.66,2.97,5.66,1.75ZM345.11,168.36c2.52-7.52-3.34-8.47-6.35-7.29-1.69.65-7.97,9.59-5.69,12.91,2.12,3.1,10.63-1.38,12.05-5.61ZM330.83,273.94c1.07,3.21,11.66,2.07,8.65-4.5-.96-2.09-1.76-.33-2.31-.28-2.14.16-4.3-.12-6.43,0,.13,1.35-.26,3.71.09,4.79ZM337.31,243.24c.35-1.95-.64-5.2-1.61-6.16-2.91-2.88-15.01.61-15.3,7.76-.08,1.78,1.4,7.74,2.17,8.6,1.74,1.97,6.3.66,8.2-.84,1.38-1.09,6.15-7.15,6.54-9.36ZM334.48,311.13c1.56-1.58.15-8.89-.51-11.14-.7-2.35-2.2-3.74-3.74-3.21-1.04.37-2.07,2.17-2.3,3.92-.18,1.44.21,8.2.53,9.37.53,1.89,5.15,1.95,6.02,1.07ZM325.23,339.48c2.89-2.24-.44-8.36-2.6-7.27-2.66,1.34-.27,9.5,2.6,7.27ZM322.75,224.58c3.53,1.8,3.67-9.93,0-8.24-1.61.74-1.66,7.39,0,8.24ZM323.3,379.59c2.52-7.52-3.34-8.48-6.35-7.3-1.69.65-7.97,9.6-5.69,12.92,2.12,3.09,10.63-1.38,12.05-5.61ZM313.9,299.52c.58-.26.91-5.11.15-6.21-.81-1.19-5.42-1.15-6.55-.57-2.81,1.48-2.27,8.48.25,8.89,1.18.2,1.45-1.81,2.48-2.14,1.09-.36,2.79.45,3.67.03ZM312.02,202.71c.75-4.31-1.49-6.46-1.96-10.48-.54-.66-1.93-.35-2.62-.14-3.76,1.16-5.73,12.21-2.57,13.22,1.69.53,6.55.83,7.15-2.6ZM310.13,181.15c.95-1.26,1.73-5.08,1.02-6.81-.44-1.07-3.67-.82-4.49-.5-1.75.66-1.85,3.38-2.98,4.81-1.03,1.31-3.72,1.43-2.93,4.94.73,1.73,8.48-1.23,9.38-2.44ZM309.81,412.34c1.62-6.04-3.92-8.22-6.55-6.9-1.23.61-1.74,7.65-1.35,9.02.91,3.16,7.11.81,7.9-2.12ZM306.47,218.35c3.07-.87.83-9.23-1.74-5.45-1.16,1.71-.94,6.22,1.74,5.45ZM304.8,348.66c1.02-1.26.4-4.76-.59-6.09-3.56-4.82-8.27,4.65-4.72,6.63.97.54,4.59.36,5.31-.53ZM297.62,275.43c.23.6,7.55,2.82,6.55-2.33-.38-1.98-8.37-2.32-6.55,2.33ZM300.89,390.82c1.9-1.41,1.85-9.72-.28-10.76-.84-.41-2.7-.34-3.56-.01-2.23.87-5.91,8.93-2.79,11.5.58.48,5.98-.25,6.63-.73ZM299.21,239.83c2.37-2.23,4.03-14.06.69-13.72-1.01.11-1.93,2-2.96,2.1-1.12.11-1.98-.96-3.61-.51-.24.07-2.21,1.28-2.29,1.45-.18.35.01,1.43-.18,1.76-.23.38-.95-.01-1.09.22-.17.27-.14,3.72-.05,4.5.58,5.09,7.21,6.33,9.5,4.2ZM298.82,310.4c.59-.15,1.31-1.62.84-2.46-.24-.4-5.78.03-6.67.3-2.82.89-9.63,8.16-7.64,13.81,1.34,3.82,6.1-1.89,7.86-2.86,2.7-1.49,9.41-1.45,5.61-8.79ZM286.2,208.49c1.6-5.28-6.41-3.26-7.86-2.76-.84.3-4.69,2.5-5.2,3.14-1.19,1.47-1.14,6.45.25,7.26,1.7.98,7.77.16,9.15-2.19.48-.82.73-3.62,1.01-3.92.57-.58,2.02.49,2.64-1.53ZM277.06,191.82c-3.21,5.57,7.26,4.54,5.04-2.08-.24-.7-1.89-1.74-2.51-1.46-.16.08-2.25,3.07-2.52,3.54ZM278.28,261.99c.97-.4,1.4-7.17,1-8.26-1-2.71-3.58,1.38-3.84,1.28-.83-.29-1.13-4.23-2.52-3.5-1.07.57-.63,4.56-.16,5.93.82,2.39,4.04,5.17,5.53,4.55ZM269.16,385.54c1.8,4.97,5.93-3.04,5.18-4.9-.33-.81-3.31-1.95-4.13-1.11-.57.6-1.44,4.93-1.04,6.01ZM259.86,299.11c.91,8.36,15.17,2.82,13.58-9-.71-5.3-4.18-4.96-6.64-4.54-1.58.27-6.18,1.19-6.74,3.34-.36,1.38-.39,8.55-.21,10.2ZM269.81,345.01c3.06-2.76.22-10.94-4.27-9.38-.75.25-2.71,1.61-2.19,3.37.92,3.12,2.96,1.43,3.96,2.44.78.79.71,5.18,2.49,3.57ZM264.33,371.28c1.03-2.74,4.58-8.96,1.03-10.27-2.87.71-10.72-2.62-12.85.05-1.29,1.63-2.15,9.87-.26,10.96,2.7,1.55,8.92-1.71,12.08-.74ZM256.12,243.39c3.56-2.68,1.01-8.44-2.98-5.78-.49.33-4.67,4.45-4.81,4.86-.16.51-.17,2.45-.07,2.64.84,1.56,6.63-.81,7.86-1.73ZM248.24,212.36c2.5-2.13,2.97-6.08,2.48-10.59-.39-3.67-7.37-2.69-9.22-2.29-4.05.87-8.88,4.25-7.68,12.72.59,4.2,4.57,5.29,6.72,4.69.9-.25,6.78-3.75,7.69-4.54ZM246.52,276.1c.26-.29.54-2.98.49-3.74-.37-4.67-7.88-5.38-6.56,1.94.45,2.5,5.43,2.49,6.07,1.81ZM239.97,339.37c.6-1.36,1.32-7.45.42-8.54-.9-1.08-4.66.57-5.29,2.02-2.17,4.97,2.81,11.2,4.86,6.52ZM239.96,238.42c.64-7.49-7.69-2.13-8.22.89-1.38,8.03,3.32,7.94,6.01,4.22.28-.39,2.17-4.54,2.21-5.11ZM227.51,380.23c.4,2.3,5.58,1.45,4.1-2.38-.53-1.37-4.73-1.25-4.1,2.38ZM227.73,300.94c3.14-.55,2.25-6.93-1.57-5.54-2.67.97-2.02,6.17,1.57,5.54ZM217.44,235.43c2.95-2.77,2.38-8.74-1.19-8.42-2.21.18-7.08.94-6.51,6.34.64,5.95,5.44,4.2,7.69,2.08ZM216.09,304.42c2.74-.85,1.24-6.45-1.58-4.84-1.21.7-1.32,5.73,1.58,4.84ZM215.89,265.98c.07-4.21-3.84-4.86-4.49-3.09-.15.44-.13,5.22-.01,5.47.7,1.38,4.45,1.09,4.5-2.38ZM202.05,363.64c2.01,1.04,5.11-9.03,3.51-10.95-1.96-2.34-7.89,1.4-6.37,6.56.67,2.27,1.68,1.13,2.11,1.73.24.35.05,2.3.74,2.66ZM203.71,295.3c1.61-1.96,2.4-13.73-.63-11.71-1.75,1.18-1.57,3.71-1.69,3.9-.92,1.52-2.58-4.47-4.17-2.52-.58.71-.49,4.45-.36,5.67.04.51,1.15,5.03,1.27,5.21.32.48,4.9.28,5.57-.54ZM194.45,334.57c2.77-2.52,7.32-10.63,3.5-15.13-.66-.78-3.31-1.78-4.19-1.61-2.05.41-3,3.87-4.36,4.61-2.36,1.27-7.03-1.55-8.13,4.5-2.21,12.13,9.01,11.39,13.18,7.62ZM188.93,260.99c2.88-3.71,4.39-10.22-.28-11.4-5.34-1.36-10.29,3.86-13.93,9.46-.25.39-.9.29-1.28.94-.71,1.16-2.31,6.09-.78,6.95.33.2,5.7-.51,6.52-.67,3.26-.66,7.12-1.86,9.76-5.27ZM187.98,228.69c.63-.9,1.04-2.94,1.02-4.33-.16-7.09-10.9-3.51-8.37,2.86.14.35,3.01,4.34,3.22,4.43.71.3,3.57-2.14,4.12-2.96ZM166.57,309c.34,2.96,6.29,5.92,6.26-.72-.02-3.63-3.47-5.28-5.13-4.44-1.22.61-1.33,3.44-1.13,5.16ZM158.5,248c2.19-.02,6.93-7.34,5.52-11.21-.33-.9-3.54-.92-4.31-.83-6.13.79-9.9,12.15-1.21,12.03ZM144.62,274.49c-.09,8.56,10.61,2.23,9.51-5.34-2.14-.54-3.46,1.99-5.69,2.66-1.8.53-3.79-1.25-3.82,2.69ZM151.62,337.25c4.52,2.42,6.44-8.82.74-6.57-2.19.85-3.49,5.1-.74,6.57ZM135.92,329.53c1.99-4.28-1.97-6.08-3.92-5.83-2.84.35-3.22,6.04-.87,6.8.99.33,4.16.39,4.79-.97ZM125.52,258.15c.08-1.13-.03-3.61-.52-4.35-2.1-3.13-13.1-.96-16.16.01-2.38.75-6.25,2.52-5.7,7.9.52,5.19,3.93,2,4.57,2.8,1.23,1.48-.34,6.28,4.67,4.48.99-.36,2-1.94,3.1-2.47,2.64-1.28,9.63-2.73,10.04-8.37ZM123.05,304.8c1.07-2,2.42-11.4,1.97-13.98-.17-.98-2.51-5.75-3.11-6.04-.6-.28-.95.03-1.44.07-2.21.18-7.06,1.01-8.59,3.79-4.16,7.6,6.29,25.27,11.16,16.17ZM94.81,311.17c2.1,2.59,7.68-9.11,3.24-8.06-1.93.46-5.23,5.59-3.24,8.06ZM77.88,289.32c2.08-4.43-2.84-8.12-5.11-7.36-2.22.73-2.63,5.84-1.14,7.29.89.86,5.47,1.73,6.26.07Z"/>
          <path class="cls-8" d="M766.07,285.83l-1.19.04v-.04h1.19Z"/>
          <path class="cls-8" d="M764.88,285.88l.13,16.43c-9.84,7.45-24.76,13.79-37.13,19.03-4.28,1.81-8.32,3.53-11.52,5.03-20.52,9.66-41.36,18.76-61.51,27.55-20.01,8.74-40.7,17.77-61.02,27.32-58.2,27.38-116.42,54.78-174.62,82.18-8.04,3.49-15.87,5.18-24.06,5.24h-.28c-18.6,0-35.71-8.67-52.27-17.05-41.96-21.25-84.05-41.19-124.76-60.47-40.86-19.36-83.1-39.36-125.26-60.72-2.67-1.35-6.43-3.06-10.78-5.03-18.51-8.39-35.89-16.79-46.63-25.98l-.39-18.15v-.27s.01,0,.01,0c.99,11.84,35.04,27.29,51.41,34.71,4.46,2.01,8.31,3.76,11.19,5.22,42.03,21.29,84.21,41.27,125.01,60.59,40.77,19.31,82.93,39.28,125.01,60.59,16.15,8.18,31.41,15.91,47.45,15.91h.23c6.72-.04,13.18-1.46,19.74-4.3,58.06-27.33,116.27-54.73,174.47-82.11,20.47-9.62,41.22-18.68,61.29-27.44,20.09-8.76,40.85-17.83,61.25-27.43,3.38-1.59,7.52-3.34,11.89-5.2,13.11-5.56,31.07-13.18,38.66-21,1.63-1.69,2.47-3.25,2.49-4.65Z"/>
          <path class="cls-11" d="M733.42,281.28c1.6,1.95,1.95,5.3.78,8.14-.14.35-3.7,5.1-3.93,5.29-4.72,3.72-5.56-13.91-1.85-15.14,1.92-.64,3.44-.17,4.99,1.71Z"/>
          <path class="cls-11" d="M704.65,261.89c1.14,3.06,3.26,2.92,1.61,7.76-2.72,7.9-14.13,4.77-11.57-5.57.75-2.99,8.63-7.42,9.65-4.8.21.53.03,1.87.3,2.61Z"/>
          <path class="cls-11" d="M698.82,292.92c1.72,4.44-2.92,10.66-4.91,7.28-2.43-4.12,2.06-14.6,4.91-7.28Z"/>
          <path class="cls-11" d="M684.75,314.58c.34.72,1.37,4.09,1.24,4.86-.1.58-5.64,5.45-6.19,5.73-4.35,2.25-5.46-4.48-3.21-7.21.54-.66,2.05-.92,2.94-1.71,1.88-1.69,3.31-5.78,5.22-1.68Z"/>
          <path class="cls-11" d="M678.11,252.68c-1.35-7.67,6.78-6.68,5.17-.41-.04.16-.42.21-.53.5-.23.62-.03,1.69-.39,1.87-1.04.5-3.85.28-4.24-1.96Z"/>
          <path class="cls-11" d="M667.02,292.25c5.03-2.56,6.33,6.59,2.75,11.03-1.43,1.77-3.34,1.44-4.68,2.62-.96.85-1.89,4.42-3.12,3.82-.27-.13-2.33-7.5-2.29-8.77.23-5.44,3.71-3.2,5.35-5.03.67-.74.9-3.13,1.98-3.68Z"/>
          <path class="cls-11" d="M657.91,267.9c5.32-.95,3.62,10.71.29,11.78-2.27.74-6.82.88-6.84-4.55-.03-6,3.78-6.75,6.55-7.24Z"/>
          <path class="cls-11" d="M646.73,241.37c.87,4.41-.32,8.12-1.99,11.19-1.13,2.09-2.67,5.02-4.56,3.51-.26-.2-2.75-5.35-2.83-5.78-.51-2.88.46-7.24,1.7-9.17,1.34-2.08,7.11-2.72,7.68.25Z"/>
          <path class="cls-11" d="M639.29,324.33c2.86-1.41,7.83.02,6.12,6.9-.6,2.42-6.13,3.42-7.25,2.48-1.74-1.46-.71-8.47,1.13-9.38Z"/>
          <path class="cls-11" d="M629.28,268.57c5.29-2.13,5.95,8.93.3,7.64-2.61-.6-2.66-6.68-.3-7.64Z"/>
          <path class="cls-11" d="M625.61,305.19c.9.97.5,6.7-1.07,7.53-2.22,1.16-2.23-1.16-2.48-1.26-1.15-.44-5.15.73-3.67-4.24.42-1.44,6.89-2.38,7.21-2.02Z"/>
          <path class="cls-11" d="M614.26,332.63c1.14,3.06,3.26,2.91,1.6,7.75-2.71,7.9-14.12,4.77-11.56-5.57.75-2.99,8.62-7.41,9.65-4.8.21.54.02,1.87.3,2.62Z"/>
          <path class="cls-11" d="M611.88,240.85c.62,6.21-2.68,1.15-3.46.89-1.53-.51-3.04.84-4.55.77-4.77-.21-2.62-7.02,1.37-7.68,2.51-.41,6.16,1.13,6.64,6.02Z"/>
          <path class="cls-11" d="M608.98,266.81c.66,2.25,2.07,9.56.51,11.13-.88.89-5.5.84-6.02-1.06-.33-1.16-.72-7.93-.53-9.37.23-1.75,1.25-3.56,2.3-3.92,1.55-.54,3.05.85,3.74,3.21Z"/>
          <path class="cls-11" d="M597.64,299.03c2.17-1.1,5.48,5.03,2.6,7.27-2.87,2.23-5.26-5.93-2.6-7.27Z"/>
          <path class="cls-11" d="M589.07,260.12c.75,1.11.41,5.96-.15,6.22-.88.41-2.58-.39-3.68-.03-1.02.34-1.29,2.34-2.47,2.14-2.52-.41-3.06-7.41-.25-8.89,1.13-.6,5.75-.62,6.55.55Z"/>
          <path class="cls-11" d="M585.27,340.46c.35,4.52-.85,6.67-3.34,7.83-3.37,1.58-1.99-4.68-2.87-5.73-.86-1.02-4.98.47-4.12-4.08.34-1.82,3.33-2.22,4.42-2.36,2.22-.28,5.53-.65,5.92,4.34Z"/>
          <path class="cls-11" d="M584.01,225.8c.47.83-.25,2.3-.83,2.46,3.79,7.33-2.92,7.29-5.63,8.78-1.75.97-6.52,6.68-7.86,2.87-1.98-5.66,4.82-12.92,7.65-13.81.89-.28,6.43-.72,6.66-.3Z"/>
          <path class="cls-11" d="M579.23,309.38c.99,1.35,1.61,4.84.59,6.1-.73.89-4.34,1.08-5.32.53-3.54-1.98,1.18-11.46,4.73-6.64Z"/>
          <path class="cls-11" d="M574.66,274.77c.48.84-.24,2.31-.83,2.46,3.8,7.33-2.92,7.3-5.61,8.79-1.75.96-6.52,6.68-7.87,2.86-1.98-5.65,4.83-12.92,7.65-13.81.89-.28,6.43-.71,6.66-.3Z"/>
          <path class="cls-11" d="M567.37,361.75c1.78,5.71-5.61,12.74-7.21,8.38-.88-2.42,2.23-4.48,3.28-5.77,1.27-1.58,1.56-4.93,3.94-2.61Z"/>
          <path class="cls-11" d="M562.2,340.05c4.4-2.43,5.64,5.36,1.6,4.85-2.2-.27-3.26-3.94-1.6-4.85Z"/>
          <path class="cls-11" d="M557.8,207.95c1.59,11.82-12.67,17.36-13.58,9-.17-1.64-.15-8.81.21-10.2.55-2.15,5.17-3.07,6.74-3.34,2.47-.42,5.93-.76,6.64,4.54Z"/>
          <path class="cls-11" d="M549.9,253.47c4.49-1.56,7.32,6.63,4.27,9.38-1.78,1.61-1.7-2.77-2.48-3.57-1-1.01-3.04.69-3.96-2.44-.52-1.76,1.44-3.11,2.18-3.37Z"/>
          <path class="cls-11" d="M540.13,237.55c-1.36-7.67,6.78-6.68,5.17-.41-.04.16-.42.21-.53.5-.23.62-.03,1.69-.4,1.87-1.03.5-3.84.28-4.23-1.96Z"/>
          <path class="cls-11" d="M544.63,340.49c.39,6.02-2.47,5.69-4.95,7.86-.88.77-3.08,4.67-4.2,3.5-.71-.74-.99-3.25-.62-4.61.34-1.24,5.5-9.35,6.32-9.73,1.75-.79,3.23-.33,3.45,2.98Z"/>
          <path class="cls-11" d="M541.65,305.28c5.3-2.7,5.78,9.38-.1,8.36-3.16-.55-1.75-7.42.1-8.36Z"/>
          <path class="cls-11" d="M527.26,370.57c.33.89.1,4.95-.15,6.2-1.33,6.79-10.13,14.06-12.4,5.66-1.52-5.63,3.34-8.88,4.77-13.03,1.13-.88,7.16-.6,7.79,1.16Z"/>
          <path class="cls-11" d="M524.75,248.67c.9,1.09.17,7.18-.42,8.54-2.06,4.68-7.02-1.55-4.86-6.52.63-1.46,4.4-3.1,5.29-2.02Z"/>
          <path class="cls-11" d="M518.66,293.26c4.16,1.39,2.06,8.93-2.07,6.69-1.69-.91-1.21-7.78,2.07-6.69Z"/>
          <path class="cls-11" d="M515.88,184.13c3.6,2.33,5.5,11.2,1.23,14.19-4.27,2.98-20.14,2.12-18.82-10.09.41-3.76,4.27-8.07,6.43-8.24.64-.05,5.6.57,5.85.84.18.18.21,1.29.79,1.78,1.14.98,3.16.63,4.52,1.51Z"/>
          <path class="cls-11" d="M512.64,351.08c-.04-4.45,4.99-5.32,3.13.04-.77,2.25-3.11,2.54-3.13-.04Z"/>
          <path class="cls-11" d="M510.52,213.24c3.82-1.39,4.71,4.98,1.58,5.54-3.59.63-4.24-4.57-1.58-5.54Z"/>
          <path class="cls-11" d="M503.47,266.47c5.32-.95,3.62,10.72.29,11.8-2.27.74-6.82.88-6.84-4.56-.02-5.98,3.79-6.74,6.55-7.24Z"/>
          <path class="cls-11" d="M496.35,306.48c4-4.02,7.73,5.24,4.67,9-3.59,4.4-8.68-4.96-4.67-9Z"/>
          <path class="cls-11" d="M498.87,217.42c2.81-1.61,4.31,3.99,1.58,4.84-2.91.89-2.8-4.15-1.58-4.84Z"/>
          <path class="cls-11" d="M490.64,334.95c2.45-.55,8.85,1.09,7.8,6.89-.44,2.4-3.32,7.25-4.65,8.35-1.75,1.46-7.03,1.72-9.09,1.55-3.35-.29-8.19-1.02-4.85-8.32,1.94-4.23,7.71-7.76,10.78-8.45Z"/>
          <path class="cls-11" d="M493.06,236.03c3.82,4.48-.74,12.6-3.51,15.11-4.16,3.79-15.38,4.53-13.18-7.61,1.1-6.05,5.77-3.23,8.13-4.52,1.37-.74,2.32-4.2,4.37-4.6.88-.17,3.51.83,4.19,1.61Z"/>
          <path class="cls-11" d="M483.13,383.86c1.98-1.92,5.41,1.2,4.48,4.79-2.3,3.87-3.5,11.27-7.51,8.54-.63-4.6.48-10.85,3.03-13.33Z"/>
          <path class="cls-11" d="M482.05,204.59c3.05-2.02,2.24,9.75.63,11.71-.67.83-5.24,1.01-5.56.54-.13-.18-1.24-4.71-1.28-5.21-.13-1.22-.22-4.96.36-5.67,1.59-1.95,3.24,4.04,4.18,2.52.11-.18-.07-2.72,1.68-3.9Z"/>
          <path class="cls-11" d="M481.57,179.88c2.32,4.5-5.14,14.46-6.37,6.89-.73-4.55,4.46-10.61,6.37-6.89Z"/>
          <path class="cls-11" d="M479.8,285.39c1.35,4.95-8.51,10.99-9.33,3.85-.83-7.23,2.61-6.96,5.71-7.21,1.43-.12,2.96.95,3.61,3.36Z"/>
          <path class="cls-11" d="M468.98,367.48c3.47-5.67,5.9,3.33,1.92,6.44-3,2.35-4.32-2.52-1.92-6.44Z"/>
          <path class="cls-11" d="M464.97,311.4c.82,2.34.2,13.1-.88,14.82-1.35,2.15-8,3.34-9.66,2.4-1.09-.6-.81-8-.49-9.8.24-1.4,1.25-2.85,1.65-4.24.88-3.07-.62-3.85,2.62-4.7,1.63-.44,5.87-1.02,6.76,1.52Z"/>
          <path class="cls-11" d="M462.68,407.05c.13,1.34-.02,3.25-.54,4.34-.38.82-3.13,4.46-3.8,5.16-1.68,1.76-6.41,4.95-8.3,4.97-6.1.09-4.73-7.97-1.26-12.79,2.25-3.11,13.18-9.61,13.91-1.69Z"/>
          <path class="cls-11" d="M460.3,210.94c2.32,4.5-5.14,14.45-6.37,6.89-.74-4.55,4.45-10.61,6.37-6.89Z"/>
          <path class="cls-11" d="M454.14,164.91c1.6,1.95,1.95,5.3.78,8.13-.14.36-3.71,5.11-3.94,5.3-4.72,3.71-5.55-13.91-1.85-15.14,1.93-.64,3.45-.17,5.01,1.71Z"/>
          <path class="cls-11" d="M453.57,234.74c.86,4.4-.32,8.12-1.99,11.19-1.14,2.09-2.67,5.01-4.57,3.51-.25-.21-2.74-5.35-2.82-5.79-.51-2.87.46-7.23,1.7-9.16,1.33-2.08,7.09-2.72,7.68.25Z"/>
          <path class="cls-11" d="M450.98,282.21c3.2-2.51,3.91,3.76,2.35,7.18-1.76,3.88-5.94,3.09-4.85-3.53.04-.26,2.35-3.54,2.5-3.66Z"/>
          <path class="cls-11" d="M450.9,262.27c3.73-.39,2.97,6.93,1.74,7.93-.48.39-5.67,1.22-6.44,1.08-1.39-.24-3.1-1.66-2.63-4.46.42-2.47,5.89-4.4,7.33-4.55Z"/>
          <path class="cls-11" d="M451.03,383.53c1.18,3.95-3.46,8.32-5.6,6.34-.45-4.09,4.29-10.79,5.6-6.34Z"/>
          <path class="cls-11" d="M445.08,345.14c3.53-.52,3.68,6.79.32,6.78-3.09,0-3.28-6.34-.32-6.78Z"/>
          <path class="cls-11" d="M433.51,196.31c5.68-1.73,4.18,11.01-1.57,7.98-3.85-2.02-1.35-7.09,1.57-7.98Z"/>
          <path class="cls-11" d="M429.64,288.85c1.14,3.06,3.26,2.91,1.61,7.75-2.72,7.91-14.13,4.77-11.56-5.56.74-3,8.62-7.42,9.64-4.8.21.53.03,1.87.3,2.61Z"/>
          <path class="cls-11" d="M430.15,416.76c2.32,4.5-5.15,14.46-6.37,6.89-.74-4.55,4.45-10.61,6.37-6.89Z"/>
          <path class="cls-11" d="M428.5,364.11c1.6,1.95,1.95,5.29.78,8.13-.14.35-3.7,5.11-3.93,5.29-4.72,3.72-5.56-13.9-1.86-15.14,1.93-.64,3.45-.17,5.01,1.72Z"/>
          <path class="cls-11" d="M426.31,234.17c.45,2.58-.89,11.98-1.97,13.98-4.86,9.1-15.31-8.57-11.15-16.17,1.51-2.77,6.38-3.6,8.59-3.79.48-.03.83-.35,1.43-.07.6.29,2.95,5.06,3.11,6.04Z"/>
          <path class="cls-11" d="M423.8,326.09c1.72,4.44-2.92,10.66-4.91,7.28-2.43-4.12,2.07-14.6,4.91-7.28Z"/>
          <path class="cls-11" d="M421.71,156.57c.34.72,1.36,4.1,1.23,4.87-.1.58-5.64,5.45-6.19,5.73-4.34,2.24-5.45-4.48-3.21-7.23.54-.66,2.06-.91,2.94-1.71,1.88-1.68,3.32-5.77,5.23-1.68Z"/>
          <path class="cls-11" d="M418.53,398.37c5.68-1.72,4.18,11.02-1.58,7.98-3.84-2.02-1.34-7.09,1.58-7.98Z"/>
          <path class="cls-11" d="M416.98,266.32c0,.99.1,2.06-.09,3.03-1.45,7.52-8.57-3.83.09-3.03Z"/>
          <path class="cls-11" d="M411.1,438.96c1.02,5.9-4.79,9.39-7.54,7.86-1.59-.88-.3-9.01.83-9.68,1.12-.66,6.28-.71,6.71,1.83Z"/>
          <path class="cls-11" d="M405.87,282.06c-1.36-7.67,6.78-6.69,5.17-.41-.04.15-.42.2-.53.49-.23.63-.03,1.7-.4,1.87-1.03.51-3.84.28-4.23-1.95Z"/>
          <path class="cls-11" d="M409.96,187.03c2.7,10.12-9.42,13.74-13.24,13.41-3.83-.35-5.77-4.49-4.25-10.77.2-.79,2.58-5.13,2.97-5.51,1.23-1.18,2.14-.3,3.25-.83,1.64-.78,4.41-3.68,5.59-3.95.97-.22,1.37.08,2.15.97.25.28,3.42,6.27,3.53,6.68Z"/>
          <path class="cls-11" d="M403.23,266.84c.61,6.21-2.68,1.16-3.46.89-1.55-.51-3.04.84-4.55.77-4.77-.21-2.63-7.02,1.36-7.68,2.52-.41,6.16,1.13,6.65,6.02Z"/>
          <path class="cls-11" d="M399.9,367.8c.34.72,1.37,4.09,1.24,4.86-.1.58-5.64,5.45-6.19,5.75-4.35,2.24-5.46-4.49-3.21-7.23.54-.66,2.05-.92,2.94-1.71,1.88-1.69,3.32-5.78,5.22-1.68Z"/>
          <path class="cls-11" d="M392.01,325.43c5.04-2.56,6.33,6.59,2.76,11.03-1.44,1.78-3.35,1.44-4.68,2.62-.96.85-1.9,4.42-3.13,3.83-.27-.14-2.33-7.5-2.27-8.78.22-5.43,3.7-3.2,5.34-5.02.67-.75.9-3.14,1.98-3.69Z"/>
          <path class="cls-11" d="M392.43,424.55c5.89-.64,3.11,6.83-.1,7.58-.89.21-1.93-.18-2.91,0-1.01.18-2.42,2.58-3.34-.02-2.3-6.5,4.08-7.31,6.34-7.56Z"/>
          <path class="cls-11" d="M386.08,146.29c2.86-1.43,7.85.01,6.13,6.89-.61,2.42-6.13,3.43-7.25,2.49-1.74-1.47-.72-8.47,1.12-9.38Z"/>
          <path class="cls-11" d="M389.32,218.64c5.29-2.14,5.96,8.92.3,7.63-2.6-.6-2.64-6.68-.3-7.63Z"/>
          <path class="cls-11" d="M388.16,398.25c2.7,10.12-9.42,13.74-13.24,13.41-3.84-.34-5.78-4.48-4.25-10.76.2-.81,2.57-5.13,2.97-5.52,1.22-1.18,2.14-.3,3.24-.83,1.65-.78,4.42-3.68,5.6-3.95.96-.22,1.37.09,2.15.97.25.29,3.42,6.28,3.53,6.68Z"/>
          <path class="cls-11" d="M383.72,240.39c.63,1.21.62,4.96.05,6.46-.55,1.46-4.64,6.01-5.67,6.57-2.63,1.45-10.91,3.03-13.55,2.27-3.08-.87-4.73-6.59-3.87-11.46.73-4.16,6.39-2.11,8.39-2.66,1.11-.29,2.09-1.81,3.21-2.3,1.81-.77,10.32-1.07,11.44,1.1Z"/>
          <path class="cls-11" d="M382.89,301.08c5.32-.95,3.62,10.71.29,11.8-2.27.73-6.82.88-6.84-4.56-.02-6,3.79-6.75,6.55-7.24Z"/>
          <path class="cls-11" d="M371.72,274.55c.86,4.41-.33,8.12-2,11.2-1.13,2.08-2.66,5.01-4.56,3.5-.26-.2-2.74-5.35-2.83-5.78-.51-2.88.46-7.24,1.71-9.17,1.33-2.08,7.09-2.72,7.68.25Z"/>
          <path class="cls-11" d="M370.76,428.56c2.02,6.86-5.11,9.91-7.81,8.36-1.46-.84-1.18-6.5-.57-8.15,1.15-3.18,7.49-3.25,8.38-.21Z"/>
          <path class="cls-11" d="M364.27,357.51c2.86-1.41,7.83.02,6.13,6.9-.61,2.42-6.13,3.42-7.25,2.48-1.75-1.46-.72-8.47,1.12-9.38Z"/>
          <path class="cls-11" d="M368.55,195.43c3.6,2.33,5.5,11.2,1.23,14.19-4.27,2.98-20.14,2.12-18.81-10.1.4-3.75,4.25-8.06,6.42-8.23.64-.05,5.6.57,5.85.83.18.2.21,1.29.79,1.8,1.15.98,3.16.63,4.52,1.51Z"/>
          <path class="cls-11" d="M369.06,163.86c.69,1.32.54,11.22-.3,12.26-1,1.23-4.76.11-5.67-1.74-1.5-3.09-.98-11.31,2.17-11.85.42-.07,3.69,1.09,3.81,1.33Z"/>
          <path class="cls-11" d="M354.26,301.76c5.29-2.14,5.96,8.92.3,7.63-2.6-.6-2.66-6.68-.3-7.63Z"/>
          <path class="cls-11" d="M349.6,226.83c-1.94-6.4,4.9-6.3,4.36-.42-.03.36-.79,3.09-.87,3.19-.25.29-3.21-1.82-3.49-2.76Z"/>
          <path class="cls-11" d="M350.59,338.37c.9.98.5,6.7-1.07,7.53-2.21,1.16-2.22-1.16-2.48-1.26-1.14-.44-5.14.73-3.67-4.24.42-1.44,6.89-2.37,7.21-2.02Z"/>
          <path class="cls-11" d="M346.74,406.65c3.6,2.33,5.5,11.2,1.22,14.19-4.25,2.99-20.13,2.12-18.81-10.09.41-3.75,4.25-8.06,6.43-8.24.64-.05,5.6.58,5.85.84.18.18.21,1.29.79,1.78,1.14.98,3.14.63,4.52,1.51Z"/>
          <path class="cls-11" d="M347.25,375.09c.69,1.32.54,11.22-.32,12.26-1,1.22-4.76.11-5.66-1.75-1.5-3.09-.98-11.29,2.17-11.84.41-.08,3.68,1.08,3.81,1.33Z"/>
          <path class="cls-11" d="M338.75,161.07c3.01-1.18,8.88-.23,6.35,7.29-1.41,4.23-9.92,8.72-12.05,5.61-2.27-3.32,4-12.25,5.69-12.91Z"/>
          <path class="cls-11" d="M339.48,269.43c3.01,6.57-7.58,7.71-8.65,4.5-.35-1.08.04-3.44-.09-4.79,2.13-.12,4.29.16,6.43,0,.54-.04,1.35-1.81,2.31.28Z"/>
          <path class="cls-11" d="M335.7,237.08c.97.96,1.96,4.21,1.61,6.16-.39,2.21-5.16,8.27-6.54,9.36-1.9,1.5-6.46,2.81-8.2.84-.76-.86-2.24-6.81-2.17-8.6.29-7.15,12.39-10.64,15.3-7.76Z"/>
          <path class="cls-11" d="M333.97,299.99c.66,2.25,2.07,9.56.51,11.14-.87.88-5.48.83-6.02-1.07-.33-1.16-.72-7.93-.53-9.37.23-1.75,1.25-3.55,2.3-3.92,1.55-.53,3.05.86,3.74,3.21Z"/>
          <path class="cls-11" d="M322.63,332.21c2.17-1.09,5.5,5.03,2.6,7.27-2.87,2.23-5.26-5.93-2.6-7.27Z"/>
          <path class="cls-11" d="M322.75,216.34c3.67-1.7,3.53,10.03,0,8.24-1.66-.85-1.61-7.5,0-8.24Z"/>
          <path class="cls-11" d="M316.95,372.28c3.01-1.18,8.88-.22,6.35,7.3-1.41,4.23-9.92,8.71-12.05,5.61-2.27-3.32,4-12.26,5.69-12.92Z"/>
          <path class="cls-11" d="M314.05,293.31c.76,1.1.42,5.95-.15,6.21-.88.41-2.58-.39-3.67-.03-1.03.34-1.31,2.34-2.48,2.14-2.52-.41-3.06-7.41-.25-8.89,1.13-.59,5.75-.62,6.55.57Z"/>
          <path class="cls-11" d="M310.06,192.23c.47,4.02,2.71,6.17,1.96,10.48-.6,3.43-5.46,3.13-7.15,2.6-3.17-1.01-1.2-12.06,2.57-13.22.7-.21,2.08-.52,2.62.14Z"/>
          <path class="cls-11" d="M311.15,174.34c.71,1.73-.08,5.55-1.02,6.81-.9,1.21-8.65,4.17-9.38,2.44-.79-3.51,1.89-3.63,2.93-4.94,1.13-1.43,1.23-4.15,2.98-4.81.83-.32,4.06-.57,4.49.5Z"/>
          <path class="cls-11" d="M303.26,405.44c2.63-1.32,8.17.86,6.55,6.9-.79,2.93-6.99,5.28-7.9,2.12-.39-1.37.12-8.41,1.35-9.02Z"/>
          <path class="cls-11" d="M304.73,212.89c2.57-3.78,4.81,4.58,1.74,5.45-2.68.77-2.91-3.74-1.74-5.45Z"/>
          <path class="cls-11" d="M304.22,342.57c.99,1.34,1.61,4.83.59,6.09-.72.89-4.34,1.08-5.31.53-3.55-1.98,1.16-11.45,4.72-6.63Z"/>
          <path class="cls-11" d="M304.17,273.1c1,5.15-6.32,2.93-6.55,2.33-1.82-4.65,6.17-4.31,6.55-2.33Z"/>
          <path class="cls-11" d="M300.6,380.05c2.13,1.04,2.19,9.35.28,10.76-.64.48-6.05,1.21-6.63.73-3.12-2.57.55-10.63,2.79-11.5.86-.33,2.72-.4,3.56.01Z"/>
          <path class="cls-11" d="M299.9,226.1c3.34-.34,1.69,11.49-.69,13.72-2.29,2.13-8.92.89-9.5-4.2-.09-.78-.12-4.23.05-4.5.14-.23.86.16,1.09-.22.2-.34,0-1.41.18-1.76.08-.16,2.05-1.38,2.29-1.45,1.63-.45,2.49.62,3.61.51,1.03-.1,1.95-1.99,2.96-2.1Z"/>
          <path class="cls-11" d="M299.66,307.94c.47.84-.25,2.31-.84,2.46,3.8,7.34-2.92,7.3-5.61,8.79-1.75.97-6.52,6.68-7.86,2.86-1.99-5.65,4.82-12.92,7.64-13.81.89-.27,6.43-.71,6.67-.3Z"/>
          <path class="cls-11" d="M278.34,205.72c1.45-.5,9.46-2.51,7.86,2.76-.62,2.02-2.08.96-2.64,1.53-.28.29-.53,3.1-1.01,3.92-1.38,2.35-7.45,3.17-9.15,2.19-1.39-.81-1.44-5.79-.25-7.26.51-.64,4.36-2.84,5.2-3.14Z"/>
          <path class="cls-11" d="M282.09,189.74c2.22,6.62-8.25,7.65-5.04,2.08.27-.47,2.36-3.46,2.52-3.54.62-.28,2.27.76,2.51,1.46Z"/>
          <path class="cls-11" d="M279.28,253.73c.4,1.09-.03,7.86-1,8.26-1.49.62-4.71-2.15-5.53-4.55-.47-1.37-.9-5.36.16-5.93,1.39-.73,1.7,3.21,2.52,3.5.26.1,2.84-3.99,3.84-1.28Z"/>
          <path class="cls-11" d="M274.34,380.64c.75,1.86-3.38,9.87-5.18,4.9-.39-1.08.48-5.41,1.04-6.01.83-.84,3.81.3,4.13,1.11Z"/>
          <path class="cls-11" d="M273.44,290.11c1.59,11.82-12.67,17.36-13.58,9-.18-1.64-.15-8.81.21-10.2.55-2.15,5.16-3.07,6.74-3.34,2.46-.42,5.93-.76,6.64,4.54Z"/>
          <path class="cls-11" d="M265.54,335.63c4.48-1.56,7.32,6.62,4.27,9.38-1.78,1.61-1.71-2.77-2.49-3.57-1-1.01-3.04.69-3.96-2.44-.52-1.76,1.44-3.12,2.19-3.37Z"/>
          <path class="cls-11" d="M265.36,361.01c3.55,1.32,0,7.53-1.03,10.27-3.16-.97-9.38,2.29-12.08.74-1.89-1.09-1.03-9.33.26-10.96,2.13-2.68,9.98.65,12.85-.05Z"/>
          <path class="cls-11" d="M253.14,237.62c3.99-2.67,6.54,3.1,2.98,5.78-1.23.92-7.02,3.29-7.86,1.73-.11-.2-.1-2.13.07-2.64.14-.41,4.32-4.54,4.81-4.86Z"/>
          <path class="cls-11" d="M250.72,201.77c.49,4.5.02,8.45-2.48,10.59-.91.78-6.79,4.29-7.69,4.54-2.15.6-6.14-.49-6.72-4.69-1.2-8.47,3.63-11.85,7.68-12.72,1.85-.4,8.82-1.38,9.22,2.29Z"/>
          <path class="cls-11" d="M247.01,272.36c.05.76-.23,3.45-.49,3.74-.64.69-5.63.7-6.07-1.81-1.32-7.31,6.19-6.61,6.56-1.94Z"/>
          <path class="cls-11" d="M240.4,330.83c.89,1.09.17,7.18-.42,8.54-2.06,4.68-7.03-1.55-4.86-6.52.63-1.46,4.39-3.1,5.29-2.02Z"/>
          <path class="cls-11" d="M231.75,239.31c.52-3.03,8.86-8.38,8.22-.89-.04.58-1.93,4.72-2.21,5.11-2.69,3.72-7.39,3.81-6.01-4.22Z"/>
          <path class="cls-11" d="M231.62,377.85c1.48,3.83-3.7,4.68-4.1,2.38-.63-3.63,3.57-3.75,4.1-2.38Z"/>
          <path class="cls-11" d="M226.16,295.4c3.82-1.39,4.71,4.98,1.57,5.54-3.59.63-4.23-4.57-1.57-5.54Z"/>
          <path class="cls-11" d="M216.25,227.01c3.57-.32,4.13,5.65,1.19,8.42-2.25,2.12-7.05,3.87-7.69-2.08-.58-5.41,4.3-6.16,6.51-6.34Z"/>
          <path class="cls-11" d="M214.51,299.58c2.82-1.61,4.32,3.99,1.58,4.84-2.89.89-2.79-4.15-1.58-4.84Z"/>
          <path class="cls-11" d="M211.4,262.89c.65-1.77,4.56-1.12,4.49,3.09-.05,3.47-3.81,3.76-4.5,2.38-.12-.25-.14-5.04.01-5.47Z"/>
          <path class="cls-11" d="M205.57,352.7c1.6,1.92-1.5,11.99-3.51,10.95-.69-.36-.5-2.31-.74-2.66-.44-.6-1.44.54-2.11-1.73-1.52-5.16,4.41-8.9,6.37-6.56Z"/>
          <path class="cls-11" d="M203.07,283.59c3.04-2.02,2.24,9.75.63,11.71-.67.83-5.26,1.02-5.57.54-.12-.18-1.23-4.7-1.27-5.21-.13-1.22-.22-4.96.36-5.67,1.59-1.95,3.24,4.05,4.17,2.52.12-.18-.07-2.72,1.69-3.9Z"/>
          <path class="cls-11" d="M197.95,319.44c3.82,4.49-.73,12.6-3.5,15.13-4.17,3.78-15.39,4.52-13.18-7.62,1.1-6.05,5.77-3.23,8.13-4.5,1.36-.74,2.32-4.2,4.36-4.61.88-.17,3.53.83,4.19,1.61Z"/>
          <path class="cls-11" d="M188.65,249.59c4.67,1.19,3.17,7.69.28,11.4-2.64,3.41-6.5,4.6-9.76,5.27-.82.16-6.19.87-6.52.67-1.52-.86.08-5.79.78-6.95.38-.64,1.03-.54,1.28-.94,3.63-5.59,8.59-10.82,13.93-9.46Z"/>
          <path class="cls-11" d="M189,224.36c.02,1.39-.39,3.43-1.02,4.33-.55.82-3.42,3.26-4.12,2.96-.21-.09-3.08-4.08-3.22-4.43-2.54-6.38,8.2-9.96,8.37-2.86Z"/>
          <path class="cls-11" d="M172.82,308.28c.03,6.64-5.92,3.68-6.26.72-.2-1.72-.09-4.55,1.13-5.16,1.65-.84,5.1.81,5.13,4.44Z"/>
          <path class="cls-11" d="M164.02,236.79c1.41,3.86-3.33,11.19-5.52,11.21-8.69.12-4.92-11.24,1.21-12.03.77-.1,3.98-.08,4.31.83Z"/>
          <path class="cls-11" d="M154.13,269.15c1.1,7.57-9.6,13.91-9.51,5.34.03-3.94,2.02-2.15,3.82-2.69,2.23-.66,3.55-3.2,5.69-2.66Z"/>
          <path class="cls-11" d="M152.36,330.67c5.7-2.25,3.78,8.99-.74,6.57-2.75-1.47-1.45-5.72.74-6.57Z"/>
          <path class="cls-11" d="M132.01,323.7c1.95-.25,5.91,1.56,3.92,5.83-.63,1.36-3.8,1.29-4.79.97-2.35-.76-1.97-6.45.87-6.8Z"/>
          <path class="cls-11" d="M125,253.8c.49.74.6,3.22.52,4.35-.41,5.64-7.4,7.08-10.04,8.37-1.1.53-2.11,2.11-3.1,2.47-5.01,1.8-3.44-3-4.67-4.48-.64-.79-4.05,2.39-4.57-2.8-.54-5.38,3.32-7.15,5.7-7.9,3.06-.97,14.06-3.14,16.16-.01Z"/>
          <path class="cls-11" d="M125.02,290.82c.45,2.58-.9,11.98-1.97,13.98-4.87,9.1-15.32-8.57-11.16-16.17,1.52-2.77,6.38-3.6,8.59-3.79.49-.03.84-.35,1.44-.07.6.29,2.94,5.06,3.11,6.04Z"/>
          <path class="cls-11" d="M98.06,303.11c4.44-1.04-1.14,10.65-3.24,8.06-1.99-2.47,1.32-7.61,3.24-8.06Z"/>
          <path class="cls-11" d="M72.77,281.97c2.27-.76,7.19,2.93,5.11,7.36-.78,1.66-5.36.79-6.26-.07-1.49-1.45-1.08-6.56,1.14-7.29Z"/>
          <path class="cls-8" d="M34.77,281.26l.39,18.15c-6.42-5.51-10.47-11.28-10.99-17.53-.03-.34-.05-.67-.05-1l10.62-.37.02.48v.27Z"/>
        </g>
      </g>
    </g>
  </g>
</svg>