<?xml version="1.0" encoding="UTF-8"?>
<svg xmlns="http://www.w3.org/2000/svg" xmlns:xlink="http://www.w3.org/1999/xlink" viewBox="0 0 800 800">
  <defs>
    <style>
      .cls-1 {
        fill: #7ac943;
      }

      .cls-2, .cls-3, .cls-4 {
        fill: #fff;
      }

      .cls-2, .cls-4, .cls-5, .cls-6 {
        font-family: Heavitas, Heavitas;
      }

      .cls-2, .cls-6 {
        font-size: 63.09px;
      }

      .cls-7 {
        stroke-width: 5px;
      }

      .cls-7, .cls-8, .cls-9 {
        fill: none;
      }

      .cls-7, .cls-9 {
        stroke: #262b2f;
      }

      .cls-10 {
        opacity: .3;
      }

      .cls-11 {
        fill: #3fa9f5;
      }

      .cls-4, .cls-5 {
        font-size: 270px;
      }

      .cls-12 {
        mix-blend-mode: multiply;
        opacity: .89;
      }

      .cls-13 {
        isolation: isolate;
      }

      .cls-14 {
        fill: #ff1d25;
      }

      .cls-15 {
        fill: #ff931e;
      }

      .cls-16 {
        mix-blend-mode: overlay;
      }

      .cls-9 {
        stroke-width: 6px;
      }

      .cls-17 {
        clip-path: url(#clippath);
      }
    </style>
    <clipPath id="clippath">
      <rect class="cls-8" x="0" width="800" height="800" rx="49.55" ry="49.55"/>
    </clipPath>
  </defs>
  <g class="cls-13">
    <g id="Calque_1" data-name="Calque 1">
      <rect class="cls-3" x="0" width="800" height="800" rx="49.55" ry="49.55"/>
      <g class="cls-10">
        <g class="cls-17">
          <rect class="cls-11" x="-41.26" y="-41.45" width="213.78" height="859.35"/>
          <rect class="cls-1" x="172.52" y="-41.45" width="213.78" height="859.35"/>
          <rect class="cls-15" x="386.31" y="-41.45" width="213.78" height="859.35"/>
          <rect class="cls-14" x="600.09" y="-41.45" width="213.78" height="859.35"/>
        </g>
      </g>
      <g>
        <text class="cls-5" transform="translate(225.59 510.55)"><tspan x="0" y="0">A5</tspan></text>
        <text class="cls-4" transform="translate(225.59 510.55)"><tspan x="0" y="0">A5</tspan></text>
        <g class="cls-12">
          <g>
            <path class="cls-9" d="M357.12,317.9c-.94-2.12-2.52-3.95-4.7-5.44-2.21-1.51-4.55-2.28-6.96-2.28h-37.8c-2.59,0-5.02.77-7.23,2.28-2.17,1.49-3.75,3.32-4.71,5.48l-78.27,182.72c-.97,1.98-1.32,3.84-1.04,5.53.27,1.63.92,3.04,1.92,4.18.96,1.1,2.2,1.93,3.66,2.46,1.31.48,2.61.72,3.87.72h46.44c2.41,0,4.75-.77,6.96-2.28,2.17-1.48,3.74-3.31,4.67-5.39l7.58-16.25c.49-1.11,1.34-2.06,2.59-2.92,1.21-.83,2.47-1.23,3.84-1.23h56.97c1.19,0,2.36.4,3.57,1.23,1.3.89,2.26,1.89,2.93,3.07l7.28,16.19.06.11c1.12,2.03,2.76,3.78,4.84,5.2,2.21,1.51,4.64,2.28,7.23,2.28h46.17c5.03,0,7.36-2.31,8.43-4.25,1.82-3.3,1.28-6.06.53-7.76l-78.86-183.64ZM339.9,433.11c-.09.12-.32.46-1.45.46h-24.03c-.95,0-1.41-.19-1.5-.33-.17-.27-.1-.74.22-1.47l13.16-31.84c2.07,4.99,4.29,10.34,6.68,16.06,2.5,6,4.68,11.3,6.46,15.76l.07.17.09.16c.07.13.44.81.29,1.03Z"/>
            <path class="cls-9" d="M573.59,388.83c-12.95-13.13-31.29-19.79-54.52-19.79h-2.97c-1.19,0-2.51.1-3.92.3h-.09s-.09.03-.09.03c-.33.07-.62.1-.88.1-.52,0-.67-.13-.72-.18-.05-.05-.08-.08-.08-.08,0-.04,0-.16.05-.36.19-.74.68-1.41,1.5-2.04.83-.64,1.75-.94,2.89-.94h57.78c2.58,0,4.9-.96,6.72-2.78,1.81-1.82,2.76-4.15,2.76-6.73v-37.19c0-2.58-.96-4.91-2.76-6.73-1.82-1.82-4.14-2.79-6.71-2.79h-101.79c-2.5,0-4.77.82-6.75,2.43-1.99,1.62-3.25,3.7-3.76,6.24l-16.46,88.52c-.51,2.53-.08,5.01,1.29,7.36,1.35,2.35,3.31,3.93,5.8,4.71l24.14,9.39c1.44.63,3.02.95,4.68.95.81,0,1.66-.08,2.51-.23,2.61-.45,4.87-1.5,6.67-3.08,3.02-2.52,6.52-4.69,10.39-6.46,2.81-1.28,6.46-1.93,10.86-1.93,1.3,0,2.69.06,4.12.17,4.08.33,7.59,1.26,10.45,2.77,2.87,1.51,5.14,3.3,6.76,5.31,1.65,2.04,2.89,4.28,3.67,6.62.79,2.38,1.2,4.79,1.2,7.15,0,6.05-2,10.9-6.1,14.85-4.08,3.92-10.1,5.91-17.9,5.91-4.75,0-9.11-.55-12.95-1.64-3.93-1.11-7.54-2.53-10.76-4.22-3.23-1.7-6.01-3.49-8.28-5.34-2.33-1.9-4.3-3.64-5.85-5.2l-.07-.07-.08-.07c-1.95-1.7-4.05-2.63-6.25-2.76-.16,0-.31-.01-.47-.01-2.2,0-4.28.91-6.07,2.71l-22.22,23.57c-1.79,2.04-2.63,4.4-2.49,6.98.13,2.56,1.1,4.77,2.9,6.56,4.39,4.39,9.13,8.76,14.08,12.98,5.08,4.34,10.79,8.28,16.97,11.69,6.2,3.42,13.08,6.24,20.47,8.36,7.44,2.14,15.71,3.22,24.59,3.22,9.85,0,19.46-1.7,28.58-5.04,9.11-3.35,17.32-8.06,24.44-14.06,7.85-6.91,13.92-15.12,18.04-24.39,4.11-9.26,6.2-19.16,6.2-29.43,0-23.57-6.56-42.17-19.49-55.3Z"/>
          </g>
        </g>
      </g>
      <g>
        <text class="cls-6" transform="translate(250.58 589.74)"><tspan x="0" y="0">COULEUR</tspan></text>
        <text class="cls-2" transform="translate(250.58 589.74)"><tspan x="0" y="0">COULEUR</tspan></text>
        <g class="cls-12">
          <g>
            <path class="cls-7" d="M298.69,573.75l-8.96-3.53c-.45-.18-.9-.27-1.36-.27s-.93.09-1.38.28c-.79.33-1.4.85-1.84,1.55-.92,1.48-2.19,2.71-3.77,3.66-1.57.93-3.29,1.39-5.25,1.39-1.31,0-2.5-.27-3.65-.81-1.19-.57-2.23-1.32-3.11-2.24-.87-.91-1.56-1.98-2.05-3.19-.5-1.22-.74-2.48-.74-3.83s.25-2.58.74-3.81c.49-1.23,1.18-2.33,2.06-3.26.88-.93,1.92-1.69,3.1-2.25,1.15-.55,2.34-.82,3.65-.82,2.06,0,3.82.42,5.22,1.26,1.44.86,2.7,2.14,3.74,3.79.43.7,1.09,1.24,1.9,1.55.45.18.91.27,1.38.27s.93-.09,1.36-.27l9.04-3.57c.89-.39,1.54-1.11,1.84-2.02.31-.94.2-1.92-.33-2.77-1.28-2.02-2.69-3.91-4.21-5.6-1.57-1.75-3.36-3.26-5.32-4.49-1.96-1.23-4.17-2.2-6.58-2.88-2.4-.68-5.11-1.02-8.05-1.02-3.62,0-7.07.69-10.25,2.05-3.15,1.35-5.96,3.21-8.33,5.51-2.39,2.32-4.29,5.08-5.65,8.21-1.37,3.14-2.06,6.53-2.06,10.07s.69,6.93,2.06,10.07c1.36,3.13,3.26,5.89,5.65,8.21,2.37,2.31,5.18,4.16,8.33,5.51,3.18,1.36,6.63,2.05,10.25,2.05,2.86,0,5.52-.34,7.92-1.02,2.4-.67,4.62-1.64,6.6-2.86,1.98-1.22,3.79-2.72,5.38-4.46,1.55-1.7,2.98-3.6,4.31-5.75.48-.87.58-1.84.26-2.74-.31-.88-.94-1.56-1.91-1.98Z"/>
            <path class="cls-7" d="M343.43,548.36c-2.34-2.33-5.1-4.21-8.22-5.56-3.14-1.37-6.53-2.06-10.07-2.06s-6.93.69-10.07,2.06c-3.12,1.36-5.88,3.23-8.2,5.57-2.31,2.33-4.17,5.1-5.52,8.21-1.37,3.14-2.06,6.53-2.06,10.07s.69,6.93,2.06,10.07c1.35,3.12,3.21,5.88,5.52,8.21,2.31,2.34,5.07,4.21,8.2,5.57,3.14,1.37,6.53,2.06,10.07,2.06s6.93-.69,10.07-2.06c3.12-1.36,5.89-3.23,8.22-5.56s4.2-5.1,5.56-8.22c1.37-3.14,2.06-6.53,2.06-10.07s-.69-6.93-2.06-10.07c-1.36-3.12-3.23-5.88-5.56-8.22ZM333.83,570.43c-.49,1.19-1.18,2.25-2.05,3.16-.88.91-1.91,1.65-3.07,2.2-1.13.53-2.29.79-3.57.79s-2.44-.26-3.57-.79c-1.16-.54-2.17-1.28-3.02-2.18-.86-.91-1.54-1.98-2.04-3.18-.49-1.18-.73-2.45-.73-3.78s.25-2.56.74-3.76c.49-1.21,1.17-2.27,2.02-3.15.85-.89,1.87-1.62,3.03-2.16,1.13-.53,2.3-.79,3.57-.79s2.44.26,3.57.79c1.17.55,2.2,1.28,3.08,2.18.86.88,1.55,1.94,2.04,3.14.49,1.21.74,2.47.74,3.76s-.25,2.6-.73,3.78Z"/>
            <path class="cls-7" d="M394.29,541.62h-9.48c-.95,0-1.81.36-2.49,1.03-.67.67-1.02,1.53-1.02,2.48v25.55c0,1.32-.2,2.39-.59,3.19-.4.8-.86,1.43-1.39,1.85-.55.45-1.13.75-1.76.93-.71.2-1.33.3-1.86.3s-1.16-.1-1.86-.3c-.64-.18-1.24-.49-1.82-.95-.54-.42-1.01-1.04-1.4-1.83-.39-.79-.58-1.86-.58-3.19v-25.55c0-.95-.35-1.81-1.02-2.48-.67-.67-1.53-1.03-2.48-1.03h-9.48c-.95,0-1.81.36-2.49,1.03-.67.67-1.02,1.53-1.02,2.48v25.55c0,3.23.53,6.21,1.59,8.87,1.07,2.69,2.6,5.03,4.56,6.94,1.95,1.91,4.32,3.4,7.05,4.44,2.69,1.03,5.71,1.55,8.97,1.55s6.27-.52,8.96-1.55c2.72-1.04,5.09-2.54,7.05-4.44,1.96-1.92,3.48-4.26,4.53-6.95,1.03-2.66,1.55-5.64,1.55-8.86v-25.55c0-.95-.35-1.81-1.02-2.48-.67-.67-1.53-1.03-2.48-1.03Z"/>
            <path class="cls-7" d="M438.19,576.13h-18.5v-31.06c0-.95-.35-1.81-1.03-2.49-.67-.67-1.53-1.02-2.48-1.02h-9.46c-1.02,0-1.91.37-2.57,1.08-.62.67-.94,1.51-.94,2.43v43.15c0,.93.33,1.77.94,2.43.66.71,1.54,1.08,2.57,1.08h31.48c.96,0,1.82-.36,2.49-1.03.67-.67,1.03-1.53,1.03-2.49v-8.58c0-.95-.35-1.81-1.03-2.49-.67-.67-1.53-1.03-2.49-1.03Z"/>
            <path class="cls-7" d="M477.62,541.56h-32.11c-.96,0-1.81.36-2.49,1.03s-1.03,1.53-1.03,2.49v43.15c0,.96.36,1.82,1.02,2.48.67.67,1.53,1.03,2.49,1.03h32.11c.96,0,1.81-.36,2.49-1.03s1.03-1.53,1.03-2.49v-8.71c0-.96-.36-1.81-1.03-2.49-.67-.67-1.53-1.03-2.48-1.03h-19.13v-1.42h16.61c.95,0,1.81-.35,2.49-1.03.67-.67,1.03-1.53,1.03-2.49v-8.71c0-.96-.36-1.81-1.03-2.49-.67-.67-1.53-1.03-2.48-1.03h-16.61v-1.68h19.13c.96,0,1.81-.36,2.49-1.03s1.03-1.53,1.03-2.49v-8.58c0-.95-.35-1.81-1.03-2.49-.67-.67-1.53-1.02-2.48-1.02Z"/>
            <path class="cls-7" d="M525.89,541.62h-9.48c-.95,0-1.81.36-2.49,1.03-.67.67-1.02,1.53-1.02,2.48v25.55c0,1.32-.2,2.39-.59,3.19-.4.8-.86,1.43-1.39,1.85-.55.45-1.13.75-1.76.93-.71.2-1.33.3-1.86.3s-1.16-.1-1.86-.3c-.64-.18-1.24-.49-1.82-.95-.54-.42-1.01-1.04-1.4-1.83-.39-.79-.58-1.86-.58-3.19v-25.55c0-.95-.35-1.81-1.02-2.48-.67-.67-1.53-1.03-2.48-1.03h-9.48c-.95,0-1.81.36-2.49,1.03-.67.67-1.02,1.53-1.02,2.48v25.55c0,3.23.53,6.21,1.59,8.87,1.07,2.69,2.6,5.03,4.56,6.94,1.95,1.91,4.32,3.4,7.05,4.44,2.69,1.03,5.71,1.55,8.97,1.55s6.27-.52,8.96-1.55c2.72-1.04,5.09-2.54,7.05-4.44,1.96-1.92,3.48-4.26,4.53-6.95,1.03-2.66,1.55-5.64,1.55-8.86v-25.55c0-.95-.35-1.81-1.02-2.48-.67-.67-1.53-1.03-2.48-1.03Z"/>
            <path class="cls-7" d="M579.02,586.83c-1.38-1.84-2.99-3.92-4.76-6.16-1.61-2.03-3.14-4-4.57-5.87.97-.67,1.85-1.48,2.64-2.41.9-1.06,1.68-2.27,2.34-3.58.65-1.31,1.16-2.72,1.51-4.18.35-1.47.53-2.98.53-4.47,0-2.69-.46-5.19-1.38-7.44-.92-2.25-2.21-4.23-3.83-5.89-1.64-1.66-3.64-2.97-5.95-3.89-2.29-.91-4.81-1.37-7.49-1.37h-19.62c-.96,0-1.81.36-2.49,1.03s-1.03,1.53-1.03,2.49v43.15c0,.96.36,1.82,1.03,2.49.67.67,1.53,1.02,2.49,1.02h9.45c.96,0,1.82-.35,2.49-1.02.68-.67,1.04-1.53,1.04-2.49v-9.73h.89s.18.01.42.13c.23.12.33.21.33.21,1.3,1.86,2.62,3.7,3.95,5.52,1.33,1.82,2.66,3.62,4,5.38.45.6,1.07,1.09,1.84,1.46.75.36,1.5.54,2.22.54h11.73c1.29,0,2.34-.76,2.73-2,.32-1.02.15-2.05-.5-2.91ZM559.99,561.34c-.18.36-.39.64-.65.87-.27.23-.55.4-.85.5-.33.11-.64.17-.91.17h-6.16v-5.72h6.16c.51,0,.92.09,1.21.26.35.21.62.44.8.72.23.34.39.68.47,1.02.13.51.16.82.16.99,0,.48-.08.88-.23,1.19Z"/>
          </g>
        </g>
      </g>
      <g class="cls-16">
        <path d="M603.34,21.27h-253.4l-12,.02v2.6c-3.2,1.39-6.16,3.3-8.76,5.7l-200.81,184.7c-6.87,6.32-10.76,15.25-10.68,24.42v435.24c0,48.36,41.4,87.71,92.28,87.71h393.37c50.88,0,92.28-39.34,92.28-87.71V108.98c0-48.36-41.4-87.71-92.28-87.71ZM327.29,193.62c.05,5.72-2.17,11.15-6.27,15.29-4.3,4.34-10.1,6.74-16.32,6.74h-95.09l116.88-107.5.8,85.47ZM173.69,271.65h131.02c21.28,0,41.2-8.28,56.1-23.33,14.7-14.83,22.68-34.44,22.49-55.23l-1.08-115.83h221.13c20.01,0,36.28,14.22,36.28,31.71v564.98c0,17.48-16.28,31.71-36.28,31.71H209.97c-20.01,0-36.28-14.22-36.28-31.71v-402.31Z"/>
      </g>
    </g>
  </g>
</svg>