<?xml version="1.0" encoding="UTF-8"?>
<svg xmlns="http://www.w3.org/2000/svg" xmlns:xlink="http://www.w3.org/1999/xlink" viewBox="0 0 800 800">
  <defs>
    <style>
      .cls-1 {
        fill: #7ac943;
      }

      .cls-2, .cls-3, .cls-4 {
        fill: #fff;
      }

      .cls-5 {
        opacity: .3;
      }

      .cls-6 {
        fill: #3fa9f5;
      }

      .cls-7, .cls-8 {
        fill: none;
      }

      .cls-3, .cls-9 {
        font-size: 79.15px;
      }

      .cls-3, .cls-9, .cls-4, .cls-10 {
        font-family: Heavitas, Heavitas;
      }

      .cls-11 {
        clip-path: url(#clippath-1);
      }

      .cls-4, .cls-10 {
        font-size: 270px;
      }

      .cls-12 {
        isolation: isolate;
      }

      .cls-13 {
        fill: #ff1d25;
      }

      .cls-14 {
        fill: #4e5861;
      }

      .cls-15 {
        fill: #ff931e;
      }

      .cls-8 {
        stroke: #262b2f;
        stroke-width: 6px;
      }

      .cls-16 {
        clip-path: url(#clippath);
      }

      .cls-17 {
        mix-blend-mode: multiply;
        opacity: .5;
      }
    </style>
    <clipPath id="clippath">
      <rect class="cls-7" y="830" width="800" height="800" rx="49.55" ry="49.55"/>
    </clipPath>
    <clipPath id="clippath-1">
      <rect class="cls-7" x="830" y="830" width="800" height="800" rx="49.55" ry="49.55"/>
    </clipPath>
  </defs>
  <g class="cls-12">
    <g id="Calque_1" data-name="Calque 1">
      <rect class="cls-14" width="800" height="800" rx="49.55" ry="49.55"/>
      <g>
        <text class="cls-10" transform="translate(227.75 510.55)"><tspan x="0" y="0">A3</tspan></text>
        <text class="cls-4" transform="translate(227.75 510.55)"><tspan x="0" y="0">A3</tspan></text>
        <g class="cls-17">
          <g>
            <path class="cls-8" d="M359.28,317.9c-.95-2.12-2.52-3.95-4.7-5.44-2.21-1.51-4.55-2.28-6.96-2.28h-37.8c-2.59,0-5.02.77-7.23,2.28-2.17,1.49-3.75,3.32-4.71,5.48l-78.27,182.72c-.97,1.98-1.32,3.84-1.04,5.53.27,1.64.92,3.04,1.92,4.18.96,1.1,2.2,1.93,3.66,2.46,1.31.48,2.61.72,3.86.72h46.44c2.41,0,4.75-.77,6.96-2.28,2.17-1.48,3.74-3.31,4.67-5.39l7.58-16.25c.49-1.11,1.34-2.06,2.6-2.92,1.21-.83,2.47-1.23,3.84-1.23h56.97c1.19,0,2.36.4,3.57,1.23,1.3.89,2.26,1.89,2.93,3.07l7.29,16.19.06.11c1.12,2.03,2.75,3.78,4.84,5.21,2.21,1.51,4.64,2.28,7.23,2.28h46.17c5.03,0,7.36-2.31,8.43-4.25,1.82-3.3,1.28-6.06.53-7.76l-78.86-183.64ZM342.06,433.11c-.09.13-.32.46-1.45.46h-24.03c-.95,0-1.41-.19-1.5-.33-.17-.27-.1-.74.22-1.46l13.16-31.84c2.07,4.99,4.29,10.34,6.68,16.06,2.49,5.96,4.66,11.26,6.46,15.76l.07.17.09.16c.07.13.44.81.29,1.03Z"/>
            <path class="cls-8" d="M581.89,424.86c-2.39-3.44-5.07-6.41-7.97-8.83-2.58-2.15-5.21-3.9-7.81-5.22,2.54-1.11,5.1-2.56,7.61-4.33,2.95-2.07,5.69-4.79,8.12-8.11,2.42-3.29,4.43-7.3,5.96-11.9,1.54-4.61,2.31-10.11,2.31-16.34,0-7.32-1.33-14.87-3.94-22.45-2.65-7.67-7.01-14.71-12.95-20.93-5.94-6.22-13.78-11.36-23.3-15.28-9.5-3.91-21.15-5.9-34.62-5.9-11.21,0-21.1,2.06-29.4,6.11-8.19,4-15.36,9.06-21.32,15.02-5.94,5.94-10.85,12.5-14.57,19.47-3.64,6.83-6.61,13.36-8.84,19.5-.8,2.39-.59,4.84.6,7.08,1.23,2.33,3.3,3.84,5.92,4.36l34.4,7.58.11.02c.59.08,1.17.13,1.73.13,2.53,0,7.09-.95,9.13-7.37.48-1.61,1.27-3.41,2.33-5.37,1-1.85,2.38-3.58,4.1-5.15,1.73-1.57,3.91-2.94,6.47-4.06,2.49-1.09,5.63-1.64,9.33-1.64,14.01,0,16.25,6.62,16.72,11.59.29,3.09-.33,5.71-1.92,8.01-1.7,2.47-3.7,4.33-5.89,5.5-4.68,2.34-9.73,3.78-15.01,4.29-4.14.4-7.8.6-10.87.6-1.01,0-1.98-.02-2.87-.06h-.14c-2.8,0-5.1.88-6.85,2.63-1.72,1.72-2.63,4-2.63,6.58v22.68c0,2.63.94,4.89,2.72,6.52,1.55,1.43,3.53,2.19,5.74,2.19.34,0,.7-.02,1.09-.06,3.13-.35,6.93-.52,11.28-.52s8.09.63,11.72,1.87c3.45,1.18,6.44,3.13,8.88,5.79,2.26,2.48,3.4,6.25,3.4,11.21,0,2.42-1.26,4.94-3.74,7.49-2.46,2.53-6.37,3.82-11.62,3.82-3.69,0-6.86-.59-9.42-1.75-2.65-1.21-4.87-2.65-6.6-4.3-1.71-1.63-3.04-3.42-3.96-5.34-1-2.08-1.75-4.04-2.24-5.83l-.05-.16c-.74-2.21-2.05-4.02-3.91-5.39-1.51-1.11-3.23-1.67-5.11-1.67-.64,0-1.31.07-2.05.22l-34.49,7.81c-2.65.53-4.7,1.97-5.94,4.17-1.2,2.14-1.43,4.63-.66,7.19l.03.1.04.09c2.2,5.87,5.16,12.34,8.79,19.24,3.71,7.06,8.56,13.7,14.41,19.73,5.89,6.08,13.13,11.19,21.52,15.2,8.47,4.05,18.44,6.1,29.64,6.1,4.59,0,9.67-.37,15.12-1.11,5.47-.74,10.97-2.06,16.37-3.92,5.41-1.86,10.75-4.46,15.89-7.73,5.21-3.31,9.96-7.67,14.11-12.96,2.82-3.57,5.16-7.3,6.97-11.1,1.77-3.73,3.15-7.34,4.1-10.75.94-3.4,1.57-6.62,1.85-9.56.28-2.87.42-5.38.42-7.44,0-5.7-.78-10.88-2.32-15.41-1.53-4.48-3.52-8.5-5.91-11.95Z"/>
          </g>
        </g>
      </g>
      <g class="cls-5">
        <g class="cls-16">
          <rect class="cls-6" x="-41.26" y="788.55" width="213.78" height="859.35"/>
          <rect class="cls-1" x="172.52" y="788.55" width="213.78" height="859.35"/>
          <rect class="cls-15" x="386.31" y="788.55" width="213.78" height="859.35"/>
          <rect class="cls-13" x="600.09" y="788.55" width="213.78" height="859.35"/>
        </g>
      </g>
      <g>
        <text class="cls-9" transform="translate(326.71 613.32)"><tspan x="0" y="0">N&amp;B</tspan></text>
        <text class="cls-3" transform="translate(326.71 613.32)"><tspan x="0" y="0">N&amp;B</tspan></text>
        <g class="cls-17">
          <g>
            <path class="cls-8" d="M383.54,552.38h-11.71c-1.33,0-2.53.5-3.46,1.43-.94.94-1.44,2.14-1.44,3.47v21.35l-16.68-23.55c-.59-.79-1.4-1.45-2.41-1.95-1-.5-2.01-.75-3-.75h-11.87c-1.33,0-2.53.5-3.46,1.43-.94.94-1.44,2.14-1.44,3.47v54.14c0,1.33.5,2.54,1.44,3.47.94.93,2.14,1.43,3.47,1.43h11.85c1.33,0,2.53-.49,3.47-1.43.94-.94,1.44-2.14,1.44-3.47v-21.44l16.72,23.55c.57.76,1.35,1.42,2.31,1.94,1.02.56,2.06.84,3.1.84h11.69c1.33,0,2.53-.5,3.47-1.43.94-.94,1.43-2.14,1.43-3.47v-54.14c0-1.33-.5-2.53-1.43-3.47-.94-.94-2.14-1.43-3.47-1.43Z"/>
            <path class="cls-8" d="M443.07,599.98l-2.25-2.38c1.14-1.69,2.16-3.3,3.04-4.79.94-1.59,1.68-2.86,2.22-3.83.69-1.25.8-2.66.29-3.97-.47-1.22-1.36-2.14-2.58-2.68l-8.72-3.84c-.48-.19-.97-.31-1.46-.36.44-.89.81-1.81,1.11-2.75.65-2.05.95-4.22.89-6.46-.06-2.28-.6-4.58-1.6-6.83-1.53-3.44-3.96-6.11-7.21-7.93-3.13-1.75-6.53-2.64-10.09-2.64-2.35,0-4.65.41-6.82,1.22-2.16.8-4.12,1.93-5.83,3.36-1.72,1.44-3.17,3.19-4.32,5.21-1.17,2.05-1.92,4.32-2.23,6.8-.52,4.49.34,8.82,2.55,12.85l-.13.1c-.24.17-.46.34-.65.52-2.79,2.34-4.94,4.96-6.37,7.76-1.54,3.02-2.07,6.53-1.57,10.42.62,5.26,2.9,9.54,6.77,12.73,3.81,3.13,8.74,4.72,14.65,4.72.94,0,1.98-.06,3.12-.17,1.22-.12,2.53-.41,3.89-.84,1.3-.41,2.67-.98,4.06-1.69,1.22-.62,2.46-1.44,3.68-2.44l3.64,3.71c.89.9,2.04,1.4,3.32,1.47.09,0,.17,0,.25,0,1.21,0,2.35-.43,3.3-1.26l7.13-6.27c1.06-.84,1.68-2.04,1.76-3.39.07-1.28-.37-2.5-1.26-3.53-.81-.92-1.67-1.85-2.56-2.8ZM414.03,598.6c-.44.12-.86.19-1.25.19-.17,0-.33-.01-.49-.03-.38-.05-.69-.19-1-.46-.25-.21-.37-.72-.42-1-.17-1.01-.06-1.49,0-1.59.12-.21.24-.38.36-.53l3.19,3.3c-.13.04-.26.09-.4.13Z"/>
            <path class="cls-8" d="M500.64,590.27c-.54-1.59-1.26-3.02-2.14-4.25-.87-1.22-1.84-2.27-2.89-3.13-.25-.2-.5-.4-.76-.59.88-.89,1.71-1.92,2.5-3.07,1.53-2.24,2.3-4.89,2.3-7.86,0-3.44-.66-6.43-1.98-8.89-1.3-2.43-3.04-4.44-5.18-5.97-2.08-1.49-4.49-2.57-7.19-3.21-2.54-.61-5.23-.91-7.98-.91h-23.9c-1.33,0-2.53.5-3.47,1.43-.94.94-1.43,2.14-1.43,3.47v54.14c0,1.33.5,2.53,1.43,3.47.94.94,2.14,1.43,3.47,1.43h25.09c2.85,0,5.62-.31,8.23-.91,2.78-.64,5.29-1.77,7.46-3.35,2.24-1.63,4.04-3.82,5.33-6.5,1.27-2.64,1.92-5.94,1.92-9.81,0-2.01-.28-3.85-.83-5.48ZM470.2,572.95h6.25c.06.04.18.12.34.26.1.09.14.15.15.22,0,.33-.1.6-.35.95,0,0-.04.01-.13.01h-6.26v-1.44ZM478.61,595.38c-.15.14-.43.38-.64.38h-7.76v-2.31h7.21c.61,0,.81.19.98.39.39.46.53.8.53.96,0,.12,0,.28-.32.58Z"/>
          </g>
        </g>
      </g>
      <path class="cls-2" d="M603.34,41.81h-253.4v.02c-4.61.13-9.12,1.89-12.64,5.13l-200.81,184.7h0c-4.48,4.12-6.86,9.79-6.81,15.59v435.24c0,41.74,36.01,75.71,80.28,75.71h393.37c44.27,0,80.28-33.96,80.28-75.71V117.51c0-41.74-36.01-75.71-80.28-75.71ZM338.24,89.57l1.05,112.47c.08,8.95-3.38,17.42-9.75,23.85-6.58,6.64-15.4,10.29-24.84,10.29h-125.86l159.4-146.61ZM651.62,682.49c0,24.1-21.66,43.71-48.28,43.71H209.97c-26.62,0-48.28-19.61-48.28-43.71v-414.31h143.02c18.05,0,34.95-7.02,47.58-19.77,12.42-12.54,19.18-29.11,19.01-46.67l-1.2-127.94h233.24c26.62,0,48.28,19.61,48.28,43.71v564.98Z"/>
      <g class="cls-5">
        <g class="cls-11">
          <rect class="cls-6" x="788.74" y="788.55" width="213.78" height="859.35"/>
        </g>
      </g>
    </g>
  </g>
</svg>