<?xml version="1.0" encoding="UTF-8"?>
<svg xmlns="http://www.w3.org/2000/svg" xmlns:xlink="http://www.w3.org/1999/xlink" viewBox="0 0 800 800">
  <defs>
    <style>
      .cls-1 {
        fill: #7ac943;
      }

      .cls-2, .cls-3, .cls-4 {
        fill: #fff;
      }

      .cls-2, .cls-4, .cls-5, .cls-6 {
        font-family: Heavitas, Heavitas;
      }

      .cls-2, .cls-6 {
        font-size: 63.09px;
      }

      .cls-7 {
        stroke-width: 5px;
      }

      .cls-7, .cls-8, .cls-9 {
        fill: none;
      }

      .cls-7, .cls-9 {
        stroke: #262b2f;
      }

      .cls-10 {
        opacity: .3;
      }

      .cls-11 {
        fill: #3fa9f5;
      }

      .cls-12 {
        clip-path: url(#clippath-1);
      }

      .cls-4, .cls-5 {
        font-size: 270px;
      }

      .cls-13 {
        mix-blend-mode: multiply;
        opacity: .89;
      }

      .cls-14 {
        isolation: isolate;
      }

      .cls-15 {
        fill: #ff1d25;
      }

      .cls-16 {
        clip-path: url(#clippath-3);
      }

      .cls-17 {
        fill: #ff931e;
      }

      .cls-18 {
        mix-blend-mode: overlay;
      }

      .cls-19 {
        clip-path: url(#clippath-2);
      }

      .cls-9 {
        stroke-width: 6px;
      }

      .cls-20 {
        clip-path: url(#clippath);
      }
    </style>
    <clipPath id="clippath">
      <rect class="cls-8" width="800" height="800" rx="49.55" ry="49.55"/>
    </clipPath>
    <clipPath id="clippath-1">
      <rect class="cls-8" x="830" width="800" height="800" rx="49.55" ry="49.55"/>
    </clipPath>
    <clipPath id="clippath-2">
      <rect class="cls-8" y="830" width="800" height="800" rx="49.55" ry="49.55"/>
    </clipPath>
    <clipPath id="clippath-3">
      <rect class="cls-8" x="830" y="830" width="800" height="800" rx="49.55" ry="49.55"/>
    </clipPath>
  </defs>
  <g class="cls-14">
    <g id="Calque_1" data-name="Calque 1">
      <rect class="cls-3" width="800" height="800" rx="49.55" ry="49.55"/>
      <g class="cls-10">
        <g class="cls-20">
          <rect class="cls-11" x="-41.26" y="-41.45" width="213.78" height="859.35"/>
          <rect class="cls-1" x="172.52" y="-41.45" width="213.78" height="859.35"/>
          <rect class="cls-17" x="386.31" y="-41.45" width="213.78" height="859.35"/>
          <rect class="cls-15" x="600.09" y="-41.45" width="213.78" height="859.35"/>
        </g>
      </g>
      <g>
        <text class="cls-5" transform="translate(207.91 510.55)"><tspan x="0" y="0">A0</tspan></text>
        <text class="cls-4" transform="translate(207.91 510.55)"><tspan x="0" y="0">A0</tspan></text>
        <g class="cls-13">
          <g>
            <path class="cls-9" d="M339.44,317.9c-.95-2.12-2.52-3.95-4.7-5.44-2.21-1.51-4.55-2.28-6.96-2.28h-37.8c-2.59,0-5.02.77-7.23,2.28-2.17,1.49-3.75,3.32-4.71,5.48l-78.27,182.72c-.97,1.98-1.32,3.84-1.04,5.53.27,1.64.92,3.04,1.92,4.18.96,1.1,2.2,1.93,3.66,2.46,1.31.48,2.61.72,3.86.72h46.44c2.41,0,4.75-.77,6.96-2.28,2.17-1.48,3.74-3.31,4.67-5.39l7.58-16.25c.49-1.11,1.34-2.06,2.6-2.92,1.21-.83,2.47-1.23,3.84-1.23h56.97c1.19,0,2.36.4,3.57,1.23,1.3.89,2.26,1.89,2.93,3.07l7.29,16.19.06.11c1.12,2.03,2.75,3.78,4.84,5.21,2.21,1.51,4.64,2.28,7.23,2.28h46.17c5.03,0,7.36-2.31,8.43-4.25,1.82-3.3,1.28-6.06.53-7.76l-78.86-183.64ZM322.21,433.11c-.09.13-.32.46-1.45.46h-24.03c-.95,0-1.41-.19-1.5-.33-.17-.27-.1-.74.22-1.46l13.16-31.84c2.07,4.99,4.29,10.34,6.68,16.06,2.49,5.96,4.66,11.26,6.46,15.76l.07.17.09.16c.07.13.44.81.29,1.03Z"/>
            <path class="cls-9" d="M600.87,370.21c-4.61-12.71-11.06-23.88-19.19-33.21-8.17-9.37-17.99-16.79-29.2-22.07-11.24-5.3-23.71-7.98-37.05-7.98s-26.32,2.59-37.56,7.69c-11.23,5.1-21.06,12.4-29.23,21.67-8.14,9.25-14.51,20.44-18.94,33.27-4.41,12.77-6.64,27.04-6.64,42.42,0,13.76,2,26.97,5.95,39.26,3.97,12.36,9.92,23.42,17.65,32.8,8.35,10.57,18.5,18.85,30.19,24.59,11.71,5.76,24.69,8.68,38.58,8.68s26.06-2.87,37.76-8.54c11.69-5.66,21.95-13.98,30.44-24.69,7.76-9.42,13.8-20.46,17.94-32.81,4.13-12.31,6.23-25.53,6.23-39.29,0-15.03-2.33-29.09-6.93-41.79ZM544.58,432.93c-1.95,5.95-4.52,11-7.63,15.03-3.05,3.96-6.49,6.95-10.22,8.89-3.69,1.92-7.49,2.9-11.3,2.9-5.55,0-10.16-1.33-14.09-4.06-4.03-2.79-7.42-6.48-10.06-10.95-2.72-4.58-4.78-9.79-6.14-15.5-1.38-5.76-2.08-11.57-2.08-17.26,0-8.45,1.04-15.8,3.08-21.86,2.04-6.03,4.64-11.03,7.73-14.88,3.02-3.76,6.48-6.56,10.27-8.34,3.81-1.78,7.6-2.69,11.28-2.69,8.68,0,15.96,3.53,22.26,10.79,3.12,3.96,5.55,9.34,7.23,15.97,1.73,6.85,2.61,13.92,2.61,21,0,7.91-.99,14.96-2.96,20.93Z"/>
          </g>
        </g>
      </g>
      <g>
        <text class="cls-6" transform="translate(250.58 589.74)"><tspan x="0" y="0">COULEUR</tspan></text>
        <text class="cls-2" transform="translate(250.58 589.74)"><tspan x="0" y="0">COULEUR</tspan></text>
        <g class="cls-13">
          <g>
            <path class="cls-7" d="M298.69,573.75l-8.95-3.53c-.45-.18-.9-.27-1.36-.27s-.93.09-1.38.28c-.79.33-1.4.85-1.84,1.55-.92,1.48-2.19,2.71-3.77,3.66-1.57.93-3.29,1.39-5.25,1.39-1.31,0-2.5-.27-3.65-.81-1.19-.57-2.23-1.32-3.11-2.24-.87-.91-1.56-1.98-2.05-3.19-.49-1.21-.74-2.5-.74-3.83s.25-2.58.74-3.81c.49-1.23,1.18-2.33,2.06-3.26.88-.93,1.92-1.69,3.1-2.25,1.15-.55,2.34-.82,3.65-.82,2.06,0,3.82.42,5.22,1.26,1.44.86,2.7,2.14,3.74,3.79.43.7,1.09,1.24,1.9,1.55.45.18.91.27,1.38.27s.93-.09,1.36-.27l9.04-3.56c.89-.39,1.54-1.11,1.84-2.02.31-.94.2-1.92-.33-2.77-1.28-2.02-2.69-3.91-4.21-5.6-1.57-1.75-3.36-3.26-5.31-4.49-1.96-1.23-4.18-2.2-6.58-2.88-2.4-.68-5.1-1.02-8.05-1.02-3.62,0-7.07.69-10.25,2.05-3.15,1.35-5.96,3.21-8.33,5.51-2.39,2.32-4.29,5.08-5.65,8.21-1.37,3.14-2.06,6.53-2.06,10.07s.69,6.93,2.06,10.07c1.36,3.13,3.26,5.89,5.65,8.21,2.37,2.31,5.18,4.16,8.33,5.51,3.18,1.36,6.63,2.05,10.25,2.05,2.86,0,5.52-.34,7.92-1.02,2.4-.67,4.62-1.64,6.6-2.86,1.98-1.22,3.79-2.72,5.38-4.46,1.55-1.69,2.98-3.6,4.31-5.75.48-.87.58-1.84.26-2.74-.31-.88-.94-1.56-1.91-1.98Z"/>
            <path class="cls-7" d="M343.43,548.36c-2.34-2.33-5.1-4.21-8.22-5.56-3.14-1.37-6.53-2.06-10.07-2.06s-6.93.69-10.07,2.06c-3.12,1.36-5.88,3.23-8.19,5.57-2.31,2.33-4.17,5.1-5.52,8.21-1.37,3.14-2.06,6.53-2.06,10.07s.69,6.93,2.06,10.07c1.35,3.12,3.21,5.88,5.52,8.21,2.31,2.34,5.07,4.21,8.19,5.57,3.14,1.37,6.53,2.06,10.07,2.06s6.93-.69,10.07-2.06c3.12-1.36,5.88-3.23,8.22-5.56,2.33-2.33,4.2-5.1,5.56-8.22,1.37-3.14,2.06-6.53,2.06-10.07s-.69-6.93-2.06-10.07c-1.36-3.12-3.23-5.88-5.56-8.22ZM333.83,570.43c-.49,1.19-1.18,2.25-2.05,3.16-.88.91-1.91,1.65-3.07,2.19-1.13.53-2.29.79-3.57.79s-2.44-.26-3.57-.79c-1.15-.54-2.17-1.28-3.02-2.18-.86-.91-1.54-1.98-2.04-3.18-.49-1.18-.73-2.45-.73-3.78s.25-2.56.74-3.76c.49-1.21,1.17-2.27,2.02-3.15.85-.89,1.87-1.62,3.03-2.16,1.13-.53,2.3-.79,3.57-.79s2.44.26,3.56.79c1.17.55,2.2,1.28,3.08,2.18.86.88,1.55,1.94,2.04,3.14.49,1.21.74,2.47.74,3.76s-.25,2.6-.73,3.78Z"/>
            <path class="cls-7" d="M394.29,541.62h-9.48c-.96,0-1.81.36-2.49,1.03-.67.67-1.02,1.53-1.02,2.48v25.55c0,1.32-.2,2.39-.59,3.19-.4.8-.86,1.43-1.39,1.85-.56.45-1.13.75-1.77.93-.71.2-1.33.3-1.86.3s-1.16-.1-1.86-.3c-.65-.18-1.24-.49-1.82-.95-.54-.42-1.01-1.04-1.4-1.83-.39-.79-.59-1.86-.59-3.19v-25.55c0-.95-.35-1.81-1.02-2.48-.67-.67-1.53-1.03-2.48-1.03h-9.48c-.95,0-1.81.36-2.49,1.03-.67.67-1.02,1.53-1.02,2.48v25.55c0,3.23.53,6.21,1.59,8.87,1.07,2.69,2.6,5.03,4.56,6.94,1.95,1.91,4.32,3.4,7.05,4.44,2.69,1.03,5.71,1.55,8.97,1.55s6.27-.52,8.97-1.55c2.72-1.04,5.09-2.54,7.05-4.44,1.96-1.92,3.49-4.26,4.53-6.95,1.03-2.66,1.55-5.64,1.55-8.86v-25.55c0-.95-.35-1.81-1.02-2.48-.67-.67-1.53-1.03-2.48-1.03Z"/>
            <path class="cls-7" d="M438.19,576.13h-18.5v-31.06c0-.95-.35-1.81-1.03-2.49-.67-.67-1.53-1.02-2.48-1.02h-9.46c-1.02,0-1.91.37-2.57,1.08-.62.67-.94,1.51-.94,2.43v43.15c0,.93.33,1.77.94,2.43.66.71,1.54,1.08,2.57,1.08h31.48c.96,0,1.82-.36,2.49-1.03.67-.67,1.03-1.53,1.03-2.49v-8.58c0-.95-.35-1.81-1.03-2.49-.67-.67-1.53-1.03-2.49-1.03Z"/>
            <path class="cls-7" d="M477.62,541.56h-32.11c-.95,0-1.81.36-2.49,1.03-.67.67-1.03,1.53-1.03,2.49v43.15c0,.96.36,1.82,1.02,2.48.67.67,1.53,1.03,2.49,1.03h32.11c.96,0,1.82-.36,2.49-1.03.67-.67,1.03-1.53,1.03-2.49v-8.71c0-.95-.36-1.81-1.03-2.49-.67-.67-1.53-1.03-2.49-1.03h-19.13v-1.42h16.61c.95,0,1.81-.35,2.49-1.03.67-.67,1.03-1.53,1.03-2.49v-8.71c0-.95-.36-1.81-1.03-2.49-.67-.67-1.53-1.03-2.49-1.03h-16.61v-1.68h19.13c.96,0,1.82-.36,2.49-1.03.67-.67,1.03-1.53,1.03-2.49v-8.58c0-.95-.35-1.81-1.03-2.49-.67-.67-1.53-1.03-2.49-1.03Z"/>
            <path class="cls-7" d="M525.89,541.62h-9.48c-.96,0-1.81.36-2.49,1.03-.67.67-1.02,1.53-1.02,2.48v25.55c0,1.32-.2,2.39-.59,3.19-.4.8-.86,1.43-1.39,1.85-.56.45-1.13.75-1.77.93-.71.2-1.33.3-1.86.3s-1.16-.1-1.86-.3c-.65-.18-1.24-.49-1.82-.95-.54-.42-1.01-1.04-1.4-1.83-.39-.79-.59-1.86-.59-3.19v-25.55c0-.95-.35-1.81-1.02-2.48-.67-.67-1.53-1.03-2.48-1.03h-9.48c-.95,0-1.81.36-2.49,1.03-.67.67-1.02,1.53-1.02,2.48v25.55c0,3.23.53,6.21,1.59,8.87,1.07,2.69,2.6,5.03,4.56,6.94,1.95,1.91,4.32,3.4,7.05,4.44,2.69,1.03,5.71,1.55,8.97,1.55s6.27-.52,8.97-1.55c2.72-1.04,5.09-2.54,7.05-4.44,1.96-1.92,3.49-4.26,4.53-6.95,1.03-2.66,1.55-5.64,1.55-8.86v-25.55c0-.95-.35-1.81-1.02-2.48-.67-.67-1.53-1.03-2.48-1.03Z"/>
            <path class="cls-7" d="M579.02,586.83c-1.38-1.84-2.99-3.92-4.76-6.16-1.61-2.03-3.14-4-4.57-5.87.97-.67,1.85-1.48,2.64-2.41.9-1.06,1.68-2.27,2.34-3.58.65-1.31,1.16-2.72,1.51-4.18.35-1.47.53-2.97.53-4.47,0-2.69-.46-5.19-1.38-7.44-.92-2.25-2.21-4.23-3.84-5.89-1.64-1.66-3.64-2.97-5.95-3.89-2.29-.91-4.81-1.37-7.49-1.37h-19.62c-.96,0-1.81.36-2.49,1.03-.67.67-1.03,1.53-1.03,2.49v43.15c0,.96.36,1.82,1.03,2.49.67.67,1.53,1.02,2.49,1.02h9.45c.96,0,1.82-.35,2.49-1.02.68-.67,1.03-1.53,1.03-2.49v-9.73h.89s.18.01.42.13c.23.12.33.21.33.21h0c1.3,1.86,2.62,3.7,3.95,5.52,1.33,1.82,2.66,3.62,4,5.38.45.6,1.07,1.09,1.84,1.46.75.36,1.5.54,2.22.54h11.73c1.29,0,2.34-.77,2.73-2,.32-1.02.15-2.05-.5-2.91ZM559.99,561.34c-.18.36-.39.64-.65.87-.27.23-.55.4-.85.5-.33.11-.64.17-.91.17h-6.16v-5.72h6.16c.51,0,.92.09,1.21.26.35.21.62.45.8.72.23.34.39.68.47,1.02.13.51.16.82.16.99,0,.48-.08.88-.23,1.19Z"/>
          </g>
        </g>
      </g>
      <g class="cls-10">
        <g class="cls-12">
          <rect class="cls-11" x="788.74" y="-41.45" width="213.78" height="859.35"/>
        </g>
      </g>
      <g class="cls-10">
        <g class="cls-19">
          <rect class="cls-11" x="-41.26" y="788.55" width="213.78" height="859.35"/>
          <rect class="cls-1" x="172.52" y="788.55" width="213.78" height="859.35"/>
          <rect class="cls-17" x="386.31" y="788.55" width="213.78" height="859.35"/>
          <rect class="cls-15" x="600.09" y="788.55" width="213.78" height="859.35"/>
        </g>
      </g>
      <g class="cls-10">
        <g class="cls-16">
          <rect class="cls-11" x="788.74" y="788.55" width="213.78" height="859.35"/>
        </g>
      </g>
      <g class="cls-18">
        <path d="M603.34,21.27h-253.4l-12,.02v2.6c-3.2,1.39-6.16,3.31-8.76,5.7l-200.81,184.7c-6.87,6.32-10.76,15.25-10.68,24.42v435.24c0,48.36,41.4,87.71,92.28,87.71h393.37c50.88,0,92.28-39.34,92.28-87.71V108.98c0-48.36-41.4-87.71-92.28-87.71ZM304.7,215.65h-95.09l116.88-107.5.8,85.47c.05,5.72-2.17,11.15-6.27,15.29-4.3,4.34-10.1,6.74-16.32,6.74ZM603.34,705.66H209.97c-20.01,0-36.28-14.22-36.28-31.71v-402.31h131.02c21.28,0,41.2-8.28,56.1-23.33,14.69-14.83,22.68-34.44,22.49-55.23l-1.08-115.83h221.13c20.01,0,36.28,14.22,36.28,31.71v564.98c0,17.48-16.28,31.71-36.28,31.71Z"/>
      </g>
    </g>
  </g>
</svg>