<?xml version="1.0" encoding="UTF-8"?>
<svg xmlns="http://www.w3.org/2000/svg" xmlns:xlink="http://www.w3.org/1999/xlink" viewBox="0 0 800 800">
  <defs>
    <style>
      .cls-1 {
        fill: #7ac943;
      }

      .cls-2, .cls-3, .cls-4 {
        fill: #fff;
      }

      .cls-5 {
        opacity: .3;
      }

      .cls-6 {
        fill: #3fa9f5;
      }

      .cls-7, .cls-8 {
        fill: none;
      }

      .cls-3, .cls-9 {
        font-size: 79.15px;
      }

      .cls-3, .cls-9, .cls-4, .cls-10 {
        font-family: Heavitas, Heavitas;
      }

      .cls-11 {
        clip-path: url(#clippath-1);
      }

      .cls-4, .cls-10 {
        font-size: 270px;
      }

      .cls-12 {
        isolation: isolate;
      }

      .cls-13 {
        fill: #ff1d25;
      }

      .cls-14 {
        fill: #4e5861;
      }

      .cls-15 {
        fill: #ff931e;
      }

      .cls-8 {
        stroke: #262b2f;
        stroke-width: 6px;
      }

      .cls-16 {
        clip-path: url(#clippath);
      }

      .cls-17 {
        mix-blend-mode: multiply;
        opacity: .5;
      }
    </style>
    <clipPath id="clippath">
      <rect class="cls-7" y="830" width="800" height="800" rx="49.55" ry="49.55"/>
    </clipPath>
    <clipPath id="clippath-1">
      <rect class="cls-7" x="830" y="830" width="800" height="800" rx="49.55" ry="49.55"/>
    </clipPath>
  </defs>
  <g class="cls-12">
    <g id="Calque_1" data-name="Calque 1">
      <rect class="cls-14" width="800" height="800" rx="49.55" ry="49.55"/>
      <g>
        <text class="cls-10" transform="translate(218.03 510.55)"><tspan x="0" y="0">A4</tspan></text>
        <text class="cls-4" transform="translate(218.03 510.55)"><tspan x="0" y="0">A4</tspan></text>
        <g class="cls-17">
          <g>
            <path class="cls-8" d="M349.56,317.9c-.95-2.12-2.52-3.95-4.7-5.44-2.21-1.51-4.55-2.28-6.96-2.28h-37.8c-2.59,0-5.02.77-7.23,2.28-2.17,1.49-3.75,3.32-4.71,5.48l-78.27,182.72c-.97,1.98-1.32,3.84-1.04,5.53.27,1.64.92,3.04,1.92,4.18.96,1.1,2.2,1.93,3.66,2.46,1.31.48,2.61.72,3.86.72h46.44c2.41,0,4.75-.77,6.96-2.28,2.17-1.48,3.74-3.31,4.67-5.39l7.58-16.25c.49-1.11,1.34-2.06,2.6-2.92,1.21-.83,2.47-1.23,3.84-1.23h56.97c1.19,0,2.36.4,3.57,1.23,1.3.89,2.26,1.89,2.93,3.07l7.29,16.19.06.11c1.12,2.03,2.75,3.78,4.84,5.21,2.21,1.51,4.64,2.28,7.23,2.28h46.17c5.03,0,7.36-2.31,8.43-4.25,1.82-3.3,1.28-6.06.53-7.76l-78.86-183.64ZM332.34,433.11c-.09.13-.32.46-1.45.46h-24.03c-.95,0-1.41-.19-1.5-.33-.17-.27-.1-.74.22-1.46l13.16-31.84c2.07,4.99,4.29,10.34,6.68,16.06,2.49,5.96,4.66,11.26,6.46,15.76l.07.17.09.16c.07.13.44.81.29,1.03Z"/>
            <path class="cls-8" d="M599.17,421.29c-1.74-1.86-4.13-2.84-6.92-2.84h-8.91c-1.01,0-1.77-.31-2.47-1.02-.7-.69-1.01-1.45-1.01-2.46v-95.85c0-2.57-.86-4.8-2.56-6.64-1.74-1.86-4.13-2.84-6.92-2.84h-26.73c-2.2,0-4.56.54-7,1.6-2.51,1.09-4.48,2.57-5.87,4.38l-90.64,106.29c-1.49,1.71-2.72,3.83-3.66,6.32-.93,2.49-1.41,4.84-1.41,6.99v29.43c0,2.59.96,4.91,2.77,6.71,1.81,1.81,4.13,2.77,6.71,2.77h72.36c1.49,0,2.16.53,2.52.93.65.71.96,1.52.96,2.55v26.46c0,2.58.96,4.91,2.76,6.71,1.81,1.81,4.13,2.77,6.71,2.77h40.5c2.8,0,5.19-.98,6.92-2.85,1.7-1.83,2.56-4.06,2.56-6.63v-26.46c0-1.01.31-1.77,1.01-2.47.7-.7,1.46-1.01,2.47-1.01h8.91c2.8,0,5.19-.98,6.92-2.85,1.7-1.83,2.56-4.06,2.56-6.63v-36.72c0-2.57-.86-4.8-2.56-6.64ZM520.4,413.89c0,1.22-.43,2.24-1.34,3.21-.88.93-1.79,1.35-2.95,1.35h-7.83c-.8,0-1.25-.13-1.43-.26.04-.17.18-.56.63-1.21l12.92-18.13v15.04Z"/>
          </g>
        </g>
      </g>
      <g>
        <text class="cls-9" transform="translate(321.92 613.32)"><tspan x="0" y="0">N&amp;B</tspan></text>
        <text class="cls-3" transform="translate(321.92 613.32)"><tspan x="0" y="0">N&amp;B</tspan></text>
        <g class="cls-17">
          <g>
            <path class="cls-8" d="M378.75,552.38h-11.71c-1.33,0-2.53.5-3.46,1.43-.94.94-1.44,2.14-1.44,3.47v21.35l-16.68-23.55c-.59-.79-1.4-1.45-2.41-1.95-1-.5-2.01-.75-3-.75h-11.87c-1.33,0-2.53.5-3.46,1.43-.94.94-1.44,2.14-1.44,3.47v54.14c0,1.33.5,2.54,1.44,3.47.94.93,2.14,1.43,3.47,1.43h11.85c1.33,0,2.53-.49,3.47-1.43.94-.94,1.44-2.14,1.44-3.47v-21.44l16.72,23.55c.57.76,1.35,1.42,2.31,1.94,1.02.56,2.06.84,3.1.84h11.69c1.33,0,2.53-.5,3.47-1.43.94-.94,1.43-2.14,1.43-3.47v-54.14c0-1.33-.5-2.53-1.43-3.47-.94-.94-2.14-1.43-3.47-1.43Z"/>
            <path class="cls-8" d="M438.28,599.98l-2.25-2.38c1.13-1.69,2.16-3.3,3.04-4.79.94-1.58,1.68-2.86,2.22-3.83.69-1.25.8-2.66.29-3.97-.47-1.22-1.36-2.14-2.58-2.68l-8.72-3.84c-.48-.19-.97-.31-1.46-.36.44-.89.81-1.81,1.11-2.75.65-2.05.95-4.22.89-6.46-.06-2.28-.6-4.58-1.6-6.83-1.53-3.44-3.96-6.11-7.21-7.93-3.13-1.75-6.53-2.64-10.09-2.64-2.35,0-4.65.41-6.82,1.22-2.16.8-4.12,1.93-5.83,3.36-1.72,1.44-3.17,3.19-4.32,5.21-1.17,2.05-1.92,4.32-2.23,6.8-.52,4.49.34,8.82,2.55,12.85l-.13.1c-.24.17-.46.34-.65.52-2.79,2.34-4.94,4.96-6.37,7.76-1.54,3.02-2.07,6.53-1.57,10.42.62,5.26,2.9,9.54,6.77,12.73,3.81,3.13,8.74,4.72,14.65,4.72.94,0,1.98-.06,3.12-.17,1.22-.12,2.53-.41,3.89-.84,1.3-.41,2.67-.98,4.06-1.69,1.22-.62,2.46-1.44,3.68-2.44l3.64,3.71c.89.9,2.04,1.4,3.32,1.47.08,0,.17,0,.25,0,1.21,0,2.35-.43,3.3-1.26l7.13-6.27c1.06-.84,1.68-2.04,1.76-3.39.07-1.28-.37-2.49-1.26-3.52-.81-.92-1.67-1.85-2.56-2.8ZM409.24,598.6c-.44.12-.86.19-1.25.19-.17,0-.33-.01-.49-.03-.38-.05-.69-.19-.99-.46-.25-.21-.37-.72-.42-1-.17-1.01-.06-1.49,0-1.59.12-.21.24-.38.36-.53l3.19,3.3c-.13.04-.26.09-.4.13Z"/>
            <path class="cls-8" d="M495.85,590.27c-.54-1.59-1.26-3.02-2.14-4.25-.87-1.22-1.84-2.27-2.89-3.12-.25-.2-.5-.4-.76-.59.88-.89,1.71-1.92,2.5-3.07,1.53-2.24,2.3-4.89,2.3-7.86,0-3.44-.66-6.43-1.98-8.89-1.3-2.43-3.04-4.44-5.17-5.97-2.08-1.49-4.49-2.57-7.19-3.21-2.54-.61-5.23-.91-7.98-.91h-23.9c-1.33,0-2.53.5-3.46,1.43-.94.94-1.44,2.14-1.44,3.47v54.14c0,1.33.5,2.53,1.43,3.46.94.94,2.14,1.44,3.47,1.44h25.09c2.85,0,5.62-.31,8.23-.91,2.79-.64,5.3-1.77,7.46-3.35,2.24-1.63,4.04-3.82,5.33-6.5,1.27-2.64,1.92-5.94,1.92-9.81,0-2.01-.28-3.85-.83-5.48ZM465.42,572.95h6.25c.07.04.18.12.34.26.1.09.14.16.15.22,0,.33-.1.6-.35.95,0,0-.04.01-.13.01h-6.26v-1.44ZM473.82,595.38c-.15.14-.43.38-.64.38h-7.76v-2.31h7.21c.61,0,.81.19.98.39.39.46.53.8.53.96,0,.12,0,.28-.32.58Z"/>
          </g>
        </g>
      </g>
      <path class="cls-2" d="M606.56,41.81h-253.4v.02c-4.61.13-9.12,1.89-12.64,5.13l-200.81,184.7h0c-4.48,4.12-6.86,9.79-6.81,15.59v435.24c0,41.74,36.01,75.71,80.28,75.71h393.37c44.27,0,80.28-33.96,80.28-75.71V117.51c0-41.74-36.01-75.71-80.28-75.71ZM341.46,89.57l1.05,112.47c.08,8.95-3.38,17.42-9.75,23.85-6.58,6.64-15.4,10.29-24.84,10.29h-125.86l159.4-146.61ZM654.84,682.49c0,24.1-21.66,43.71-48.28,43.71H213.19c-26.62,0-48.28-19.61-48.28-43.71v-414.31h143.02c18.05,0,34.95-7.02,47.58-19.77,12.42-12.54,19.18-29.11,19.01-46.67l-1.2-127.94h233.24c26.62,0,48.28,19.61,48.28,43.71v564.98Z"/>
      <g class="cls-5">
        <g class="cls-16">
          <rect class="cls-6" x="-41.26" y="788.55" width="213.78" height="859.35"/>
          <rect class="cls-1" x="172.52" y="788.55" width="213.78" height="859.35"/>
          <rect class="cls-15" x="386.31" y="788.55" width="213.78" height="859.35"/>
          <rect class="cls-13" x="600.09" y="788.55" width="213.78" height="859.35"/>
        </g>
      </g>
      <g class="cls-5">
        <g class="cls-11">
          <rect class="cls-6" x="788.74" y="788.55" width="213.78" height="859.35"/>
        </g>
      </g>
    </g>
  </g>
</svg>