<?xml version="1.0" encoding="UTF-8"?>
<svg xmlns="http://www.w3.org/2000/svg" xmlns:xlink="http://www.w3.org/1999/xlink" viewBox="0 0 800 800">
  <defs>
    <style>
      .cls-1 {
        fill: #0071bc;
      }

      .cls-2 {
        clip-path: url(#clippath-4);
      }

      .cls-3, .cls-4 {
        fill: #fff;
      }

      .cls-5, .cls-6 {
        opacity: .3;
      }

      .cls-7 {
        fill: #3fa9f5;
      }

      .cls-8, .cls-9, .cls-10 {
        fill: none;
      }

      .cls-11 {
        isolation: isolate;
      }

      .cls-12 {
        fill: #a67452;
      }

      .cls-4, .cls-13 {
        font-family: Heavitas, Heavitas;
        font-size: 217.09px;
      }

      .cls-6 {
        mix-blend-mode: overlay;
      }

      .cls-14 {
        fill: #ccc;
      }

      .cls-15 {
        fill: #b3b3b3;
      }

      .cls-9 {
        stroke: #262b2f;
        stroke-width: 6px;
      }

      .cls-10 {
        stroke: #a27655;
        stroke-miterlimit: 10;
      }

      .cls-16 {
        fill: #c29470;
      }

      .cls-17 {
        mix-blend-mode: multiply;
        opacity: .5;
      }
    </style>
    <clipPath id="clippath-4">
      <path class="cls-8" d="M760.25,288.92v.06c0,1.37-.82,2.9-2.43,4.56-7.39,7.63-24.89,15.04-37.64,20.46-4.26,1.81-8.28,3.52-11.58,5.06-19.86,9.34-40.08,18.17-59.64,26.71-19.55,8.53-39.75,17.34-59.68,26.72-56.67,26.66-113.35,53.33-169.87,79.95-6.39,2.77-12.68,4.13-19.22,4.18h-.22c-15.62,0-30.48-7.52-46.2-15.49-40.97-20.75-82.01-40.19-121.71-58.99-39.72-18.82-80.79-38.27-121.71-59-2.8-1.42-6.55-3.11-10.89-5.09-15.94-7.23-49.1-22.26-50.06-33.79-.21-2.54,1.74-5.23,5.81-8.01,11.03-7.5,26.28-12.4,41.04-17.13,7.35-2.36,14.3-4.6,20.69-7.12l119.15-47.08c16.93-6.69,34.5-14.52,51.48-22.12,35.39-15.81,71.98-32.15,108.01-40.62,19.45-4.57,35.36,2.3,53.79,10.23,1.99.86,4,1.73,6.04,2.59l231.47,97.76c2.93,1.24,7.68,2.81,13.69,4.8,16.27,5.39,59.48,19.71,59.68,31.35Z"/>
    </clipPath>
  </defs>
  <g class="cls-11">
    <g id="Calque_1" data-name="Calque 1">
      <rect class="cls-7" y="-.27" width="800" height="800" rx="49.55" ry="49.55"/>
      <g>
        <text class="cls-13" transform="translate(73.7 735.17)"><tspan x="0" y="0">PLEXi</tspan></text>
        <text class="cls-4" transform="translate(73.7 735.17)"><tspan x="0" y="0">PLEXi</tspan></text>
        <g class="cls-17">
          <g>
            <path class="cls-9" d="M200.55,591.31c-5.54-5.61-12.15-10.07-19.63-13.25-7.5-3.18-15.6-4.8-24.08-4.8h-66.43c-2.23,0-4.24.83-5.81,2.4-1.57,1.57-2.4,3.58-2.4,5.81v148.49c0,2.23.82,4.24,2.38,5.81,1.56,1.57,3.57,2.4,5.8,2.4h32.62c2.23,0,4.24-.83,5.79-2.4,1.56-1.57,2.39-3.58,2.39-5.81v-32.35c0-.65.19-1.12.64-1.57.45-.45.93-.64,1.58-.64h18.93c10.9,0,20.59-1.56,28.8-4.64,8.26-3.1,15.27-7.41,20.84-12.81,5.59-5.43,9.83-11.93,12.58-19.34,2.72-7.32,4.11-15.31,4.11-23.73s-1.66-16.55-4.92-24c-3.25-7.4-7.69-13.98-13.2-19.57ZM166.44,644.99c-1.96,2.72-5.13,4.04-9.67,4.04h-23.34c-.67,0-1.15-.19-1.6-.64-.45-.44-.64-.9-.64-1.54v-25.46c0-.63.19-1.09.64-1.53.46-.45.94-.65,1.6-.65h20.5c2.6,0,4.89.45,6.81,1.34,1.96.91,3.62,2.09,4.95,3.53,1.33,1.44,2.3,3.04,2.97,4.91.68,1.9,1.03,3.84,1.03,5.78,0,3.85-1.06,7.19-3.25,10.22Z"/>
            <path class="cls-9" d="M345.92,692.23h-65.34c-.96,0-1.36-.3-1.6-.57-.42-.45-.61-.96-.61-1.64v-108.54c0-2.23-.83-4.24-2.4-5.81-1.57-1.57-3.58-2.4-5.81-2.4h-32.56c-2.42,0-4.49.86-6,2.48-1.45,1.56-2.21,3.54-2.21,5.73v148.49c0,2.2.77,4.18,2.21,5.73,1.5,1.62,3.58,2.48,6,2.48h108.33c2.23,0,4.24-.83,5.81-2.4,1.57-1.57,2.4-3.58,2.4-5.81v-29.52c0-2.23-.83-4.24-2.4-5.82-1.57-1.57-3.58-2.39-5.81-2.39Z"/>
            <path class="cls-9" d="M481.6,573.27h-110.5c-2.23,0-4.24.83-5.81,2.4-1.57,1.57-2.4,3.58-2.4,5.81v148.49c0,2.24.83,4.25,2.39,5.81,1.57,1.57,3.58,2.4,5.82,2.4h110.5c2.23,0,4.24-.83,5.81-2.4,1.57-1.57,2.4-3.58,2.4-5.81v-29.96c0-2.23-.83-4.24-2.4-5.82-1.57-1.57-3.58-2.39-5.81-2.39h-67.51c-.65,0-1.12-.19-1.57-.64-.45-.45-.64-.91-.64-1.57v-8.25c0-.65.19-1.12.64-1.57.45-.45.92-.64,1.57-.64h58.83c2.23,0,4.24-.83,5.81-2.4,1.57-1.57,2.4-3.58,2.4-5.81v-29.96c0-2.23-.83-4.24-2.4-5.82-1.57-1.57-3.58-2.39-5.81-2.39h-58.83c-.65,0-1.12-.19-1.57-.64-.45-.45-.64-.91-.64-1.57v-9.12c0-.65.19-1.12.64-1.57s.92-.64,1.57-.64h67.51c2.23,0,4.24-.83,5.81-2.4,1.57-1.57,2.4-3.58,2.4-5.81v-29.52c0-2.23-.83-4.24-2.4-5.82-1.57-1.57-3.58-2.4-5.81-2.4Z"/>
            <path class="cls-9" d="M666.13,584.36c1.38-1.83,1.87-4.01,1.41-6.3-.58-2.87-2.81-4.58-5.98-4.58h-41.46c-1.91,0-3.89.51-5.9,1.51-2,1-3.6,2.28-4.75,3.81l-.08.11c-4.33,6.36-8.83,13.05-13.37,19.9-4.49,6.77-9.11,13.5-13.69,19.94-.12.16-.42.53-.64.53-.19,0-.45-.29-.6-.49l-27.17-39.78c-1.13-1.5-2.69-2.8-4.65-3.87-2.03-1.11-4.05-1.67-5.99-1.67h-41.68c-2.76,0-4.89,1.61-5.7,4.31-.71,2.37-.32,4.64,1.16,6.61l54.45,69.85c.48.64.71,1.38.71,2.33s-.22,1.69-.67,2.28l-53,68.21c-1.44,1.92-1.83,4.21-1.13,6.64.8,2.79,2.93,4.46,5.71,4.46h41.25c1.95,0,3.96-.56,6-1.67,1.97-1.07,3.54-2.38,4.66-3.88l26.08-38.03c.14-.18.41-.49.61-.49s.47.32.61.49l26.08,38.03c1.12,1.5,2.69,2.8,4.65,3.87,2.03,1.11,4.05,1.67,6,1.67h41.25c2.75,0,4.85-1.58,5.78-4.33.82-2.46.48-4.8-1.02-6.8l-52.94-68.12c-.48-.64-.7-1.38-.7-2.32s.22-1.69.68-2.29l54.08-69.94Z"/>
            <path class="cls-9" d="M723.39,575.88c-1.57-1.57-3.57-2.4-5.79-2.4h-32.62c-2.41,0-4.48.86-5.98,2.49-1.44,1.56-2.2,3.54-2.2,5.72v148.27c0,2.19.76,4.17,2.2,5.73,1.5,1.63,3.57,2.48,5.98,2.48h32.62c2.23,0,4.23-.83,5.79-2.4,1.56-1.57,2.39-3.58,2.39-5.81v-148.27c0-2.23-.82-4.23-2.39-5.81Z"/>
          </g>
        </g>
      </g>
      <g class="cls-6">
        <g>
          <path class="cls-12" d="M765.36,289.83l.36,45.81c0,2.36-2.64,6.79-6.43,8.97-13.9,7.96-38.68,18.64-52.84,25.46-38.71,18.64-77.44,37.31-116.15,55.97-56.34,27.14-112.67,54.29-169.01,81.41-7.31,3.27-14.34,4.67-21.16,4.69v-49.49c6.84-.05,13.9-1.43,21.26-4.61,56.67-26.68,113.35-53.35,170.02-80.01,39.8-18.72,79.54-34.71,119.31-53.43,13.58-6.38,40.11-15.63,50.74-26.6,2.7-2.77,3.89-5.5,3.89-8.17Z"/>
          <path class="cls-16" d="M765.36,289.67v.16c0,2.67-1.19,5.39-3.89,8.17-10.63,10.97-37.15,20.22-50.74,26.6-39.77,18.72-79.51,34.71-119.31,53.43-56.67,26.65-113.35,53.33-170.02,80.01-7.36,3.19-14.41,4.56-21.26,4.61-16.93.08-32.67-7.88-48.79-16.05-81.9-41.48-161.54-76.51-243.41-117.99-15.17-7.67-62.3-25.35-63.78-43.06-.36-4.3,1.97-8.58,8.06-12.73,17.21-11.72,43.5-17.19,62.74-24.78,39.72-15.68,79.44-31.4,119.15-47.08,51.62-20.38,106.03-50.24,160.22-62.97,23.36-5.47,41.92,4.17,63.02,13.09,77.15,32.59,154.31,65.18,231.46,97.76,13.61,5.73,76.19,21.65,76.53,40.83Z"/>
          <g>
            <path class="cls-16" d="M400.15,462.64v49.49h-.26c-16.72,0-32.28-8.09-48.14-16.33-81.41-42.21-167.61-80.68-248.99-120.79-13.27-6.87-56.72-23.07-57.55-40.31l-1.06-49.15h.03c1.48,17.71,48.61,35.39,63.78,43.06,81.87,41.48,161.51,76.51,243.41,117.99,16.13,8.17,31.86,16.13,48.79,16.05Z"/>
            <path class="cls-10" d="M400.15,462.64v49.49h-.26c-16.72,0-32.28-8.09-48.14-16.33-81.41-42.21-167.61-80.68-248.99-120.79-13.27-6.87-56.72-23.07-57.55-40.31l-1.06-49.15h.03c1.48,17.71,48.61,35.39,63.78,43.06,81.87,41.48,161.51,76.51,243.41,117.99,16.13,8.17,31.86,16.13,48.79,16.05Z"/>
          </g>
        </g>
        <g>
          <path class="cls-15" d="M770.54,289.83l.36,45.77c0,4.68-3.96,10.59-9.03,13.51-9.81,5.62-24.64,12.43-37.73,18.44-5.74,2.63-11.09,5.1-15.45,7.19-38.7,18.64-77.43,37.3-116.15,55.97-56.33,27.14-112.67,54.29-169.01,81.41-7.7,3.44-15.52,5.17-23.38,5.2h-.28c-17.98,0-34.51-8.59-50.49-16.9-49.22-25.51-100.87-49.98-150.81-73.65-32.43-15.36-65.96-31.25-98.12-47.1-2.35-1.22-5.65-2.72-9.46-4.47-25.37-11.6-50.21-24.27-50.98-40.25l-1.09-49.94h.02c0,.32.02.65.05.97.51,6.07,4.45,11.7,10.7,17.05l.69,31.56c.52,10.87,30.51,24.59,44.92,31.18,3.94,1.8,7.34,3.36,9.83,4.64,31.99,15.78,65.49,31.65,97.88,47,50.03,23.7,101.76,48.21,151.11,73.8,15.61,8.1,30.31,15.74,45.76,15.74,6.73-.02,12.97-1.41,19.3-4.24,56.19-27.06,112.53-54.2,168.86-81.34,38.71-18.67,77.44-37.33,116.15-55.97,4.4-2.12,9.82-4.61,15.62-7.28,12.89-5.91,27.49-12.63,36.9-18.01,2.2-1.27,3.69-3.85,3.82-4.67l-.24-29.57c1.82-1.38,3.47-2.8,4.88-4.26,3.56-3.66,5.36-7.62,5.36-11.78Z"/>
          <polygon class="cls-15" points="770.54 289.67 770.54 289.83 761.26 289.83 765.1 289.68 765.66 289.67 770.54 289.67"/>
          <path class="cls-15" d="M770.54,289.58l-4.88.08h-.56s-4.93.1-4.93.1c-.2-11.64-43.41-25.96-59.67-31.35-6.01-1.99-10.75-3.56-13.69-4.8l-231.47-97.76c-2.03-.86-4.05-1.73-6.05-2.59-18.41-7.94-34.34-14.8-53.78-10.23-36.04,8.46-72.63,24.81-108.02,40.63-16.98,7.59-34.55,15.43-51.48,22.11l-119.15,47.08c-6.39,2.53-13.34,4.76-20.69,7.12-14.76,4.74-30.01,9.63-41.03,17.13-4.08,2.78-6.03,5.47-5.82,8.01h-.02v-.48s-10.36.37-10.36.37c-.15-6.14,3.34-11.7,10.36-16.47,12.26-8.35,28.24-13.48,43.7-18.43,7.18-2.31,13.97-4.49,20.06-6.89l119.14-47.08c16.73-6.6,33.4-14.05,51.06-21.94,35.83-16.01,72.88-32.57,109.87-41.25,22.79-5.34,40.99,2.51,60.26,10.81,1.97.85,3.96,1.71,5.98,2.55l231.45,97.76c2.55,1.08,7.35,2.67,12.93,4.51,35.01,11.6,66.47,23.47,66.78,41.01Z"/>
          <path class="cls-15" d="M761.26,289.83h9.28c0,4.16-1.8,8.13-5.36,11.78-1.41,1.46-3.06,2.88-4.88,4.26l-.13-16,1.09-.04Z"/>
          <polygon class="cls-15" points="765.66 289.67 765.1 289.68 765.35 289.67 765.66 289.67"/>
          <path class="cls-14" d="M765.1,289.68l-3.84.15h-1.09v.04c-.02,1.36-.84,2.88-2.43,4.51-7.39,7.63-24.88,15.04-37.64,20.46-4.26,1.81-8.28,3.52-11.58,5.06-19.85,9.34-40.08,18.17-59.64,26.71-19.54,8.53-39.75,17.35-59.67,26.72-56.68,26.66-113.35,53.33-169.88,79.95-6.38,2.77-12.67,4.13-19.22,4.18h-.22c-15.62,0-30.48-7.52-46.2-15.49-40.97-20.75-82.01-40.19-121.71-58.99-39.72-18.82-80.78-38.27-121.71-59-2.8-1.41-6.55-3.11-10.89-5.09-15.93-7.23-49.09-22.26-50.06-33.79-.21-2.54,1.74-5.23,5.82-8.01,11.02-7.5,26.27-12.4,41.03-17.13,7.35-2.36,14.3-4.59,20.69-7.12l119.15-47.08c16.93-6.69,34.5-14.52,51.48-22.11,35.39-15.82,71.98-32.16,108.02-40.63,19.44-4.57,35.36,2.3,53.78,10.23,2,.86,4.02,1.73,6.05,2.59l231.47,97.76c2.93,1.24,7.68,2.81,13.69,4.8,16.26,5.39,59.47,19.71,59.67,31.35l4.93-.08Z"/>
          <path class="cls-15" d="M761.26,289.83l-1.09.04v-.04h1.09Z"/>
          <path class="cls-14" d="M760.3,305.87l.24,29.57c-.14.83-1.62,3.4-3.82,4.67-9.41,5.38-24.01,12.1-36.9,18.01-5.8,2.67-11.22,5.16-15.62,7.28-38.7,18.64-77.43,37.3-116.15,55.97-56.33,27.14-112.67,54.29-168.86,81.34-6.34,2.83-12.58,4.22-19.3,4.24-15.45,0-30.15-7.64-45.76-15.74-49.35-25.59-101.08-50.1-151.11-73.8-32.39-15.35-65.89-31.22-97.88-47-2.49-1.28-5.89-2.84-9.83-4.64-14.41-6.59-44.4-20.31-44.92-31.18l-.69-31.56c10.46,8.95,27.38,17.13,45.41,25.31,4.24,1.93,7.89,3.58,10.49,4.89,41.04,20.8,82.17,40.28,121.95,59.12,39.63,18.77,80.62,38.18,121.46,58.87,16.12,8.17,32.79,16.61,50.91,16.61h.26c7.98-.06,15.59-1.72,23.42-5.12,56.68-26.68,113.35-53.35,170.02-80,19.79-9.31,39.93-18.11,59.41-26.6,19.62-8.57,39.91-17.43,59.89-26.82,3.11-1.47,7.06-3.14,11.22-4.91,12.05-5.11,26.57-11.26,36.15-18.52Z"/>
          <path class="cls-15" d="M760.17,289.87l.13,16c-9.58,7.26-24.1,13.41-36.15,18.52-4.16,1.77-8.1,3.43-11.22,4.91-19.98,9.4-40.27,18.25-59.89,26.82-19.48,8.5-39.62,17.29-59.41,26.6-56.67,26.64-113.34,53.32-170.02,80-7.83,3.4-15.45,5.05-23.42,5.12h-.26c-18.12,0-34.78-8.44-50.91-16.61-40.84-20.69-81.83-40.1-121.46-58.87-39.78-18.84-80.91-38.32-121.95-59.12-2.6-1.31-6.25-2.97-10.49-4.89-18.03-8.18-34.95-16.36-45.41-25.31l-.38-17.66v-.25s.01,0,.01,0c.96,11.53,34.12,26.56,50.06,33.79,4.34,1.97,8.09,3.68,10.89,5.09,40.93,20.73,81.99,40.18,121.71,59,39.7,18.79,80.74,38.24,121.71,58.99,15.72,7.97,30.59,15.49,46.2,15.49h.22c6.55-.05,12.84-1.42,19.22-4.18,56.53-26.61,113.2-53.29,169.88-79.95,19.92-9.37,40.13-18.19,59.67-26.72,19.56-8.54,39.78-17.36,59.64-26.71,3.29-1.55,7.32-3.25,11.58-5.06,12.77-5.41,30.25-12.83,37.64-20.46,1.59-1.63,2.4-3.16,2.43-4.51Z"/>
          <path class="cls-15" d="M49.32,285.37l.38,17.66c-6.25-5.35-10.19-10.98-10.7-17.05-.03-.33-.05-.66-.05-.97l10.35-.37v.48s.02.25.02.25Z"/>
        </g>
      </g>
      <g class="cls-5">
        <g>
          <path class="cls-12" d="M765.36,288.98l.36,45.81c0,2.36-2.64,6.79-6.43,8.97-13.9,7.96-38.68,18.64-52.84,25.46-38.71,18.64-77.44,37.31-116.15,55.97-56.34,27.14-112.67,54.29-169.01,81.41-7.31,3.27-14.34,4.67-21.16,4.69v-49.49c6.84-.05,13.9-1.43,21.26-4.61,56.67-26.68,113.35-53.35,170.02-80.01,39.8-18.72,79.54-34.71,119.31-53.43,13.58-6.38,40.11-15.63,50.74-26.6,2.7-2.77,3.89-5.5,3.89-8.17Z"/>
          <path class="cls-16" d="M765.36,288.82v.16c0,2.67-1.19,5.39-3.89,8.17-10.63,10.97-37.15,20.22-50.74,26.6-39.77,18.72-79.51,34.71-119.31,53.43-56.67,26.65-113.35,53.33-170.02,80.01-7.36,3.19-14.41,4.56-21.26,4.61-16.93.08-32.67-7.88-48.79-16.05-81.9-41.48-161.54-76.51-243.41-117.99-15.17-7.67-62.3-25.35-63.78-43.06-.36-4.3,1.97-8.58,8.06-12.73,17.21-11.72,43.5-17.19,62.74-24.78,39.72-15.68,79.44-31.4,119.15-47.08,51.62-20.38,106.03-50.24,160.22-62.97,23.36-5.47,41.92,4.17,63.02,13.09,77.15,32.59,154.31,65.18,231.46,97.76,13.61,5.73,76.19,21.65,76.53,40.83Z"/>
          <g>
            <path class="cls-16" d="M400.15,461.8v49.49h-.26c-16.72,0-32.28-8.09-48.14-16.33-81.41-42.21-167.61-80.68-248.99-120.79-13.27-6.87-56.72-23.07-57.55-40.31l-1.06-49.15h.03c1.48,17.71,48.61,35.39,63.78,43.06,81.87,41.48,161.51,76.51,243.41,117.99,16.13,8.17,31.86,16.13,48.79,16.05Z"/>
            <path class="cls-10" d="M400.15,461.8v49.49h-.26c-16.72,0-32.28-8.09-48.14-16.33-81.41-42.21-167.61-80.68-248.99-120.79-13.27-6.87-56.72-23.07-57.55-40.31l-1.06-49.15h.03c1.48,17.71,48.61,35.39,63.78,43.06,81.87,41.48,161.51,76.51,243.41,117.99,16.13,8.17,31.86,16.13,48.79,16.05Z"/>
          </g>
        </g>
        <g>
          <path class="cls-1" d="M770.54,288.98l.36,45.77c0,4.68-3.96,10.59-9.03,13.51-9.81,5.62-24.64,12.43-37.73,18.44-5.74,2.63-11.09,5.1-15.45,7.19-38.7,18.64-77.43,37.3-116.15,55.97-56.33,27.14-112.67,54.29-169.01,81.41-7.7,3.44-15.52,5.17-23.38,5.2h-.28c-17.98,0-34.51-8.59-50.49-16.9-49.22-25.51-100.87-49.98-150.81-73.65-32.43-15.36-65.96-31.25-98.12-47.1-2.35-1.22-5.65-2.72-9.46-4.47-25.37-11.6-50.21-24.27-50.98-40.25l-1.09-49.94h.02c0,.32.02.65.05.97.51,6.07,4.45,11.7,10.7,17.05l.69,31.56c.52,10.87,30.51,24.59,44.92,31.18,3.94,1.8,7.34,3.36,9.83,4.64,31.99,15.78,65.49,31.65,97.88,47,50.03,23.7,101.76,48.21,151.11,73.8,15.61,8.1,30.31,15.74,45.76,15.74,6.73-.02,12.97-1.41,19.3-4.24,56.19-27.06,112.53-54.2,168.86-81.34,38.71-18.67,77.44-37.33,116.15-55.97,4.4-2.12,9.82-4.61,15.62-7.28,12.89-5.91,27.49-12.63,36.9-18.01,2.2-1.27,3.69-3.85,3.82-4.67l-.24-29.57c1.82-1.38,3.47-2.8,4.88-4.26,3.56-3.66,5.36-7.62,5.36-11.78Z"/>
          <polygon class="cls-15" points="770.54 288.82 770.54 288.98 761.26 288.98 765.1 288.83 765.66 288.82 770.54 288.82"/>
          <path class="cls-1" d="M770.54,288.74l-4.88.08h-.56s-4.93.1-4.93.1c-.2-11.64-43.41-25.96-59.67-31.35-6.01-1.99-10.75-3.56-13.69-4.8l-231.47-97.76c-2.03-.86-4.05-1.73-6.05-2.59-18.41-7.94-34.34-14.8-53.78-10.23-36.04,8.46-72.63,24.81-108.02,40.63-16.98,7.59-34.55,15.43-51.48,22.11l-119.15,47.08c-6.39,2.53-13.34,4.76-20.69,7.12-14.76,4.74-30.01,9.63-41.03,17.13-4.08,2.78-6.03,5.47-5.82,8.01h-.02v-.48s-10.36.37-10.36.37c-.15-6.14,3.34-11.7,10.36-16.47,12.26-8.35,28.24-13.48,43.7-18.43,7.18-2.31,13.97-4.49,20.06-6.89l119.14-47.08c16.73-6.6,33.4-14.05,51.06-21.94,35.83-16.01,72.88-32.57,109.87-41.25,22.79-5.34,40.99,2.51,60.26,10.81,1.97.85,3.96,1.71,5.98,2.55l231.45,97.76c2.55,1.08,7.35,2.67,12.93,4.51,35.01,11.6,66.47,23.47,66.78,41.01Z"/>
          <path class="cls-1" d="M761.26,288.98h9.28c0,4.16-1.8,8.13-5.36,11.78-1.41,1.46-3.06,2.88-4.88,4.26l-.13-16,1.09-.04Z"/>
          <polygon class="cls-15" points="765.66 288.82 765.1 288.83 765.35 288.82 765.66 288.82"/>
          <path class="cls-14" d="M765.1,288.83l-3.84.15h-1.09v.04c-.02,1.36-.84,2.88-2.43,4.51-7.39,7.63-24.88,15.04-37.64,20.46-4.26,1.81-8.28,3.52-11.58,5.06-19.85,9.34-40.08,18.17-59.64,26.71-19.54,8.53-39.75,17.35-59.67,26.72-56.68,26.66-113.35,53.33-169.88,79.95-6.38,2.77-12.67,4.13-19.22,4.18h-.22c-15.62,0-30.48-7.52-46.2-15.49-40.97-20.75-82.01-40.19-121.71-58.99-39.72-18.82-80.78-38.27-121.71-59-2.8-1.41-6.55-3.11-10.89-5.09-15.93-7.23-49.09-22.26-50.06-33.79-.21-2.54,1.74-5.23,5.82-8.01,11.02-7.5,26.27-12.4,41.03-17.13,7.35-2.36,14.3-4.59,20.69-7.12l119.15-47.08c16.93-6.69,34.5-14.52,51.48-22.11,35.39-15.82,71.98-32.16,108.02-40.63,19.44-4.57,35.36,2.3,53.78,10.23,2,.86,4.02,1.73,6.05,2.59l231.47,97.76c2.93,1.24,7.68,2.81,13.69,4.8,16.26,5.39,59.47,19.71,59.67,31.35l4.93-.08Z"/>
          <path class="cls-15" d="M761.26,288.98l-1.09.04v-.04h1.09Z"/>
          <path class="cls-14" d="M760.3,305.02l.24,29.57c-.14.83-1.62,3.4-3.82,4.67-9.41,5.38-24.01,12.1-36.9,18.01-5.8,2.67-11.22,5.16-15.62,7.28-38.7,18.64-77.43,37.3-116.15,55.97-56.33,27.14-112.67,54.29-168.86,81.34-6.34,2.83-12.58,4.22-19.3,4.24-15.45,0-30.15-7.64-45.76-15.74-49.35-25.59-101.08-50.1-151.11-73.8-32.39-15.35-65.89-31.22-97.88-47-2.49-1.28-5.89-2.84-9.83-4.64-14.41-6.59-44.4-20.31-44.92-31.18l-.69-31.56c10.46,8.95,27.38,17.13,45.41,25.31,4.24,1.93,7.89,3.58,10.49,4.89,41.04,20.8,82.17,40.28,121.95,59.12,39.63,18.77,80.62,38.18,121.46,58.87,16.12,8.17,32.79,16.61,50.91,16.61h.26c7.98-.06,15.59-1.72,23.42-5.12,56.68-26.68,113.35-53.35,170.02-80,19.79-9.31,39.93-18.11,59.41-26.6,19.62-8.57,39.91-17.43,59.89-26.82,3.11-1.47,7.06-3.14,11.22-4.91,12.05-5.11,26.57-11.26,36.15-18.52Z"/>
          <path class="cls-1" d="M760.17,289.02l.13,16c-9.58,7.26-24.1,13.41-36.15,18.52-4.16,1.77-8.1,3.43-11.22,4.91-19.98,9.4-40.27,18.25-59.89,26.82-19.48,8.5-39.62,17.29-59.41,26.6-56.67,26.64-113.34,53.32-170.02,80-7.83,3.4-15.45,5.05-23.42,5.12h-.26c-18.12,0-34.78-8.44-50.91-16.61-40.84-20.69-81.83-40.1-121.46-58.87-39.78-18.84-80.91-38.32-121.95-59.12-2.6-1.31-6.25-2.97-10.49-4.89-18.03-8.18-34.95-16.36-45.41-25.31l-.38-17.66v-.25s.01,0,.01,0c.96,11.53,34.12,26.56,50.06,33.79,4.34,1.97,8.09,3.68,10.89,5.09,40.93,20.73,81.99,40.18,121.71,59,39.7,18.79,80.74,38.24,121.71,58.99,15.72,7.97,30.59,15.49,46.2,15.49h.22c6.55-.05,12.84-1.42,19.22-4.18,56.53-26.61,113.2-53.29,169.88-79.95,19.92-9.37,40.13-18.19,59.67-26.72,19.56-8.54,39.78-17.36,59.64-26.71,3.29-1.55,7.32-3.25,11.58-5.06,12.77-5.41,30.25-12.83,37.64-20.46,1.59-1.63,2.4-3.16,2.43-4.51Z"/>
          <path class="cls-1" d="M49.32,284.52l.38,17.66c-6.25-5.35-10.19-10.98-10.7-17.05-.03-.33-.05-.66-.05-.97l10.35-.37v.48s.02.25.02.25Z"/>
        </g>
      </g>
      <g class="cls-5">
        <g class="cls-2">
          <g>
            <polygon class="cls-3" points="181.1 181.89 43.31 352.5 55.61 373 206.53 186.51 181.1 181.89"/>
            <polygon class="cls-3" points="241.8 164.67 96.62 373 156.5 429.6 341.86 131.04 241.8 164.67"/>
          </g>
        </g>
      </g>
      <polygon class="cls-3" points="725.9 282.81 702.47 275.2 725.21 265.73 732.81 242.3 742.29 265.03 765.72 272.64 742.98 282.12 735.37 305.55 725.9 282.81"/>
      <polygon class="cls-3" points="690.18 337.96 667.7 348.29 678.03 325.82 667.7 303.34 690.18 313.67 712.65 303.34 702.32 325.82 712.65 348.29 690.18 337.96"/>
    </g>
  </g>
</svg>