<?xml version="1.0" encoding="UTF-8"?>
<svg xmlns="http://www.w3.org/2000/svg" viewBox="0 0 800 800">
  <defs>
    <style>
      .cls-1 {
        fill: #905393;
      }

      .cls-2 {
        letter-spacing: -.02em;
      }

      .cls-3 {
        letter-spacing: .05em;
      }

      .cls-4 {
        letter-spacing: -.12em;
      }

      .cls-5 {
        fill: #fff;
      }

      .cls-5, .cls-6 {
        font-family: Heavitas, Heavitas;
        font-size: 139.38px;
      }

      .cls-7 {
        letter-spacing: .02em;
      }

      .cls-8 {
        fill: #aa7bac;
      }

      .cls-9 {
        isolation: isolate;
      }

      .cls-10 {
        fill: #ff7bac;
      }

      .cls-11 {
        letter-spacing: .05em;
      }

      .cls-12 {
        stroke: #262b2f;
        stroke-width: 6px;
      }

      .cls-12, .cls-13 {
        fill: none;
      }

      .cls-13 {
        stroke: #a27655;
        stroke-miterlimit: 10;
      }

      .cls-14 {
        fill: #c29470;
      }

      .cls-15 {
        mix-blend-mode: multiply;
        opacity: .5;
      }
    </style>
  </defs>
  <g class="cls-9">
    <g id="Calque_1" data-name="Calque 1">
      <rect class="cls-10" width="800" height="800" rx="49.55" ry="49.55"/>
      <g>
        <text class="cls-6" transform="translate(26.93 722.91)"><tspan x="0" y="0">PO</tspan><tspan class="cls-4" x="209.9" y="0">L</tspan><tspan x="278.2" y="0">Y </tspan><tspan class="cls-11" x="424.69" y="0">E</tspan><tspan class="cls-7" x="526.29" y="0">X</tspan><tspan class="cls-2" x="633.48" y="0">T</tspan><tspan class="cls-3" x="717.8" y="0">.</tspan></text>
        <text class="cls-5" transform="translate(26.93 722.91)"><tspan x="0" y="0">PO</tspan><tspan class="cls-4" x="209.9" y="0">L</tspan><tspan x="278.2" y="0">Y </tspan><tspan class="cls-11" x="424.69" y="0">E</tspan><tspan class="cls-7" x="526.29" y="0">X</tspan><tspan class="cls-2" x="633.48" y="0">T</tspan><tspan class="cls-3" x="717.8" y="0">.</tspan></text>
        <g class="cls-15">
          <g>
            <path class="cls-12" d="M109.14,629.79c-3.66-3.7-8.01-6.64-12.95-8.74-4.95-2.1-10.29-3.17-15.88-3.17h-42.65c-1.72,0-3.28.64-4.49,1.85-1.21,1.21-1.85,2.77-1.85,4.49v95.34c0,1.73.64,3.28,1.84,4.48,1.21,1.22,2.76,1.86,4.49,1.86h20.94c1.72,0,3.28-.64,4.48-1.86,1.21-1.21,1.85-2.76,1.85-4.49v-20.77c0-.14.02-.17.1-.24.08-.08.11-.1.26-.1h12.16c7.13,0,13.48-1.03,18.87-3.05,5.44-2.04,10.07-4.89,13.75-8.46,3.71-3.6,6.51-7.91,8.34-12.81,1.79-4.82,2.7-10.07,2.7-15.61s-1.09-10.92-3.25-15.84c-2.14-4.87-5.06-9.21-8.7-12.89ZM85.6,664.38c-.38.53-1.55,2.15-5.34,2.15h-14.99c-.17,0-.2-.03-.27-.1-.08-.08-.09-.09-.09-.22v-16.35c0-.13,0-.14.09-.22.08-.08.11-.1.27-.1h13.17c1.51,0,2.83.26,3.92.76,1.14.53,2.07,1.19,2.84,2.02.75.81,1.31,1.72,1.69,2.78.4,1.1.6,2.23.6,3.35,0,2.24-.62,4.18-1.89,5.93Z"/>
            <path class="cls-12" d="M216.59,632.49c-5.04-5.03-11-9.07-17.72-11.99-6.76-2.94-14.06-4.43-21.69-4.43s-14.92,1.49-21.69,4.43c-6.73,2.93-12.67,6.96-17.66,12-4.98,5.03-8.99,10.99-11.91,17.71-2.94,6.76-4.43,14.06-4.43,21.69s1.49,14.92,4.43,21.68c2.92,6.72,6.93,12.68,11.91,17.71,4.98,5.03,10.93,9.07,17.66,12,6.76,2.94,14.06,4.43,21.69,4.43s14.92-1.49,21.69-4.43c6.73-2.93,12.69-6.96,17.72-11.99,5.03-5.03,9.06-10.99,11.99-17.72,2.94-6.76,4.43-14.06,4.43-21.69s-1.49-14.92-4.43-21.69c-2.92-6.72-6.96-12.69-11.99-17.72ZM197.68,680.79c-1.15,2.8-2.78,5.3-4.83,7.43-2.06,2.14-4.48,3.87-7.2,5.15-2.65,1.24-5.5,1.88-8.48,1.88s-5.83-.63-8.48-1.88c-2.71-1.27-5.1-3-7.11-5.13-2.01-2.13-3.62-4.64-4.78-7.45-1.15-2.78-1.73-5.77-1.73-8.89s.58-6.01,1.73-8.84c1.15-2.84,2.75-5.33,4.75-7.41,2.01-2.09,4.4-3.8,7.12-5.08,2.65-1.24,5.51-1.88,8.48-1.88s5.83.63,8.48,1.88c2.73,1.28,5.16,3,7.22,5.1,2.04,2.08,3.65,4.56,4.8,7.39,1.15,2.83,1.73,5.81,1.73,8.84s-.58,6.11-1.72,8.89Z"/>
            <path class="cls-12" d="M317.12,694.27h-41.95c-.16,0-.23-.02-.25-.02-.06-.06-.1-.11-.1-.32v-69.69c0-1.72-.64-3.27-1.86-4.5-1.21-1.21-2.77-1.85-4.49-1.85h-20.91c-1.86,0-3.46.67-4.64,1.93-1.12,1.2-1.71,2.73-1.71,4.41v95.34c0,1.69.59,3.22,1.71,4.41,1.17,1.27,2.78,1.94,4.64,1.94h69.55c1.72,0,3.28-.64,4.49-1.85,1.21-1.21,1.85-2.77,1.85-4.49v-18.96c0-1.72-.64-3.27-1.86-4.5-1.21-1.21-2.77-1.85-4.49-1.85Z"/>
            <path class="cls-12" d="M401.02,618.02h-25.09c-1.45,0-2.92.41-4.35,1.23-1.46.83-2.56,1.92-3.28,3.21l-16.01,28.17-16.12-28.15c-.73-1.32-1.84-2.41-3.29-3.24-1.43-.82-2.89-1.23-4.35-1.23h-24.81c-2.25,0-3.99,1.28-4.67,3.42-.53,1.67-.35,3.38.56,5,5.75,9.74,11.6,19.33,17.4,28.51,5.77,9.14,11.5,18.58,17.06,28.14.21.33.52.98.83,2.16.26,1.01.39,1.86.39,2.52v31.78c0,1.72.64,3.28,1.84,4.48,1.21,1.22,2.76,1.86,4.49,1.86h20.94c1.72,0,3.28-.64,4.48-1.86,1.21-1.21,1.85-2.76,1.85-4.49v-31.92c0-.63.14-1.41.43-2.33.3-.98.63-1.79.98-2.43l34.86-56.48c1.67-2.92,1.14-4.89.4-6.04-.98-1.52-2.59-2.35-4.54-2.35Z"/>
            <path class="cls-12" d="M533.29,617.89h-70.94c-1.72,0-3.28.64-4.49,1.85-1.21,1.21-1.85,2.77-1.85,4.49v95.34c0,1.73.64,3.28,1.85,4.49,1.21,1.21,2.77,1.86,4.49,1.86h70.94c1.72,0,3.28-.64,4.49-1.85,1.21-1.21,1.86-2.77,1.86-4.49v-19.23c0-1.72-.64-3.27-1.86-4.5-1.21-1.21-2.77-1.85-4.49-1.85h-43.35c-.15,0-.17-.02-.25-.1-.07-.07-.09-.09-.09-.24v-5.3c0-.15.02-.17.1-.25.08-.08.1-.1.25-.1h37.77c1.72,0,3.28-.64,4.49-1.85,1.21-1.21,1.85-2.77,1.85-4.49v-19.23c0-1.72-.64-3.27-1.86-4.5-1.21-1.21-2.77-1.85-4.49-1.85h-37.77c-.15,0-.17-.02-.25-.1-.07-.07-.09-.09-.09-.24v-5.85c0-.15.02-.17.1-.25.08-.08.1-.1.25-.1h43.35c1.72,0,3.28-.64,4.49-1.85,1.21-1.21,1.86-2.77,1.86-4.49v-18.96c0-1.72-.64-3.27-1.86-4.5-1.21-1.21-2.77-1.85-4.49-1.85Z"/>
            <path class="cls-12" d="M659.04,626.73c1.07-1.43,1.45-3.12,1.1-4.9-.47-2.34-2.35-3.8-4.89-3.8h-26.62c-1.39,0-2.83.36-4.27,1.08-1.44.72-2.59,1.65-3.43,2.76l-.08.11c-2.78,4.08-5.67,8.38-8.59,12.79-2.72,4.11-5.52,8.19-8.29,12.1l-16.98-24.86c-.82-1.08-1.94-2.02-3.33-2.78-1.46-.8-2.93-1.2-4.36-1.2h-26.76c-2.27,0-4.02,1.32-4.69,3.53-.55,1.84-.23,3.67.93,5.21l34.95,44.83c.11.15.24.38.24.85s-.13.7-.21.81l-34.04,43.81c-1.11,1.49-1.43,3.33-.9,5.2.64,2.25,2.44,3.64,4.7,3.64h26.48c1.43,0,2.9-.4,4.36-1.2,1.4-.76,2.52-1.7,3.33-2.79l16.28-23.73,16.28,23.73c.82,1.09,1.94,2.03,3.33,2.79,1.46.8,2.93,1.2,4.37,1.2h26.48c2.22,0,3.99-1.31,4.73-3.52.63-1.9.35-3.79-.83-5.37l-33.98-43.73c-.11-.15-.24-.37-.24-.85s.13-.7.21-.81l34.73-44.91Z"/>
            <path class="cls-12" d="M746.9,643.19v-18.96c0-1.68-.59-3.21-1.71-4.41-1.18-1.26-2.78-1.93-4.63-1.93h-73.59c-1.73,0-3.28.64-4.49,1.85-1.21,1.21-1.86,2.77-1.86,4.49v18.96c0,1.73.64,3.28,1.85,4.49,1.21,1.22,2.77,1.86,4.5,1.86h19.79c.13,0,.21.02.23.02,0,0,0,0,0,0,.06.06.11.12.11.33v69.69c0,1.73.64,3.28,1.85,4.49,1.21,1.21,2.77,1.86,4.49,1.86h20.91c1.86,0,3.46-.67,4.63-1.93,1.12-1.2,1.71-2.73,1.71-4.41v-69.69c0-.15.02-.17.1-.25.08-.08.1-.1.25-.1h19.51c1.86,0,3.46-.67,4.63-1.93,1.12-1.2,1.71-2.73,1.71-4.41Z"/>
            <path class="cls-12" d="M776.46,702.87c-.89-2-2.13-3.8-3.69-5.36-1.57-1.57-3.44-2.81-5.56-3.71-2.13-.9-4.4-1.35-6.74-1.35s-4.61.46-6.7,1.36c-2.06.89-3.9,2.14-5.46,3.7-1.56,1.56-2.8,3.36-3.69,5.36-.91,2.05-1.38,4.29-1.38,6.66s.46,4.62,1.35,6.74c.89,2.12,2.14,3.99,3.71,5.56,1.56,1.57,3.4,2.81,5.46,3.7,2.09.9,4.34,1.36,6.7,1.36s4.61-.45,6.74-1.35c2.12-.89,3.99-2.14,5.56-3.71,1.57-1.57,2.82-3.44,3.71-5.56.9-2.13,1.35-4.4,1.35-6.74s-.46-4.6-1.38-6.66Z"/>
          </g>
        </g>
      </g>
      <g>
        <g>
          <path class="cls-8" d="M764.41,307.17l.35,44.53c0,2.29-2.57,6.6-6.25,8.72-13.51,7.74-37.6,18.12-51.36,24.75-37.62,18.12-75.27,36.26-112.9,54.41-54.76,26.38-109.52,52.77-164.28,79.13-7.11,3.18-13.94,4.54-20.56,4.56v-48.11c6.65-.05,13.51-1.39,20.66-4.49,55.09-25.93,110.18-51.86,165.26-77.77,38.68-18.19,77.31-33.74,115.97-51.94,13.2-6.2,38.98-15.2,49.32-25.86,2.62-2.7,3.78-5.34,3.78-7.94Z"/>
          <path class="cls-14" d="M764.41,307.02v.15c0,2.6-1.16,5.24-3.78,7.94-10.33,10.66-36.11,19.66-49.32,25.86-38.66,18.19-77.29,33.74-115.97,51.94-55.09,25.91-110.18,51.84-165.26,77.77-7.16,3.1-14.01,4.44-20.66,4.49-16.46.08-31.75-7.66-47.43-15.6-79.61-40.32-157.02-74.37-236.6-114.69-14.74-7.46-60.56-24.65-61.99-41.86-.35-4.18,1.92-8.34,7.84-12.37,16.73-11.39,42.29-16.71,60.98-24.09,38.61-15.25,77.21-30.52,115.82-45.76,50.17-19.81,103.07-48.84,155.74-61.21,22.71-5.32,40.75,4.06,61.26,12.73,75,31.68,149.99,63.35,224.99,95.03,13.23,5.57,74.06,21.04,74.39,39.69Z"/>
          <g>
            <path class="cls-14" d="M409.42,475.15v48.11h-.25c-16.25,0-31.37-7.86-46.8-15.88-79.13-41.03-162.92-78.42-242.02-117.41-12.9-6.68-55.14-22.43-55.94-39.19l-1.03-47.78h.03c1.44,17.21,47.25,34.4,61.99,41.86,79.58,40.32,157,74.37,236.6,114.69,15.67,7.94,30.97,15.67,47.43,15.6Z"/>
            <path class="cls-13" d="M409.42,475.15v48.11h-.25c-16.25,0-31.37-7.86-46.8-15.88-79.13-41.03-162.92-78.42-242.02-117.41-12.9-6.68-55.14-22.43-55.94-39.19l-1.03-47.78h.03c1.44,17.21,47.25,34.4,61.99,41.86,79.58,40.32,157,74.37,236.6,114.69,15.67,7.94,30.97,15.67,47.43,15.6Z"/>
          </g>
        </g>
        <g>
          <path class="cls-1" d="M769.46,307.17l.35,44.49c0,4.54-3.85,10.3-8.77,13.12-9.54,5.47-23.95,12.09-36.67,17.93-5.57,2.56-10.78,4.96-15.01,6.99-37.62,18.12-75.27,36.27-112.9,54.4-54.75,26.39-109.52,52.78-164.28,79.13-7.49,3.36-15.09,5.04-22.73,5.07h-.27c-17.48,0-33.54-8.35-49.08-16.43-47.84-24.81-98.05-48.59-146.59-71.59-31.52-14.93-64.12-30.38-95.37-45.79-2.3-1.18-5.5-2.65-9.21-4.35-24.66-11.28-48.8-23.59-49.55-39.12l-1.06-48.56h.02c0,.31.02.63.05.95.49,5.9,4.33,11.38,10.4,16.58l.67,30.68c.5,10.57,29.66,23.9,43.66,30.31,3.83,1.75,7.14,3.26,9.56,4.51,31.1,15.33,63.66,30.76,95.14,45.67,48.63,23.05,98.91,46.87,146.88,71.74,15.18,7.89,29.46,15.31,44.48,15.31,6.54-.02,12.6-1.37,18.76-4.12,54.62-26.3,109.39-52.68,164.14-79.07,37.63-18.15,75.28-36.29,112.9-54.41,4.27-2.06,9.55-4.47,15.18-7.06,12.53-5.76,26.72-12.28,35.87-17.51,2.14-1.24,3.58-3.74,3.73-4.54l-.24-28.74c1.77-1.35,3.37-2.72,4.75-4.14,3.45-3.56,5.2-7.41,5.2-11.45Z"/>
          <polygon class="cls-1" points="769.46 307.02 769.46 307.17 760.22 307.17 764.42 307.02 769.46 307.02"/>
          <path class="cls-1" d="M769.46,306.92l-5.04.09-5.05.08c-.2-11.31-42.19-25.22-58-30.46-5.84-1.94-10.45-3.47-13.31-4.67l-224.99-95.03c-1.98-.84-3.93-1.68-5.87-2.51-17.91-7.72-33.38-14.39-52.28-9.95-35.03,8.23-70.6,24.12-105,39.48-16.51,7.37-33.58,15-50.04,21.5l-115.82,45.76c-6.21,2.45-12.97,4.62-20.11,6.91-14.35,4.61-29.17,9.37-39.88,16.66-3.96,2.7-5.86,5.31-5.65,7.78h-.02v-.45s-10.07.35-10.07.35c-.14-5.97,3.24-11.36,10.07-16,11.91-8.11,27.45-13.1,42.48-17.93,6.98-2.23,13.58-4.36,19.49-6.68l115.81-45.76c16.26-6.42,32.47-13.67,49.64-21.33,34.83-15.57,70.84-31.66,106.8-40.1,22.15-5.19,39.84,2.43,58.58,10.5,1.92.82,3.85,1.66,5.81,2.48l224.98,95.03c2.48,1.04,7.16,2.6,12.56,4.39,34.03,11.28,64.61,22.81,64.91,39.85Z"/>
          <path class="cls-1" d="M760.22,307.17h9.24c0,4.04-1.75,7.89-5.2,11.45-1.38,1.42-2.98,2.79-4.75,4.14l-.13-15.56.84-.03Z"/>
          <path class="cls-8" d="M764.42,307.02l-4.2.15h-.84v.03c-.01,1.32-.8,2.79-2.36,4.4-7.19,7.41-24.18,14.61-36.59,19.89-4.14,1.75-8.05,3.41-11.26,4.91-19.3,9.09-38.96,17.67-57.97,25.96-18.99,8.29-38.64,16.87-58,25.98-55.09,25.9-110.18,51.83-165.13,77.7-6.2,2.69-12.32,4.03-18.68,4.07h-.22c-15.18,0-29.63-7.31-44.91-15.06-39.82-20.16-79.72-39.06-118.3-57.34-38.61-18.28-78.52-37.19-118.3-57.34-2.72-1.38-6.36-3.03-10.59-4.94-15.49-7.02-47.72-21.64-48.66-32.85-.21-2.46,1.69-5.08,5.65-7.78,10.71-7.29,25.54-12.05,39.88-16.66,7.15-2.29,13.9-4.46,20.11-6.91l115.82-45.76c16.46-6.5,33.53-14.13,50.04-21.5,34.4-15.36,69.96-31.25,105-39.48,18.91-4.44,34.37,2.22,52.28,9.95,1.94.83,3.89,1.67,5.87,2.51l224.99,95.03c2.85,1.19,7.47,2.73,13.31,4.67,15.81,5.24,57.8,19.15,58,30.46l5.05-.08Z"/>
          <path class="cls-1" d="M760.22,307.17l-.84.03v-.03h.84Z"/>
          <path class="cls-8" d="M759.51,322.76l.24,28.74c-.14.8-1.59,3.31-3.73,4.54-9.14,5.23-23.34,11.75-35.87,17.51-5.63,2.6-10.91,5-15.18,7.06-37.62,18.12-75.27,36.27-112.9,54.41-54.75,26.38-109.52,52.77-164.14,79.07-6.16,2.75-12.22,4.1-18.76,4.12-15.01,0-29.3-7.42-44.48-15.31-47.97-24.87-98.25-48.69-146.88-71.74-31.48-14.91-64.04-30.34-95.14-45.67-2.42-1.25-5.73-2.76-9.56-4.51-14.01-6.41-43.16-19.74-43.66-30.31l-.67-30.68c10.16,8.7,26.61,16.65,44.14,24.6,4.12,1.86,7.67,3.48,10.2,4.76,39.89,20.22,79.88,39.15,118.54,57.46,38.52,18.25,78.37,37.11,118.07,57.23,15.67,7.94,31.87,16.15,49.48,16.14h.26c7.75-.06,15.16-1.66,22.77-4.96,55.09-25.93,110.18-51.86,165.26-77.77,19.25-9.04,38.82-17.59,57.75-25.86,19.07-8.32,38.79-16.93,58.21-26.07,3.04-1.42,6.86-3.04,10.91-4.76,11.72-4.96,25.83-10.96,35.15-18Z"/>
          <path class="cls-1" d="M759.37,307.2l.13,15.56c-9.32,7.04-23.43,13.04-35.15,18-4.05,1.72-7.87,3.34-10.91,4.76-19.42,9.14-39.14,17.75-58.21,26.07-18.93,8.27-38.5,16.82-57.75,25.86-55.08,25.91-110.17,51.84-165.26,77.77-7.61,3.31-15.01,4.9-22.77,4.96h-.26c-17.61.01-33.81-8.2-49.48-16.14-39.7-20.11-79.54-38.98-118.07-57.23-38.66-18.31-78.65-37.25-118.54-57.46-2.52-1.28-6.08-2.89-10.2-4.76-17.53-7.95-33.97-15.9-44.14-24.6l-.37-17.17v-.26s.01,0,.01,0c.94,11.21,33.17,25.83,48.66,32.85,4.22,1.92,7.87,3.56,10.59,4.94,39.78,20.15,79.7,39.06,118.3,57.34,38.59,18.28,78.48,37.18,118.3,57.34,15.28,7.74,29.73,15.06,44.91,15.06h.22c6.36-.04,12.48-1.38,18.68-4.07,54.95-25.87,110.03-51.8,165.13-77.7,19.36-9.11,39.01-17.69,58-25.98,19.01-8.29,38.67-16.87,57.97-25.96,3.2-1.5,7.12-3.16,11.26-4.91,12.41-5.27,29.4-12.47,36.59-19.89,1.56-1.61,2.35-3.08,2.36-4.4Z"/>
          <path class="cls-1" d="M68.41,302.84l.37,17.17c-6.08-5.2-9.91-10.68-10.4-16.58-.03-.32-.05-.64-.05-.95l10.06-.35v.45s.02.26.02.26Z"/>
        </g>
      </g>
    </g>
  </g>
</svg>