<?xml version="1.0" encoding="UTF-8"?>
<svg xmlns="http://www.w3.org/2000/svg" viewBox="0 0 800 800">
  <defs>
    <style>
      .cls-1 {
        fill: #262b2f;
      }

      .cls-2 {
        fill: #905393;
      }

      .cls-3 {
        fill: #49565f;
      }

      .cls-4, .cls-5 {
        fill: #fff;
      }

      .cls-5, .cls-6 {
        font-family: Heavitas, Heavitas;
        font-size: 270px;
      }

      .cls-7 {
        fill: #aa7bac;
      }

      .cls-8 {
        isolation: isolate;
      }

      .cls-9 {
        fill: #646b71;
      }

      .cls-10 {
        fill: none;
        stroke: #262b2f;
        stroke-width: 6px;
      }

      .cls-11 {
        mix-blend-mode: multiply;
        opacity: .5;
      }
    </style>
  </defs>
  <g class="cls-8">
    <g id="Calque_1" data-name="Calque 1">
      <rect class="cls-7" width="800" height="800" rx="49.55" ry="49.55"/>
      <g>
        <path class="cls-1" d="M719.5,275.66c.13,2.32.2,4.66.2,7.01,0,23.49-6.74,46.3-19.71,67.62-.88-1.41-1.79-2.81-2.72-4.2,9.08-15.45,14.96-31.82,17.08-48.84,2.36-7.09,4.09-14.3,5.15-21.59Z"/>
        <path class="cls-1" d="M719.5,437.05c.13,2.32.2,4.66.2,7.01,0,51.71-32.73,100.17-92.15,136.44-58.74,35.87-136.75,55.6-219.66,55.6s-160.9-19.73-219.64-55.6c-59.42-36.26-92.15-84.73-92.15-136.44,0-2.3.07-4.6.2-6.89,1.06,7.29,2.78,14.47,5.15,21.57,9.59,75.6,92.53,138.63,205.45,162.58,31.62,6.72,65.61,10.36,100.99,10.36,161.72,0,294.29-76.22,306.47-173.04,2.36-7.09,4.09-14.3,5.15-21.59Z"/>
        <path class="cls-1" d="M720.76,258.15c0,5.88-.42,11.71-1.26,17.5-.42-7.38-1.52-14.67-3.25-21.88-2.85-75.89-79.76-140.64-188.48-168.57,1.77-1.19,3.62-2.25,5.55-3.16,34.96,9.37,67.14,22.72,94.98,39.65,59.62,36.29,92.46,84.73,92.46,136.46Z"/>
        <path class="cls-1" d="M720.76,419.54c0,5.88-.42,11.71-1.26,17.5-.42-7.38-1.52-14.67-3.25-21.88-.8-21.28-7.43-41.68-18.94-60.64.93-1.41,1.83-2.83,2.67-4.24,13.66,21.79,20.77,45.17,20.77,69.26Z"/>
        <path class="cls-1" d="M716.34,258.15c0-1.46-.02-2.92-.09-4.38,1.72,7.2,2.83,14.5,3.25,21.88-1.06,7.29-2.78,14.5-5.15,21.59.62-4.82.93-9.68.93-14.59,0-2.43-.07-4.84-.22-7.25v-.02c.84-5.68,1.28-11.43,1.28-17.24Z"/>
        <path class="cls-1" d="M716.25,253.78c.07,1.46.09,2.92.09,4.38,0,5.81-.44,11.56-1.28,17.24-.44-7.05-1.52-14.01-3.2-20.84-.24-7.67-1.28-15.23-3.05-22.65,3.16,7.16,5.64,14.47,7.45,21.88Z"/>
        <path class="cls-1" d="M716.34,419.54c0-1.46-.02-2.92-.09-4.38,1.72,7.2,2.83,14.5,3.25,21.88-1.06,7.29-2.78,14.5-5.15,21.59.62-4.82.93-9.68.93-14.59,0-2.43-.07-4.84-.22-7.25v-.02c.84-5.68,1.28-11.43,1.28-17.24Z"/>
        <path class="cls-1" d="M716.25,415.17c.07,1.46.09,2.92.09,4.38,0,5.81-.44,11.56-1.28,17.24-.44-7.05-1.52-14.01-3.2-20.84-.24-7.67-1.28-15.23-3.05-22.65,3.16,7.16,5.64,14.47,7.45,21.88Z"/>
        <path class="cls-1" d="M715.06,275.41c.15,2.41.22,4.82.22,7.25,0,4.91-.31,9.77-.93,14.59-2.48,7.43-5.66,14.74-9.52,21.9,2.54-7.56,4.31-15.31,5.24-23.18,2.28-6.74,3.93-13.59,4.99-20.55Z"/>
        <path class="cls-1" d="M715.06,436.8c.15,2.41.22,4.82.22,7.25,0,4.91-.31,9.77-.93,14.59-2.48,7.43-5.66,14.72-9.52,21.88,2.54-7.56,4.31-15.29,5.24-23.16,2.28-6.72,3.93-13.59,4.99-20.55Z"/>
        <path class="cls-1" d="M715.06,436.78v.02c-1.06,6.96-2.72,13.83-4.99,20.55.53-4.4.8-8.84.8-13.3,0-2.5-.09-4.99-.24-7.47.86-5.61,1.3-11.29,1.3-17.04,0-1.19-.02-2.41-.07-3.6,1.68,6.83,2.76,13.79,3.2,20.84Z"/>
        <path class="cls-1" d="M715.06,275.39v.02c-1.06,6.96-2.72,13.81-4.99,20.55.53-4.4.8-8.84.8-13.3,0-2.5-.09-4.99-.24-7.47.86-5.61,1.3-11.29,1.3-17.04,0-1.19-.02-2.41-.07-3.6,1.68,6.83,2.76,13.79,3.2,20.84Z"/>
        <path class="cls-3" d="M711.86,254.55c.04,1.19.07,2.41.07,3.6,0,5.75-.44,11.43-1.3,17.04-4.09-61.17-57.99-114.72-137.81-146.12-19.2-9.3-40.2-16.86-62.5-22.52.11-.24.22-.51.35-.75,105.28,22.78,184.17,79.58,201.19,148.75Z"/>
        <path class="cls-3" d="M711.86,415.94c.04,1.19.07,2.41.07,3.6,0,5.75-.44,11.43-1.3,17.04-1.57-23.38-10.41-45.66-25.19-66.01.97-1.17,1.92-2.34,2.85-3.51,11.31,15.31,19.36,31.71,23.58,48.88Z"/>
        <path class="cls-1" d="M710.62,275.19c.15,2.48.24,4.97.24,7.47,0,4.46-.27,8.91-.8,13.3-4.6,13.66-11.62,26.78-20.82,39.2-.93-1.17-1.88-2.34-2.87-3.51,12.82-17.57,21.19-36.55,24.24-56.46Z"/>
        <path class="cls-1" d="M710.62,436.58c.15,2.48.24,4.97.24,7.47,0,4.46-.27,8.91-.8,13.3-28.75,85.5-153.12,149.81-302.18,149.81-43.73,0-85.32-5.52-123-15.51,1.19-2.17,1.15-3.05-2.52-4.09-1.26-.35-2.3-1.08-3.18-2.08,39.09,11.07,82.74,17.26,128.7,17.26,158.14,0,288.44-73.1,302.73-166.16Z"/>
        <path class="cls-1" d="M716.25,253.78c-1.81-7.4-4.29-14.72-7.45-21.88-15.54-64.97-87.84-119.05-185.57-143.25,1.44-1.24,2.96-2.41,4.53-3.45,108.73,27.93,185.63,92.68,188.48,168.57Z"/>
        <path class="cls-1" d="M716.25,415.17c-1.81-7.4-4.29-14.72-7.45-21.88-2.87-11.98-7.67-23.6-14.21-34.74.95-1.33,1.86-2.67,2.72-4.02,11.51,18.96,18.14,39.36,18.94,60.64Z"/>
        <path class="cls-3" d="M708.81,231.9c1.77,7.43,2.81,14.98,3.05,22.65-17.02-69.17-95.91-125.96-201.19-148.75.64-1.39,1.35-2.78,2.12-4.13,42.63,9.33,81.74,24.4,114.76,44.55,39.42,24.07,67.09,53.48,81.26,85.68Z"/>
        <path class="cls-3" d="M708.81,393.29c1.77,7.43,2.81,14.98,3.05,22.65-4.22-17.17-12.26-33.57-23.58-48.88.97-1.22,1.92-2.45,2.85-3.69,7.25,9.64,13.15,19.62,17.68,29.92Z"/>
        <path class="cls-1" d="M710.07,295.97c-.93,7.87-2.7,15.62-5.24,23.18-3.65,6.72-7.89,13.3-12.75,19.71-.88-1.24-1.83-2.48-2.83-3.69,9.19-12.42,16.22-25.55,20.82-39.2Z"/>
        <path class="cls-1" d="M710.07,457.36c-.93,7.87-2.7,15.6-5.24,23.16-15.27,28.2-41.19,53.97-76.53,75.47-58.94,35.87-137.21,55.6-220.42,55.6-43.82,0-86.27-5.48-125.26-15.89.13-.29.29-.57.44-.86.71-1.3,1.35-2.34,1.81-3.18,37.68,9.99,79.27,15.51,123,15.51,149.06,0,273.43-64.31,302.18-149.81Z"/>
        <path class="cls-1" d="M704.83,319.15c3.87-7.16,7.05-14.47,9.52-21.9-2.12,17.02-8,33.39-17.08,48.84-.91-1.33-1.83-2.67-2.78-3.98,4.24-7.45,7.71-15.12,10.34-22.96Z"/>
        <path class="cls-1" d="M704.83,480.52c3.87-7.16,7.05-14.45,9.52-21.88-12.18,96.82-144.75,173.04-306.47,173.04-35.38,0-69.37-3.65-100.99-10.36l.02-.11c-7.8-3.51-13.55-6.25-17.68-8.6,36.46,9.44,76.57,14.65,118.65,14.65,146.43,0,268.92-63.14,296.94-146.74Z"/>
        <path class="cls-3" d="M692.08,338.86c4.86-6.41,9.1-12.99,12.75-19.71-2.63,7.85-6.1,15.51-10.34,22.96-.75-1.08-1.55-2.19-2.41-3.25Z"/>
        <path class="cls-1" d="M697.27,346.09c.93,1.39,1.83,2.78,2.72,4.2-.84,1.41-1.75,2.83-2.67,4.24-.84-1.41-1.72-2.81-2.65-4.2.91-1.41,1.77-2.83,2.61-4.24Z"/>
        <path class="cls-3" d="M628.3,555.98c35.34-21.5,61.26-47.27,76.53-75.47-28.02,83.6-150.52,146.74-296.94,146.74-42.08,0-82.19-5.22-118.65-14.65-10.67-6.08-10.47-9.5-6.61-16.91,38.98,10.41,81.43,15.89,125.26,15.89,83.2,0,161.48-19.73,220.42-55.6Z"/>
        <path class="cls-3" d="M708.81,231.9c-14.17-32.2-41.83-61.61-81.26-85.68-33.02-20.15-72.13-35.23-114.76-44.55.69-1.26,1.41-2.48,2.21-3.69,2.25-3.43,5.06-6.59,8.24-9.33,97.72,24.2,170.03,78.27,185.57,143.25Z"/>
        <path class="cls-3" d="M708.81,393.29c-4.53-10.3-10.43-20.29-17.68-29.92,1.19-1.59,2.36-3.2,3.47-4.82,6.54,11.14,11.34,22.76,14.21,34.74Z"/>
        <path class="cls-1" d="M697.32,354.53c-.86,1.35-1.77,2.7-2.72,4.02-.82-1.41-1.68-2.81-2.56-4.2.91-1.33,1.79-2.67,2.63-4.02.93,1.39,1.81,2.78,2.65,4.2Z"/>
        <path class="cls-1" d="M694.49,342.11c.95,1.3,1.88,2.65,2.78,3.98-.84,1.41-1.7,2.83-2.61,4.24-.86-1.35-1.77-2.67-2.67-4,.86-1.39,1.7-2.81,2.5-4.22Z"/>
        <path class="cls-3" d="M692.08,338.86c.86,1.06,1.66,2.17,2.41,3.25-.8,1.41-1.64,2.83-2.5,4.22-.91-1.28-1.81-2.54-2.74-3.8.97-1.22,1.92-2.43,2.83-3.67Z"/>
        <path class="cls-1" d="M694.6,358.55c-1.1,1.61-2.28,3.23-3.47,4.82-.91-1.26-1.88-2.5-2.85-3.71,1.3-1.75,2.56-3.51,3.76-5.3.88,1.39,1.75,2.78,2.56,4.2Z"/>
        <path class="cls-1" d="M694.66,350.33c-.84,1.35-1.72,2.7-2.63,4.02-.84-1.35-1.72-2.67-2.61-3.98v-.02c.88-1.33,1.75-2.67,2.56-4.02.91,1.33,1.81,2.65,2.67,4Z"/>
        <path class="cls-1" d="M689.43,350.37c.88,1.3,1.77,2.63,2.61,3.98-1.19,1.79-2.45,3.56-3.76,5.3-.93-1.19-1.88-2.34-2.87-3.51,1.39-1.9,2.72-3.82,4.02-5.77Z"/>
        <path class="cls-1" d="M689.25,335.17c.99,1.22,1.94,2.45,2.83,3.69-.91,1.24-1.86,2.45-2.83,3.67-.93-1.24-1.86-2.48-2.81-3.69.95-1.22,1.88-2.43,2.81-3.67Z"/>
        <path class="cls-3" d="M689.25,342.53c.93,1.26,1.83,2.52,2.74,3.8-.82,1.35-1.68,2.7-2.56,4.02-1.02-1.46-2.01-2.89-3.05-4.31.99-1.17,1.94-2.32,2.87-3.51Z"/>
        <path class="cls-1" d="M688.28,359.66c.97,1.22,1.94,2.45,2.85,3.71-.93,1.24-1.88,2.48-2.85,3.69-.91-1.24-1.83-2.48-2.81-3.69.97-1.24,1.9-2.48,2.81-3.71Z"/>
        <path class="cls-3" d="M689.43,350.35v.02c-1.3,1.94-2.63,3.87-4.02,5.77-1.24-1.52-2.54-3.03-3.89-4.51,1.68-1.83,3.31-3.71,4.86-5.59,1.04,1.41,2.03,2.85,3.05,4.31Z"/>
        <path class="cls-1" d="M689.25,335.17c-.93,1.24-1.86,2.45-2.81,3.67-.93-1.17-1.88-2.34-2.85-3.49.95-1.22,1.88-2.45,2.78-3.69.99,1.17,1.94,2.34,2.87,3.51Z"/>
        <path class="cls-1" d="M686.44,338.84c.95,1.22,1.88,2.45,2.81,3.69-.93,1.19-1.88,2.34-2.87,3.51-.91-1.24-1.83-2.48-2.78-3.69.99-1.17,1.92-2.34,2.85-3.51Z"/>
        <path class="cls-1" d="M688.28,359.66c-.91,1.24-1.83,2.48-2.81,3.71-.91-1.17-1.86-2.34-2.83-3.51.95-1.24,1.88-2.48,2.76-3.71.99,1.17,1.94,2.32,2.87,3.51Z"/>
        <path class="cls-1" d="M685.47,363.37c.97,1.22,1.9,2.45,2.81,3.69-.93,1.17-1.88,2.34-2.85,3.51-.91-1.24-1.83-2.48-2.78-3.71.97-1.15,1.92-2.32,2.83-3.49Z"/>
        <path class="cls-3" d="M710.62,275.19c-3.05,19.91-11.43,38.89-24.24,56.46-5.37-6.41-11.34-12.66-17.92-18.7-1.24-3.16-2.56-6.28-4-9.37,6.78-14.59,10.28-29.83,10.28-45.44,0-44.24-28.07-85.68-78.98-116.64-7.31-4.44-14.96-8.6-22.94-12.44,79.82,31.4,133.72,84.95,137.81,146.12Z"/>
        <path class="cls-3" d="M685.43,370.57c14.78,20.35,23.62,42.63,25.19,66.01-14.3,93.06-144.59,166.16-302.73,166.16-45.97,0-89.61-6.19-128.7-17.26-2.67-3.03-3.8-8.38-5.02-12.2-1.94-6.17,1.57-13.06,6.83-16.82,1.28-.91,2.65-1.68,4.07-2.34,36.91,14.21,78.65,22.21,122.83,22.21,147.02,0,267.15-88.66,271.55-198.96,2.08-2.23,4.07-4.51,5.99-6.81Z"/>
        <path class="cls-3" d="M686.38,331.66c-.91,1.24-1.83,2.48-2.78,3.69-3.62-4.42-7.58-8.75-11.78-12.95-1.02-3.18-2.14-6.32-3.36-9.44,6.59,6.03,12.55,12.29,17.92,18.7Z"/>
        <path class="cls-1" d="M683.59,342.35c.95,1.22,1.88,2.45,2.78,3.69-1.55,1.88-3.18,3.76-4.86,5.59-.97-1.13-1.99-2.23-3.03-3.34,1.77-1.97,3.47-3.93,5.1-5.94Z"/>
        <path class="cls-1" d="M683.59,335.35c.97,1.15,1.92,2.32,2.85,3.49-.93,1.17-1.86,2.34-2.85,3.51-.91-1.17-1.83-2.32-2.78-3.49.95-1.17,1.88-2.34,2.78-3.51Z"/>
        <path class="cls-3" d="M685.4,356.14c-.88,1.24-1.81,2.48-2.76,3.71-1.24-1.55-2.54-3.07-3.87-4.57-.02-.22-.04-.42-.09-.62.97-.99,1.9-2.01,2.83-3.03,1.35,1.48,2.65,2.98,3.89,4.51Z"/>
        <path class="cls-1" d="M682.64,366.86c.95,1.24,1.88,2.48,2.78,3.71-1.92,2.3-3.91,4.57-5.99,6.81.09-2.08.13-4.15.13-6.25v-.6c1.04-1.22,2.08-2.43,3.07-3.67Z"/>
        <path class="cls-1" d="M682.64,359.85c.97,1.17,1.92,2.34,2.83,3.51-.91,1.17-1.86,2.34-2.83,3.49-.91-1.17-1.83-2.34-2.78-3.49.95-1.17,1.88-2.34,2.78-3.51Z"/>
        <path class="cls-3" d="M683.59,335.35c-.91,1.17-1.83,2.34-2.78,3.51-2.01-2.45-4.11-4.88-6.3-7.29-.82-3.09-1.7-6.14-2.7-9.17,4.2,4.2,8.15,8.53,11.78,12.95Z"/>
        <path class="cls-1" d="M680.81,338.86c.95,1.17,1.88,2.32,2.78,3.49-1.64,2.01-3.34,3.98-5.1,5.94-.22-.24-.44-.46-.69-.71v-.02c-.22-1.44-.46-2.85-.73-4.29,1.26-1.46,2.52-2.94,3.73-4.42Z"/>
        <path class="cls-3" d="M682.64,359.85c-.91,1.17-1.83,2.34-2.78,3.51-.15-.22-.33-.44-.51-.64-.13-2.5-.33-4.99-.57-7.45,1.33,1.5,2.63,3.03,3.87,4.57Z"/>
        <path class="cls-1" d="M679.86,363.37c.95,1.15,1.88,2.32,2.78,3.49-.99,1.24-2.03,2.45-3.07,3.67,0-2.21-.07-4.42-.18-6.61.15-.18.31-.38.46-.55Z"/>
        <path class="cls-1" d="M681.51,351.63c-.93,1.02-1.86,2.03-2.83,3.03-.2-1.94-.42-3.89-.71-5.81.18-.2.33-.38.51-.55,1.04,1.1,2.06,2.21,3.03,3.34Z"/>
        <path class="cls-9" d="M679.35,362.73c.18.2.35.42.51.64-.15.18-.31.38-.46.55,0-.4-.02-.8-.04-1.19Z"/>
        <path class="cls-1" d="M679.57,370.53v.6c0,2.1-.04,4.18-.13,6.25-2.65,2.89-5.41,5.72-8.33,8.53.22-2.25.4-4.51.49-6.78,2.78-2.81,5.44-5.68,7.98-8.6Z"/>
        <path class="cls-1" d="M679.39,363.92c.11,2.19.18,4.4.18,6.61-2.54,2.92-5.19,5.79-7.98,8.6.15-2.19.22-4.38.22-6.56,2.65-2.83,5.19-5.72,7.58-8.64Z"/>
        <path class="cls-3" d="M679.35,362.73c.02.4.04.8.04,1.19-2.39,2.92-4.93,5.81-7.58,8.64.02-.49.02-.95.02-1.44,0-3.09-.09-6.19-.31-9.26,1.3-1.24,2.59-2.5,3.85-3.78,1.37,1.52,2.7,3.07,3.98,4.64Z"/>
        <path class="cls-3" d="M678.77,355.28c.24,2.45.44,4.95.57,7.45-1.28-1.57-2.61-3.12-3.98-4.64,1.04-1.04,2.08-2.1,3.07-3.16.11.13.22.24.33.35Z"/>
        <path class="cls-9" d="M678.69,354.66c.04.2.07.4.09.62-.11-.11-.22-.22-.33-.35.09-.09.18-.18.24-.27Z"/>
        <path class="cls-1" d="M678.69,354.66c-.07.09-.15.18-.24.27-.97-1.1-1.99-2.23-3.01-3.34.86-.91,1.7-1.83,2.54-2.74.29,1.92.51,3.87.71,5.81Z"/>
        <path class="cls-3" d="M680.81,338.86c-1.22,1.48-2.48,2.96-3.73,4.42-.71-3.93-1.57-7.85-2.56-11.71,2.19,2.41,4.29,4.84,6.3,7.29Z"/>
        <path class="cls-1" d="M677.8,347.59c.24.24.46.46.69.71-.18.18-.33.35-.51.55-.07-.42-.11-.84-.18-1.26Z"/>
        <path class="cls-1" d="M677.8,347.59c.07.42.11.84.18,1.26-.84.91-1.68,1.83-2.54,2.74l-3.05-3.18c1.04-1.08,2.06-2.19,3.05-3.31.8.82,1.59,1.64,2.36,2.48v.02Z"/>
        <path class="cls-1" d="M677.8,347.57c-.77-.84-1.57-1.66-2.36-2.48.55-.6,1.1-1.22,1.64-1.81.27,1.44.51,2.85.73,4.29Z"/>
        <path class="cls-3" d="M677.07,343.28c-.53.6-1.08,1.22-1.64,1.81-2.36-2.41-4.8-4.8-7.34-7.12-1.37-6.17-3.14-12.22-5.28-18.17,4.13,3.82,8.04,7.73,11.69,11.76.99,3.87,1.86,7.78,2.56,11.71Z"/>
        <path class="cls-1" d="M675.44,351.59c1.02,1.1,2.03,2.23,3.01,3.34-.99,1.06-2.03,2.12-3.07,3.16-.97-1.13-1.97-2.23-3.01-3.34,1.04-1.04,2.06-2.1,3.07-3.16Z"/>
        <path class="cls-1" d="M675.44,351.59c-1.02,1.06-2.03,2.12-3.07,3.16-.53-.6-1.1-1.19-1.66-1.77-.07-.82-.18-1.66-.31-2.48.66-.71,1.35-1.39,1.99-2.1l3.05,3.18Z"/>
        <path class="cls-3" d="M675.44,345.09c-.99,1.13-2.01,2.23-3.05,3.31-.91-.93-1.81-1.86-2.74-2.74-.42-2.59-.95-5.15-1.55-7.69,2.54,2.32,4.97,4.71,7.34,7.12Z"/>
        <path class="cls-3" d="M671.81,322.4c.99,3.03,1.88,6.08,2.7,9.17-3.65-4.02-7.56-7.93-11.69-11.76-.88-2.52-1.86-4.99-2.87-7.47.15-.22.29-.44.38-.66,4.02,3.49,7.87,7.07,11.49,10.72Z"/>
        <path class="cls-1" d="M672.37,354.75c1.04,1.1,2.03,2.21,3.01,3.34-1.26,1.28-2.54,2.54-3.85,3.78-.09-1.94-.24-3.89-.46-5.83.44-.4.88-.84,1.3-1.28Z"/>
        <path class="cls-1" d="M670.71,352.98c.55.57,1.13,1.17,1.66,1.77-.42.44-.86.88-1.3,1.28-.09-1.02-.2-2.03-.35-3.05Z"/>
        <path class="cls-3" d="M671.84,371.13c0,.49,0,.95-.02,1.44-2.56,2.74-5.24,5.44-8.02,8.09.2-3.16.31-6.32.31-9.52,0-.82,0-1.64-.04-2.45,2.59-2.23,5.06-4.51,7.47-6.81.22,3.07.31,6.17.31,9.26Z"/>
        <path class="cls-1" d="M671.81,372.56c0,2.19-.07,4.38-.22,6.56-2.7,2.74-5.5,5.44-8.42,8.09.27-2.17.46-4.35.62-6.56,2.78-2.65,5.46-5.35,8.02-8.09Z"/>
        <path class="cls-3" d="M672.39,348.41c-.64.71-1.33,1.39-1.99,2.1-.2-1.61-.46-3.23-.75-4.84.93.88,1.83,1.81,2.74,2.74Z"/>
        <path class="cls-1" d="M671.06,356.03c.22,1.94.38,3.89.46,5.83-2.41,2.3-4.88,4.57-7.47,6.81,0-1.94-.09-3.87-.22-5.79,2.5-2.23,4.91-4.51,7.23-6.85Z"/>
        <path class="cls-1" d="M671.59,379.12c-.09,2.28-.27,4.53-.49,6.78-2.83,2.74-5.79,5.44-8.86,8.09.38-2.25.69-4.51.93-6.78,2.92-2.65,5.72-5.35,8.42-8.09Z"/>
        <path class="cls-1" d="M671.11,385.91c2.92-2.81,5.68-5.64,8.33-8.53-4.4,110.3-124.53,198.96-271.55,198.96-44.18,0-85.92-8-122.83-22.21,4.09-1.86,8.66-2.76,13.19-3.31,33.39,11.43,70.52,17.79,109.63,17.79,139.14,0,253.12-80.53,263.22-182.69Z"/>
        <path class="cls-1" d="M670.71,352.98c.15,1.02.27,2.03.35,3.05-2.32,2.34-4.73,4.62-7.23,6.85-.09-1.86-.22-3.71-.42-5.55,2.03-1.9,4.02-3.82,5.94-5.77.44.46.91.95,1.35,1.41Z"/>
        <path class="cls-1" d="M670.71,352.98c-.44-.46-.91-.95-1.35-1.41.35-.35.69-.71,1.04-1.06.13.82.24,1.66.31,2.48Z"/>
        <path class="cls-3" d="M670.4,350.51c-.35.35-.69.71-1.04,1.06-2.54-2.61-5.17-5.17-7.91-7.69-.46-2.48-1.02-4.93-1.61-7.36,3.4,3.01,6.7,6.03,9.81,9.15.29,1.61.55,3.23.75,4.84Z"/>
        <path class="cls-3" d="M668.45,312.96c1.22,3.12,2.34,6.25,3.36,9.44-3.62-3.65-7.47-7.23-11.49-10.72.77-1.33,1.48-2.65,2.14-4,2.06,1.75,4.04,3.51,5.99,5.28Z"/>
        <path class="cls-3" d="M668.1,337.98c.6,2.54,1.13,5.1,1.55,7.69-3.12-3.12-6.41-6.14-9.81-9.15-.64-2.56-1.35-5.13-2.14-7.65,3.62,2.98,7.09,5.99,10.41,9.1Z"/>
        <path class="cls-3" d="M664.45,303.59c1.44,3.09,2.76,6.21,4,9.37-1.94-1.77-3.93-3.54-5.99-5.28.71-1.35,1.37-2.72,1.99-4.09Z"/>
        <path class="cls-1" d="M674.73,258.15c0,15.6-3.49,30.85-10.28,45.44-.82-1.77-1.66-3.51-2.54-5.24,5.48-12.84,8.4-26.32,8.4-40.2,0-66.45-66.76-123.42-161.72-147.42.09-.27.2-.53.31-.8,22.65,4.86,44.09,11.29,63.91,19.14,7.98,3.85,15.62,8,22.94,12.44,50.92,30.96,78.98,72.4,78.98,116.64Z"/>
        <path class="cls-3" d="M664.06,368.67c.04.82.04,1.64.04,2.45,0,3.2-.11,6.36-.31,9.52-11.69,11.14-25.35,21.46-40.64,30.78,5.39-5.7,10.5-11.73,15.23-18.08-7.31,8.31-15.25,15.98-23.69,23.05-54.19,30.67-126.94,49.46-206.8,49.46-64.95,0-125.21-12.44-174.6-33.59-1.33-.8-2.65-1.61-3.96-2.48,21.3,5.46,42.63,10.89,63.95,16.38,8.46,2.17,17.15,4.35,25.88,3.62,5.17-.44,10.41-2.08,14.65-4.97,23.96,3.56,48.79,5.37,74.08,5.37,83.2,0,161.48-19.73,220.42-55.6,13.26-8.07,25.21-16.73,35.76-25.92Z"/>
        <path class="cls-1" d="M663.84,362.88c.13,1.92.22,3.85.22,5.79-10.54,9.19-22.5,17.86-35.76,25.92-58.94,35.87-137.21,55.6-220.42,55.6-25.28,0-50.12-1.81-74.08-5.37,1.64-1.1,3.09-2.39,4.38-3.85,22.41,3.14,45.72,4.8,69.7,4.8,106.58,0,200.55-32.88,255.95-82.89Z"/>
        <path class="cls-3" d="M669.36,351.57c-1.92,1.94-3.91,3.87-5.94,5.77-.42-4.53-1.08-9.02-1.97-13.46,2.74,2.52,5.37,5.08,7.91,7.69Z"/>
        <path class="cls-1" d="M663.42,357.34c.2,1.83.33,3.69.42,5.55-55.4,50.01-149.37,82.89-255.95,82.89-23.98,0-47.29-1.66-69.7-4.8,1.04-1.17,1.94-2.48,2.7-3.89.04-.07.07-.15.11-.22,21.52,2.94,43.91,4.49,66.89,4.49,107.05,0,201.34-33.5,255.53-84.02Z"/>
        <path class="cls-3" d="M662.82,319.81c2.14,5.94,3.91,12,5.28,18.17-3.31-3.12-6.78-6.12-10.41-9.1-.84-2.76-1.79-5.52-2.83-8.24,1.13-1.68,2.21-3.38,3.2-5.08,1.61,1.41,3.2,2.83,4.75,4.27Z"/>
        <path class="cls-1" d="M663.79,380.65c-.15,2.21-.35,4.4-.62,6.56-14.98,13.61-32.82,25.94-52.97,36.71,4.49-3.96,8.77-8.11,12.91-12.44.02,0,.02-.02.04-.04,15.29-9.33,28.95-19.65,40.64-30.78Z"/>
        <path class="cls-1" d="M664.45,303.59c-.62,1.37-1.28,2.74-1.99,4.09-1.15-.99-2.32-1.99-3.51-2.96,1.06-2.1,2.06-4.22,2.96-6.36.88,1.72,1.72,3.47,2.54,5.24Z"/>
        <path class="cls-1" d="M663.17,387.21c-.24,2.28-.55,4.53-.93,6.78-5.94,5.13-12.31,10.1-19.12,14.89.66-.95,1.35-1.9,2.03-2.87-.97,1.17-1.94,2.32-2.92,3.47-4.71,3.29-9.59,6.5-14.7,9.61-10.52,6.41-21.66,12.33-33.33,17.68,5.52-4.04,10.87-8.33,15.98-12.86,20.15-10.76,37.99-23.09,52.97-36.71Z"/>
        <path class="cls-1" d="M298.25,550.81c-85.37-29.19-146.32-91.47-153.57-164.9,2.83,2.74,5.79,5.41,8.86,8.07,10.43,64.13,64.24,118.52,138.98,146.52,34.7,13.04,73.88,20.38,115.36,20.38,121.17,0,222.96-62.61,249.48-146.43.07-.11.11-.2.15-.31l-.04-.02c2.08-6.59,3.67-13.28,4.77-20.11,3.07-2.65,6.03-5.35,8.86-8.09-10.1,102.16-124.09,182.69-263.22,182.69-39.12,0-76.24-6.36-109.63-17.79Z"/>
        <path class="cls-1" d="M670.31,258.15c0,13.88-2.92,27.36-8.4,40.2-.86-1.72-1.75-3.43-2.67-5.1,4.35-11.27,6.65-23.03,6.65-35.09,0-64.44-65.61-119.82-158.76-143.25.44-1.41.93-2.78,1.46-4.18,94.96,24,161.72,80.97,161.72,147.42Z"/>
        <path class="cls-3" d="M661.45,343.88c.88,4.44,1.55,8.93,1.97,13.46-54.19,50.52-148.48,84.02-255.53,84.02-22.98,0-45.37-1.55-66.89-4.49,3.14-6.14,2.76-12.8,1.35-19.65,21.17,3.27,43.16,4.95,65.55,4.95,70.89,0,137.61-16.82,187.86-47.38,21.06-12.82,38.23-27.42,51.07-43.27,5.15,3.98,10.03,8.11,14.63,12.35Z"/>
        <path class="cls-1" d="M662.47,307.68c-.66,1.35-1.37,2.67-2.14,4-.35-.29-.71-.6-1.06-.91-.51-1.22-1.02-2.39-1.59-3.58.46-.82.88-1.66,1.28-2.48,1.19.97,2.36,1.97,3.51,2.96Z"/>
        <path class="cls-1" d="M661.91,298.35c-.91,2.14-1.9,4.27-2.96,6.36-1.15-.95-2.32-1.9-3.51-2.83,1.41-2.85,2.67-5.72,3.8-8.64.93,1.68,1.81,3.38,2.67,5.1Z"/>
        <path class="cls-1" d="M660.32,311.68c-.09.22-.22.44-.38.66-.22-.53-.44-1.06-.69-1.57.35.31.71.62,1.06.91Z"/>
        <path class="cls-3" d="M659.84,336.52c.6,2.43,1.15,4.88,1.61,7.36-4.6-4.24-9.48-8.38-14.63-12.35.95-1.15,1.86-2.28,2.72-3.43,3.56,2.74,7.01,5.57,10.3,8.42Z"/>
        <path class="cls-3" d="M659.95,312.34c1.02,2.48,1.99,4.95,2.87,7.47-1.55-1.44-3.14-2.85-4.75-4.27.69-1.06,1.3-2.12,1.88-3.2Z"/>
        <path class="cls-1" d="M659.26,310.77c.24.51.46,1.04.69,1.57-.57,1.08-1.19,2.14-1.88,3.2-1.13-.99-2.28-1.97-3.45-2.94.77-1.28,1.52-2.56,2.21-3.87.82.69,1.64,1.37,2.43,2.03Z"/>
        <path class="cls-3" d="M665.89,258.15c0,12.07-2.3,23.82-6.65,35.09-29.68-54.45-89.52-97.21-163.71-116.35,2.36-8.15,3.73-16.71,4.84-25.04,1.64-12.38,3.01-25.17,6.76-36.95,93.15,23.42,158.76,78.81,158.76,143.25Z"/>
        <path class="cls-1" d="M655.44,301.89c1.19.93,2.36,1.88,3.51,2.83-.4.82-.82,1.66-1.28,2.48-.75-1.68-1.55-3.34-2.39-4.99.07-.09.13-.2.15-.31Z"/>
        <path class="cls-3" d="M657.69,328.87c.8,2.52,1.5,5.08,2.14,7.65-3.29-2.85-6.74-5.68-10.3-8.42.91-1.19,1.79-2.39,2.65-3.58,1.88,1.44,3.71,2.89,5.5,4.35Z"/>
        <path class="cls-1" d="M657.67,307.19c.57,1.19,1.08,2.36,1.59,3.58-.8-.66-1.61-1.35-2.43-2.03.31-.51.57-1.02.84-1.55Z"/>
        <path class="cls-1" d="M657.67,307.19c-.27.53-.53,1.04-.84,1.55-1.15-.95-2.3-1.88-3.47-2.81.69-1.24,1.33-2.48,1.92-3.73.84,1.66,1.64,3.31,2.39,4.99Z"/>
        <path class="cls-7" d="M662.24,394c-1.1,6.83-2.7,13.52-4.77,20.11l-.15-.09c-1.02,1.88-2.03,3.76-3.03,5.64l-4.09-1.88c-97.61,132.15-318.62,144.62-442.91,43.98-7.65-6.3-15.47-13.46-22.3-20.55-3.2-3.71-8.4-9.26-11.4-13.1-1.9-2.36-5.97-7.82-8-10.34.75,1.1,1.64,2.5,2.59,3.96l-2.5,1.55c24.77,52.79,72.86,94.14,127.82,114.58l-.97,2.65c-74.74-28-128.55-82.39-138.98-146.52,1.94,1.68,3.93,3.36,5.99,4.99,7.07,12.09,16.38,23.54,25.57,34.01,36.13,40.31,85.7,67.34,138.38,78.85l.04-.22c-10.76-2.85-21.57-6.34-32.02-10.21-52.02-19.47-99.14-54.36-129.96-100.82,3.51,2.78,7.16,5.5,10.94,8.18,25.15,36,63,62.01,103.29,78.78,117.28,48.97,288.86,29.35,367.35-78.65,6.81-4.8,13.17-9.77,19.12-14.89Z"/>
        <path class="cls-4" d="M657.51,414.13c-.04.11-.09.2-.15.31.04-.11.09-.22.11-.33l.04.02Z"/>
        <path class="cls-4" d="M657.47,414.11c-.02.11-.07.22-.11.33-28.53,61.46-85.57,111.27-151.4,127.14,54.78-16.35,103.18-52.82,135.07-100.15,3.34-5.17,7.07-10.89,10.14-16.2,1.08-1.83,2.1-3.71,3.12-5.57.99-1.88,2.01-3.76,3.03-5.64l.15.09Z"/>
        <path class="cls-1" d="M658.07,315.55c-.99,1.7-2.08,3.4-3.2,5.08-.62-1.72-1.3-3.45-2.01-5.15.62-.95,1.22-1.9,1.77-2.87,1.17.97,2.32,1.94,3.45,2.94Z"/>
        <path class="cls-1" d="M656.83,308.74c-.69,1.3-1.44,2.59-2.21,3.87-1.13-.93-2.25-1.88-3.43-2.81.77-1.28,1.48-2.56,2.17-3.87,1.17.93,2.32,1.86,3.47,2.81Z"/>
        <path class="cls-3" d="M659.24,293.25c-1.13,2.92-2.39,5.79-3.8,8.64-.18-.13-.33-.27-.51-.4-27.67-54.98-87.25-98.27-161.83-117.3.91-2.39,1.72-4.82,2.43-7.29,74.19,19.14,134.03,61.9,163.71,116.35Z"/>
        <path class="cls-3" d="M654.86,320.63c1.04,2.72,1.99,5.48,2.83,8.24-1.79-1.46-3.62-2.92-5.5-4.35.93-1.3,1.81-2.59,2.67-3.89Z"/>
        <path class="cls-9" d="M655.44,301.89c-.02.11-.09.22-.15.31-.09-.24-.2-.46-.35-.71.18.13.33.27.51.4Z"/>
        <path class="cls-3" d="M654.93,301.49c.15.24.27.46.35.71-.6,1.26-1.24,2.5-1.92,3.73-2.63-2.12-5.33-4.18-8.11-6.21-1.7-3.14-3.56-6.23-5.5-9.28,5.3,3.58,10.36,7.27,15.18,11.05Z"/>
        <path class="cls-1" d="M654.86,320.63c-.86,1.3-1.75,2.59-2.67,3.89-1.17-.93-2.36-1.83-3.58-2.74,1.5-2.08,2.92-4.18,4.24-6.3.71,1.7,1.39,3.43,2.01,5.15Z"/>
        <path class="cls-1" d="M654.62,312.61c-.55.97-1.15,1.92-1.77,2.87-.66-1.64-1.37-3.27-2.12-4.88l.46-.8c1.17.93,2.3,1.88,3.43,2.81Z"/>
        <path class="cls-7" d="M650.2,417.78l4.09,1.88c-1.02,1.86-2.03,3.73-3.12,5.57-3.07,5.3-6.81,11.03-10.14,16.2-31.89,47.34-80.29,83.8-135.07,100.15,65.83-15.87,122.87-65.68,151.4-127.14-26.52,83.82-128.31,146.43-249.48,146.43-41.48,0-80.66-7.34-115.36-20.38l.97-2.65c8.99,3.36,18.19,6.14,27.47,8.33l.04-.22c-4.07-1.26-8.18-2.39-12.2-3.78-5.79-1.94-12.18-4.46-17.9-6.67-52.79-21.75-98.21-61.83-125.24-112.24l2.5-1.55c1.59,2.43,3.31,5.06,4.62,7.01,7.51,10.61,16.26,20.88,25.63,29.88,119.14,116.22,360.35,103.95,451.77-40.82Z"/>
        <path class="cls-1" d="M650.73,310.6c.75,1.61,1.46,3.25,2.12,4.88-1.33,2.12-2.74,4.22-4.24,6.3-1.17-.86-2.36-1.72-3.56-2.56,2.06-2.83,3.93-5.7,5.68-8.62Z"/>
        <path class="cls-3" d="M653.36,305.93c-.69,1.3-1.39,2.59-2.17,3.87-.44-.35-.88-.71-1.33-1.04-1.41-3.05-2.96-6.08-4.62-9.04,2.78,2.03,5.48,4.09,8.11,6.21Z"/>
        <path class="cls-1" d="M648.61,321.78c1.22.91,2.41,1.81,3.58,2.74-.86,1.19-1.75,2.39-2.65,3.58-1.17-.93-2.36-1.83-3.58-2.74.93-1.17,1.81-2.36,2.65-3.58Z"/>
        <path class="cls-9" d="M651.19,309.8l-.46.8c-.27-.6-.55-1.22-.86-1.83.44.33.88.69,1.33,1.04Z"/>
        <path class="cls-3" d="M649.87,308.76c.31.62.6,1.24.86,1.83-1.75,2.92-3.62,5.79-5.68,8.62-5.55-4-11.38-7.87-17.5-11.6-31.07-18.98-67.56-33.44-107.29-42.85.31-2.17.49-4.38.49-6.61,0-3.03-.31-6.01-.91-8.95,51.84,12.42,96.73,33.19,130.03,59.56Z"/>
        <path class="cls-1" d="M649.54,328.1c-.86,1.15-1.77,2.28-2.72,3.43-1.17-.91-2.36-1.81-3.58-2.72.95-1.13,1.86-2.28,2.72-3.45,1.22.91,2.41,1.81,3.58,2.74Z"/>
        <path class="cls-1" d="M645.05,319.21c1.19.84,2.39,1.7,3.56,2.56-.84,1.22-1.72,2.41-2.65,3.58-1.17-.86-2.34-1.75-3.54-2.59.93-1.17,1.81-2.36,2.63-3.56Z"/>
        <path class="cls-3" d="M645.25,299.72c1.66,2.96,3.2,5.99,4.62,9.04-33.3-26.36-78.19-47.14-130.03-59.56-.33-1.64-.75-3.25-1.28-4.84,49.72,11.62,93.24,30.85,126.69,55.36Z"/>
        <path class="cls-1" d="M645.16,406.02c-.69.97-1.37,1.92-2.03,2.87-.29.2-.6.4-.88.6.97-1.15,1.94-2.3,2.92-3.47Z"/>
        <path class="cls-1" d="M645.96,325.36c-.86,1.17-1.77,2.32-2.72,3.45-1.17-.86-2.34-1.72-3.54-2.59.95-1.13,1.86-2.28,2.72-3.45,1.19.84,2.36,1.72,3.54,2.59Z"/>
        <path class="cls-3" d="M654.93,301.49c-4.82-3.78-9.88-7.47-15.18-11.05-29.52-46.36-83.67-82.47-149.88-99.07,1.22-2.32,2.28-4.73,3.23-7.18,74.58,19.03,134.16,62.32,161.83,117.3Z"/>
        <path class="cls-1" d="M643.24,328.81c1.22.91,2.41,1.81,3.58,2.72-12.84,15.84-30.01,30.45-51.07,43.27-50.25,30.56-116.97,47.38-187.86,47.38-22.39,0-44.37-1.68-65.55-4.95-.31-1.55-.66-3.12-1.06-4.66,21.26,3.38,43.58,5.19,66.61,5.19,103.2,0,192.53-36.24,235.35-88.95Z"/>
        <path class="cls-2" d="M642.24,409.49c.29-.2.6-.4.88-.6-78.5,108-250.07,127.62-367.35,78.65-40.29-16.77-78.14-42.78-103.29-78.78.27.18.55.38.82.55,27.67,33.1,65.06,56.53,105.01,71.82,116.79,44.29,279.24,27.09,363.93-71.65Z"/>
        <path class="cls-3" d="M645.05,319.21c-.82,1.19-1.7,2.39-2.63,3.56-32.82-23.62-75-42.21-123.07-53.61.38-1.44.69-2.92.91-4.4,39.73,9.41,76.22,23.87,107.29,42.85,6.12,3.73,11.96,7.6,17.5,11.6Z"/>
        <path class="cls-1" d="M639.7,326.22c1.19.86,2.36,1.72,3.54,2.59-42.83,52.71-132.15,88.95-235.35,88.95-23.03,0-45.35-1.81-66.61-5.19-.4-1.57-.82-3.12-1.24-4.68,21.63,3.56,44.37,5.46,67.84,5.46,101.7,0,189.85-35.58,231.82-87.11Z"/>
        <path class="cls-3" d="M639.75,290.44c1.94,3.05,3.8,6.14,5.5,9.28-33.46-24.51-76.97-43.73-126.69-55.36-.53-1.7-1.17-3.36-1.9-5.02,41.44,9.37,79.42,24.15,111.64,43.76,3.93,2.39,7.76,4.84,11.45,7.34Z"/>
        <path class="cls-3" d="M642.42,322.77c-.86,1.17-1.77,2.32-2.72,3.45-32.35-23.25-74.08-41.57-121.63-52.82.51-1.39.93-2.81,1.28-4.24,48.07,11.4,90.25,29.99,123.07,53.61Z"/>
        <path class="cls-3" d="M639.75,290.44c-3.69-2.5-7.51-4.95-11.45-7.34-32.22-19.6-70.21-34.39-111.64-43.76-6.17-13.83-18.96-25.99-36.11-35,.2-.18.4-.38.57-.57,3.56-3.71,6.41-7.89,8.75-12.4,66.21,16.6,120.35,52.71,149.88,99.07Z"/>
        <path class="cls-7" d="M627.55,419.1c5.1-3.12,9.99-6.32,14.7-9.61-84.68,98.74-247.13,115.93-363.93,71.65-39.96-15.29-77.35-38.72-105.01-71.82,4.77,3.36,9.75,6.63,14.94,9.79,10.32,6.3,21.24,12.11,32.68,17.39,18.34,13.3,38.81,23.91,59.78,32.09,94.32,36.84,227.75,31.03,313.52-31.8,11.67-5.35,22.81-11.27,33.33-17.68Z"/>
        <path class="cls-3" d="M638.38,393.36c-4.73,6.34-9.83,12.38-15.23,18.08-.02.02-.02.04-.04.04-2.76,1.68-5.57,3.34-8.42,4.93,8.44-7.07,16.38-14.74,23.69-23.05Z"/>
        <path class="cls-3" d="M518.07,273.4c47.56,11.25,89.28,29.57,121.63,52.82-41.97,51.53-130.12,87.11-231.82,87.11-23.47,0-46.21-1.9-67.84-5.46-1.1-4.18-2.19-8.38-2.7-12.51-3.23-25.72,16.49-49.17,38.94-62.12,3.67-2.12,7.45-4.07,11.27-5.88,6.59.75,13.39,1.15,20.33,1.15,53.83,0,98.98-23.62,110.19-55.11Z"/>
        <path class="cls-1" d="M614.69,416.41c2.85-1.59,5.66-3.25,8.42-4.93-4.13,4.33-8.42,8.49-12.91,12.44-5.39,2.87-10.94,5.64-16.66,8.27,7.36-4.86,14.43-10.12,21.15-15.78Z"/>
        <path class="cls-1" d="M593.54,432.18c5.72-2.63,11.27-5.39,16.66-8.27-5.1,4.53-10.45,8.82-15.98,12.86-9.52,4.4-19.43,8.42-29.63,12.07,10.03-4.97,19.73-10.52,28.95-16.66Z"/>
        <path class="cls-1" d="M614.69,416.41c-6.72,5.66-13.79,10.92-21.15,15.78-51.58,23.93-115.91,38.1-185.65,38.1-52.22,0-101.41-7.96-144.46-21.99-10.39-4.68-20.46-10.03-30.14-16.02,49.39,21.15,109.66,33.59,174.6,33.59,79.87,0,152.62-18.78,206.8-49.46Z"/>
        <path class="cls-1" d="M593.54,432.18c-9.22,6.14-18.92,11.69-28.95,16.66-.02.02-.04.04-.07.02-47.05,16.86-100.73,25.83-156.64,25.83-30.76,0-60.86-2.72-89.55-7.98-18.81-4.24-37.28-10.41-54.92-18.43,43.05,14.03,92.24,21.99,144.46,21.99,69.74,0,134.07-14.17,185.65-38.1Z"/>
        <path class="cls-2" d="M564.59,448.85c10.21-3.65,20.11-7.67,29.63-12.07-85.77,62.83-219.2,68.64-313.52,31.8-20.97-8.18-41.44-18.78-59.78-32.09,9.97,4.62,20.31,8.82,31,12.62,10.14,4.93,20.57,9.24,31.16,12.99,84.71,29.72,196.24,28.84,281.43-13.24.02.02.04,0,.07-.02Z"/>
        <path class="cls-7" d="M407.88,474.7c55.91,0,109.59-8.97,156.64-25.83-85.19,42.08-196.73,42.96-281.43,13.24-10.59-3.76-21.02-8.07-31.16-12.99,11.36,4.07,23.12,7.65,35.18,10.76,23.36,7.8,47.84,12.35,72.46,13.61l.02-.22c-11.09-1.04-22.34-2.74-33.28-4.84-2.67-.53-5.33-1.08-7.98-1.7,28.68,5.26,58.78,7.98,89.55,7.98Z"/>
        <path class="cls-1" d="M407.88,66.09c43.89,0,86.41,5.5,125.43,15.96-1.92.91-3.78,1.97-5.55,3.16-36.84-9.46-77.37-14.7-119.89-14.7-168,0-304.66,81.72-308.37,183.38-1.72,7.2-2.81,14.5-3.23,21.88-.86-5.81-1.28-11.69-1.28-17.61,0-51.73,32.84-100.17,92.48-136.46,58.94-35.84,137.21-55.6,220.39-55.6Z"/>
        <path class="cls-1" d="M527.77,85.21c-1.57,1.04-3.09,2.21-4.53,3.45-35.58-8.86-74.54-13.72-115.36-13.72-152.93,0-279.84,68.37-300.94,157.08-3.16,7.16-5.64,14.47-7.43,21.88,3.71-101.66,140.37-183.38,308.37-183.38,42.52,0,83.05,5.24,119.89,14.7Z"/>
        <path class="cls-1" d="M520.74,258.15c0,2.23-.18,4.44-.49,6.61-1.44-.35-2.87-.69-4.33-.99.27-1.86.4-3.73.4-5.61,0-3.4-.42-6.76-1.26-10.06,1.59.35,3.18.73,4.77,1.1.6,2.94.91,5.92.91,8.95Z"/>
        <path class="cls-1" d="M515.93,263.77c1.46.31,2.89.64,4.33.99-.22,1.48-.53,2.96-.91,4.4-1.44-.35-2.85-.69-4.29-.99.38-1.44.66-2.92.86-4.4Z"/>
        <path class="cls-1" d="M515.06,268.17c1.44.31,2.85.64,4.29.99-.35,1.44-.77,2.85-1.28,4.24-1.41-.35-2.85-.69-4.31-.99.53-1.39.97-2.81,1.3-4.24Z"/>
        <path class="cls-1" d="M519.84,249.2c-1.59-.38-3.18-.75-4.77-1.1-.4-1.64-.93-3.27-1.55-4.88,1.68.38,3.38.75,5.04,1.15.53,1.59.95,3.2,1.28,4.84Z"/>
        <path class="cls-1" d="M513.76,272.41c1.46.31,2.89.64,4.31.99-11.2,31.49-56.35,55.11-110.19,55.11-6.94,0-13.75-.4-20.33-1.15,2.7-1.28,5.44-2.5,8.2-3.69,3.98.29,8.02.42,12.13.42,51.84,0,95.18-22.12,105.88-51.69Z"/>
        <path class="cls-1" d="M516.66,239.35c.73,1.66,1.37,3.31,1.9,5.02-1.66-.4-3.36-.77-5.04-1.15-.64-1.72-1.39-3.4-2.28-5.06,1.81.38,3.62.77,5.41,1.19Z"/>
        <path class="cls-1" d="M516.32,258.15c0,1.88-.13,3.76-.4,5.61-1.44-.33-2.89-.66-4.33-.95.2-1.55.31-3.09.31-4.66,0-3.8-.6-7.54-1.72-11.14,1.64.35,3.27.71,4.88,1.08.84,3.29,1.26,6.65,1.26,10.06Z"/>
        <path class="cls-9" d="M523.24,88.66c-3.18,2.74-5.99,5.9-8.24,9.33-.8,1.22-1.52,2.43-2.21,3.69-33.21-7.27-68.6-11.05-104.9-11.05-82.89,0-160.9,19.73-219.64,55.6-39.47,24.09-67.16,53.55-81.3,85.79,21.1-88.71,148.02-157.08,300.94-157.08,40.82,0,79.78,4.86,115.36,13.72Z"/>
        <path class="cls-1" d="M510.31,106.56c22.3,5.66,43.29,13.22,62.5,22.52-19.82-7.85-41.26-14.28-63.91-19.14.44-1.13.91-2.25,1.41-3.38Z"/>
        <path class="cls-1" d="M515.93,263.77c-.2,1.48-.49,2.96-.86,4.4-1.41-.33-2.85-.66-4.29-.95.38-1.46.64-2.92.82-4.4,1.44.29,2.89.62,4.33.95Z"/>
        <path class="cls-1" d="M515.06,268.17c-.33,1.44-.77,2.85-1.3,4.24-1.41-.33-2.87-.66-4.31-.95.53-1.39.97-2.81,1.33-4.24,1.44.29,2.87.62,4.29.95Z"/>
        <path class="cls-1" d="M513.52,243.22c.62,1.61,1.15,3.25,1.55,4.88-1.61-.38-3.25-.73-4.88-1.08-.51-1.68-1.13-3.31-1.88-4.93,1.75.35,3.49.73,5.22,1.13Z"/>
        <path class="cls-1" d="M513.52,243.22c-1.72-.4-3.47-.77-5.22-1.13-.8-1.75-1.7-3.45-2.74-5.13,1.9.38,3.8.77,5.68,1.19.88,1.66,1.64,3.34,2.28,5.06Z"/>
        <path class="cls-1" d="M516.66,239.35c-1.79-.42-3.6-.82-5.41-1.19-6.32-12.11-18.25-22.72-33.92-30.67,1.13-1.04,2.21-2.08,3.23-3.14,17.15,9.02,29.94,21.17,36.11,35Z"/>
        <path class="cls-1" d="M509.45,271.46c1.44.29,2.89.62,4.31.95-10.7,29.57-54.03,51.69-105.88,51.69-4.11,0-8.15-.13-12.13-.42,3.27-1.39,6.56-2.72,9.88-4.04.75.04,1.5.04,2.25.04,49.66,0,91.27-20.66,101.57-48.22Z"/>
        <path class="cls-9" d="M511.9,258.15c0,1.57-.11,3.12-.31,4.66-10.7-2.32-21.61-4.29-32.71-5.86-.22-5.81-2.12-11.29-5.39-16.31,12.53,1.66,24.77,3.8,36.68,6.36,1.13,3.6,1.72,7.34,1.72,11.14Z"/>
        <path class="cls-9" d="M511.6,262.82c-.18,1.48-.44,2.94-.82,4.4-10.43-2.28-21.13-4.2-32.04-5.77.11-1.08.18-2.19.18-3.29,0-.4,0-.8-.02-1.19,11.09,1.57,22.01,3.54,32.71,5.86Z"/>
        <path class="cls-9" d="M512.79,101.67c-.77,1.35-1.48,2.74-2.12,4.13-8.71-1.9-17.61-3.56-26.67-4.97-24.4-4.42-49.97-6.72-76.11-6.72s-51.71,2.3-76.11,6.72c-118.52,18.43-209.5,78.89-227.86,153.83.22-7.67,1.26-15.23,3.03-22.65,14.14-32.24,41.83-61.7,81.3-85.79,58.74-35.87,136.75-55.6,219.64-55.6,36.31,0,71.69,3.78,104.9,11.05Z"/>
        <path class="cls-9" d="M510.67,105.8c-.13.24-.24.51-.35.75-8.6-2.19-17.37-4.11-26.32-5.72,9.06,1.41,17.97,3.07,26.67,4.97Z"/>
        <path class="cls-1" d="M483.99,100.83c8.95,1.61,17.72,3.54,26.32,5.72-.51,1.13-.97,2.25-1.41,3.38-8.55-1.83-17.26-3.45-26.14-4.8-23.71-4.31-48.86-6.61-74.87-6.61s-51.14,2.3-74.87,6.61c-32.38,4.97-62.69,13.15-89.97,23.89,26.59-12.86,56.64-22.39,88.73-28.2,24.33-3.78,49.83-5.79,76.11-5.79s51.78,2.01,76.11,5.79Z"/>
        <path class="cls-9" d="M510.78,267.22c-.35,1.44-.8,2.85-1.33,4.24-10.25-2.23-20.77-4.11-31.51-5.64.35-1.44.64-2.89.8-4.38,10.92,1.57,21.61,3.49,32.04,5.77Z"/>
        <path class="cls-1" d="M508.9,109.94c-.11.27-.22.53-.31.8-8.4-2.14-17.02-4-25.83-5.59,8.88,1.35,17.59,2.96,26.14,4.8Z"/>
        <path class="cls-9" d="M508.3,242.09c.75,1.61,1.37,3.25,1.88,4.93-11.91-2.56-24.15-4.71-36.68-6.36-1.1-1.72-2.39-3.38-3.82-4.97,13.22,1.64,26.1,3.78,38.63,6.41Z"/>
        <path class="cls-1" d="M508.59,110.73c-.53,1.39-1.02,2.76-1.46,4.18-30.56-7.71-64.09-11.96-99.25-11.96-142.25,0-257.98,69.61-257.98,155.2,0,12.07,2.3,23.82,6.65,35.09-.93,1.68-1.81,3.38-2.67,5.1-5.48-12.84-8.4-26.32-8.4-40.2,0-72.33,79.09-133.43,187.53-153.01,23.96-3.71,49.04-5.68,74.87-5.68s50.92,1.97,74.87,5.68c8.82,1.59,17.44,3.45,25.83,5.59Z"/>
        <path class="cls-1" d="M511.24,238.16c-1.88-.42-3.78-.82-5.68-1.19-6.45-10.39-17.52-19.47-31.71-26.36,1.17-1.04,2.34-2.08,3.47-3.12,15.67,7.96,27.6,18.56,33.92,30.67Z"/>
        <path class="cls-9" d="M505.56,236.96c1.04,1.68,1.94,3.38,2.74,5.13-12.53-2.63-25.41-4.77-38.63-6.41-1.59-1.79-3.36-3.47-5.3-5.08,14.01,1.55,27.76,3.67,41.19,6.36Z"/>
        <path class="cls-9" d="M507.13,114.91c-3.76,11.78-5.13,24.57-6.76,36.95-1.1,8.33-2.48,16.88-4.84,25.04-27.51-7.12-56.99-10.96-87.64-10.96-113.3,0-210.65,52.66-251.33,127.31-4.35-11.27-6.65-23.03-6.65-35.09,0-85.59,115.73-155.2,257.98-155.2,35.16,0,68.68,4.24,99.25,11.96Z"/>
        <path class="cls-9" d="M495.53,176.9c-.71,2.48-1.52,4.91-2.43,7.29-26.72-6.83-55.38-10.52-85.21-10.52-112.99,0-209.41,53.13-247.02,127.8-.18.13-.35.29-.51.42-1.41-2.85-2.67-5.72-3.8-8.64,40.68-74.65,138.03-127.31,251.33-127.31,30.65,0,60.13,3.85,87.64,10.96Z"/>
        <path class="cls-9" d="M493.1,184.19c-.95,2.45-2.01,4.86-3.23,7.18-25.72-6.45-53.28-9.97-81.92-9.97h-.07c-102.32,0-190.82,44.66-231.84,109.04-5.3,3.58-10.36,7.25-15.18,11.03,37.61-74.67,134.03-127.8,247.02-127.8,29.83,0,58.5,3.69,85.21,10.52Z"/>
        <path class="cls-9" d="M477.94,265.82c10.74,1.52,21.26,3.4,31.51,5.64-10.3,27.56-51.91,48.22-101.57,48.22-.75,0-1.5,0-2.25-.04,14.08-5.59,28.35-10.74,41.55-18.14,8.49-4.75,16.93-11.69,21.63-19.91,4.49-4.73,7.62-10.03,9.13-15.76Z"/>
        <path class="cls-9" d="M473.85,210.6c14.19,6.89,25.26,15.98,31.71,26.36-13.44-2.7-27.18-4.82-41.19-6.36-1.22-1.02-2.52-1.99-3.87-2.92,1.94-6.76,7.62-11.96,13.35-17.08Z"/>
        <path class="cls-9" d="M489.87,191.37c-2.34,4.51-5.19,8.68-8.75,12.4-.18.2-.38.4-.57.57-19.62-10.34-44.99-16.57-72.66-16.57l.07-6.36c28.64,0,56.2,3.51,81.92,9.97Z"/>
        <path class="cls-1" d="M478.89,256.96c.02.4.02.8.02,1.19,0,1.1-.07,2.21-.18,3.29-1.46-.22-2.92-.42-4.4-.62.11-.88.15-1.77.15-2.67,0-.6-.02-1.19-.07-1.79,1.5.18,2.98.4,4.46.6Z"/>
        <path class="cls-1" d="M478.73,261.45c-.15,1.48-.44,2.94-.8,4.38-1.48-.24-2.96-.44-4.46-.62.42-1.44.71-2.89.86-4.38,1.48.2,2.94.4,4.4.62Z"/>
        <path class="cls-1" d="M480.55,204.34c-1.02,1.06-2.1,2.1-3.23,3.14-18.81-9.55-43.03-15.29-69.44-15.29-48.42,0-89.41,19.31-103.33,45.97-1.81.38-3.62.77-5.41,1.19,13.22-29.7,56.97-51.58,108.75-51.58,27.67,0,53.04,6.23,72.66,16.57Z"/>
        <path class="cls-1" d="M478.89,256.96c-1.48-.2-2.96-.42-4.46-.6-.42-5.92-2.92-11.49-7.09-16.49,2.06.22,4.11.49,6.17.77,3.27,5.02,5.17,10.5,5.39,16.31Z"/>
        <path class="cls-1" d="M473.47,265.2c1.5.18,2.98.38,4.46.62-1.5,5.72-4.64,11.03-9.13,15.76,2.45-4.29,3.89-8.93,3.76-13.79.38-.84.66-1.7.91-2.59Z"/>
        <path class="cls-1" d="M474.42,256.36c.04.6.07,1.19.07,1.79,0,.91-.04,1.79-.15,2.67-1.04-.13-2.08-.29-3.12-.42-.35-1.02-.75-2.01-1.19-3.01,0-.53-.02-1.08-.11-1.61,1.5.18,3.01.35,4.51.57Z"/>
        <path class="cls-1" d="M477.32,207.48c-1.13,1.04-2.3,2.08-3.47,3.12-17.97-8.75-40.95-13.99-65.97-13.99-44.77,0-83.03,16.82-97.66,40.35-1.9.38-3.8.77-5.68,1.19,13.92-26.65,54.92-45.97,103.33-45.97,26.41,0,50.63,5.75,69.44,15.29Z"/>
        <path class="cls-1" d="M474.42,256.36c-1.5-.22-3.01-.4-4.51-.57-.66-5.79-3.82-11.25-8.84-16.02v-.02l-.2-.6c2.17.2,4.31.44,6.45.73,4.18,4.99,6.67,10.56,7.09,16.49Z"/>
        <path class="cls-1" d="M471.22,260.41c1.04.13,2.08.29,3.12.42-.15,1.48-.44,2.94-.86,4.38-.38-.09-.75-.13-1.13-.15-.04-.33-.09-.69-.15-1.02-.22-1.24-.55-2.43-.97-3.62Z"/>
        <path class="cls-1" d="M472.35,265.05c.38.02.75.07,1.13.15-.24.88-.53,1.75-.91,2.59,0-.91-.09-1.81-.22-2.74Z"/>
        <path class="cls-1" d="M472.57,267.79c.13,4.86-1.3,9.5-3.76,13.79-12.33,12.99-34.76,21.5-60.93,21.5-35.69,0-64.44-15.84-70.03-37.28,1.48-.22,2.96-.42,4.46-.62,5.46,19.03,32.75,33.48,65.57,33.48s57.59-13.15,64.68-30.87Z"/>
        <path class="cls-1" d="M419.38,293.58c24.84-2.81,44.95-14.54,49.63-28.97,1.1.13,2.23.27,3.34.44.13.93.22,1.83.22,2.74-7.09,17.72-33.35,30.87-64.68,30.87s-60.11-14.45-65.57-33.48c1.48-.2,2.96-.4,4.46-.57,5.39,16.62,31.18,29.63,61.1,29.63,3.91,0,7.76-.22,11.49-.66Z"/>
        <path class="cls-1" d="M472.19,264.03c.07.33.11.69.15,1.02-1.1-.18-2.23-.31-3.34-.44.49-1.41.8-2.87.93-4.35.44.04.86.11,1.28.15.42,1.19.75,2.39.97,3.62Z"/>
        <path class="cls-1" d="M471.22,260.41c-.42-.04-.84-.11-1.28-.15.09-.69.13-1.39.13-2.1,0-.24,0-.51-.04-.75.44.99.84,1.99,1.19,3.01Z"/>
        <path class="cls-1" d="M469.67,235.68c1.44,1.59,2.72,3.25,3.82,4.97-2.06-.29-4.11-.55-6.17-.77-1.46-1.77-3.14-3.47-4.99-5.04,2.45.27,4.91.55,7.34.84Z"/>
        <path class="cls-9" d="M470.03,257.4c.04.24.04.51.04.75,0,.71-.04,1.41-.13,2.1-16.42-2.06-33.3-3.31-50.56-3.67v-4.44c16.91.38,33.57,1.57,49.86,3.56.27.55.55,1.13.8,1.7Z"/>
        <path class="cls-9" d="M469.92,255.79c.09.53.11,1.08.11,1.61-.24-.57-.53-1.15-.8-1.7.24.02.46.04.69.09Z"/>
        <path class="cls-9" d="M469.92,255.79c-.22-.04-.44-.07-.69-.09-2.67-5.39-6.25-10.52-8.15-15.93,5.02,4.77,8.18,10.23,8.84,16.02Z"/>
        <path class="cls-9" d="M473.85,210.6c-5.72,5.13-11.4,10.32-13.35,17.08-12.91-8.93-31.56-14.45-52.62-14.45-23.27,0-43.6,6.74-56.46,17.37-14.01,1.55-27.76,3.67-41.19,6.36,14.63-23.54,52.88-40.35,97.66-40.35,25.02,0,48,5.24,65.97,13.99Z"/>
        <path class="cls-9" d="M469.94,260.25c-.13,1.48-.44,2.94-.93,4.35-16.13-2.01-32.71-3.25-49.63-3.6v-4.42c17.26.35,34.14,1.61,50.56,3.67Z"/>
        <path class="cls-1" d="M464.37,230.6c1.94,1.61,3.71,3.29,5.3,5.08-2.43-.29-4.88-.57-7.34-.84-.82-.73-1.66-1.39-2.54-2.06,0-.46,0-.95.04-1.41.02-.42.07-.84.13-1.24,1.48.13,2.94.29,4.4.46Z"/>
        <path class="cls-1" d="M462.34,234.84c1.86,1.57,3.54,3.27,4.99,5.04-2.14-.29-4.29-.53-6.45-.73-.49-1.48-.82-3.01-.99-4.55.82.07,1.64.15,2.45.24Z"/>
        <path class="cls-1" d="M462.34,234.84c-.82-.09-1.64-.18-2.45-.24-.04-.6-.09-1.19-.09-1.81.88.66,1.72,1.33,2.54,2.06Z"/>
        <path class="cls-1" d="M464.37,230.6c-1.46-.18-2.92-.33-4.4-.46.13-.84.31-1.66.53-2.45,1.35.93,2.65,1.9,3.87,2.92Z"/>
        <path class="cls-9" d="M461.08,239.77c1.9,5.41,5.48,10.54,8.15,15.93-16.29-1.99-32.95-3.18-49.86-3.56v-15.65c13.92.29,27.6,1.17,40.97,2.59.24.2.49.44.73.66v.02Z"/>
        <path class="cls-1" d="M460.88,239.15l.2.6c-.24-.22-.49-.46-.73-.66.18,0,.35.02.53.07Z"/>
        <path class="cls-1" d="M460.88,239.15c-.18-.04-.35-.07-.53-.07-1.99-1.81-4.24-3.51-6.72-5.1,2.1.18,4.18.38,6.25.62.18,1.55.51,3.07.99,4.55Z"/>
        <path class="cls-1" d="M460.5,227.68c-.22.8-.4,1.61-.53,2.45-1.57-.18-3.16-.33-4.75-.46-9.5-5.86-21.92-9.94-35.84-11.4-3.73-.42-7.56-.62-11.49-.62-18.52,0-35.27,4.6-47.34,12.02-3.05.29-6.1.6-9.13.93,12.86-10.63,33.19-17.37,56.46-17.37,21.06,0,39.71,5.52,52.62,14.45Z"/>
        <path class="cls-1" d="M455.22,229.67c1.59.13,3.18.29,4.75.46-.07.4-.11.82-.13,1.24-.04.46-.04.95-.04,1.41-1.44-1.08-2.96-2.12-4.57-3.12Z"/>
        <path class="cls-1" d="M459.8,232.79c0,.62.04,1.22.09,1.81-2.08-.24-4.15-.44-6.25-.62-3.09-1.94-6.54-3.71-10.28-5.26,3.98.27,7.93.57,11.87.95,1.61.99,3.14,2.03,4.57,3.12Z"/>
        <path class="cls-9" d="M407.88,303.08c26.17,0,48.6-8.51,60.93-21.5-4.71,8.22-13.15,15.16-21.63,19.91-13.19,7.4-27.47,12.55-41.55,18.14-48.64-.6-89.15-21.04-99.29-48.18,10.25-2.23,20.77-4.13,31.51-5.66,5.59,21.44,34.34,37.28,70.03,37.28Z"/>
        <path class="cls-1" d="M419.38,218.27c13.92,1.46,26.34,5.55,35.84,11.4-3.93-.38-7.89-.69-11.87-.95-7.09-2.92-15.23-5.02-23.98-5.99v-4.46Z"/>
        <path class="cls-9" d="M453.63,233.98c2.48,1.59,4.73,3.29,6.72,5.1-13.37-1.41-27.05-2.3-40.97-2.59v-4.42c11.6.22,23.03.88,34.25,1.9Z"/>
        <path class="cls-9" d="M469.01,264.61c-4.68,14.43-24.8,26.17-49.63,28.97v-32.57c16.93.35,33.5,1.59,49.63,3.6Z"/>
        <path class="cls-9" d="M443.35,228.72c3.73,1.55,7.18,3.31,10.28,5.26-11.23-1.02-22.65-1.68-34.25-1.9v-4.44c8.04.18,16.04.53,23.98,1.08Z"/>
        <path class="cls-9" d="M443.35,228.72c-7.93-.55-15.93-.91-23.98-1.08v-4.91c8.75.97,16.88,3.07,23.98,5.99Z"/>
        <path class="cls-3" d="M419.38,261.01v32.57c-3.73.44-7.58.66-11.49.66-29.92,0-55.71-13.02-61.1-29.63,19.73-2.48,40.18-3.76,61.1-3.76,3.85,0,7.67.04,11.49.15Z"/>
        <path class="cls-3" d="M419.38,256.59v4.42c-3.82-.11-7.65-.15-11.49-.15-20.93,0-41.37,1.28-61.1,3.76-.49-1.41-.8-2.87-.93-4.35,20.02-2.5,40.77-3.82,62.03-3.82,3.85,0,7.69.04,11.49.15Z"/>
        <path class="cls-3" d="M419.38,252.14v4.44c-3.8-.11-7.65-.15-11.49-.15-21.26,0-42.01,1.33-62.03,3.82-.09-.69-.13-1.39-.13-2.1,0-.8.04-1.59.15-2.36,20.2-2.5,40.95-3.78,62.01-3.78,3.85,0,7.67.04,11.49.13Z"/>
        <path class="cls-3" d="M419.38,236.5v15.65c-3.82-.09-7.65-.13-11.49-.13-21.06,0-41.81,1.28-62.01,3.78.71-6.08,4.13-11.78,9.57-16.71,17.04-1.81,34.56-2.74,52.44-2.74,3.85,0,7.67.04,11.49.15Z"/>
        <path class="cls-3" d="M419.38,232.08v4.42c-3.82-.11-7.65-.15-11.49-.15-17.88,0-35.4.93-52.44,2.74,1.99-1.81,4.24-3.51,6.72-5.1,14.92-1.35,30.19-2.06,45.72-2.06,3.85,0,7.67.04,11.49.15Z"/>
        <path class="cls-3" d="M419.38,227.64v4.44c-3.82-.11-7.65-.15-11.49-.15-15.54,0-30.81.71-45.72,2.06,3.07-1.94,6.52-3.71,10.28-5.26,11.69-.82,23.51-1.22,35.45-1.22,3.85,0,7.67.04,11.49.13Z"/>
        <path class="cls-3" d="M419.38,222.73v4.91c-3.82-.09-7.65-.13-11.49-.13-11.93,0-23.76.4-35.45,1.22,10.12-4.18,22.39-6.65,35.45-6.65,3.91,0,7.76.22,11.49.66Z"/>
        <path class="cls-1" d="M419.38,218.29v4.44c-3.73-.44-7.58-.66-11.49-.66-13.06,0-25.33,2.48-35.45,6.65-3.98.27-7.93.57-11.89.95,12.07-7.43,28.82-12.02,47.34-12.02,3.93,0,7.76.2,11.49.62v.02Z"/>
        <path class="cls-1" d="M483.99,100.83c-24.33-3.78-49.83-5.79-76.11-5.79s-51.78,2.01-76.11,5.79c24.4-4.42,49.97-6.72,76.11-6.72s51.71,2.3,76.11,6.72Z"/>
        <path class="cls-1" d="M482.76,105.14c-23.96-3.71-49.04-5.68-74.87-5.68s-50.92,1.97-74.87,5.68c23.73-4.31,48.86-6.61,74.87-6.61s51.16,2.3,74.87,6.61Z"/>
        <path class="cls-2" d="M207.29,461.75c124.28,100.64,345.3,88.18,442.91-43.98-91.42,144.77-332.63,157.04-451.77,40.82-9.37-8.99-18.12-19.27-25.63-29.88-1.3-1.94-3.03-4.57-4.62-7.01-.95-1.46-1.83-2.85-2.59-3.96,2.03,2.52,6.1,7.98,8,10.34,3.01,3.85,8.2,9.39,11.4,13.1,6.83,7.09,14.65,14.25,22.3,20.55Z"/>
        <path class="cls-9" d="M407.95,181.41l-.07,6.36c-51.78,0-95.53,21.88-108.75,51.58-41.44,9.37-79.42,24.15-111.64,43.76-3.93,2.39-7.76,4.84-11.45,7.34,41.02-64.37,129.52-109.04,231.84-109.04h.07Z"/>
        <path class="cls-1" d="M405.63,319.63c-3.31,1.33-6.61,2.65-9.88,4.04-46.34-3.14-83.87-24.04-93.72-51.27,1.44-.33,2.87-.66,4.31-.95,10.14,27.14,50.65,47.58,99.29,48.18Z"/>
        <path class="cls-1" d="M395.75,323.68c-2.76,1.19-5.5,2.41-8.2,3.69-44.57-5.08-80.09-26.54-89.83-53.99,1.44-.33,2.87-.66,4.31-.97,9.86,27.23,47.38,48.13,93.72,51.27Z"/>
        <path class="cls-9" d="M387.55,327.37c-3.82,1.81-7.6,3.76-11.27,5.88-22.45,12.95-42.16,36.4-38.94,62.12.51,4.13,1.59,8.33,2.7,12.51-72.06-11.8-131.64-41.99-163.95-81.63,32.35-23.27,74.1-41.59,121.63-52.86,9.75,27.45,45.26,48.91,89.83,53.99Z"/>
        <path class="cls-1" d="M372.44,228.72c-3.76,1.55-7.2,3.31-10.28,5.26-2.92.27-5.83.55-8.73.86,2.12-1.86,4.51-3.58,7.12-5.17,3.96-.38,7.91-.69,11.89-.95Z"/>
        <path class="cls-1" d="M353.43,234.84c2.89-.31,5.81-.6,8.73-.86-2.48,1.59-4.73,3.29-6.72,5.1-2.34.24-4.66.49-6.98.8,1.44-1.77,3.12-3.45,4.97-5.04Z"/>
        <path class="cls-4" d="M359.6,473.27l-.02.22c-24.62-1.26-49.1-5.81-72.46-13.61,10.19,2.63,20.6,4.91,31.23,6.85,2.65.62,5.3,1.17,7.98,1.7,10.94,2.1,22.19,3.8,33.28,4.84Z"/>
        <path class="cls-1" d="M360.55,229.67c-2.61,1.59-4.99,3.31-7.12,5.17-2.43.27-4.88.55-7.31.84,1.59-1.79,3.36-3.47,5.3-5.08,3.03-.33,6.08-.64,9.13-.93Z"/>
        <path class="cls-1" d="M348.46,239.88c2.32-.31,4.64-.55,6.98-.8-5.44,4.93-8.86,10.63-9.57,16.71-1.5.18-3.01.35-4.51.57.42-5.92,2.92-11.49,7.09-16.49Z"/>
        <path class="cls-1" d="M346.12,235.68c2.43-.29,4.88-.57,7.31-.84-1.86,1.59-3.54,3.27-4.97,5.04-2.06.22-4.11.49-6.17.77,1.1-1.72,2.39-3.38,3.82-4.97Z"/>
        <path class="cls-1" d="M346.78,264.61c-1.5.18-2.98.38-4.46.57-.42-1.41-.71-2.87-.86-4.35,1.46-.2,2.92-.4,4.4-.57.13,1.48.44,2.94.93,4.35Z"/>
        <path class="cls-1" d="M342.29,240.65c2.06-.29,4.11-.55,6.17-.77-4.18,4.99-6.67,10.56-7.09,16.49-1.5.18-2.98.4-4.46.6.22-5.81,2.12-11.29,5.39-16.31Z"/>
        <path class="cls-9" d="M351.42,230.6c-1.94,1.61-3.71,3.29-5.3,5.08-13.19,1.64-26.1,3.78-38.63,6.41.8-1.75,1.7-3.45,2.74-5.13,13.44-2.7,27.18-4.82,41.19-6.36Z"/>
        <path class="cls-1" d="M341.37,256.36c1.5-.22,3.01-.4,4.51-.57-.11.77-.15,1.57-.15,2.36,0,.71.04,1.41.13,2.1-1.48.18-2.94.38-4.4.57-.11-.88-.15-1.77-.15-2.67,0-.6.02-1.19.07-1.79Z"/>
        <path class="cls-9" d="M342.34,417.22c1.41,6.85,1.79,13.5-1.35,19.65-78.76-10.67-146.05-39.84-188.62-79.51.42-4.53,1.08-9.04,1.97-13.48,4.6-4.24,9.48-8.35,14.63-12.35,12.84,15.84,29.99,30.45,51.07,43.27,34.39,20.91,76.44,35.38,122.3,42.43Z"/>
        <path class="cls-9" d="M346.12,235.68c-1.44,1.59-2.72,3.25-3.82,4.97-12.53,1.66-24.77,3.78-36.68,6.36.51-1.68,1.13-3.31,1.88-4.93,12.53-2.63,25.44-4.77,38.63-6.41Z"/>
        <path class="cls-1" d="M341.45,260.83c.15,1.48.44,2.94.86,4.35-1.5.2-2.98.4-4.46.62-.35-1.44-.64-2.87-.8-4.35,1.46-.22,2.92-.42,4.4-.62Z"/>
        <path class="cls-1" d="M341.3,258.15c0,.91.04,1.79.15,2.67-1.48.2-2.94.4-4.4.62-.11-1.08-.18-2.19-.18-3.29,0-.4,0-.8.02-1.19,1.48-.2,2.96-.42,4.46-.6-.04.6-.07,1.19-.07,1.79Z"/>
        <path class="cls-1" d="M341.28,412.56c.4,1.55.75,3.12,1.06,4.66-45.86-7.05-87.91-21.52-122.3-42.43-21.08-12.82-38.23-27.42-51.07-43.27,1.17-.91,2.36-1.81,3.58-2.72,33.28,40.95,94.61,71.98,168.73,83.76Z"/>
        <path class="cls-1" d="M340.99,436.87c-.04.07-.07.15-.11.22-.75,1.41-1.66,2.72-2.7,3.89-65.63-9.24-123.25-31.2-165.41-61.41-7.43-5.28-14.39-10.85-20.82-16.66.09-1.86.22-3.71.42-5.55,42.56,39.67,109.85,68.84,188.62,79.51Z"/>
        <path class="cls-1" d="M340.04,407.88c.42,1.57.84,3.12,1.24,4.68-74.12-11.78-135.44-42.81-168.73-83.76,1.17-.86,2.34-1.72,3.54-2.56,32.31,39.65,91.89,69.83,163.95,81.63Z"/>
        <path class="cls-9" d="M337.06,261.45c.15,1.48.44,2.92.8,4.35-10.74,1.52-21.26,3.43-31.51,5.66-.53-1.39-.97-2.81-1.33-4.24,10.43-2.28,21.13-4.2,32.04-5.77Z"/>
        <path class="cls-9" d="M342.29,240.65c-3.27,5.02-5.17,10.5-5.39,16.31-11.09,1.57-22.01,3.54-32.71,5.86-.2-1.55-.31-3.09-.31-4.66,0-3.8.6-7.54,1.72-11.14,11.91-2.59,24.15-4.71,36.68-6.36Z"/>
        <path class="cls-9" d="M336.9,256.96c-.02.4-.02.8-.02,1.19,0,1.1.07,2.21.18,3.29-10.92,1.57-21.61,3.49-32.04,5.77-.38-1.46-.64-2.92-.82-4.4,10.7-2.32,21.61-4.29,32.71-5.86Z"/>
        <path class="cls-1" d="M338.18,440.98c-1.28,1.46-2.74,2.74-4.38,3.85-54.89-8.11-105.3-25.26-146.32-50.23-1.44-.88-2.87-1.75-4.27-2.63-3.69-3.89-7.27-7.91-10.7-12.07l.24-.33c42.16,30.21,99.78,52.18,165.41,61.41Z"/>
        <path class="cls-9" d="M333.81,444.83c-4.24,2.89-9.48,4.53-14.65,4.97-8.73.73-17.41-1.46-25.88-3.62-21.33-5.48-42.65-10.92-63.95-16.38-16.8-10.74-32.35-23.38-46.1-37.83,1.39.88,2.83,1.75,4.27,2.63,41.02,24.97,91.42,42.12,146.32,50.23Z"/>
        <path class="cls-4" d="M323.53,511.61l-.04.22c-52.68-11.51-102.25-38.54-138.38-78.85-9.19-10.47-18.5-21.92-25.57-34.01.66.55,1.33,1.08,2.01,1.61,30.83,46.45,77.94,81.35,129.96,100.82,10.45,3.87,21.26,7.36,32.02,10.21Z"/>
        <path class="cls-4" d="M321.01,545.95l-.04.22c-9.28-2.19-18.47-4.97-27.47-8.33-54.96-20.44-103.05-61.79-127.82-114.58,27.03,50.41,72.44,90.5,125.24,112.24,5.72,2.21,12.11,4.73,17.9,6.67,4.02,1.39,8.13,2.52,12.2,3.78Z"/>
        <path class="cls-9" d="M331.78,100.83c-32.09,5.81-62.14,15.34-88.73,28.2-79.89,31.42-133.85,85.04-137.88,146.25-.88-5.64-1.33-11.36-1.33-17.13,0-1.17.02-2.32.07-3.49,18.36-74.94,109.35-135.4,227.86-153.83Z"/>
        <path class="cls-1" d="M304.55,238.16c1.88-.42,3.78-.82,5.68-1.19-1.04,1.68-1.94,3.38-2.74,5.13-1.75.35-3.49.73-5.22,1.13.64-1.72,1.39-3.4,2.28-5.06Z"/>
        <path class="cls-1" d="M302.27,243.22c1.72-.4,3.47-.77,5.22-1.13-.75,1.61-1.37,3.25-1.88,4.93-1.64.35-3.27.71-4.88,1.08.4-1.64.93-3.27,1.55-4.88Z"/>
        <path class="cls-1" d="M306.91,621.2l-.02.11c-112.93-23.96-195.86-86.98-205.45-162.58,2.48,7.43,5.68,14.72,9.55,21.88,20,59.53,87.91,108.66,178.25,132,4.13,2.34,9.88,5.08,17.68,8.6Z"/>
        <path class="cls-1" d="M305.01,267.22c.35,1.44.8,2.85,1.33,4.24-1.44.29-2.87.62-4.31.95-.53-1.39-.97-2.81-1.3-4.24,1.41-.35,2.85-.66,4.29-.95Z"/>
        <path class="cls-1" d="M304.2,262.82c.18,1.48.44,2.94.82,4.4-1.44.29-2.87.6-4.29.95-.38-1.44-.66-2.92-.86-4.4,1.44-.33,2.89-.66,4.33-.95Z"/>
        <path class="cls-1" d="M305.61,247.02c-1.13,3.6-1.72,7.34-1.72,11.14,0,1.57.11,3.12.31,4.66-1.44.29-2.89.62-4.33.95-.27-1.86-.4-3.73-.4-5.61,0-3.4.42-6.76,1.26-10.06,1.61-.38,3.25-.73,4.88-1.08Z"/>
        <path class="cls-1" d="M304.55,238.16c-.88,1.66-1.64,3.34-2.28,5.06-1.68.38-3.36.75-5.04,1.15.53-1.7,1.17-3.36,1.9-5.02,1.79-.42,3.6-.82,5.41-1.19Z"/>
        <path class="cls-1" d="M302.03,272.41c-1.44.31-2.87.64-4.31.97-.51-1.39-.93-2.78-1.28-4.22,1.41-.35,2.85-.69,4.29-.99.33,1.44.77,2.85,1.3,4.24Z"/>
        <path class="cls-1" d="M297.23,244.37c1.68-.4,3.36-.77,5.04-1.15-.62,1.61-1.15,3.25-1.55,4.88-1.59.35-3.18.73-4.77,1.1.33-1.64.75-3.25,1.28-4.84Z"/>
        <path class="cls-1" d="M300.73,268.17c-1.44.31-2.87.64-4.29.99-.38-1.44-.69-2.92-.91-4.4,1.44-.35,2.87-.69,4.33-.99.2,1.48.49,2.96.86,4.4Z"/>
        <path class="cls-1" d="M300.73,248.1c-.84,3.29-1.26,6.65-1.26,10.06,0,1.88.13,3.76.4,5.61-1.46.31-2.89.64-4.33.99-.31-2.17-.49-4.38-.49-6.61,0-3.03.31-6.01.91-8.95,1.59-.38,3.18-.75,4.77-1.1Z"/>
        <path class="cls-9" d="M299.14,239.35c-.73,1.66-1.37,3.31-1.9,5.02-49.74,11.62-93.26,30.87-126.72,55.38,1.72-3.16,3.56-6.25,5.52-9.3,3.69-2.5,7.51-4.95,11.45-7.34,32.22-19.6,70.21-34.39,111.64-43.76Z"/>
        <path class="cls-9" d="M296.44,269.16c.35,1.44.77,2.83,1.28,4.22-47.53,11.27-89.28,29.59-121.63,52.86-.95-1.15-1.86-2.3-2.72-3.47,32.79-23.62,75-42.21,123.07-53.61Z"/>
        <path class="cls-9" d="M297.23,244.37c-.53,1.59-.95,3.2-1.28,4.84-51.82,12.4-96.68,33.17-130.01,59.51,1.41-3.03,2.94-6.03,4.57-8.97,33.46-24.51,76.97-43.76,126.72-55.38Z"/>
        <path class="cls-1" d="M318.34,466.73c-10.63-1.94-21.04-4.22-31.23-6.85-13.99-4.66-27.58-10.5-40.55-17.5,5.5,2.1,11.12,4.07,16.86,5.92,17.64,8.02,36.11,14.19,54.92,18.43Z"/>
        <path class="cls-9" d="M295.53,264.76c.22,1.48.53,2.96.91,4.4-48.07,11.4-90.27,29.99-123.07,53.61-.93-1.17-1.81-2.36-2.63-3.56,5.55-4,11.38-7.87,17.5-11.6,31.07-18.98,67.56-33.44,107.29-42.85Z"/>
        <path class="cls-9" d="M295.53,264.76c-39.73,9.41-76.22,23.87-107.29,42.85-6.12,3.73-11.96,7.6-17.5,11.6-2.06-2.83-3.93-5.7-5.68-8.62.29-.62.57-1.26.88-1.88,33.33-26.34,78.19-47.12,130.01-59.51-.6,2.94-.91,5.92-.91,8.95,0,2.23.18,4.44.49,6.61Z"/>
        <path class="cls-1" d="M298.25,550.81c-4.53.55-9.1,1.46-13.19,3.31-85.94-33.04-145.65-99.6-148.7-176.77,2.63,2.89,5.41,5.75,8.33,8.55,7.25,73.44,68.2,135.71,153.57,164.9Z"/>
        <path class="cls-1" d="M246.56,442.37c12.97,7.01,26.56,12.84,40.55,17.5-12.07-3.12-23.82-6.7-35.18-10.76-10.59-5.1-20.84-10.87-30.63-17.37,8.11,3.82,16.53,7.36,25.26,10.63Z"/>
        <path class="cls-1" d="M282.36,587.56c3.67,1.04,3.71,1.92,2.52,4.09-90.74-24.02-158.8-73.83-179.16-134.21-.53-4.42-.8-8.88-.8-13.39,0-2.48.09-4.93.24-7.38,10.19,65.97,78.67,121.88,174.01,148.81.88.99,1.92,1.72,3.18,2.08Z"/>
        <path class="cls-1" d="M284.88,591.65c-.46.84-1.1,1.88-1.81,3.18-.15.29-.31.57-.44.86-35.03-9.37-67.23-22.74-95.14-39.71-35.31-21.48-61.24-47.23-76.51-75.38-2.54-7.56-4.31-15.29-5.26-23.16,20.35,60.37,88.42,110.19,179.16,134.21Z"/>
        <path class="cls-9" d="M285.06,554.13c-1.41.66-2.78,1.44-4.07,2.34-5.26,3.76-8.77,10.65-6.83,16.82,1.22,3.82,2.34,9.17,5.02,12.2-95.34-26.94-163.82-82.85-174.01-148.81,1.55-23.42,10.39-45.72,25.19-66.1,1.92,2.3,3.91,4.55,5.99,6.78,3.05,77.17,62.76,143.73,148.7,176.77Z"/>
        <path class="cls-9" d="M282.63,595.7c-3.87,7.4-4.07,10.83,6.61,16.91-90.34-23.34-158.25-72.46-178.25-132,15.27,28.15,41.19,53.9,76.51,75.38,27.91,16.97,60.11,30.34,95.14,39.71Z"/>
        <path class="cls-1" d="M263.42,448.29c-5.75-1.86-11.36-3.82-16.86-5.92-7.89-4.24-15.56-8.93-22.96-14.03.6.13,1.17.29,1.77.44,2.61,1.19,5.24,2.36,7.91,3.49,9.68,5.99,19.76,11.34,30.14,16.02Z"/>
        <path class="cls-1" d="M243.05,129.03c27.27-10.74,57.59-18.92,89.97-23.89-108.44,19.58-187.53,80.68-187.53,153.01,0,13.88,2.92,27.36,8.4,40.2-.88,1.72-1.72,3.49-2.54,5.26-6.78-14.59-10.28-29.86-10.28-45.46,0-44.24,28.04-85.68,78.98-116.64,7.34-4.46,15.01-8.62,23.01-12.49Z"/>
        <path class="cls-9" d="M229.32,429.8c1.3.86,2.63,1.68,3.96,2.48-2.67-1.13-5.3-2.3-7.91-3.49,1.33.33,2.63.69,3.96,1.02Z"/>
        <path class="cls-9" d="M229.32,429.8c-1.33-.33-2.63-.69-3.96-1.02-1.15-.51-2.28-1.04-3.4-1.59-4.02-2.81-7.98-5.77-11.82-8.86-10.41-8.53-21.04-17.9-29.81-28.24.95.64,1.92,1.26,2.89,1.88,13.75,14.45,29.3,27.09,46.1,37.83Z"/>
        <path class="cls-1" d="M221.3,431.74c9.79,6.5,20.04,12.26,30.63,17.37-10.7-3.8-21.04-8-31-12.62-5.66-4.11-11.12-8.49-16.33-13.13,5.41,2.94,10.98,5.72,16.71,8.38Z"/>
        <path class="cls-1" d="M223.6,428.34c7.4,5.1,15.07,9.79,22.96,14.03-8.73-3.27-17.15-6.81-25.26-10.63-7.38-4.88-14.47-10.17-21.22-15.89,6.98,4,14.3,7.78,21.88,11.34.55.4,1.08.77,1.64,1.15Z"/>
        <path class="cls-1" d="M225.37,428.78c-.6-.15-1.17-.31-1.77-.44-.55-.38-1.08-.75-1.64-1.15,1.13.55,2.25,1.08,3.4,1.59Z"/>
        <path class="cls-9" d="M243.05,129.03c-8,3.87-15.67,8.02-23.01,12.49-50.94,30.96-78.98,72.4-78.98,116.64,0,15.6,3.49,30.87,10.28,45.46-1.44,3.07-2.76,6.19-3.98,9.33-6.59,6.03-12.6,12.29-17.97,18.72-12.8-17.55-21.15-36.51-24.22-56.37,4.02-61.21,57.99-114.83,137.88-146.25Z"/>
        <path class="cls-9" d="M210.14,418.33c3.85,3.09,7.8,6.06,11.82,8.86-7.58-3.56-14.89-7.34-21.88-11.34,0,0-.02,0-.02-.02-8.11-6.87-15.71-14.34-22.67-22.47,4.44,6.21,9.3,12.09,14.5,17.64-14.98-9.22-28.38-19.4-39.89-30.34-.2-3.16-.31-6.32-.31-9.52,0-.82,0-1.64.04-2.43,8.62,7.49,18.14,14.65,28.6,21.39,8.77,10.34,19.4,19.71,29.81,28.24Z"/>
        <path class="cls-1" d="M204.6,423.37c5.22,4.64,10.67,9.02,16.33,13.13-11.45-5.28-22.36-11.09-32.68-17.39-5.19-3.16-10.17-6.43-14.94-9.79-.91-1.08-1.81-2.19-2.7-3.29.62.93,1.24,1.83,1.88,2.74-3.78-2.67-7.43-5.39-10.94-8.18-2.54-3.82-4.97-7.71-7.27-11.67l.11-.13c14.36,12.77,31.25,24.4,50.21,34.58Z"/>
        <path class="cls-1" d="M221.3,431.74c-5.72-2.65-11.29-5.44-16.71-8.38-4.44-3.93-8.68-8.04-12.71-12.38,2.67,1.66,5.39,3.27,8.18,4.84,0,.02.02.02.02.02,6.74,5.72,13.83,11.01,21.22,15.89Z"/>
        <path class="cls-9" d="M200.07,415.83c-2.78-1.57-5.5-3.18-8.18-4.84-5.19-5.55-10.06-11.43-14.5-17.64,6.96,8.13,14.56,15.6,22.67,22.47Z"/>
        <path class="cls-1" d="M204.6,423.37c-18.96-10.19-35.84-21.81-50.21-34.58-.6-.51-1.19-1.04-1.77-1.57-.27-2.17-.46-4.35-.62-6.56,11.51,10.94,24.91,21.13,39.89,30.34,4.02,4.33,8.27,8.44,12.71,12.38Z"/>
        <path class="cls-1" d="M183.23,391.96c-.97-.62-1.94-1.24-2.89-1.88-2.83-3.29-5.44-6.7-7.8-10.19,3.43,4.15,7.01,8.18,10.7,12.07Z"/>
        <path class="cls-1" d="M173.37,322.77c.86,1.17,1.77,2.32,2.72,3.47-1.19.84-2.36,1.7-3.54,2.56-.95-1.13-1.86-2.28-2.72-3.45,1.17-.86,2.34-1.75,3.54-2.59Z"/>
        <path class="cls-1" d="M172.53,379.9c2.36,3.49,4.97,6.89,7.8,10.19-10.45-6.74-19.98-13.9-28.6-21.39,0-1.94.09-3.87.22-5.79,6.43,5.81,13.39,11.38,20.82,16.66l-.24.33Z"/>
        <path class="cls-1" d="M173.3,409.31c-.27-.18-.55-.38-.82-.55-.64-.91-1.26-1.81-1.88-2.74.88,1.1,1.79,2.21,2.7,3.29Z"/>
        <path class="cls-1" d="M170.74,319.21c.82,1.19,1.7,2.39,2.63,3.56-1.19.84-2.36,1.72-3.54,2.59-.93-1.17-1.81-2.36-2.65-3.58,1.17-.86,2.36-1.72,3.56-2.56Z"/>
        <path class="cls-9" d="M176.04,290.44c-1.97,3.05-3.8,6.14-5.52,9.3-2.76,2.01-5.46,4.09-8.09,6.19-.69-1.24-1.33-2.48-1.92-3.73.09-.24.22-.49.35-.73,4.82-3.78,9.88-7.45,15.18-11.03Z"/>
        <path class="cls-1" d="M169.83,325.36c.86,1.17,1.77,2.32,2.72,3.45-1.22.91-2.41,1.81-3.58,2.72-.95-1.15-1.86-2.28-2.72-3.43,1.17-.93,2.36-1.83,3.58-2.74Z"/>
        <path class="cls-1" d="M167.18,321.78c.84,1.22,1.72,2.41,2.65,3.58-1.22.91-2.41,1.81-3.58,2.74-.91-1.19-1.79-2.39-2.65-3.58,1.17-.91,2.36-1.81,3.58-2.74Z"/>
        <path class="cls-9" d="M170.52,299.75c-1.64,2.94-3.16,5.94-4.57,8.97-.46.35-.91.71-1.35,1.08-.77-1.28-1.48-2.56-2.17-3.87,2.63-2.1,5.33-4.18,8.09-6.19Z"/>
        <path class="cls-1" d="M170.74,319.21c-1.19.84-2.39,1.7-3.56,2.56-1.5-2.08-2.92-4.18-4.24-6.3.66-1.64,1.37-3.27,2.12-4.88,1.75,2.92,3.62,5.79,5.68,8.62Z"/>
        <path class="cls-1" d="M167.18,321.78c-1.22.93-2.41,1.83-3.58,2.74-.93-1.3-1.83-2.59-2.67-3.89.62-1.72,1.3-3.45,2.01-5.15,1.33,2.12,2.74,4.22,4.24,6.3Z"/>
        <path class="cls-9" d="M166.25,328.1c.86,1.15,1.77,2.28,2.72,3.43-5.15,4-10.03,8.11-14.63,12.35.46-2.48,1.02-4.93,1.61-7.36,3.29-2.85,6.74-5.68,10.3-8.42Z"/>
        <path class="cls-9" d="M164.6,309.8c.44-.38.88-.73,1.35-1.08-.31.62-.6,1.26-.88,1.88l-.46-.8Z"/>
        <path class="cls-1" d="M164.6,309.8l.46.8c-.75,1.61-1.46,3.25-2.12,4.88-.62-.95-1.22-1.92-1.77-2.89,1.13-.93,2.25-1.86,3.43-2.78Z"/>
        <path class="cls-9" d="M163.6,324.52c.86,1.19,1.75,2.39,2.65,3.58-3.56,2.74-7.01,5.57-10.3,8.42.64-2.56,1.35-5.1,2.14-7.62,1.79-1.48,3.62-2.94,5.5-4.38Z"/>
        <path class="cls-9" d="M160.93,320.63c.84,1.3,1.75,2.59,2.67,3.89-1.88,1.44-3.71,2.89-5.5,4.38.84-2.78,1.79-5.52,2.83-8.27Z"/>
        <path class="cls-1" d="M162.43,305.93c.69,1.3,1.39,2.59,2.17,3.87-1.17.93-2.3,1.86-3.43,2.78-.8-1.26-1.52-2.54-2.21-3.85,1.13-.95,2.3-1.88,3.47-2.81Z"/>
        <path class="cls-1" d="M161.55,400.58c-.69-.53-1.35-1.06-2.01-1.61-1.94-3.29-3.71-6.65-5.26-10.06,2.3,3.96,4.73,7.85,7.27,11.67Z"/>
        <path class="cls-1" d="M160.51,302.2c.6,1.26,1.24,2.5,1.92,3.73-1.17.93-2.34,1.86-3.47,2.81-.31-.51-.57-1.02-.84-1.55.75-1.68,1.55-3.34,2.39-4.99Z"/>
        <path class="cls-1" d="M162.94,315.48c-.71,1.7-1.39,3.43-2.01,5.15-1.15-1.68-2.21-3.38-3.23-5.08,1.15-.99,2.3-1.97,3.47-2.96.55.97,1.15,1.94,1.77,2.89Z"/>
        <path class="cls-9" d="M160.86,301.47c-.13.24-.27.49-.35.73-.07-.09-.13-.2-.15-.31.15-.13.33-.29.51-.42Z"/>
        <path class="cls-1" d="M160.35,301.89c.02.11.09.22.15.31-.84,1.66-1.64,3.31-2.39,4.99-.46-.82-.88-1.66-1.28-2.48,1.15-.97,2.32-1.9,3.51-2.83Z"/>
        <path class="cls-1" d="M160.35,301.89c-1.19.93-2.36,1.86-3.51,2.83-1.06-2.1-2.06-4.22-2.96-6.36.86-1.72,1.75-3.43,2.67-5.1,1.13,2.92,2.39,5.79,3.8,8.64Z"/>
        <path class="cls-1" d="M158.96,308.74c.69,1.3,1.41,2.59,2.21,3.85-1.17.99-2.32,1.97-3.47,2.96-.66-1.06-1.28-2.12-1.86-3.18.22-.53.44-1.06.69-1.59.8-.66,1.61-1.35,2.43-2.03Z"/>
        <path class="cls-9" d="M157.7,315.55c1.02,1.7,2.08,3.4,3.23,5.08-1.04,2.74-1.99,5.48-2.83,8.27-3.62,2.96-7.09,5.99-10.41,9.08,1.37-6.17,3.14-12.24,5.3-18.21,1.55-1.41,3.12-2.83,4.71-4.22Z"/>
        <path class="cls-1" d="M158.12,307.19c.27.53.53,1.04.84,1.55-.82.69-1.64,1.37-2.43,2.03.51-1.22,1.02-2.39,1.59-3.58Z"/>
        <path class="cls-1" d="M158.12,307.19c-.57,1.19-1.08,2.36-1.59,3.58l-1.06.93c-.77-1.35-1.48-2.7-2.17-4.04,1.15-.99,2.34-1.97,3.54-2.94.4.82.82,1.66,1.28,2.48Z"/>
        <path class="cls-1" d="M159.54,398.97c-2.06-1.64-4.04-3.31-5.99-4.99-.38-2.23-.69-4.49-.93-6.76.57.53,1.17,1.06,1.77,1.57l-.11.13c1.55,3.4,3.31,6.76,5.26,10.06Z"/>
        <path class="cls-9" d="M158.1,328.89c-.8,2.52-1.5,5.06-2.14,7.62-3.4,3.01-6.7,6.03-9.81,9.15.42-2.59.95-5.15,1.55-7.69,3.31-3.09,6.78-6.12,10.41-9.08Z"/>
        <path class="cls-1" d="M156.84,304.72c-1.19.97-2.39,1.94-3.54,2.94-.71-1.33-1.35-2.7-1.97-4.04.82-1.77,1.66-3.54,2.54-5.26.91,2.14,1.9,4.27,2.96,6.36Z"/>
        <path class="cls-9" d="M155.85,312.36c.57,1.06,1.19,2.12,1.86,3.18-1.59,1.39-3.16,2.81-4.71,4.22.86-2.5,1.83-4.95,2.85-7.4Z"/>
        <path class="cls-1" d="M156.53,310.77c-.24.53-.46,1.06-.69,1.59-.15-.22-.27-.44-.38-.66l1.06-.93Z"/>
        <path class="cls-9" d="M155.47,311.7c.11.22.22.44.38.66-1.02,2.45-1.99,4.91-2.85,7.4-4.13,3.82-8.04,7.76-11.69,11.76.8-3.07,1.68-6.12,2.67-9.15,3.65-3.65,7.47-7.2,11.49-10.67Z"/>
        <path class="cls-9" d="M155.96,336.52c-.6,2.43-1.15,4.88-1.61,7.36-2.74,2.52-5.39,5.1-7.91,7.71-.35-.35-.69-.71-1.04-1.06.2-1.64.46-3.25.75-4.86,3.12-3.12,6.41-6.14,9.81-9.15Z"/>
        <path class="cls-9" d="M153.3,307.66c.69,1.35,1.39,2.7,2.17,4.04-4.02,3.47-7.85,7.03-11.49,10.67,1.02-3.18,2.14-6.32,3.38-9.44,1.92-1.79,3.91-3.54,5.94-5.28Z"/>
        <path class="cls-1" d="M152.62,387.21c.24,2.28.55,4.53.93,6.76-3.07-2.65-6.03-5.33-8.86-8.07-.22-2.25-.4-4.51-.49-6.78,2.7,2.74,5.5,5.44,8.42,8.09Z"/>
        <path class="cls-9" d="M151.34,303.61c.62,1.35,1.26,2.72,1.97,4.04-2.03,1.75-4.02,3.49-5.94,5.28,1.22-3.14,2.54-6.25,3.98-9.33Z"/>
        <path class="cls-9" d="M154.34,343.88c-.88,4.44-1.55,8.95-1.97,13.48-2.03-1.9-4.02-3.82-5.94-5.77,2.52-2.61,5.17-5.19,7.91-7.71Z"/>
        <path class="cls-1" d="M152.38,357.36c-.2,1.83-.33,3.69-.42,5.55-2.48-2.23-4.91-4.53-7.23-6.85.09-1.02.2-2.06.35-3.07.44-.46.88-.93,1.35-1.39,1.92,1.94,3.91,3.87,5.94,5.77Z"/>
        <path class="cls-1" d="M152,380.65c.15,2.21.35,4.4.62,6.56-2.92-2.65-5.72-5.35-8.42-8.09-.15-2.19-.22-4.38-.22-6.56,2.56,2.74,5.24,5.41,8.02,8.09Z"/>
        <path class="cls-1" d="M151.96,362.9c-.13,1.92-.22,3.85-.22,5.79-2.56-2.23-5.06-4.51-7.47-6.81.09-1.94.24-3.89.46-5.83,2.32,2.32,4.75,4.62,7.23,6.85Z"/>
        <path class="cls-9" d="M151.69,371.13c0,3.2.11,6.36.31,9.52-2.78-2.67-5.46-5.35-8.02-8.09-.02-.49-.02-.95-.02-1.44,0-3.09.09-6.17.31-9.24,2.41,2.3,4.91,4.57,7.47,6.81-.04.8-.04,1.61-.04,2.43Z"/>
        <path class="cls-9" d="M152.99,319.77c-2.17,5.97-3.93,12.04-5.3,18.21-2.54,2.34-4.99,4.73-7.34,7.16-.55-.6-1.08-1.22-1.64-1.83.71-3.96,1.57-7.89,2.59-11.78,3.65-4,7.56-7.93,11.69-11.76Z"/>
        <path class="cls-9" d="M147.69,337.98c-.6,2.54-1.13,5.1-1.55,7.69-.93.91-1.86,1.83-2.76,2.76-1.02-1.08-2.03-2.19-3.03-3.29,2.34-2.43,4.8-4.82,7.34-7.16Z"/>
        <path class="cls-9" d="M146.14,345.67c-.29,1.61-.55,3.23-.75,4.86-.69-.71-1.35-1.39-2.01-2.1.91-.93,1.83-1.86,2.76-2.76Z"/>
        <path class="cls-1" d="M145.39,350.53c.35.35.69.71,1.04,1.06-.46.46-.91.93-1.35,1.39.07-.82.18-1.64.31-2.45Z"/>
        <path class="cls-1" d="M145.39,350.53c-.13.82-.24,1.64-.31,2.45-.55.57-1.1,1.17-1.66,1.77-1.04-1.04-2.08-2.1-3.07-3.16.99-1.06,2.01-2.12,3.03-3.16.66.71,1.33,1.39,2.01,2.1Z"/>
        <path class="cls-1" d="M143.43,354.75c.55-.6,1.1-1.19,1.66-1.77-.15,1.02-.27,2.06-.35,3.07-.44-.42-.88-.86-1.3-1.3Z"/>
        <path class="cls-9" d="M147.36,312.94c-1.24,3.12-2.36,6.25-3.38,9.44-4.2,4.2-8.15,8.53-11.8,12.97-.95-1.22-1.88-2.45-2.78-3.69,5.37-6.43,11.38-12.68,17.97-18.72Z"/>
        <path class="cls-1" d="M144.73,356.05c-.22,1.94-.38,3.89-.46,5.83-1.33-1.26-2.61-2.52-3.87-3.8.99-1.13,2.01-2.23,3.03-3.34.42.44.86.88,1.3,1.3Z"/>
        <path class="cls-1" d="M144.2,379.12c.09,2.28.27,4.53.49,6.78-2.92-2.81-5.7-5.66-8.33-8.55-.09-2.06-.13-4.15-.13-6.23v-.6c2.54,2.92,5.19,5.79,7.98,8.6Z"/>
        <path class="cls-9" d="M144.27,361.89c-.22,3.07-.31,6.14-.31,9.24,0,.49,0,.95.02,1.44-2.65-2.83-5.17-5.72-7.58-8.64,0-.4.02-.8.04-1.19,1.3-1.57,2.61-3.12,3.96-4.64,1.26,1.28,2.54,2.54,3.87,3.8Z"/>
        <path class="cls-1" d="M143.98,372.56c0,2.19.07,4.38.22,6.56-2.78-2.81-5.44-5.68-7.98-8.6,0-2.21.07-4.42.18-6.61,2.41,2.92,4.93,5.81,7.58,8.64Z"/>
        <path class="cls-1" d="M140.35,351.59c.99,1.06,2.03,2.12,3.07,3.16-1.02,1.1-2.03,2.21-3.03,3.34-1.06-1.04-2.08-2.1-3.07-3.16.99-1.1,2.01-2.23,3.03-3.34Z"/>
        <path class="cls-9" d="M143.98,322.37c-.99,3.03-1.88,6.08-2.67,9.15-2.21,2.41-4.33,4.86-6.34,7.34-.95-1.17-1.88-2.34-2.78-3.51,3.65-4.44,7.6-8.77,11.8-12.97Z"/>
        <path class="cls-1" d="M143.38,348.43c-1.02,1.04-2.03,2.1-3.03,3.16-.86-.91-1.72-1.83-2.54-2.74.07-.42.11-.84.18-1.26.75-.82,1.55-1.64,2.36-2.45.99,1.1,2.01,2.21,3.03,3.29Z"/>
        <path class="cls-1" d="M140.35,345.14c-.82.82-1.61,1.64-2.36,2.45.22-1.44.46-2.85.73-4.29.55.62,1.08,1.24,1.64,1.83Z"/>
        <path class="cls-9" d="M137.33,354.93c.99,1.06,2.01,2.12,3.07,3.16-1.35,1.52-2.65,3.07-3.96,4.64.13-2.5.33-4.99.57-7.45.11-.11.22-.22.31-.35Z"/>
        <path class="cls-9" d="M141.3,331.52c-1.02,3.89-1.88,7.82-2.59,11.78-1.28-1.46-2.54-2.94-3.76-4.44,2.01-2.48,4.13-4.93,6.34-7.34Z"/>
        <path class="cls-1" d="M137.81,348.85c.82.91,1.68,1.83,2.54,2.74-1.02,1.1-2.03,2.23-3.03,3.34-.09-.09-.18-.15-.24-.24.2-1.97.44-3.89.73-5.83Z"/>
        <path class="cls-1" d="M138.72,343.3c-.27,1.44-.51,2.85-.73,4.29-.24.24-.46.46-.69.71-1.77-1.97-3.47-3.93-5.13-5.94.91-1.17,1.83-2.32,2.78-3.49,1.22,1.5,2.48,2.98,3.76,4.44Z"/>
        <path class="cls-1" d="M137.3,348.3c.22-.24.44-.46.69-.71-.07.42-.11.84-.18,1.26-.18-.2-.35-.38-.51-.55Z"/>
        <path class="cls-1" d="M137.3,348.3c.15.18.33.35.51.55-.29,1.94-.53,3.87-.73,5.83-.95-1.02-1.9-2.03-2.81-3.05.97-1.13,1.99-2.23,3.03-3.34Z"/>
        <path class="cls-9" d="M137.33,354.93c-.09.13-.2.24-.31.35l.07-.6c.07.09.15.15.24.24Z"/>
        <path class="cls-9" d="M137.08,354.68l-.07.6c-1.33,1.5-2.61,3.03-3.87,4.55-.95-1.22-1.88-2.45-2.76-3.69,1.24-1.52,2.54-3.03,3.89-4.51.91,1.02,1.86,2.03,2.81,3.05Z"/>
        <path class="cls-1" d="M137.3,348.3c-1.04,1.1-2.06,2.21-3.03,3.34-1.7-1.83-3.34-3.71-4.88-5.59.91-1.24,1.83-2.48,2.78-3.69,1.66,2.01,3.36,3.98,5.13,5.94Z"/>
        <path class="cls-9" d="M137.02,355.28c-.24,2.45-.44,4.95-.57,7.45-.15.2-.33.42-.51.64-.95-1.17-1.88-2.36-2.78-3.54,1.26-1.52,2.54-3.05,3.87-4.55Z"/>
        <path class="cls-9" d="M135.93,363.37c.18-.22.35-.44.51-.64-.02.4-.04.8-.04,1.19-.15-.18-.31-.38-.46-.55Z"/>
        <path class="cls-1" d="M135.93,363.37c.15.18.31.38.46.55-.11,2.19-.18,4.4-.18,6.61-1.04-1.19-2.06-2.41-3.07-3.65.91-1.17,1.83-2.34,2.78-3.51Z"/>
        <path class="cls-1" d="M136.22,371.13c0,2.08.04,4.18.13,6.23-2.08-2.23-4.07-4.49-5.99-6.78.91-1.24,1.83-2.48,2.78-3.69,1.02,1.24,2.03,2.45,3.07,3.65v.6Z"/>
        <path class="cls-1" d="M133.15,359.83c.91,1.17,1.83,2.36,2.78,3.54-.95,1.17-1.88,2.34-2.78,3.51-.97-1.15-1.9-2.34-2.83-3.51.91-1.19,1.86-2.36,2.83-3.54Z"/>
        <path class="cls-9" d="M134.28,351.63c-1.35,1.48-2.65,2.98-3.89,4.51-1.39-1.92-2.74-3.85-4.02-5.81.99-1.44,2.01-2.87,3.03-4.29,1.55,1.88,3.18,3.76,4.88,5.59Z"/>
        <path class="cls-1" d="M132.18,335.35c.91,1.17,1.83,2.34,2.78,3.51-.95,1.17-1.88,2.32-2.78,3.49-.97-1.17-1.92-2.34-2.83-3.51.93-1.17,1.86-2.34,2.83-3.49Z"/>
        <path class="cls-1" d="M130.39,356.14c.88,1.24,1.81,2.48,2.76,3.69-.97,1.17-1.92,2.34-2.83,3.54-.97-1.24-1.9-2.48-2.81-3.71.93-1.19,1.88-2.34,2.87-3.51Z"/>
        <path class="cls-1" d="M133.15,366.88c-.95,1.22-1.88,2.45-2.78,3.69-.97-1.17-1.92-2.34-2.85-3.51.91-1.24,1.83-2.48,2.81-3.69.93,1.17,1.86,2.36,2.83,3.51Z"/>
        <path class="cls-1" d="M129.39,331.66c.91,1.24,1.83,2.48,2.78,3.69-.97,1.15-1.9,2.32-2.83,3.49-.97-1.22-1.9-2.43-2.83-3.67.93-1.17,1.88-2.34,2.87-3.51Z"/>
        <path class="cls-1" d="M132.18,342.35c-.95,1.22-1.88,2.45-2.78,3.69-.99-1.17-1.94-2.32-2.87-3.51.93-1.24,1.88-2.48,2.83-3.69.91,1.17,1.86,2.34,2.83,3.51Z"/>
        <path class="cls-1" d="M130.39,356.14c-.99,1.17-1.94,2.32-2.87,3.51-1.3-1.75-2.56-3.51-3.78-5.3.86-1.35,1.75-2.7,2.63-4.02,1.28,1.97,2.63,3.89,4.02,5.81Z"/>
        <path class="cls-9" d="M127.51,367.06c.93,1.17,1.88,2.34,2.85,3.51-14.81,20.38-23.65,42.67-25.19,66.1-.88-5.64-1.33-11.36-1.33-17.13,0-1.17.02-2.32.07-3.49,4.22-17.19,12.26-33.63,23.6-48.99Z"/>
        <path class="cls-1" d="M129.39,331.66c-.99,1.17-1.94,2.34-2.87,3.51-9.17-12.38-16.2-25.48-20.77-39.12-.55-4.42-.82-8.88-.82-13.39,0-2.48.09-4.93.24-7.38,3.07,19.87,11.43,38.83,24.22,56.37Z"/>
        <path class="cls-9" d="M126.52,342.53c.93,1.19,1.88,2.34,2.87,3.51-1.02,1.41-2.03,2.85-3.03,4.29-.88-1.33-1.72-2.65-2.56-4,.88-1.28,1.79-2.54,2.72-3.8Z"/>
        <path class="cls-1" d="M127.51,359.66c.91,1.24,1.83,2.48,2.81,3.71-.97,1.22-1.9,2.45-2.81,3.69-.97-1.22-1.92-2.45-2.85-3.69.91-1.26,1.88-2.5,2.85-3.71Z"/>
        <path class="cls-1" d="M126.52,335.17c.93,1.24,1.86,2.45,2.83,3.67-.95,1.22-1.9,2.45-2.83,3.69-.97-1.22-1.92-2.43-2.83-3.67.88-1.24,1.83-2.48,2.83-3.69Z"/>
        <path class="cls-1" d="M127.51,359.66c-.97,1.22-1.94,2.45-2.85,3.71-1.19-1.59-2.36-3.2-3.49-4.84.84-1.39,1.68-2.78,2.56-4.18,1.22,1.79,2.48,3.56,3.78,5.3Z"/>
        <path class="cls-9" d="M124.66,363.37c.93,1.24,1.88,2.48,2.85,3.69-11.34,15.36-19.38,31.8-23.6,48.99.22-7.67,1.26-15.23,3.03-22.65,4.53-10.32,10.45-20.38,17.72-30.03Z"/>
        <path class="cls-9" d="M126.52,342.53c-.93,1.26-1.83,2.52-2.72,3.8-.86-1.41-1.7-2.83-2.5-4.24.75-1.08,1.55-2.17,2.39-3.23.91,1.24,1.86,2.45,2.83,3.67Z"/>
        <path class="cls-1" d="M126.52,335.17c-.99,1.22-1.94,2.45-2.83,3.69-4.84-6.39-9.06-12.93-12.68-19.62-2.56-7.56-4.33-15.31-5.26-23.18,4.57,13.64,11.6,26.74,20.77,39.12Z"/>
        <path class="cls-1" d="M126.37,350.33c-.88,1.33-1.77,2.67-2.63,4.02-.91-1.33-1.79-2.7-2.63-4.04.88-1.35,1.77-2.65,2.7-3.98.84,1.35,1.68,2.67,2.56,4Z"/>
        <path class="cls-9" d="M121.17,358.53c1.13,1.64,2.3,3.25,3.49,4.84-7.27,9.66-13.19,19.71-17.72,30.03,2.85-12.02,7.67-23.69,14.23-34.87Z"/>
        <path class="cls-1" d="M123.74,354.35c-.88,1.39-1.72,2.78-2.56,4.18-.95-1.33-1.83-2.65-2.72-4v-.02c.86-1.41,1.75-2.81,2.65-4.2.84,1.35,1.72,2.72,2.63,4.04Z"/>
        <path class="cls-1" d="M123.8,346.33c-.93,1.33-1.81,2.63-2.7,3.98-.91-1.41-1.77-2.83-2.59-4.24.91-1.33,1.81-2.67,2.78-3.98.8,1.41,1.64,2.83,2.5,4.24Z"/>
        <path class="cls-9" d="M111.01,319.24c3.62,6.7,7.85,13.24,12.68,19.62-.84,1.06-1.64,2.14-2.39,3.23-4.22-7.43-7.67-15.05-10.3-22.85Z"/>
        <path class="cls-1" d="M121.3,342.09c-.97,1.3-1.88,2.65-2.78,3.98-9.08-15.4-14.94-31.76-17.08-48.73,2.5,7.43,5.68,14.74,9.57,21.9,2.63,7.8,6.08,15.43,10.3,22.85Z"/>
        <path class="cls-1" d="M118.45,354.53c.88,1.35,1.77,2.67,2.72,4-6.56,11.18-11.38,22.85-14.23,34.87-3.16,7.16-5.64,14.47-7.43,21.88.77-21.33,7.4-41.77,18.94-60.75Z"/>
        <path class="cls-1" d="M121.11,350.31c-.91,1.39-1.79,2.78-2.65,4.2-.93-1.41-1.81-2.81-2.67-4.22.88-1.41,1.79-2.83,2.74-4.22.82,1.41,1.68,2.83,2.59,4.24Z"/>
        <path class="cls-1" d="M118.45,354.51v.02c-11.54,18.98-18.17,39.42-18.94,60.75-1.72,7.2-2.81,14.5-3.23,21.88-.86-5.81-1.28-11.69-1.28-17.61,0-24.09,7.12-47.47,20.77-69.26.86,1.41,1.75,2.81,2.67,4.22Z"/>
        <path class="cls-1" d="M118.52,346.06c-.95,1.39-1.86,2.81-2.74,4.22-12.95-21.33-19.69-44.13-19.69-67.62,0-2.3.07-4.6.2-6.89,1.06,7.29,2.78,14.47,5.15,21.57,2.14,16.97,8,33.33,17.08,48.73Z"/>
        <path class="cls-1" d="M105.75,296.05c.93,7.87,2.7,15.62,5.26,23.18-3.89-7.16-7.07-14.47-9.57-21.9-.62-4.84-.93-9.72-.93-14.67,0-2.41.07-4.8.22-7.16,1.04,6.96,2.72,13.81,5.02,20.55Z"/>
        <path class="cls-1" d="M105.72,457.44c.95,7.87,2.72,15.6,5.26,23.16-3.87-7.16-7.07-14.45-9.55-21.88-.62-4.84-.93-9.75-.93-14.67,0-2.41.07-4.8.22-7.16,1.04,6.96,2.72,13.83,4.99,20.55Z"/>
        <path class="cls-1" d="M105.17,275.28c-.15,2.45-.24,4.91-.24,7.38,0,4.51.27,8.97.82,13.39-2.3-6.74-3.98-13.59-5.02-20.55.44-7.05,1.5-14.01,3.18-20.84-.04,1.17-.07,2.32-.07,3.49,0,5.77.44,11.49,1.33,17.13Z"/>
        <path class="cls-1" d="M105.17,436.67c-.15,2.45-.24,4.91-.24,7.38,0,4.51.27,8.97.8,13.39-2.28-6.72-3.96-13.59-4.99-20.55.44-7.05,1.5-14.01,3.18-20.84-.04,1.17-.07,2.32-.07,3.49,0,5.77.44,11.49,1.33,17.13Z"/>
        <path class="cls-1" d="M106.94,232.01c-1.77,7.43-2.81,14.98-3.03,22.65-1.68,6.83-2.74,13.79-3.18,20.84-.86-5.72-1.3-11.49-1.3-17.35,0-1.44.02-2.85.09-4.27,1.79-7.4,4.27-14.72,7.43-21.88Z"/>
        <path class="cls-1" d="M106.94,393.4c-1.77,7.43-2.81,14.98-3.03,22.65-1.68,6.83-2.74,13.79-3.18,20.84-.86-5.7-1.3-11.49-1.3-17.35,0-1.44.02-2.85.09-4.27,1.79-7.4,4.27-14.72,7.43-21.88Z"/>
        <path class="cls-1" d="M100.73,275.5c-.15,2.36-.22,4.75-.22,7.16,0,4.95.31,9.83.93,14.67-2.36-7.09-4.09-14.28-5.15-21.57.42-7.38,1.5-14.67,3.23-21.88-.07,1.41-.09,2.83-.09,4.27,0,5.86.44,11.62,1.3,17.35Z"/>
        <path class="cls-1" d="M100.73,436.89c-.15,2.36-.22,4.75-.22,7.16,0,4.93.31,9.83.93,14.67-2.36-7.09-4.09-14.28-5.15-21.57.42-7.38,1.5-14.67,3.23-21.88-.07,1.41-.09,2.83-.09,4.27,0,5.86.44,11.65,1.3,17.35Z"/>
      </g>
      <g>
        <text class="cls-6" transform="translate(137.49 750.24)"><tspan x="0" y="0">TPU</tspan></text>
        <text class="cls-5" transform="translate(137.49 750.24)"><tspan x="0" y="0">TPU</tspan></text>
        <g class="cls-11">
          <g>
            <path class="cls-10" d="M292.74,549.6h-142.56c-2.58,0-4.9.96-6.71,2.77-1.81,1.81-2.77,4.13-2.77,6.71v36.72c0,2.59.96,4.91,2.77,6.71,1.81,1.81,4.13,2.77,6.71,2.77h38.34c1.49,0,2.16.53,2.53.93.65.7.96,1.51.96,2.55v135c0,2.58.96,4.91,2.77,6.71,1.81,1.81,4.13,2.77,6.72,2.77h40.5c2.8,0,5.19-.98,6.92-2.85,1.7-1.82,2.56-4.06,2.56-6.63v-135c0-1.01.31-1.77,1.01-2.47.7-.7,1.46-1.01,2.47-1.01h37.8c2.8,0,5.19-.98,6.92-2.85,1.7-1.83,2.56-4.06,2.56-6.63v-36.72c0-2.57-.86-4.8-2.56-6.64-1.74-1.86-4.13-2.84-6.92-2.84Z"/>
            <path class="cls-10" d="M462.68,571.82c-6.83-6.91-14.96-12.4-24.18-16.31-9.24-3.92-19.22-5.91-29.66-5.91h-82.62c-2.58,0-4.9.96-6.71,2.77-1.81,1.81-2.77,4.13-2.77,6.71v184.68c0,2.58.95,4.9,2.75,6.7,1.8,1.82,4.12,2.78,6.7,2.78h40.57c2.57,0,4.89-.96,6.69-2.77,1.8-1.81,2.76-4.13,2.76-6.71v-40.23c0-1.01.31-1.77,1.01-2.46.7-.7,1.47-1.02,2.48-1.02h23.55c13.47,0,25.44-1.93,35.56-5.73,10.18-3.81,18.81-9.12,25.66-15.78,6.88-6.67,12.09-14.68,15.48-23.79,3.36-9.03,5.06-18.87,5.06-29.26s-2.04-20.39-6.06-29.56c-4-9.12-9.48-17.23-16.27-24.12ZM421.37,638.5c-2.59,3.59-6.72,5.33-12.62,5.33h-29.03c-1.03,0-1.8-.31-2.5-1.01-.7-.69-1.01-1.44-1.01-2.43v-31.67c0-.99.31-1.74,1.01-2.43.71-.7,1.48-1.01,2.5-1.01h25.5c3.34,0,6.3.58,8.78,1.73,2.52,1.17,4.67,2.7,6.39,4.55,1.7,1.83,3,3.97,3.85,6.35.87,2.44,1.32,4.94,1.32,7.44,0,4.94-1.37,9.24-4.18,13.14Z"/>
            <path class="cls-10" d="M675.57,552.64c-1.81-1.81-4.12-2.77-6.69-2.77h-40.57c-2.57,0-4.89.96-6.7,2.78-1.8,1.81-2.75,4.13-2.75,6.7v109.35c0,6.52-1.04,11.94-3.08,16.09-2.06,4.18-4.57,7.47-7.46,9.79-2.92,2.35-6.12,4.02-9.51,4.99-3.51,1-6.7,1.51-9.48,1.51s-5.97-.51-9.48-1.51c-3.41-.97-6.67-2.66-9.69-5.01-2.96-2.31-5.51-5.6-7.56-9.76-2.04-4.15-3.08-9.56-3.08-16.09v-109.35c0-2.57-.95-4.89-2.76-6.71-1.81-1.81-4.12-2.77-6.69-2.77h-40.57c-2.57,0-4.89.96-6.7,2.78-1.8,1.81-2.75,4.13-2.75,6.7v109.35c0,13.11,2.16,25.2,6.41,35.93,4.27,10.79,10.4,20.14,18.22,27.77,7.8,7.63,17.31,13.62,28.25,17.8,10.9,4.16,23.14,6.27,36.39,6.27s25.48-2.11,36.38-6.27c10.94-4.18,20.45-10.17,28.26-17.8,7.82-7.65,13.91-17,18.08-27.79,4.16-10.74,6.27-22.82,6.27-35.91v-109.35c0-2.57-.95-4.89-2.76-6.71Z"/>
          </g>
        </g>
      </g>
    </g>
  </g>
</svg>